<svg xmlns="http://www.w3.org/2000/svg" xmlns:xlink="http://www.w3.org/1999/xlink" width="444" height="320.004" viewBox="0 0 444 320.004">
  <defs>
    <clipPath id="clip-path">
      <rect id="Rectangle_20376" data-name="Rectangle 20376" width="87.567" height="13.056"/>
    </clipPath>
    <clipPath id="clip-path-2">
      <rect id="Rectangle_20377" data-name="Rectangle 20377" width="340.716" height="13.056"/>
    </clipPath>
  </defs>
  <g id="Group_54646" data-name="Group 54646" transform="translate(-8055.897 -121.695)">
    <path id="Path_55782" data-name="Path 55782" d="M243.145,146.756a16.645,16.645,0,0,0,2.973-9.3c0-12.076-13.872-21.865-30.984-21.865s-30.984,9.789-30.984,21.865a17.216,17.216,0,0,0,4.33,11.107c-24.434,2.241-40.724,6.251-40.724,10.828,0,7.026,38.368,12.721,85.7,12.721s85.7-5.7,85.7-12.721c0-6.539-33.241-11.921-76-12.637" transform="translate(7925.21 6.103)" fill="#d1f4ff"/>
    <path id="Path_55783" data-name="Path 55783" d="M463.084,130.6a8.036,8.036,0,0,0,1.368-4.447c0-4.754-4.317-8.668-9.882-9.223a12.8,12.8,0,0,0,.17-2.063c0-10.228-12.333-18.71-28.492-20.309a21.839,21.839,0,1,0-43.567-2.218,43.1,43.1,0,0,0-16.336-3.119c-18.273,0-33.088,10.7-33.088,23.894,0,6.57,3.674,12.519,9.617,16.837-21.781,1.946-35.81,4.981-35.81,8.392,0,5.872,41.469,10.63,92.625,10.63s92.623-4.758,92.623-10.63c0-3.054-11.247-5.807-29.228-7.746m-69.831-3.588q.447.37.921.726c-.564,0-1.123.009-1.685.013q.392-.363.764-.739" transform="translate(7921.707 91.237)" fill="#d1f4ff"/>
    <path id="Path_55784" data-name="Path 55784" d="M559.13,135.881c2.144-1.307,3.432-2.968,3.432-4.779,0-3.933-6.056-7.17-13.83-7.578-.623-10.292-11.008-18.488-23.766-18.488a25.947,25.947,0,0,0-18.82,7.554,9.169,9.169,0,0,0-5.9-2.108c-4.853,0-8.786,3.622-8.786,8.09a7.425,7.425,0,0,0,.152,1.468c-8.243.413-14.745,5.061-14.745,10.745a8.116,8.116,0,0,0,1.791,4.957c-13.639,1.533-22.324,3.842-22.324,6.425,0,4.617,27.743,8.36,61.967,8.36s61.967-3.743,61.967-8.36c0-2.507-8.187-4.754-21.137-6.287" transform="translate(7904.732 27.689)" fill="#d1f4ff"/>
    <g id="Group_54660" data-name="Group 54660" transform="translate(8055.897 424.313)" opacity="0.1">
      <g id="Group_54659" data-name="Group 54659" transform="translate(0 0)">
        <g id="Group_54658" data-name="Group 54658" clip-path="url(#clip-path)">
          <path id="Path_55785" data-name="Path 55785" d="M298.017,238.715c0,3.606-19.6,6.529-43.784,6.529s-43.784-2.923-43.784-6.529,19.6-6.529,43.784-6.529,43.784,2.923,43.784,6.529" transform="translate(-210.451 -232.188)"/>
        </g>
      </g>
    </g>
    <g id="Group_54663" data-name="Group 54663" transform="translate(8159.182 424.313)" opacity="0.1">
      <g id="Group_54662" data-name="Group 54662" transform="translate(0 0)">
        <g id="Group_54661" data-name="Group 54661" clip-path="url(#clip-path-2)">
          <path id="Path_55786" data-name="Path 55786" d="M621.169,238.715c0,3.606-76.271,6.529-170.358,6.529s-170.358-2.923-170.358-6.529,76.271-6.529,170.358-6.529,170.358,2.923,170.358,6.529" transform="translate(-280.454 -232.188)"/>
        </g>
      </g>
    </g>
    <path id="Path_55787" data-name="Path 55787" d="M522.662,242.2s-3.97-2.091-17.268-2.607-28.219,3.871-31.953,3.414-7.848,2.583-12.445-1.529.356-15.164.356-15.164l10.034.988L479.632,229s11.756-2.923,18.119.816c7.32,4.3,9.732.242,9.732.242l12.6,6.63Z" transform="translate(7963.629 189.334)" fill="#ffd1b2"/>
    <path id="Path_55788" data-name="Path 55788" d="M489.027,232.018a3.233,3.233,0,0,1,.693-3.268c1.4-1.285,2.561-1.871,5.944-1.528s7.466-.249,9.1-1.07l1.632-.82.819,1.048s-3.669,2.282-4.6,2.752a6.371,6.371,0,0,0-1.514,1.053,11.084,11.084,0,0,1,5.018,1.272c2.1,1.279,1.7,2.5,3.336,5.183s2.749,3.435,3.1,4.717-.131,2.548-4.06,1.312l-1.946-.773s-4.268-5.3-9.931-7.56-7.587-2.316-7.587-2.316" transform="translate(7977.8 188.866)" fill="#4d94bf"/>
    <path id="Path_55789" data-name="Path 55789" d="M452.182,168.006a15.344,15.344,0,0,0-4.673,12.05c.493,7.622,34.181,11.31,34.181,11.31l10.328-7.622s1.229-.738,1.722-3.935-.246-7.623-4.673-14.016-10.819-14.508-14.508-15.738-22.378,17.951-22.378,17.951" transform="translate(7958.131 153.052)" fill="#333"/>
    <path id="Path_55790" data-name="Path 55790" d="M453.487,172.009l2.582,4.242,4.426,2.766,5.717-2.213,2.766-5.164-1.291-4.242-13.647-.738-1.291,3.135Z" transform="translate(7960.638 160.974)" fill="#fbb98d"/>
    <path id="Path_55791" data-name="Path 55791" d="M452.32,181.191v21.516l12.05,10.943,6.147-.984,3.075-23.729L470.763,175.9l-9.221-.369-7.255.369-2.7,2.827Z" transform="translate(7960.083 165.193)" fill="#f2f2f2"/>
    <path id="Path_55792" data-name="Path 55792" d="M453.274,168.036s4.959,8.606,7.91,9.468c0,0-5.071,8.438-5.931,8.929s-2.552-6.1-2.8-8.069-.028-8.621-.028-8.621Z" transform="translate(7960.442 161.628)" fill="#fff"/>
    <path id="Path_55793" data-name="Path 55793" d="M465.559,168.589s-1.294,2.325-1.462,2.629c-.8,1.447-3.326,5.689-5.764,6.4,0,0,4.3,9.345,5.409,8.239s3.566-9.1,3.812-9.714,1.475-5.778,1.475-5.778l-2.573-2.575Z" transform="translate(7963.292 161.511)" fill="#fff"/>
    <path id="Path_55794" data-name="Path 55794" d="M458.813,175.313a25.878,25.878,0,0,0-2.459,3.32c0,.369-.369,2.951.615,3.2a19.076,19.076,0,0,0,3.811,0L461.4,179l-2.091-4.549Z" transform="translate(7962.319 164.679)" fill="#4d94bf"/>
    <path id="Path_55795" data-name="Path 55795" d="M457.973,207.166s-1.229-7.377-1.844-14.263a46.32,46.32,0,0,1,.984-13.4l3.628-.153a53.929,53.929,0,0,1,1.751,9.313c.124,3.444-.584,18.136-.584,19s-1.844,1.107-1.844,1.107Z" transform="translate(7962.178 167.006)" fill="#4d94bf"/>
    <path id="Path_55796" data-name="Path 55796" d="M456.2,168.387s-5.533.122-7.623,1.229-4.549,7.746-5.533,13.4-2.213,15.368-2.213,15.368l9.714,3.075s1.475-8.484,1.72-8.115.369,10.081.369,10.081L461,209.083s.122-15.492.122-18.811-2.7-21.885-2.7-21.885a13.331,13.331,0,0,0-2.213,0" transform="translate(7954.973 161.769)" fill="#18587a"/>
    <path id="Path_55797" data-name="Path 55797" d="M450.9,169.493s-1.229,10.081-.86,10.7,3.32,2.091,3.32,2.091-3.566.86-3.444,1.72,5.41,24.222,5.41,24.222l2.828,2.459s-.246-22.746-.738-26.066-3.32-16.229-3.32-16.229a11.881,11.881,0,0,0-2.213,0,1.117,1.117,0,0,0-.984,1.107" transform="translate(7959.29 161.769)" fill="#023b4f"/>
    <path id="Path_55798" data-name="Path 55798" d="M464.456,168.865l.246,1.844s-3.075,11.188-2.951,17.951,1.475,25.327,1.475,25.327l10.573,4.919,4.426-6.886,1.968-11.681-8.239-28.646-4.8-3.075Z" transform="translate(7964.916 161.905)" fill="#00415d"/>
    <path id="Path_55799" data-name="Path 55799" d="M464.833,168.536s8.852,1.722,11.188,2.951,4.673,1.107,6.148,10.7,3.689,27.295,3.442,29.508-3.565,12.05-3.565,12.05l-12.418-4.673a15.706,15.706,0,0,1,1.353-4.426c.86-1.353,1.351-3.32,1.106-3.811s-.493-1.475.738-1.475a2.945,2.945,0,0,0,1.967-.738,1.536,1.536,0,0,1-2.213-.615,18.3,18.3,0,0,1-1.475-5.655c-.122-1.6-1.475-7.255-1.475-7.255l-3.689-25.082Z" transform="translate(7966.383 161.866)" fill="#18587a"/>
    <path id="Path_55800" data-name="Path 55800" d="M464.219,167.792l.441,3.311s-2.827,12.3-2.827,13.894,1.351,29.386,1.351,29.386l3.688,1.6s5.042-26.557,5.042-27.786-4.057-3.689-4.057-3.689,3.32-2.459,3.442-3.32-2.213-10.328-2.951-11.189a16.549,16.549,0,0,0-3.268-2.2Z" transform="translate(7964.956 161.512)" fill="#023b4f"/>
    <path id="Path_55801" data-name="Path 55801" d="M451.083,163.483a56.233,56.233,0,0,0,1.353,8.73c.86,2.7,1.967,5.655,8.975,5.9s10.205-4.181,10.819-6.639a19.44,19.44,0,0,0,.369-5.41s3.2-.369,2.951-2.951-1.72-2.7-2.951-2.336-1.475.738-1.475.738,1.475-5.779,1.107-6.27-13.892-2.46-13.892-2.46Z" transform="translate(7959.846 154.378)" fill="#ffd1b2"/>
    <path id="Path_55802" data-name="Path 55802" d="M474.418,150.665s-4.8-2.951-14.385-1.6-10.7,9.221-11.434,11.434-1.353,6.024-.122,6.393,8.484,0,11.8-2.091a14.235,14.235,0,0,0,4.549-4.18s-2.459,5.286-1.229,5.286,5.04-4.8,5.04-4.8-1.72,3.935-.245,3.689,3.32-2.827,3.32-2.827-.862,2.7.122,2.089a12.317,12.317,0,0,1,1.722-1.107c.614-.245,2.827-.491,3.2-1.967s-1.844-6.886-1.844-6.886Z" transform="translate(7958.272 152.441)" fill="#333"/>
    <path id="Path_55803" data-name="Path 55803" d="M456.5,163.149v4.057a1.789,1.789,0,0,0,2.459-.246l-.862-4.18s-1.475-.738-1.6.369" transform="translate(7962.42 159.015)" fill="#fbb98d"/>
    <path id="Path_55804" data-name="Path 55804" d="M460.725,238.757s11.364.149,20.591-4.788l-1.646-16.87-23.45-1.245-.72,19.5Z" transform="translate(7961.945 184.361)" fill="#18587a"/>
    <path id="Path_55805" data-name="Path 55805" d="M348.833,111.9l1.967,5.41s9.59-.984,10.328-1.968-.738-6.639-.738-6.639Z" transform="translate(7911.236 133.42)" fill="#c1845b"/>
    <path id="Path_55806" data-name="Path 55806" d="M367.021,228.345s0,2.46-6.393,4.426-13.279,2.46-12.787,4.426,0,2.951,1.722,3.442,12.295.984,16.474-.491,4.673-5.655,5.164-2.7.738,3.933.738,3.933,4.181.493,5.657-.245,1.229-3.444.983-6.886-3.933-7.377-3.933-7.377Z" transform="translate(7910.752 189.598)" fill="#333"/>
    <path id="Path_55807" data-name="Path 55807" d="M376.782,224.608a7.447,7.447,0,0,0-1.229,6.148c.738,3.933,2.951,14.508,3.442,15.737s5.164.984,6.393-.491,1.722-10.574,1.475-13.525a58.29,58.29,0,0,0-1.967-8.606Z" transform="translate(7923.859 188.172)" fill="#333"/>
    <path id="Path_55808" data-name="Path 55808" d="M371.409,179.22s-10.307,26.112-11.29,27.094a19.247,19.247,0,0,0-1.968,2.46s3.935-.738,3.444.984-1.475,2.7-.738,2.7,3.467,4.953,6.418,10.363,12.787,27.541,13.771,30.984c0,0-5.657,3.2-11.065,2.7,0,0-23.387-32.739-27.322-38.15s-6.147-5.9-5.655-10.819,8.339-32.5,9.57-35.7,24.835,7.377,24.835,7.377" transform="translate(7905.58 163.151)" fill="#023b4f"/>
    <path id="Path_55809" data-name="Path 55809" d="M361.037,174.935s2.895,13.077,3.879,17.749,5.9,14.261,8.606,19.425,8.852,43.526,8.852,43.526,6.948,3.442,11.374,0c0,0-4-55.083-4.242-58.771s-.493-25.328-.493-25.328Z" transform="translate(7917.038 163.292)" fill="#023b4f"/>
    <path id="Path_55810" data-name="Path 55810" d="M345.5,120.3l5.655,34.672,11.558,24.591,9.344,1.72,6.393-26.311-7.131-40.574-10.388-1.629L348.7,115.378Z" transform="translate(7909.65 135.352)" fill="#f2f2f2"/>
    <path id="Path_55811" data-name="Path 55811" d="M351.542,116.6s.86,6.946,2.336,7.684c.963.482,3.345.019,4.881-.36a1.665,1.665,0,0,0,1.257-1.779l-.913-5.275-4.671-4.2Z" transform="translate(7912.523 135.302)" fill="#4d94bf"/>
    <path id="Path_55812" data-name="Path 55812" d="M354.357,122.045s-1.66,7.746-.922,11.619,8.668,38.361,8.668,38.361l4.8,1.207s.184-35.695-1.291-40.305-7.744-12.848-7.744-12.848l-3.137.86Z" transform="translate(7913.333 138.828)" fill="#4d94bf"/>
    <path id="Path_55813" data-name="Path 55813" d="M354.98,114.358s-4.18-.491-6.148-2.459l.062,14.078,6.824-11.434,11.066,9.959s-3.32-13.094-4.426-13.832a8.727,8.727,0,0,1-1.967-1.967s-2.459,5.471-5.41,5.655" transform="translate(7911.235 133.421)" fill="#fff"/>
    <path id="Path_55814" data-name="Path 55814" d="M359.665,111.286l8.115,45.738,2.951,18.443-19-8.668s-.369-9.037-1.107-11.988-2.213-9.221-2.766-9.037-6.27,12.725-6.824,14.57-16.414-5.164-16.414-5.164,10.328-23.053,11.619-27.3,2.029-7.008,4.8-8.3,14.385-5.9,14.385-5.9Z" transform="translate(7899.727 134.649)" fill="#18587a"/>
    <path id="Path_55815" data-name="Path 55815" d="M350.233,111.3s-5.9,2.213-6.824,2.766a5.855,5.855,0,0,0-1.66,2.029,18.582,18.582,0,0,0,4.426,6.824c3.135,2.951,6.639,8.668,6.27,9.221s-5.9,3.5-4.8,5.717,14.385,31.906,14.385,31.906-2.4-20.1-3.135-23.607-3.135-17.7-4.057-22.869-2.644-12.418-2.644-12.418-1.414.246-1.967.431" transform="translate(7907.868 134.45)" fill="#023b4f"/>
    <path id="Path_55816" data-name="Path 55816" d="M377.806,142.132s10.7,34.119,13.094,48.5l-11.988-1.107L364.9,180.308s2.213-19.734,1.66-25.082-4.057-44.815-4.057-44.815,16.414,3.689,20.1,3.873l5.348,13.094Z" transform="translate(7917.732 134.233)" fill="#18587a"/>
    <path id="Path_55817" data-name="Path 55817" d="M347.413,111.019s-2.459-3.073-3.566-4.8A16.686,16.686,0,0,1,342,98.969c.124-1.475,3.935-3.933,3.935-3.933h18.074s1.722,5.409,1.6,7.008-2.458,6.639-2.458,6.639Z" transform="translate(7907.983 126.923)" fill="#333"/>
    <path id="Path_55818" data-name="Path 55818" d="M344.285,104.761s1.353,6.148,3.689,9.468,5.41,6.393,9.837,5.9,6.884-7.623,6.515-10.821-2.213-10.2-2.213-10.2l-2.951-2.951-5.409-.369-6.639,1.475-3.2,3.073Z" transform="translate(7908.898 127.28)" fill="#ffc298"/>
    <path id="Path_55819" data-name="Path 55819" d="M346.907,104.14s-2.7-2.828-4.3-2.336-1.475,2.458.493,3.811a9.359,9.359,0,0,0,4.3,1.475Z" transform="translate(7907.751 130.114)" fill="#ffc298"/>
    <path id="Path_55820" data-name="Path 55820" d="M356.333,102.115s1.107-4.057,2.582-3.566,1.6,1.844,1.229,3.2a19.483,19.483,0,0,1-2.582,4.18Z" transform="translate(7914.801 128.574)" fill="#ffc298"/>
    <path id="Path_55821" data-name="Path 55821" d="M344.158,95.489a8.139,8.139,0,0,0-1.722,3.811c-.245,2.091.246,4.3,1.231,4.919s1.967-1.107,1.967-1.107-1.475,3.32,1.6,4.3,10.205-6.27,10.205-6.27-3.32,4.3-1.107,4.8,6.27-.369,7.623-3.2a8.511,8.511,0,0,0-.246-8.239c-1.475-2.458-3.689-4.3-6.639-4.3s-9.468,1.351-12.91,5.286" transform="translate(7908.165 124.626)" fill="#333"/>
    <path id="Path_55822" data-name="Path 55822" d="M351.166,104.7l.738,4.673a1.6,1.6,0,0,0,2.336-.493l-1.72-4.671s-1.23-.862-1.353.491" transform="translate(7912.345 131.155)" fill="#ebab80"/>
    <path id="Path_55823" data-name="Path 55823" d="M358.5,110.724a11.993,11.993,0,0,1,7.131-.86c3.566.86,7.132,2.458,7.377,2.951s-4.18,15.737-4.057,16.352,5.041,1.107,5.041,2.7-3.811,51.886-3.811,51.886l-3.382-3.073s-2.029-45.984-2.151-47.951-5.779-21.64-6.148-22.009" transform="translate(7915.831 133.858)" fill="#023b4f"/>
    <path id="Path_55824" data-name="Path 55824" d="M241.488,192.8l7.746,5.533s-2.951-14.385-3.32-19.18-5.9-31.352-7.008-34.3S228.332,123.7,228.332,123.7l8.73,62.827Z" transform="translate(7853.949 140.552)" fill="#18587a"/>
    <path id="Path_55825" data-name="Path 55825" d="M229.125,106.033s2.029-3.873,3.5-2.951-2.4,6.639-2.4,6.639Z" transform="translate(7854.325 130.681)" fill="#f1a06b"/>
    <path id="Path_55826" data-name="Path 55826" d="M219.894,229.075s-3.591,2.46-3.885,5.586-.8,6.985-.249,7.188,5.491,1.3,7.373.255c0,0,.288-2.942,1.368-2.167s-.28,2.759,1.931,2.836,16.786.212,19.379-.066,2.11-2.325,1.2-2.727-15.875-5.164-19.618-8.984Z" transform="translate(7847.856 190.646)" fill="#333"/>
    <path id="Path_55827" data-name="Path 55827" d="M237.5,226.308s-3.591,2.46-3.885,5.586-.8,6.985-.249,7.188,5.491,1.3,7.373.255c0,0,.288-2.942,1.368-2.167s-.28,2.759,1.931,2.836,16.786.212,19.379-.066,2.11-2.325,1.2-2.727-15.875-5.164-19.618-8.984Z" transform="translate(7856.227 189.331)" fill="#333"/>
    <path id="Path_55828" data-name="Path 55828" d="M219.542,261.691s4.426-10.7,10.143-21.209,10.881-14.754,10.881-14.754-2.582-.738-1.66-1.475,1.844-.738,2.4-1.844-4.426.922-4.426.922-14.57-21.947-17.889-31.168-4.057-18.258-1.66-23.975l2.213-5.9,28.586,6.455s22.131,37.07,23.422,41.311-6.639,24.529-8.852,29.139-9.775,19.18-9.775,19.18-5.9,2.766-9.59-.369l2.029-16.414-16.045,23.053s-7.746.738-9.775-2.951" transform="translate(7848.048 158.894)" fill="#023b4f"/>
    <path id="Path_55829" data-name="Path 55829" d="M233.875,177.8s12.357,24.9,13.647,29.324,3.32,6.824.184,12.172-10.512,14.385-10.512,14.385l-1.291,8.3s11.434-14.2,14.385-19.365,4.611-8.668,3.32-11.434-4.057-9.959-5.717-12.725-12.172-20.1-12.725-20.471-1.291-1.107-1.291-.184" transform="translate(7856.583 166.06)" fill="#333"/>
    <path id="Path_55830" data-name="Path 55830" d="M232.322,182.607s9.837.491,10.819-.984.738-12.295.738-12.295l-7.131-23.853-10.081-8.606Z" transform="translate(7853.157 146.811)" fill="#fff"/>
    <path id="Path_55831" data-name="Path 55831" d="M218.5,124.838s.491-8.852.246-9.59,11.31,1.722,11.31,1.722l-.983,10.819Z" transform="translate(7849.274 136.466)" fill="#f1a06b"/>
    <path id="Path_55832" data-name="Path 55832" d="M219.123,118.419l7.93,3.32,8.668-1.291a20.932,20.932,0,0,0,1.475-8.115c-.184-4.242-3.32-11.25-3.32-11.25l-13.832-.922-4.8,4.057Z" transform="translate(7847.729 129.36)" fill="#f1a06b"/>
    <path id="Path_55833" data-name="Path 55833" d="M212.4,106.717s-.369,4.611.369,6.824,2.4,7.193,4.979,9.959,2.951,4.057,5.164,4.426a72.014,72.014,0,0,0,8.3.553c1.475,0,5.533-.922,5.9-2.213s1.413-8.361,1.413-8.361-2.151,2.828-3.811,3.2-6.639.738-8.3-.184-4.979-2.213-5.348-2.951-1.107-2.766-.922-3.5l.184-.738-1.844-5.533s8.668,5.164,9.959,3.873.922-4.057.922-4.057,4.242,4.611,5.717,3.5,1.291-4.057,1.291-4.057,2.029,2.766,2.213,1.844-.369-6.824-4.057-9.406-7.193-5.164-9.959-5.164a25.575,25.575,0,0,0-6.824,1.475s-2.029-2.4-2.582-1.475.553,2.582.553,2.582-2.951-.184-2.582.369a11.039,11.039,0,0,0,1.107,1.291,60.123,60.123,0,0,0-1.844,7.746" transform="translate(7846.333 126.677)" fill="#333"/>
    <path id="Path_55834" data-name="Path 55834" d="M215.717,107.922s-2.766-3.689-4.426-1.844.922,5.9,4.426,5.9a5.036,5.036,0,0,0,0-4.057" transform="translate(7845.603 131.927)" fill="#f1a06b"/>
    <path id="Path_55835" data-name="Path 55835" d="M236.712,125.581s-5.533-4.979-11.988-5.164-12.541.922-13.832,9.59.369,30.615,3.32,35.594,3.32,7.377,2.951,9.221a11.277,11.277,0,0,0,.553,5.9c.738,2.4.184,8.115,1.475,10.7s23.606,7.93,25.451,7.008,1.291-12.725.369-17.889-2.582-15.861-2.951-20.656-5.348-34.3-5.348-34.3" transform="translate(7845.447 138.981)" fill="#18587a"/>
    <path id="Path_55836" data-name="Path 55836" d="M225.168,108.034l1.353,5.164a2.426,2.426,0,0,0,2.458-.86l-2.213-4.919s-1.72-.614-1.6.615" transform="translate(7852.442 132.737)" fill="#d89567"/>
    <path id="Path_55837" data-name="Path 55837" d="M328.358,96.389a66.639,66.639,0,1,0,37.558,86.435,66.638,66.638,0,0,0-37.558-86.435M285.689,151.2a14.531,14.531,0,1,1-8.19-18.848,14.531,14.531,0,0,1,8.19,18.848" transform="translate(7858.194 125.351)" fill="#cc5b0e"/>
    <path id="Path_55838" data-name="Path 55838" d="M257.365,133.767a14.511,14.511,0,0,1,21.34-6.912,14.523,14.523,0,1,0-20.923,18.494,14.463,14.463,0,0,1-.417-11.582" transform="translate(7864.758 138.113)" fill="#cc5b0e"/>
    <path id="Path_55839" data-name="Path 55839" d="M323.706,94.555a66.639,66.639,0,1,0,37.558,86.435,66.638,66.638,0,0,0-37.558-86.435M287.9,152.071a14.531,14.531,0,1,1-8.19-18.848,14.531,14.531,0,0,1,8.19,18.848" transform="translate(7855.982 124.479)" fill="#f4bb76"/>
    <path id="Path_55840" data-name="Path 55840" d="M319.528,98.243a60.574,60.574,0,1,0,34.139,78.568,60.574,60.574,0,0,0-34.139-78.568m-33.582,51.872a14.531,14.531,0,1,1-8.19-18.848,14.531,14.531,0,0,1,8.19,18.848" transform="translate(7857.938 126.434)" fill="#f9aa41"/>
    <rect id="Rectangle_20378" data-name="Rectangle 20378" width="33.934" height="257.462" transform="translate(8198.443 316.294) rotate(-68.486)" fill="#f9aa41"/>
    <path id="Path_55841" data-name="Path 55841" d="M453.605,255.175l7.88-3.237,11.544-29.282-5.716-2.253Z" transform="translate(7961.044 186.523)" fill="#cc5b0e"/>
    <path id="Path_55842" data-name="Path 55842" d="M400.573,234.27l7.88-3.239L420,201.751l-5.716-2.253Z" transform="translate(7935.833 176.585)" fill="#cc5b0e"/>
    <path id="Path_55843" data-name="Path 55843" d="M426.688,204.389,412.98,239.161l12.354,4.87,5.23-13.268a5.9,5.9,0,0,1,10.981,4.329l-5.23,13.268,13.727,5.412,5.23-13.268a5.9,5.9,0,0,1,10.982,4.327l-5.23,13.268,11.895,4.689,13.706-34.772Z" transform="translate(7941.731 178.91)" fill="#f4bb76"/>
    <path id="Path_55844" data-name="Path 55844" d="M385.024,187.964l-13.708,34.772,16.173,6.377,2.524-6.4A5.9,5.9,0,0,1,401,227.036l-2.524,6.4,16.011,6.313L428.19,204.98Z" transform="translate(7921.924 171.102)" fill="#f4bb76"/>
    <path id="Path_55845" data-name="Path 55845" d="M427.787,232.49a5.9,5.9,0,0,1,7.654-3.326,5.775,5.775,0,0,1,1.3.735l.829-2.1a5.9,5.9,0,0,0-10.981-4.329l-5.23,13.268,5.422-1.683Z" transform="translate(7945.713 186.204)" fill="#cc5b0e"/>
    <path id="Path_55846" data-name="Path 55846" d="M444.534,239.091a5.832,5.832,0,0,1,8.95-2.591l.829-2.1a5.9,5.9,0,0,0-10.981-4.329L438.1,243.339l5.422-1.683Z" transform="translate(7953.674 189.342)" fill="#cc5b0e"/>
    <path id="Path_55847" data-name="Path 55847" d="M382.278,219.122l2.524-6.4a5.9,5.9,0,0,1,10.354-1.179l.028.04a5.9,5.9,0,0,0-6.692,3.615l-1.011,2.563Z" transform="translate(7927.135 181.093)" fill="#cc5b0e"/>
    <path id="Path_55848" data-name="Path 55848" d="M482.967,220c-3.436,8.718-8.885,14.735-12.171,13.441s-3.162-9.413.274-18.13,8.886-14.736,12.171-13.441,3.162,9.412-.274,18.13" transform="translate(7968.083 177.631)" fill="#cc5b0e"/>
    <path id="Path_55849" data-name="Path 55849" d="M274.308,116.613a19.426,19.426,0,1,0,10.949,25.2,19.425,19.425,0,0,0-10.949-25.2m6.394,23.4a14.531,14.531,0,1,1-8.19-18.848,14.531,14.531,0,0,1,8.19,18.848" transform="translate(7863.181 136.535)" fill="#f4bb76"/>
    <path id="Path_55850" data-name="Path 55850" d="M377.669,113.036c3.688.184,6.086-.553,8.115,3.689s12.91,32.459,14.2,36.332,2.828,42.111,2.828,42.111-3.258,5.9-11.557,2.213c0,0-8.608-37.685-8.792-40.082s1.291-2.582,1.844-3.873-3.135.738-3.32,0-4.611-7.377-5.717-9.221a25.921,25.921,0,0,0-2.4-3.32Z" transform="translate(7922.665 135.481)" fill="#18587a"/>
    <path id="Path_55851" data-name="Path 55851" d="M386.687,169.9s-1.9,4.947-1.683,7.5-.035,6.052.834,5.9,2.145-.153,1.933-2.069-.426-3.191.425-2.979,1.49,4.894,1.49,6.172-2.766,3.83-1.276,4.894,2.127,1.278,4.043-.212,3.618-6.384,4.043-9.15-1.915-11.917-1.915-11.917Z" transform="translate(7928.423 161.628)" fill="#ffc298"/>
    <path id="Path_55852" data-name="Path 55852" d="M250.624,172.974s5.164,9.59,7.93,10.512,12.541-.922,12.541-.922-6.455-2.951-8.668-4.611a13.269,13.269,0,0,1-3.135-3.135s4.426,1.844,5.164.738.922-1.844-.184-2.029-7.377-3.32-8.668-3.689a7.107,7.107,0,0,0-2.951,0Z" transform="translate(7864.546 162.407)" fill="#f1a06b"/>
    <path id="Path_55853" data-name="Path 55853" d="M234.139,124.212s10.943,29.262,13.525,34.057-1.475,6.271,0,5.533,2.951-3.32,4.426-1.475,19.59,27.918,19.918,29.877c.114.683-2.017,1.925-3.1,3.514a2.471,2.471,0,0,1-3.579.474c-4.63-3.708-12.526-10.055-15.816-12.84-4.8-4.057-12.541-9.959-15.861-15.123S220,148.679,218.894,147.573s.738-.738-1.107-1.107-1.844-3.32-1.475-8.484,2.582-13.524,11.434-15.245c3.025-.589,6.393,1.475,6.393,1.475" transform="translate(7848.143 140.042)" fill="#4d94bf"/>
    <path id="Path_55854" data-name="Path 55854" d="M333.936,174.274c-1.021.212-9.037-2.029-10.328-2.951s-.922-1.291-1.66-3.5.553-7.746.553-7.746c2.213-3.689,7.746-.184,8.668.369s.738,3.32.738,4.611,2.029,4.979,2.029,4.979l1.722,3.32s-.246.615-1.722.922" transform="translate(7898.346 157.05)" fill="#ffc298"/>
  </g>
</svg>
