<svg xmlns="http://www.w3.org/2000/svg" xmlns:xlink="http://www.w3.org/1999/xlink" width="132" height="20" viewBox="0 0 132 20">
  <defs>
    <clipPath id="clip-path">
      <rect width="132" height="20" fill="none"/>
    </clipPath>
  </defs>
  <g id="Repeat_Grid_1" data-name="Repeat Grid 1" clip-path="url(#clip-path)">
    <g transform="translate(-415 -1112)">
      <path id="star" d="M10.4,1.85a.775.775,0,0,1,1.41,0L14.246,7.16a.776.776,0,0,0,.595.446l5.6.807a.779.779,0,0,1,.44,1.319l-4.132,4.176a.78.78,0,0,0-.214.68l1.009,5.9a.776.776,0,0,1-1.146.809l-4.909-2.779a.774.774,0,0,0-.763,0L5.82,21.294a.776.776,0,0,1-1.146-.809l1.009-5.9a.78.78,0,0,0-.214-.68L1.336,9.731a.779.779,0,0,1,.44-1.319l5.6-.807a.776.776,0,0,0,.595-.446Z" transform="translate(413.89 1110.604)" fill="#dae113"/>
    </g>
    <g transform="translate(-387 -1112)">
      <path id="star-2" data-name="star" d="M10.4,1.85a.775.775,0,0,1,1.41,0L14.246,7.16a.776.776,0,0,0,.595.446l5.6.807a.779.779,0,0,1,.44,1.319l-4.132,4.176a.78.78,0,0,0-.214.68l1.009,5.9a.776.776,0,0,1-1.146.809l-4.909-2.779a.774.774,0,0,0-.763,0L5.82,21.294a.776.776,0,0,1-1.146-.809l1.009-5.9a.78.78,0,0,0-.214-.68L1.336,9.731a.779.779,0,0,1,.44-1.319l5.6-.807a.776.776,0,0,0,.595-.446Z" transform="translate(413.89 1110.604)" fill="#dae113"/>
    </g>
    <g transform="translate(-359 -1112)">
      <path id="star-3" data-name="star" d="M10.4,1.85a.775.775,0,0,1,1.41,0L14.246,7.16a.776.776,0,0,0,.595.446l5.6.807a.779.779,0,0,1,.44,1.319l-4.132,4.176a.78.78,0,0,0-.214.68l1.009,5.9a.776.776,0,0,1-1.146.809l-4.909-2.779a.774.774,0,0,0-.763,0L5.82,21.294a.776.776,0,0,1-1.146-.809l1.009-5.9a.78.78,0,0,0-.214-.68L1.336,9.731a.779.779,0,0,1,.44-1.319l5.6-.807a.776.776,0,0,0,.595-.446Z" transform="translate(413.89 1110.604)" fill="#dae113"/>
    </g>
    <g transform="translate(-331 -1112)">
      <path id="star-4" data-name="star" d="M10.4,1.85a.775.775,0,0,1,1.41,0L14.246,7.16a.776.776,0,0,0,.595.446l5.6.807a.779.779,0,0,1,.44,1.319l-4.132,4.176a.78.78,0,0,0-.214.68l1.009,5.9a.776.776,0,0,1-1.146.809l-4.909-2.779a.774.774,0,0,0-.763,0L5.82,21.294a.776.776,0,0,1-1.146-.809l1.009-5.9a.78.78,0,0,0-.214-.68L1.336,9.731a.779.779,0,0,1,.44-1.319l5.6-.807a.776.776,0,0,0,.595-.446Z" transform="translate(413.89 1110.604)" fill="#dae113"/>
    </g>
    <g transform="translate(-303 -1112)">
      <path id="star-5" data-name="star" d="M10.4,1.85a.775.775,0,0,1,1.41,0L14.246,7.16a.776.776,0,0,0,.595.446l5.6.807a.779.779,0,0,1,.44,1.319l-4.132,4.176a.78.78,0,0,0-.214.68l1.009,5.9a.776.776,0,0,1-1.146.809l-4.909-2.779a.774.774,0,0,0-.763,0L5.82,21.294a.776.776,0,0,1-1.146-.809l1.009-5.9a.78.78,0,0,0-.214-.68L1.336,9.731a.779.779,0,0,1,.44-1.319l5.6-.807a.776.776,0,0,0,.595-.446Z" transform="translate(413.89 1110.604)" fill="#dae113"/>
    </g>
  </g>
</svg>
