<svg xmlns="http://www.w3.org/2000/svg" xmlns:xlink="http://www.w3.org/1999/xlink" width="536" height="352" viewBox="0 0 536 352">
  <defs>
    <clipPath id="clip-path">
      <rect id="Rectangle_20336" data-name="Rectangle 20336" width="39.05" height="38.499" fill="none"/>
    </clipPath>
    <linearGradient id="linear-gradient" x1="0.5" x2="0.5" y2="1" gradientUnits="objectBoundingBox">
      <stop offset="0" stop-color="#087fa7"/>
      <stop offset="1" stop-color="#219bc0"/>
    </linearGradient>
  </defs>
  <g id="Group_54561" data-name="Group 54561" transform="translate(-269.894 -177.571)">
    <path id="Path_55560" data-name="Path 55560" d="M785.761,1301.86c0,16.7-115.481,30.243-257.933,30.243s-257.934-13.54-257.934-30.243,115.481-30.243,257.934-30.243,257.933,13.541,257.933,30.243" transform="translate(0 -802.532)" opacity="0.04"/>
    <path id="Path_55561" data-name="Path 55561" d="M1811.8,1142.754l4.953,1.234-.31-77.09-3.81,1.979Z" transform="translate(-1131.55 -652.296)"/>
    <path id="Path_55562" data-name="Path 55562" d="M1751.988,1355.289s26.225.471,34.969.538c.965.007,1.659-1.321,1.659-2.286a2.715,2.715,0,0,0-2.376-2.107c-8.562.045-34.251.358-34.251.358a1.748,1.748,0,0,0,0,3.5" transform="translate(-1086.372 -861.107)"/>
    <path id="Path_55563" data-name="Path 55563" d="M1867.961,1369.058a3.842,3.842,0,0,0-3.945-3.138c-1.945,0-3.945,1.283-3.945,3.228,0,2.421,2.449,4.124,4.393,4.124a3.6,3.6,0,0,0,3.5-4.214" transform="translate(-1166.972 -871.737)"/>
    <path id="Path_55564" data-name="Path 55564" d="M1756.656,1369.058a3.842,3.842,0,0,0-3.945-3.138c-1.945,0-3.945,1.283-3.945,3.228,0,2.421,2.448,4.124,4.393,4.124a3.6,3.6,0,0,0,3.5-4.214" transform="translate(-1085.29 -871.737)"/>
    <path id="Path_55565" data-name="Path 55565" d="M1801.207,1091.013s.941,6.254-8.742,8.271-13.852-8.271-13.852-8.271Z" transform="translate(-1107.193 -670.095)"/>
    <path id="Path_55566" data-name="Path 55566" d="M1652.563,828.306c2.226-14.073,5.157-54.226,19.748-62.871,11.21-6.642,37.8-9.854,44.785,6.458s-16.416,66.556-16.416,66.556-4.667,10.988-9.407,11.487-68.729,3.362-73.815-.8c-9.1-7.45,7.79-17.907,35.106-20.83" transform="translate(-987.106 -427.225)" fill="#9f746e"/>
    <path id="Path_55567" data-name="Path 55567" d="M476.094,1156.988l-4.953,1.234.311-77.09,3.811,1.979Z" transform="translate(-147.688 -662.742)"/>
    <path id="Path_55568" data-name="Path 55568" d="M443.748,1369.523s-26.225.471-34.968.538c-.966.007-1.659-1.321-1.659-2.286a2.715,2.715,0,0,1,2.376-2.107c8.563.045,34.251.359,34.251.359a1.748,1.748,0,0,1,0,3.5" transform="translate(-100.706 -871.552)"/>
    <path id="Path_55569" data-name="Path 55569" d="M411.69,1383.292a3.842,3.842,0,0,1,3.945-3.138c1.945,0,3.945,1.283,3.945,3.228,0,2.421-2.449,4.124-4.393,4.124a3.6,3.6,0,0,1-3.5-4.214" transform="translate(-104.02 -882.183)"/>
    <path id="Path_55570" data-name="Path 55570" d="M522.995,1383.292a3.842,3.842,0,0,1,3.945-3.138c1.945,0,3.945,1.283,3.945,3.228,0,2.421-2.449,4.124-4.393,4.124a3.6,3.6,0,0,1-3.5-4.214" transform="translate(-185.702 -882.183)"/>
    <path id="Path_55571" data-name="Path 55571" d="M437.977,1105.247s-.941,6.254,8.742,8.271,13.852-8.271,13.852-8.271Z" transform="translate(-123.332 -680.537)"/>
    <path id="Path_55572" data-name="Path 55572" d="M363.8,842.54c-2.226-14.073-5.157-54.226-19.748-62.871-11.21-6.642-37.8-9.853-44.786,6.458s16.416,66.556,16.416,66.556,4.666,10.988,9.407,11.487,68.729,3.362,73.815-.8c9.105-7.45-7.79-17.907-35.105-20.83" transform="translate(-20.603 -437.666)" fill="#9f746e"/>
    <path id="Path_55573" data-name="Path 55573" d="M1875.435,1105.769s9.894-37.732,1.656-51.617-35.846-15.935-46-5.811-11.42,22.484,4.406,27.705,36.891-13.671,40.839-11.729-3.919,39.967-3.919,39.967Z" transform="translate(-1140.146 -634.096)" fill="#04bab8"/>
    <path id="Path_55574" data-name="Path 55574" d="M1836.7,1090.587l-.247-.324a98.694,98.694,0,0,1,17.456-10.3,52.779,52.779,0,0,1,15.74-4.638c5.935-.637,11,.394,15.043,3.059l-.223.341c-3.966-2.613-8.937-3.621-14.777-3a52.369,52.369,0,0,0-15.616,4.605,98.227,98.227,0,0,0-17.375,10.249" transform="translate(-1149.638 -658.449)" fill="#fff"/>
    <path id="Path_55575" data-name="Path 55575" d="M1977.346,1304.212H1956.4c-3.2,0-5.875-1.963-6.15-4.518l-3.021-28.077h38.461l-2.737,28.436c-.226,2.347-2.67,4.16-5.61,4.16" transform="translate(-1230.937 -802.532)" fill="#a4876d"/>
    <path id="Path_55576" data-name="Path 55576" d="M1984.285,1237.592v5.583c0,3.454-9.145,6.254-20.427,6.254s-20.428-2.8-20.428-6.254v-5.583c0-1.753,5.268-3.257,12.736-3.877,2.374-.2,4.971-.31,7.692-.31,11.282,0,20.427,1.873,20.427,4.188" transform="translate(-1228.147 -774.545)" fill="#743701"/>
    <path id="Path_55577" data-name="Path 55577" d="M1984.288,1237.6a1.333,1.333,0,0,1-.557.976c-.909.78-2.9,1.48-5.619,2.022-1.062.213-2.239.4-3.5.564-.328.042-.662.083-1,.118-.2.025-.4.045-.6.065-1.052.11-2.158.2-3.305.269-.08.007-.16.012-.242.015q-.9.053-1.821.088c-.42.018-.844.03-1.274.043l-.5.01q-.985.019-2,.02c-.29,0-.577,0-.864-.005-.173,0-.348,0-.517-.005-.68-.01-1.352-.025-2.011-.05-1.1-.035-2.176-.092-3.21-.165l-.577-.043h0l-.459-.038-.52-.045c-1.134-.1-2.216-.223-3.233-.364-5.449-.75-9.031-2.027-9.031-3.475,0-.888,1.349-1.711,3.65-2.388a35.922,35.922,0,0,1,4.769-1c.1-.018.2-.033.3-.045h0c.182-.028.367-.053.555-.078,1.084-.146,2.239-.271,3.453-.371l.192-.015c1.2-.1,2.461-.173,3.762-.221q1.18-.049,2.411-.062c.437-.008.882-.01,1.327-.01q1.049,0,2.069.023c.17,0,.337,0,.5.01,1.2.03,2.371.083,3.5.156.3.018.609.04.909.063q1.442.1,2.778.256c1.274.14,2.468.311,3.56.5.185.032.367.065.544.1.122.023.245.045.365.07a21.129,21.129,0,0,1,4.356,1.264c1.185.529,1.844,1.119,1.844,1.741" transform="translate(-1228.15 -774.556)" fill="#080435"/>
    <path id="Path_55578" data-name="Path 55578" d="M2033.048,1122.534s7.642-38.255,21.122-47.087,39.172,1.524,43.856,15.1.407,25.236-16.092,22.935-27.142-28.573-31.538-28.573-13.987,37.624-13.987,37.624Z" transform="translate(-1293.914 -656.237)" fill="#04bab8"/>
    <path id="Path_55579" data-name="Path 55579" d="M2159.848,1122.629a98.8,98.8,0,0,0-11.119-16.885,52.605,52.605,0,0,0-12.006-11.03c-4.969-3.14-9.874-4.431-14.58-3.836l-.051-.4c4.8-.607,9.8.7,14.85,3.9a53.02,53.02,0,0,1,12.1,11.118,99.217,99.217,0,0,1,11.166,16.959Z" transform="translate(-1359.261 -669.575)" fill="#fff"/>
    <path id="Path_55580" data-name="Path 55580" d="M1845.657,1168.625s.2-39.017-11.224-50.4-38.672-6.446-45.989,5.9-5.47,24.635,11.152,25.724,32.326-22.484,36.631-21.594,6.138,39.685,6.138,39.685Z" transform="translate(-1111.416 -685.268)" fill="#09a7a1"/>
    <path id="Path_55581" data-name="Path 55581" d="M1808.711,1156.4l-.222-.172a98.8,98.8,0,0,1,14.333-14.34c13.933-11.169,23.655-11.2,29.36-9.232l-.093.265c-5.637-1.923-15.26-1.9-29.09,9.189a98.825,98.825,0,0,0-14.288,14.29" transform="translate(-1129.118 -699.912)" fill="#fff"/>
    <path id="Path_55582" data-name="Path 55582" d="M2013.09,1190.926a16.973,16.973,0,0,0-15.112-8.08c-10.475.381-20.592,32.015-16.7,40.893,5.957,13.595,26.222,15.19,34.526,0,4.156-7.6,2.432-25.794-2.712-32.813" transform="translate(-1255.296 -737.377)" fill="#09a7a1"/>
    <path id="Path_55583" data-name="Path 55583" d="M2045.84,1237.643l-.4-.084c.046-.218,4.531-21.981,2.145-38.371l.4-.059c2.4,16.462-2.1,38.3-2.15,38.514" transform="translate(-1303.01 -749.336)" fill="#fff"/>
    <g id="Group_54551" data-name="Group 54551" transform="translate(591.141 189.821)" opacity="0.5">
      <g id="Group_54550" data-name="Group 54550" transform="translate(0 0)">
        <g id="Group_54549" data-name="Group 54549" clip-path="url(#clip-path)">
          <path id="Path_55584" data-name="Path 55584" d="M1516,242.129c-.465-10.04-9.483-18.529-19.533-18.529-14.239,0-18.909,10.909-19.471,20.943-.583,10.423,8.6,17.556,18.654,17.556s20.927-7.5,20.35-19.971" transform="translate(-1476.968 -223.6)" fill="url(#linear-gradient)"/>
          <path id="Path_55585" data-name="Path 55585" d="M1520.489,250.909c0-7.995-7.981-16.512-15.971-16.768-11.822-.378-16.616,11.615-16.616,19.61s8.253,12.761,16.248,12.761,16.34-7.608,16.34-15.6" transform="translate(-1484.993 -231.329)" fill="#ddf6f2"/>
          <path id="Path_55586" data-name="Path 55586" d="M1543.981,291.139a2.294,2.294,0,0,0-2.364-1.819,2.659,2.659,0,0,0-2.274,2.418,2.258,2.258,0,0,0,2.274,1.993,2.184,2.184,0,0,0,2.364-2.592" transform="translate(-1522.743 -271.829)" fill="#68a1bf"/>
          <path id="Path_55587" data-name="Path 55587" d="M1543.514,259.41h-.4a.394.394,0,0,1-.394-.394c0-.218-.5-.957-.279-.957l.221-.464.474-10.8-.492.3a.394.394,0,1,1-.648-.447l1.213-1.759a.394.394,0,0,1,.718.224l.657,13.871c0,.217-.855.423-1.072.423" transform="translate(-1524.641 -239.1)" fill="#68a1bf"/>
          <path id="Path_55588" data-name="Path 55588" d="M1547.9,247.155a.394.394,0,0,1-.305-.145l-1.5-1.072a1.487,1.487,0,0,1,.214-1.128.394.394,0,0,1,.554.057l1.34,1.645a.394.394,0,0,1-.306.643" transform="translate(-1527.664 -239.1)" fill="#68a1bf"/>
          <path id="Path_55589" data-name="Path 55589" d="M1516.738,297.846a.392.392,0,0,1-.283-.121l-1.171-1.212a.394.394,0,0,1,.283-.668h0l9.3-.489c.217,0,.341.686.341.9v.4a.394.394,0,0,1-.395.394c-.218,0-.708.2-.708-.022l.315-.376-7.923-.018.524.543a.394.394,0,0,1-.284.668" transform="translate(-1505.006 -276.26)" fill="#68a1bf"/>
          <path id="Path_55590" data-name="Path 55590" d="M1515.566,294.285a.394.394,0,0,1-.306-.644l1.095-1.34a.394.394,0,0,1,.611.5l-.43,1a3.873,3.873,0,0,1-.97.482" transform="translate(-1505.005 -273.911)" fill="#68a1bf"/>
        </g>
      </g>
    </g>
    <path id="Path_55591" data-name="Path 55591" d="M1349.987,770.9s-15.762-4.09-21.186-.393-10.156,11.688-6.308,10.11a43.267,43.267,0,0,0,8.209-4.953s-6.279,8.973-3.582,10.3,7.33-7.163,7.33-7.163-8.089,9.646-5.135,10.073,9.01-6.446,9.01-6.446-9.495,7.885-6.052,8.3,7.656-5.558,10.6-4.936c3.747.793,8.491.835,10.113-.369Z" transform="translate(-771.436 -433.831)" fill="#ef9d6a"/>
    <path id="Path_55592" data-name="Path 55592" d="M1429.026,674.311l-1.667-14.53c22.177-1.825,32.4-11.467,42.343-23.614a47.8,47.8,0,0,0,6.965-11.931c1.523-3.595,7.834-4.3,11.7-3.766.07.01-1.774-2.93-1.7-2.919,10.5,1.586,12.691,4.809,12.691,4.809a56.745,56.745,0,0,1-11.1,26.5,58.991,58.991,0,0,1-22.006,17.713c-10.766,5.115-22.462,7.849-37.219,7.743" transform="translate(-849.421 -322.747)" fill="#ffe3db"/>
    <path id="Path_55593" data-name="Path 55593" d="M1432.029,1321.428s.177,6.009-3.791,7.923-15.65,4.084-11.043,7.7c2.643,2.076,14.454,0,17.81-.186s6.588,1.108,8.959-1.275c2.609-2.621-.806-14.772-.806-14.772a13.429,13.429,0,0,1-5.422,1.741,10.7,10.7,0,0,1-5.706-1.134" transform="translate(-841.185 -838.641)"/>
    <path id="Path_55594" data-name="Path 55594" d="M1346.756,1317.417s.171,5.794-3.655,7.64-15.09,3.937-10.648,7.426c2.549,2,13.936,0,17.172-.18s6.352,1.068,8.638-1.229c2.516-2.527-.777-14.243-.777-14.243a12.947,12.947,0,0,1-5.228,1.679,10.32,10.32,0,0,1-5.5-1.093" transform="translate(-779.024 -835.713)"/>
    <path id="Path_55595" data-name="Path 55595" d="M1353.489,977.66c2.6-36.77,2.874-65.536,15.817-81.3,14.166-17.254,55.223-27.064,70.124-27.615,24.3-.9,33.336,4.437,33.336,4.437,18.755,33.822-9.772,37.85-30.91,38.454q-1.047.03-2.1.073c-12.795.523-35.52,3.061-43.97,14.18-6.691,8.8-11.241,21.237-12.757,53.456-.291,6.182-6.093,10.9-13.1,10.621,0,0-17.367.918-16.434-12.307" transform="translate(-795.184 -506.804)" fill="#44393d"/>
    <path id="Path_55596" data-name="Path 55596" d="M1446.635,999.3c-.964-36.925-2.542-55.793,9.751-71.968,7.9-10.392,19.892-18.147,35.65-23.049,11.246-3.5,24.5-5.552,39.406-6.1,24.3-.9,35.191-3.331,35.191-3.331,5.868,48.711-47.469,39.582-71.133,46.537-11.428,3.359-17.09,27.407-18.606,59.626-.291,6.182-6.093,10.9-13.1,10.621,0,0-16.8,1.166-17.154-12.335" transform="translate(-863.095 -526.036)" fill="#44393d"/>
    <path id="Path_55597" data-name="Path 55597" d="M1666.114,583.026c-8.213-6.713-20.99-11.353-42.724-6.408s-21.074,27.286-22.631,80.6c0,0,26.839-2.858,74.74,22.281,5.842,3.066,11.091,3.364,11.484-11.831.536-20.7-2.369-69.517-20.869-84.637" transform="translate(-976.673 -291.178)" fill="#04bab8"/>
    <path id="Path_55598" data-name="Path 55598" d="M1447.128,1029.094a.255.255,0,0,1-.248-.2c-3.025-14.254-3.817-54.059,3.972-76.334,6.4-18.309,34.58-25.1,34.863-25.167a.255.255,0,0,1,.116.5c-.281.066-28.19,6.792-34.5,24.836-7.761,22.192-6.971,61.858-3.955,76.062a.254.254,0,0,1-.2.3.3.3,0,0,1-.053.007" transform="translate(-862.162 -549.913)" fill="#020202"/>
    <path id="Path_55599" data-name="Path 55599" d="M1418.515,1364.459a.2.2,0,0,1-.1-.023.217.217,0,0,1-.1-.292c.75-1.519,4.323-2.6,4.474-2.648a.208.208,0,0,1,.271.146.217.217,0,0,1-.146.271c-.036.01-3.542,1.076-4.209,2.423a.221.221,0,0,1-.2.122" transform="translate(-842.771 -868.482)" fill="#020202"/>
    <path id="Path_55600" data-name="Path 55600" d="M1725.864,492.428l-2.532-8.171-.737-2.379-4.333-13.987-.57,13.913-.341,8.351-.108,2.643c-.073,1.795-1.167,2.172-2.5,3.731-.539.632-3.991,4.463-.074,6.193,4.879,2.156,14-1.108,17.469-5.385-.027-.006-5.458-2.27-6.277-4.91" transform="translate(-1058.914 -212.97)" fill="#ffe3db"/>
    <path id="Path_55601" data-name="Path 55601" d="M1690.275,448.156a18.369,18.369,0,0,0,0,7.63c.883,4.245,5.2-6.189,5.2-6.189Z" transform="translate(-1042.077 -198.499)" fill="#5c305d"/>
    <path id="Path_55602" data-name="Path 55602" d="M1689,444.664c1.078-8.207,7.469-14.136,14.276-13.243s11.451,8.272,10.373,16.479-7.469,14.136-14.275,13.243-11.451-8.272-10.374-16.479" transform="translate(-1041.316 -186.153)" fill="#ffe3db"/>
    <path id="Path_55603" data-name="Path 55603" d="M1699.744,420.234l-6.017-.624a4.378,4.378,0,0,1-3.249-1.969c-1.233-1.93-2.716-2.92-8.329-2.71-7.107.267-11.8-3.97-12.568-7.689-.784-3.8,2.853-6.368,6.423-4.559s2.037-2.628,5.47-3.1c6.415-.88,7.616,4.064,12.868,3.9,6.886-.211,19.221,5.022,13.371,17.144Z" transform="translate(-1027.1 -162.788)" fill="#30262a"/>
    <path id="Path_55604" data-name="Path 55604" d="M1732.955,483.8a.252.252,0,0,1,.113-.464,2.728,2.728,0,0,1,2.9,1.653.254.254,0,0,1-.113.338.277.277,0,0,1-.338-.113,4.316,4.316,0,0,0-2.411-1.376.249.249,0,0,1-.155-.038" transform="translate(-1073.601 -224.289)" fill="#080435"/>
    <path id="Path_55605" data-name="Path 55605" d="M1733.037,493.767c-.158.58-.628.957-1.048.842a.976.976,0,0,1-.476-1.258c.158-.58.628-.957,1.049-.843a.976.976,0,0,1,.476,1.258" transform="translate(-1072.59 -231.022)" fill="#080435"/>
    <path id="Path_55606" data-name="Path 55606" d="M1697.829,479.858a.183.183,0,0,1-.136-.126.3.3,0,0,1,.1-.341,1.767,1.767,0,0,1,2.569.292.3.3,0,0,1,.005.352.186.186,0,0,1-.278.038,2.642,2.642,0,0,0-2.133-.245.168.168,0,0,1-.124.03" transform="translate(-1047.797 -221.098)" fill="#080435"/>
    <path id="Path_55607" data-name="Path 55607" d="M1702.531,489.319c.075.6-.216,1.124-.649,1.178s-.844-.386-.919-.982.216-1.124.649-1.178.844.386.919.982" transform="translate(-1050.201 -227.974)" fill="#080435"/>
    <path id="Path_55608" data-name="Path 55608" d="M1770.9,474.145s-4.155,8.967-10.047,9.624c0,0,4.765-6.833-5.278-11,0,0,9.22-1.451,15.324,1.373" transform="translate(-1090.287 -216.283)" fill="#302529"/>
    <path id="Path_55609" data-name="Path 55609" d="M1771.129,485.027a2.432,2.432,0,1,1,.984-3.491,2.573,2.573,0,0,1-.984,3.491" transform="translate(-1098.823 -222.216)" fill="#ffe3db"/>
    <path id="Path_55610" data-name="Path 55610" d="M1708.444,473.8s.8,7.524-.727,8.947-11.644,2.034-16.364.211a9.829,9.829,0,0,0,8.094,9.9,14.279,14.279,0,0,0,4.828-.016c3.3-.578,6.516-1.944,7.878-5.009.415-.933-.791-6.67-.791-6.67s-.453-3.367,1.505-5.119c0,0-2.261-2.032-4.423-2.244" transform="translate(-1043.156 -217.308)" fill="#302529"/>
    <path id="Path_55611" data-name="Path 55611" d="M1700.718,518.407a25.506,25.506,0,0,0,8.108.639,3.912,3.912,0,0,1-4.905,3.139c-2.491-.454-3.2-3.778-3.2-3.778" transform="translate(-1050.029 -250.036)" fill="#fff"/>
    <path id="Path_55612" data-name="Path 55612" d="M1696.6,404.726c-.033,0-.068,0-.1,0l.01-.338h.091a1.538,1.538,0,0,0,1.7-1.317l.337.033a1.889,1.889,0,0,1-2.034,1.625" transform="translate(-1046.931 -165.484)" fill="#057ca4"/>
    <path id="Path_55613" data-name="Path 55613" d="M1687.214,424.956c-.316-.093-7.751-2.3-8.073-6.306a2.7,2.7,0,0,1,.622-2.377c.816-.7,2.224-.374,3.464-.083.186.043.366.086.54.122l-.036.166c-.174-.036-.356-.079-.543-.122-1.2-.278-2.562-.6-3.315.046a2.559,2.559,0,0,0-.563,2.234c.313,3.893,7.875,6.134,7.951,6.154Z" transform="translate(-1034.179 -174.801)" fill="#fff"/>
    <path id="Path_55614" data-name="Path 55614" d="M1741.07,410.7c-5.943,0-8.827-3.37-8.858-3.41l.129-.106c.031.036,2.872,3.343,8.729,3.343a16.913,16.913,0,0,0,2.244-.152l.023.166a16.768,16.768,0,0,1-2.267.159" transform="translate(-1073.142 -168.505)" fill="#fff"/>
    <path id="Path_55615" data-name="Path 55615" d="M1627.924,578.873s-20.113,2.765-27.165,15.89c0,0,2.079,6.555,11.989,6.682s15.176-22.572,15.176-22.572" transform="translate(-976.673 -294.388)" fill="#04bab8"/>
    <path id="Path_55616" data-name="Path 55616" d="M811.441,793.219h0a2.778,2.778,0,0,1-3.362,2.018l-5.811-1.48a2.785,2.785,0,0,1,1.367-5.4l5.811,1.48a2.787,2.787,0,0,1,1.995,3.382" transform="translate(-389.163 -448.007)" fill="#057ca4"/>
    <path id="Path_55617" data-name="Path 55617" d="M626.691,665.764c-10.611,0-19.477-1.2-27.083-7.385C583.686,645.43,583.5,617.581,583.5,616.4c0,0-7.512-10.8-.035-10.226,6.344.488,9.972,5.821,11,9.483,1.995,7.114,2.25,19.869,11.824,27.656,6.665,5.42,16.516,5.1,30.151,4.659l1.016-.033c3.584-.106,6.556,3.724,6.641,8.575s-2.75,8.877-6.333,8.992l-1.013.033c-3.52.114-6.869.222-10.06.222" transform="translate(-227.688 -314.385)" fill="#057ca4"/>
    <path id="Path_55618" data-name="Path 55618" d="M830.452,778.722a14.962,14.962,0,0,1,7.978-1.941c4.469.178,10.962.895,13.234,3.479,3.593,4.086,5.094,12.022,2.329,9.962a35.853,35.853,0,0,1-5.572-5.668s3.194,8.5.755,9.007-4.41-7.261-4.41-7.261,4.508,9.412,2.048,9.145-5.907-7.032-5.907-7.032,6,8.287,3.15,7.911-5.053-6.654-7.492-6.146a14.655,14.655,0,0,1-5.024-.756,5.751,5.751,0,0,1-1.341-10.558Z" transform="translate(-409.047 -439.563)" fill="#68a1bf"/>
    <path id="Path_55619" data-name="Path 55619" d="M752.669,781.312c-2.643-11.53,3.553-17.693,3.617-17.753l.205.212c-2.134,2.069-5.619,8.385-3.534,17.475Z" transform="translate(-353.809 -429.872)" fill="#daebe8"/>
    <path id="Path_55620" data-name="Path 55620" d="M686.9,777.064c-.813-3.449-.983-8.451,2.822-12.675a14.782,14.782,0,0,1,4.962-3.592l.106.271a14.608,14.608,0,0,0-4.856,3.526c-2.049,2.281-4.189,6.279-2.746,12.4Z" transform="translate(-305.674 -427.848)" fill="#daebe8"/>
    <path id="Path_55621" data-name="Path 55621" d="M627.73,740.066h-.295c0-4.611,1.17-8.014,3.469-10.122a8.7,8.7,0,0,1,6.071-2.2l-.026.291a8.506,8.506,0,0,0-5.849,2.135c-2.233,2.049-3.367,5.379-3.37,9.9" transform="translate(-262.386 -403.591)" fill="#daebe8"/>
    <path id="Path_55622" data-name="Path 55622" d="M598.738,682.438l-.265-.132c.023-.047,2.327-4.595,6.369-5.873a7.842,7.842,0,0,1,6.265.791l-.139.258a7.526,7.526,0,0,0-6.036-.771c-3.921,1.242-6.172,5.68-6.193,5.727" transform="translate(-241.132 -365.715)" fill="#daebe8"/>
    <path id="Path_55623" data-name="Path 55623" d="M485.77,921.342c14.242-8.8,58.431,7.02,79.587,15.921,16.494,6.94,10.439,32.7-4.525,29.455-17.706-3.84-71.783-9.82-71.783-9.82-1.7-.3-9.165-.927-9.705-2.539-2.929-8.736-12.97-21.034,6.426-33.018" transform="translate(-149.883 -543.707)" fill="#68a1bf"/>
    <path id="Path_55624" data-name="Path 55624" d="M733.694,1005.8s26.295,7.131,30.912,1.1c16.662-21.762-17.012-30.8-17.012-30.8s2.251,16.948-13.9,29.7" transform="translate(-340.366 -585.777)" fill="#057ca4"/>
    <path id="Path_55625" data-name="Path 55625" d="M750.847,1327.109h0a2.843,2.843,0,0,1-2.885-2.816l-.036-4.426a2.9,2.9,0,0,1,2.838-2.905,2.843,2.843,0,0,1,2.885,2.815l.036,4.426a2.9,2.9,0,0,1-2.839,2.905" transform="translate(-350.811 -835.809)" fill="#366f90"/>
    <path id="Path_55626" data-name="Path 55626" d="M741.193,1343.214a7.259,7.259,0,0,1,6.829,3.648,6.082,6.082,0,0,0,2.991,2.727c4.242,1.7,16.507,3.093,11.962,7.182-2.608,2.346-15,1.051-18.5,1.106s-6.765,1.629-9.381-.669c-1.567-1.376-1.465-5.812-1.046-9.568a4.985,4.985,0,0,1,5.432-4.447,8.1,8.1,0,0,0,1.23.049q.244-.01.478-.027" transform="translate(-340.433 -855.036)" fill="#057ca4"/>
    <path id="Path_55627" data-name="Path 55627" d="M747.189,1124.438s-6.327,4.058-12.124,1.207-2.645-13.7-1.914-30.118-.591-33.509,2.149-34.93,10.612,1.406,16.631-2.143S764.343,1047.8,768,1050.86c1.74,1.457-5.134,26.068-9.465,40.453-3.645,12.107-5.111,26.854-11.345,33.124" transform="translate(-338.858 -639.978)" fill="#68a1bf"/>
    <path id="Path_55628" data-name="Path 55628" d="M768.428,1109.92a1.66,1.66,0,0,1,1.631-1.67,1.629,1.629,0,0,1,1.658,1.618,1.66,1.66,0,0,1-1.632,1.67,1.63,1.63,0,0,1-1.658-1.618" transform="translate(-365.856 -682.744)" fill="#366f90"/>
    <path id="Path_55629" data-name="Path 55629" d="M758.643,1318.534a1.66,1.66,0,0,1,1.631-1.67,1.63,1.63,0,0,1,1.658,1.618,1.66,1.66,0,0,1-1.631,1.67,1.63,1.63,0,0,1-1.658-1.618" transform="translate(-358.675 -835.737)" fill="#366f90"/>
    <path id="Path_55630" data-name="Path 55630" d="M505.651,970.8c-9.826.439-18.677-4.505-19.093-13.81s7.07-20.4,16.9-20.835c13.916-.622,21.462,14.18,21.878,23.485s-9.855,10.721-19.681,11.16" transform="translate(-158.99 -556.464)" fill="#057ca4"/>
    <path id="Path_55631" data-name="Path 55631" d="M499.848,971.955c-9.631.431-19.957.65-20.391-9.056s6.873-21.252,16.505-21.682c13.64-.61,21.08,14.849,21.514,24.555s-8,5.753-17.628,6.183" transform="translate(-153.777 -560.178)" fill="#7fc1dd"/>
    <path id="Path_55632" data-name="Path 55632" d="M507.56,986.415a14.071,14.071,0,0,1-13.986-13.473,18.936,18.936,0,0,1,3.575-11.437c2.61-3.645,6.039-5.74,9.656-5.9.2-.01.405-.013.606-.013,10.133,0,16.235,11.46,16.6,19.6.346,7.729-7.95,10.858-15.826,11.212-.208.01-.417.013-.624.013m-.149-30.408c-.194,0-.389,0-.586.013-7.513.337-13.163,9.523-12.834,16.9A13.656,13.656,0,0,0,507.56,986c.2,0,.4,0,.6-.013,7.676-.344,15.76-3.357,15.429-10.775-.357-7.974-6.307-19.2-16.182-19.2" transform="translate(-164.14 -570.735)" fill="#057ca4"/>
    <path id="Path_55633" data-name="Path 55633" d="M428.2,887.161l-.794-.656c.031-.036,3.075-3.787,2.469-6.882a4.188,4.188,0,0,0-2.317-2.88,2.786,2.786,0,0,1-1.652-2.347c-.189-3.612,6.806-8.521,7.6-9.07l.583.847c-2.038,1.4-7.294,5.594-7.16,8.17a1.814,1.814,0,0,0,1.116,1.5,5.153,5.153,0,0,1,2.837,3.585c.7,3.572-2.547,7.564-2.685,7.733" transform="translate(-114.491 -504.525)" fill="#057ca4"/>
    <path id="Path_55634" data-name="Path 55634" d="M579.695,881.061l-.52-.887c.046-.027,4.662-2.777,5.293-6.409a5.249,5.249,0,0,0-1.371-4.356c-4.209-5.035-.955-12.152-.814-12.453l.93.437c-.031.066-3.113,6.829.672,11.354a6.233,6.233,0,0,1,1.6,5.2c-.715,4.1-5.58,6.995-5.786,7.117" transform="translate(-226.97 -498.383)" fill="#057ca4"/>
    <path id="Path_55635" data-name="Path 55635" d="M466.428,822.965s-10.463,33.546-7.373,34.623,27.856-1.208,28.747-2.169,3.02-30.681.643-32.155-22.017-.3-22.017-.3" transform="translate(-138.399 -473.117)" fill="#057ca4"/>
    <path id="Path_55636" data-name="Path 55636" d="M396.768,603.867s5.411-13.634,32.528-13.78c34.572-.187,32.464,20.113,32.555,55.086a20.79,20.79,0,0,1-16.87,20.428c-7.971,1.545-19.1,2.618-34.164,1.963A13.544,13.544,0,0,1,398.056,656.5c-2.438-13.393-7.068-37.592-1.287-52.629" transform="translate(-91.065 -302.589)" fill="#78bdda"/>
    <path id="Path_55637" data-name="Path 55637" d="M409.557,921.342c14.243-8.8,58.431,7.02,79.587,15.921,16.494,6.94,10.439,32.7-4.525,29.455-17.706-3.84-71.783-9.82-71.783-9.82-1.7-.3-9.165-.927-9.705-2.539-2.928-8.736-12.97-21.034,6.426-33.018" transform="translate(-93.953 -543.707)" fill="#72b4d0"/>
    <path id="Path_55638" data-name="Path 55638" d="M657.481,1005.8s26.295,7.131,30.912,1.1c16.662-21.762-17.012-30.8-17.012-30.8s2.251,16.948-13.9,29.7" transform="translate(-284.436 -585.777)" fill="#057ca4"/>
    <path id="Path_55639" data-name="Path 55639" d="M674.634,1327.109h0a2.843,2.843,0,0,1-2.885-2.816l-.036-4.426a2.9,2.9,0,0,1,2.839-2.905,2.843,2.843,0,0,1,2.885,2.815l.036,4.426a2.9,2.9,0,0,1-2.839,2.905" transform="translate(-294.881 -835.809)" fill="#366f90"/>
    <path id="Path_55640" data-name="Path 55640" d="M665.011,1343.223a7.127,7.127,0,0,1,6.834,4.072,6.408,6.408,0,0,0,2.995,3.041c4.245,1.894,16.512,3.468,11.972,8.015-2.6,2.609-15,1.151-18.494,1.207s-6.763,1.806-9.382-.757c-1.569-1.535-1.473-6.476-1.059-10.659.3-3.017,2.72-5.288,5.426-4.946a7.267,7.267,0,0,0,1.231.057q.244-.011.478-.029" transform="translate(-284.535 -855.036)" fill="#006a8e"/>
    <path id="Path_55641" data-name="Path 55641" d="M670.976,1124.438s-6.327,4.058-12.124,1.207-2.645-13.7-1.914-30.118-.591-33.509,2.149-34.93,10.612,1.406,16.631-2.143,12.411-10.654,16.067-7.594c1.74,1.457-5.134,26.068-9.465,40.453-3.645,12.107-5.111,26.854-11.345,33.124" transform="translate(-282.928 -639.978)" fill="#72b4d0"/>
    <path id="Path_55642" data-name="Path 55642" d="M692.215,1109.92a1.66,1.66,0,0,1,1.631-1.67,1.629,1.629,0,0,1,1.658,1.618,1.66,1.66,0,0,1-1.631,1.67,1.63,1.63,0,0,1-1.658-1.618" transform="translate(-309.926 -682.744)" fill="#366f90"/>
    <path id="Path_55643" data-name="Path 55643" d="M682.43,1318.534a1.66,1.66,0,0,1,1.631-1.67,1.629,1.629,0,0,1,1.658,1.618,1.66,1.66,0,0,1-1.631,1.67,1.63,1.63,0,0,1-1.658-1.618" transform="translate(-302.745 -835.737)" fill="#366f90"/>
    <path id="Path_55644" data-name="Path 55644" d="M428.889,973.047c-9.826.439-18.129-6.748-18.545-16.052s7.07-20.4,16.9-20.835c13.916-.622,21.462,14.18,21.878,23.485s-10.4,12.963-20.229,13.4" transform="translate(-103.059 -556.463)" fill="#057ca4"/>
    <path id="Path_55645" data-name="Path 55645" d="M421.47,979.693A17.524,17.524,0,0,1,403.245,962.9c-.434-9.706,6.873-21.252,16.5-21.682,13.64-.61,21.08,14.849,21.514,24.555S431.1,979.262,421.47,979.693" transform="translate(-97.848 -560.172)" fill="#7fc1dd"/>
    <path id="Path_55646" data-name="Path 55646" d="M431.346,986.415a14.071,14.071,0,0,1-13.986-13.473,18.936,18.936,0,0,1,3.575-11.437c2.61-3.645,6.039-5.74,9.656-5.9.2-.01.405-.013.606-.013,10.133,0,16.235,11.46,16.6,19.6.346,7.729-7.95,10.858-15.826,11.212-.208.01-.417.013-.624.013m-.149-30.408c-.194,0-.389,0-.586.013-7.513.337-13.163,9.523-12.834,16.9A13.656,13.656,0,0,0,431.346,986c.2,0,.4,0,.6-.013,7.676-.344,15.76-3.357,15.429-10.775-.357-7.974-6.307-19.2-16.182-19.2" transform="translate(-108.209 -570.735)" fill="#057ca4"/>
    <path id="Path_55647" data-name="Path 55647" d="M498.473,528.832c2.73,3.337,7.959,3.709,11.993,2.573,2.042-.576,2.123-2.723,1.486-2.864-1.561-.346-1.776-1.695-1.833-3.1l-.075-1.835-.009-.228-.1-2.393-.172-4.127-.447-10.857-3.411,10.914-.58,1.857-1.991,6.379c-.641,2.059-3.788,3.227-4.863,3.677" transform="translate(-167.746 -240.932)" fill="#057ca4"/>
    <path id="Path_55648" data-name="Path 55648" d="M522.684,560.127a7.576,7.576,0,0,0,5.127,3.2l-.009-.228-.1-2.393c-1.885-.18-5.021-.58-5.021-.58" transform="translate(-185.513 -280.642)" fill="#057ca4"/>
    <path id="Path_55649" data-name="Path 55649" d="M510.981,459.388c-1.279-9.664-8.819-16.243-16.938-15.593-15.458,1.237-17.3,14.616-13.741,21.11,4.682,8.55,10.295,14.939,18.371,13.886s13.587-9.74,12.308-19.4" transform="translate(-153.281 -195.262)" fill="#78bdda"/>
    <path id="Path_55650" data-name="Path 55650" d="M537.835,505.3a.3.3,0,0,0-.134-.547,3.245,3.245,0,0,0-3.446,1.947.3.3,0,0,0,.134.4.33.33,0,0,0,.4-.133,5.132,5.132,0,0,1,2.861-1.62.3.3,0,0,0,.184-.045" transform="translate(-193.982 -239.997)" fill="#080435"/>
    <path id="Path_55651" data-name="Path 55651" d="M542.748,517.036c.188.683.745,1.127,1.244.992a1.146,1.146,0,0,0,.565-1.482c-.188-.683-.745-1.127-1.244-.992a1.146,1.146,0,0,0-.565,1.482" transform="translate(-200.192 -247.926)" fill="#080435"/>
    <path id="Path_55652" data-name="Path 55652" d="M580.874,500.658a.217.217,0,0,0,.161-.148.356.356,0,0,0-.116-.4,2.107,2.107,0,0,0-3.048.344.351.351,0,0,0-.006.415.222.222,0,0,0,.33.044,3.159,3.159,0,0,1,2.531-.288.2.2,0,0,0,.147.035" transform="translate(-225.961 -236.24)" fill="#080435"/>
    <path id="Path_55653" data-name="Path 55653" d="M579.067,511.8c-.089.7.256,1.324.77,1.388s1-.454,1.091-1.157-.256-1.324-.77-1.388-1,.454-1.09,1.157" transform="translate(-226.88 -244.336)" fill="#080435"/>
    <path id="Path_55654" data-name="Path 55654" d="M492.455,491.256c0,4.506-2.405,8.158-5.372,8.158s-5.372-3.653-5.372-8.158,2.405-8.158,5.372-8.158,5.372,3.653,5.372,8.158" transform="translate(-155.445 -224.13)" fill="#057ca4"/>
    <path id="Path_55655" data-name="Path 55655" d="M484.962,491.256c0,4.506-2.405,8.158-5.372,8.158s-5.372-3.653-5.372-8.158,2.405-8.158,5.372-8.158,5.372,3.653,5.372,8.158" transform="translate(-149.946 -224.13)" fill="#86d6ef"/>
    <path id="Path_55656" data-name="Path 55656" d="M511.488,681.889a23.723,23.723,0,0,1-4.179-.295c-2.815-.533-4.375-1.314-5.219-2.605-1.059-1.625-1.047-4.085.042-8.772,1.8-7.729-.737-26.17-.763-26.356v0c-.05-.4.243-.758.869-1.063,4.1-2.013,25.12-2.155,27.1-.185,1.347,1.337,2.044,14.264,2.226,18.193.371,8.007.437,16.995-.169,17.878-.947,1.384-12.485,3.208-19.908,3.208m-9.778-38.074c.038.278,2.562,18.706.756,26.482-1.066,4.585-1.089,6.968-.088,8.5.786,1.208,2.281,1.943,4.994,2.456,6.212,1.2,22.791-1.373,23.743-2.767.477-.7.526-8.626.108-17.67-.466-10.1-1.3-17.147-2.125-17.965-.761-.758-5.867-1.3-12.177-1.3h-.209c-6.811.013-12.433.619-14.323,1.546-.33.162-.715.417-.679.715" transform="translate(-169.824 -340.107)" fill="#057ca4"/>
    <path id="Path_55657" data-name="Path 55657" d="M548.314,539.641s6.78,2.06,9.475-1.288c0,0-.841,4.721-4.738,5.064s-4.738-3.777-4.738-3.777" transform="translate(-204.322 -264.668)" fill="#fff"/>
    <path id="Path_55658" data-name="Path 55658" d="M550.578,675.948s.688-23.9-2.58-25.007-15.137-1.963-15.824,0,7.74,4.438,8.428,9.9,9.921,21.592,9.976,15.107" transform="translate(-192.448 -346.392)" fill="#86d6ef"/>
    <path id="Path_55659" data-name="Path 55659" d="M543.692,946.25s34.852,11.48,36.954,8.932-5.312-7.137-14.326-9.675-24.754-8.41-25.369-6.352,1.232,6.6,2.741,7.094" transform="translate(-198.829 -558.373)" fill="#84cbe2"/>
    <path id="Path_55660" data-name="Path 55660" d="M747.686,1095.723c-.048-.548.876-13.25,3.322-16.078s6.381-3.41,5.732-1.443-8.48,24.1-9.054,17.522" transform="translate(-350.633 -659.839)" fill="#7fc1dd"/>
    <path id="Path_55661" data-name="Path 55661" d="M546.38,454s-3.782-5.532-8.827-5.437-3.214,2.645-1.226,3.967,12.407,5.491,10.053,1.47" transform="translate(-194.037 -198.8)" fill="#86d6ef"/>
    <path id="Path_55662" data-name="Path 55662" d="M702.341,803.3h0a2.779,2.779,0,0,1-3.362,2.018l-5.811-1.48a2.785,2.785,0,0,1,1.367-5.4l5.811,1.48a2.787,2.787,0,0,1,1.995,3.382" transform="translate(-309.098 -455.402)" fill="#057ca4"/>
    <path id="Path_55663" data-name="Path 55663" d="M462.682,682.505c-14.368,0-26.374-1.2-36.672-7.385-18.507-11.115-21.023-31.428-21.364-37.7a10.23,10.23,0,0,1,.586-4.026c1-2.771,3.3-7.289,7.854-7.959,8.513-1.252,8.689,7.712,8.689,7.712v-.038c0,.191.32,19.164,13.284,26.951,9.024,5.42,22.363,5.1,40.826,4.659l1.376-.033a8.791,8.791,0,0,1,8.995,8.813,8.9,8.9,0,0,1-8.759,8.759l-1.191.028c-4.766.114-9.3.223-13.622.223" transform="translate(-98.878 -328.439)" fill="#057ca4"/>
    <path id="Path_55665" data-name="Path 55665" d="M619.68,791.321a16.407,16.407,0,0,1,1.084-13.281,14.745,14.745,0,0,1,3.82-4.518l.2.278c-.083.059-8.294,6.1-4.775,17.422Z" transform="translate(-256.04 -437.181)" fill="#daebe8"/>
    <path id="Path_55666" data-name="Path 55666" d="M530.587,787.085a11.053,11.053,0,0,1,.551-8.845c2.86-5.356,9.913-7.448,9.984-7.468l.1.331c-.07.02-6.988,2.072-9.778,7.3a10.708,10.708,0,0,0-.525,8.573Z" transform="translate(-190.83 -435.164)" fill="#daebe8"/>
    <path id="Path_55667" data-name="Path 55667" d="M450.45,750.077h-.344c.005-3.932,1.16-7.011,3.438-9.143,3.774-3.535,9.388-3.211,9.446-3.214l-.023.344c-.046-.016-5.525-.314-9.191,3.122-2.2,2.066-3.322,5.058-3.325,8.891" transform="translate(-132.251 -410.915)" fill="#daebe8"/>
    <path id="Path_55668" data-name="Path 55668" d="M411.211,692.5l-.285-.192c.065-.093,6.437-9.332,17.039-5.085l-.126.318c-10.338-4.131-16.566,4.863-16.629,4.959" transform="translate(-103.498 -373.059)" fill="#daebe8"/>
    <path id="Path_55669" data-name="Path 55669" d="M765.526,829.907c-2.352-4.879-5.262-6.508-5.29-6.524l.139-.258c.123.066,3.017,1.681,5.416,6.657Z" transform="translate(-359.844 -473.575)" fill="#057ca4"/>
    <path id="Path_55670" data-name="Path 55670" d="M778.878,822.351c-.022-.073-2.167-7.067-4.792-7.842l.083-.278c2.777.814,4.9,7.74,4.99,8.034Z" transform="translate(-370.008 -467.05)" fill="#057ca4"/>
    <path id="Path_55671" data-name="Path 55671" d="M788.082,809.21a6.6,6.6,0,0,0-3.305-2.34l.053-.288a6.746,6.746,0,0,1,3.474,2.437Z" transform="translate(-377.854 -461.441)" fill="#057ca4"/>
    <path id="Path_55673" data-name="Path 55673" d="M881.269,991.556l-.493-.071c-.384-.055-.663-1.069-.623-2.265l5.062-151.2,7.323-5.862L882.443,988.5c-.079,1.789-.6,3.143-1.174,3.06" transform="translate(-447.844 -480.027)" fill="#057ca4"/>
    <path id="Path_55674" data-name="Path 55674" d="M1538.329,991.556l.493-.071c.384-.055.663-1.069.623-2.265l-5.062-151.2-7.323-5.862,10.1,156.341c.079,1.789.6,3.143,1.174,3.06" transform="translate(-922.587 -480.027)" fill="#057ca4"/>
    <path id="Path_55675" data-name="Path 55675" d="M972.384,855.513c0,9.411-68.315,17.04-152.586,17.04s-152.586-7.629-152.586-17.04,68.315-17.04,152.586-17.04,152.586,7.629,152.586,17.04" transform="translate(-291.577 -484.819)" fill="#68a1bf"/>
    <rect id="Rectangle_20337" data-name="Rectangle 20337" width="305.172" height="7.858" transform="translate(375.635 362.83)" fill="#68a1bf"/>
    <path id="Path_55676" data-name="Path 55676" d="M972.384,825.986c0,9.411-68.315,17.04-152.586,17.04s-152.586-7.629-152.586-17.04,68.315-17.04,152.586-17.04,152.586,7.629,152.586,17.04" transform="translate(-291.577 -463.159)" fill="#b8d5dc"/>
    <path id="Path_55677" data-name="Path 55677" d="M842.209,752.22h59.2a2.876,2.876,0,0,0,2.731-1.956l12.3-36.742a2.861,2.861,0,0,0-2.731-3.76H856.781a6.021,6.021,0,0,0-5.716,4.095l-11.587,34.6a2.861,2.861,0,0,0,2.731,3.76" transform="translate(-417.887 -390.396)" fill="#30262a"/>
    <path id="Path_55678" data-name="Path 55678" d="M856.171,752.22h59.2a2.876,2.876,0,0,0,2.731-1.956l12.3-36.742a2.861,2.861,0,0,0-2.731-3.76H870.743a6.021,6.021,0,0,0-5.716,4.095l-11.587,34.6a2.861,2.861,0,0,0,2.731,3.76" transform="translate(-428.133 -390.396)" fill="#30262a"/>
    <path id="Path_55679" data-name="Path 55679" d="M997.071,783c-.826,0-3.34,0-3.362-2.671a3.424,3.424,0,0,1,1.087-2.4,4.487,4.487,0,0,1,2.89-1.377c1.645,0,3.307.7,3.307,2.254,0,1.947-2.373,4.2-3.923,4.2m.616-5.869a3.927,3.927,0,0,0-2.474,1.208,2.851,2.851,0,0,0-.917,1.983c.012,1.466.841,2.1,2.776,2.1,1.268,0,3.337-2.019,3.337-3.615,0-1.317-1.71-1.672-2.721-1.672" transform="translate(-531.182 -439.403)" fill="#fff"/>
    <path id="Path_55681" data-name="Path 55681" d="M878.838,727.736l-.447-.119c.119-.45,2.948-11.049,4.854-14.482,1.938-3.489,4.316-4.177,4.418-4.2l.122.444c-.023.006-2.3.679-4.136,3.986-1.88,3.38-4.783,14.267-4.811,14.376" transform="translate(-446.554 -389.798)" fill="#057ca4"/>
    <path id="Path_55682" data-name="Path 55682" d="M847.053,809.313v-.463c1.912,0,2.387-.785,2.392-.794l4.6-13.737.437.146-4.615,13.777c-.038.08-.594,1.073-2.812,1.073" transform="translate(-423.556 -452.438)" fill="#057ca4"/>
    <path id="Path_55683" data-name="Path 55683" d="M1496.1,798.933s-16.406-4.778-21.8-1.033-9.445,12.6-5.611,10.993a43.269,43.269,0,0,0,8.166-5.025s-6.2,9.028-3.49,10.329,7.266-7.227,7.266-7.227-8,9.717-5.046,10.117,8.952-6.525,8.952-6.525-9.424,7.969-5.979,8.353,7.844-6.331,10.553-5.03,16.424.191,21.472-1.232Z" transform="translate(-878.65 -454.01)" fill="#ffe3db"/>
    <path id="Path_55684" data-name="Path 55684" d="M1503.227,817.343l-.354-.2a5.816,5.816,0,0,1,4.4-2.453l.053.4a5.529,5.529,0,0,0-4.1,2.247" transform="translate(-904.838 -467.39)" fill="#f69b6e"/>
    <path id="Path_55685" data-name="Path 55685" d="M1517.495,828.941l-.268-.3c.116-.1,2.784-2.44,5.3-2.44.112,0,.227.007.339.017l-.036.4c-.1-.006-.2-.013-.3-.013-2.364,0-5,2.314-5.033,2.337" transform="translate(-915.372 -475.83)" fill="#f69b6e"/>
    <path id="Path_55686" data-name="Path 55686" d="M1532.088,841.7l-.364-.186c.052-.1,1.274-2.443,4.927-2.744l.033.4a5.593,5.593,0,0,0-4.6,2.526" transform="translate(-926.011 -485.054)" fill="#f69b6e"/>
    <path id="Path_55687" data-name="Path 55687" d="M1577.638,719.79l-1.8-14.515c22.159-2.02,32.3-11.753,42.132-23.988,5.171-6.435,6.4-10.893,6.413-10.99,0,0,2.747-2.1,8.708-1.253,10.516,1.493,12.092,7.157,12.092,7.157-.047.552.151,5.873-9.467,18.806-5.632,7.574-12.067,12.4-20.933,16.71-10.72,5.21-22.391,8.047-37.149,8.072" transform="translate(-958.387 -360.376)" fill="#ffe3db"/>
    <path id="Path_55688" data-name="Path 55688" d="M1733.821,776.177a2.716,2.716,0,0,1-1.779-.609c-1.463-1.225-1.225-3.929.53-6.021a6.191,6.191,0,0,1,2.978-2.026,2.81,2.81,0,0,1,3.8,3.188,6.189,6.189,0,0,1-1.473,3.284,5.834,5.834,0,0,1-3.745,2.172c-.108.01-.212.013-.315.013m2.811-8.256a3.4,3.4,0,0,0-.93.139,5.635,5.635,0,0,0-2.7,1.844c-1.557,1.861-1.826,4.207-.6,5.234a2.125,2.125,0,0,0,1.683.467,5.246,5.246,0,0,0,3.365-1.97,5.632,5.632,0,0,0,1.346-2.983,2.5,2.5,0,0,0-.746-2.251,2.156,2.156,0,0,0-1.418-.48" transform="translate(-1072.313 -432.666)" fill="#e9845c"/>
    <path id="Path_55689" data-name="Path 55689" d="M1313.455,771.637h-59.2a2.876,2.876,0,0,1-2.731-1.956l-12.3-36.742a2.861,2.861,0,0,1,2.731-3.76h56.932a6.021,6.021,0,0,1,5.716,4.095l11.586,34.6a2.861,2.861,0,0,1-2.731,3.76" transform="translate(-711.243 -404.64)" fill="#30262a"/>
    <path id="Path_55690" data-name="Path 55690" d="M1299.493,771.637h-59.2a2.877,2.877,0,0,1-2.731-1.956l-12.3-36.742a2.861,2.861,0,0,1,2.731-3.76h56.932a6.02,6.02,0,0,1,5.716,4.095l11.587,34.6a2.861,2.861,0,0,1-2.731,3.76" transform="translate(-700.997 -404.64)" fill="#30262a"/>
    <path id="Path_55691" data-name="Path 55691" d="M1351.564,802.412c-1.549,0-3.923-2.251-3.923-4.2,0-1.559,1.661-2.254,3.307-2.254a4.5,4.5,0,0,1,2.888,1.374,3.448,3.448,0,0,1,1.089,2.406c-.021,2.672-2.536,2.672-3.361,2.672m-.616-5.869c-1.011,0-2.721.354-2.721,1.672,0,1.6,2.069,3.615,3.337,3.615,1.935,0,2.764-.629,2.776-2.1a2.868,2.868,0,0,0-.919-1.986,3.942,3.942,0,0,0-2.473-1.2" transform="translate(-790.919 -453.647)" fill="#fff"/>
    <path id="Path_55692" data-name="Path 55692" d="M1377.8,869.2h-95.749V874.4h97.441a1.749,1.749,0,0,0,1.75-1.75,3.442,3.442,0,0,0-3.443-3.443" transform="translate(-742.782 -507.378)" fill="#30262a"/>
    <path id="Path_55693" data-name="Path 55693" d="M1463.978,747.151c-.028-.109-2.931-11-4.812-14.376-1.837-3.307-4.114-3.979-4.136-3.986l.122-.444c.1.027,2.478.715,4.418,4.2,1.906,3.433,4.735,14.032,4.854,14.482Z" transform="translate(-869.728 -404.04)" fill="#057ca4"/>
    <path id="Path_55694" data-name="Path 55694" d="M1501.188,828.729c-2.218,0-2.774-.99-2.8-1.033l-4.629-13.817.437-.146,4.615,13.78c.007,0,.5.752,2.375.752Z" transform="translate(-898.152 -466.681)" fill="#057ca4"/>
    <path id="Path_55695" data-name="Path 55695" d="M577.027,613.538a16.372,16.372,0,0,0-7.113-7.127c-4.979-2.44-9.609-1.428-10.012,0-.853,3.027,7.054,2.392,11.935,6.443,3.329,2.763,6.348,4.589,5.19.683" transform="translate(-212.779 -313.512)" fill="#86d6ef"/>
    <path id="Path_55696" data-name="Path 55696" d="M1238.917,263.869l.6,2.862a2.025,2.025,0,0,0,2.4,1.567l3.479-.727a2.024,2.024,0,0,0,1.568-2.4l-.423-2.024a2.022,2.022,0,0,1,1.011-2.19q.224-.122.444-.253a2.011,2.011,0,0,1,2.274.17l1.468,1.169a2.024,2.024,0,0,0,2.845-.323l2.214-2.781a2.024,2.024,0,0,0-.322-2.844L1255,254.929a2.01,2.01,0,0,1-.674-2.175q.077-.243.146-.487a2.022,2.022,0,0,1,1.909-1.478l2.067-.04a2.024,2.024,0,0,0,1.984-2.064l-.07-3.555a2.024,2.024,0,0,0-2.063-1.984l-2.924.056a2.032,2.032,0,0,1-1.858-1.137,14.213,14.213,0,0,0-1.012-1.725,2.035,2.035,0,0,1,.075-2.422l1.434-1.8a2.024,2.024,0,0,0-.323-2.845l-2.78-2.213a2.025,2.025,0,0,0-2.845.323l-1.928,2.422a2.025,2.025,0,0,1-2.055.716q-.276-.067-.555-.123a2.015,2.015,0,0,1-1.569-1.568l-.674-3.23a2.024,2.024,0,0,0-2.4-1.568l-3.482.727a2.024,2.024,0,0,0-1.568,2.4l.58,2.775a2.026,2.026,0,0,1-.959,2.161l-.025.014a2.02,2.02,0,0,1-2.284-.163l-2.081-1.659a2.025,2.025,0,0,0-2.846.323l-2.215,2.783a2.025,2.025,0,0,0,.324,2.845l2.081,1.656a2.019,2.019,0,0,1,.671,2.19l-.01.03a2.025,2.025,0,0,1-1.891,1.419l-2.832.055a2.024,2.024,0,0,0-1.985,2.065l.072,3.557a2.024,2.024,0,0,0,2.064,1.983l3.3-.066a2.015,2.015,0,0,1,1.88,1.178q.117.258.244.513a2.023,2.023,0,0,1-.238,2.162l-1.929,2.421a2.024,2.024,0,0,0,.322,2.845l2.781,2.216a2.024,2.024,0,0,0,2.845-.322l1.435-1.8a2.035,2.035,0,0,1,2.342-.616,14.154,14.154,0,0,0,1.906.6,2.033,2.033,0,0,1,1.527,1.557m-3.352-9.2c-3.23-2.572-3.6-8.959-1.03-12.189s7.93-3.094,11.156-.521,2.74,8.044.168,11.274a7.263,7.263,0,0,1-10.293,1.437" transform="translate(-697.518 -36.999)" fill="#47c6e7"/>
    <path id="Path_55697" data-name="Path 55697" d="M1224.772,497.238l-.134,0-6.1-.212a3.827,3.827,0,0,1-3.673-3.946l.164-5.351a3.2,3.2,0,0,0-1.722-2.957c-.293-.149-.587-.306-.873-.467a3.114,3.114,0,0,0-3.448.273l-4.471,3.491a3.78,3.78,0,0,1-5.324-.684l-3.755-4.867a3.834,3.834,0,0,1,.662-5.355l3.839-2.994a3.19,3.19,0,0,0,1.039-3.567l-.018-.052a3.187,3.187,0,0,0-2.886-2.139l-4.565-.156a3.827,3.827,0,0,1-3.675-3.944l.185-6.149a3.786,3.786,0,0,1,3.909-3.685l4.568.16a3.141,3.141,0,0,0,3.007-1.932l.019-.046a3.21,3.21,0,0,0-.821-3.632l-3.65-3.257a3.841,3.841,0,0,1-.334-5.387l4.041-4.6a3.774,3.774,0,0,1,5.355-.316l4.248,3.792a3.124,3.124,0,0,0,3.425.512c.3-.143.6-.279.9-.406a3.175,3.175,0,0,0,1.9-2.831l.162-5.351a3.79,3.79,0,0,1,1.2-2.668,3.745,3.745,0,0,1,2.706-1.017l6.1.211a3.827,3.827,0,0,1,3.674,3.944l-.121,3.978a3.207,3.207,0,0,0,2.174,3.134,24.816,24.816,0,0,1,3.206,1.372,3.167,3.167,0,0,0,3.387-.3l3.965-3.091a3.78,3.78,0,0,1,5.322.687l3.751,4.867a3.833,3.833,0,0,1-.663,5.353l-2.8,2.185a3.169,3.169,0,0,0-1,3.657q.16.416.3.838a3.168,3.168,0,0,0,2.875,2.115l3.225.114a3.828,3.828,0,0,1,3.671,3.944l-.185,6.144a3.789,3.789,0,0,1-1.2,2.669,3.744,3.744,0,0,1-2.707,1.017l-3.221-.112a3.138,3.138,0,0,0-3,1.911q-.171.414-.356.819a3.188,3.188,0,0,0,.784,3.717l2.664,2.375a3.841,3.841,0,0,1,.334,5.388l-4.038,4.594a3.773,3.773,0,0,1-5.353.318l-3.766-3.358a3.179,3.179,0,0,0-3.367-.536,24.532,24.532,0,0,1-3.278,1.149,3.169,3.169,0,0,0-2.355,2.972l-.121,3.98a3.789,3.789,0,0,1-1.2,2.668,3.74,3.74,0,0,1-2.572,1.018m-13.858-13.964a3.728,3.728,0,0,1,1.825.477c.279.156.565.309.851.455a3.84,3.84,0,0,1,2.067,3.54l-.164,5.352a3.194,3.194,0,0,0,3.063,3.3l6.1.212a3.111,3.111,0,0,0,2.253-.846,3.161,3.161,0,0,0,1-2.226l.121-3.98a3.8,3.8,0,0,1,2.82-3.562,23.875,23.875,0,0,0,3.193-1.119,3.813,3.813,0,0,1,4.037.644l3.766,3.358a3.142,3.142,0,0,0,4.458-.264l4.038-4.594a3.207,3.207,0,0,0-.281-4.5l-2.663-2.376a3.815,3.815,0,0,1-.938-4.45q.181-.4.347-.8a3.776,3.776,0,0,1,3.6-2.3l3.221.112a3.117,3.117,0,0,0,2.253-.847,3.157,3.157,0,0,0,1-2.227l.186-6.145a3.2,3.2,0,0,0-3.062-3.293l-3.224-.114a3.8,3.8,0,0,1-3.45-2.541q-.141-.411-.3-.816a3.8,3.8,0,0,1,1.206-4.381l2.8-2.185a3.2,3.2,0,0,0,.551-4.469l-3.752-4.867a3.15,3.15,0,0,0-2.112-1.213,3.109,3.109,0,0,0-2.321.638l-3.965,3.091a3.8,3.8,0,0,1-4.064.366,24.264,24.264,0,0,0-3.124-1.337,3.836,3.836,0,0,1-2.6-3.749l.122-3.978a3.2,3.2,0,0,0-3.065-3.294l-6.1-.21a3.106,3.106,0,0,0-2.252.846,3.16,3.16,0,0,0-1,2.226l-.163,5.35a3.807,3.807,0,0,1-2.281,3.392c-.291.124-.586.257-.879.4a3.754,3.754,0,0,1-4.115-.611l-4.248-3.793a3.142,3.142,0,0,0-4.46.262l-4.041,4.6a3.208,3.208,0,0,0,.28,4.5l3.65,3.257a3.843,3.843,0,0,1,.983,4.346l-.31-.077.292.121a3.782,3.782,0,0,1-3.612,2.321l-4.568-.16a3.119,3.119,0,0,0-2.254.846,3.158,3.158,0,0,0-1,2.227l-.186,6.149a3.194,3.194,0,0,0,3.066,3.293l4.565.156a3.823,3.823,0,0,1,3.462,2.564l.018.051a3.824,3.824,0,0,1-1.248,4.271l-3.839,2.994a3.2,3.2,0,0,0-.551,4.471l3.756,4.867a3.152,3.152,0,0,0,2.113,1.212,3.116,3.116,0,0,0,2.322-.64l4.471-3.491a3.767,3.767,0,0,1,2.321-.8" transform="translate(-675.105 -183.331)" fill="#057ca4"/>
    <path id="Path_55698" data-name="Path 55698" d="M1278.595,533.328q-.221,0-.442-.008c-3.425-.119-7.049-2.109-9.942-5.461-2.806-3.25-4.418-7.263-4.312-10.735a11.9,11.9,0,0,1,3.971-8.273,15.883,15.883,0,0,1,11.165-4.25c3.392.116,6.551,1.995,8.895,5.291a17.62,17.62,0,0,1,3.232,10.522,13.781,13.781,0,0,1-4.207,9.623,12.138,12.138,0,0,1-8.359,3.291m-.056-28.1a15.291,15.291,0,0,0-10.238,4.088,11.279,11.279,0,0,0-3.771,7.832c-.219,7.177,6.923,15.312,13.645,15.546a11.526,11.526,0,0,0,8.348-3.113,13.15,13.15,0,0,0,4.008-9.181c.212-6.965-4.669-14.929-11.518-15.163q-.236-.008-.473-.008" transform="translate(-729.46 -239.895)" fill="#366f90"/>
    <path id="Path_55699" data-name="Path 55699" d="M852.417,235.483l7.884-2.035a5.638,5.638,0,0,0,4.05-6.865L861.881,217a5.638,5.638,0,0,0-6.868-4.052l-5.576,1.438a5.631,5.631,0,0,1-6.222-2.53q-.369-.608-.761-1.2a5.6,5.6,0,0,1,.18-6.346l3.064-4.234a5.638,5.638,0,0,0-1.264-7.874l-8.022-5.8a5.638,5.638,0,0,0-7.869,1.261l-3.069,4.237a5.6,5.6,0,0,1-5.964,2.154q-.685-.184-1.374-.342a5.632,5.632,0,0,1-4.357-5.119l-.378-5.744a5.638,5.638,0,0,0-6-5.255l-9.882.652a5.638,5.638,0,0,0-5.254,5.995l.534,8.129a5.659,5.659,0,0,1-2.925,5.316,39.663,39.663,0,0,0-4.669,3.036,5.666,5.666,0,0,1-6.746.1l-5.192-3.757a5.638,5.638,0,0,0-7.873,1.264l-5.8,8.02a5.638,5.638,0,0,0,1.264,7.871l6.985,5.053a5.638,5.638,0,0,1,2.258,5.623q-.151.778-.271,1.56a5.611,5.611,0,0,1-4.159,4.566l-8.9,2.291a5.638,5.638,0,0,0-4.054,6.866l2.471,9.593a5.638,5.638,0,0,0,6.866,4.053l7.644-1.97a5.642,5.642,0,0,1,6.133,2.39l.043.066a5.623,5.623,0,0,1-.16,6.375l-4.346,6a5.638,5.638,0,0,0,1.264,7.874l8.028,5.8a5.638,5.638,0,0,0,7.873-1.267l4.338-6a5.622,5.622,0,0,1,6.005-2.148l.085.023a5.641,5.641,0,0,1,4.19,5.079l.518,7.872a5.638,5.638,0,0,0,6,5.255l9.885-.658a5.638,5.638,0,0,0,5.251-6l-.609-9.171a5.61,5.61,0,0,1,3.036-5.38q.7-.358,1.394-.744a5.633,5.633,0,0,1,6.045.385l6.984,5.056a5.638,5.638,0,0,0,7.873-1.262l5.805-8.023a5.637,5.637,0,0,0-1.263-7.872l-5.2-3.759a5.667,5.667,0,0,1-2.014-6.435,39.456,39.456,0,0,0,1.416-5.379,5.661,5.661,0,0,1,4.135-4.448m-25.153,10.51c-6.74,9.316-24.46,11.175-33.776,4.435s-9.629-21.661-2.887-30.968,22.025-8.658,31.341-1.918,12.062,19.135,5.322,28.451" transform="translate(-354.197)" fill="#04bab8"/>
    <path id="Path_55700" data-name="Path 55700" d="M817.157,310.278a5.808,5.808,0,0,1-5.786-5.427l-.518-7.872a5.47,5.47,0,0,0-4.064-4.927l-.085-.023a5.481,5.481,0,0,0-5.824,2.083l-4.338,6a5.807,5.807,0,0,1-8.109,1.3l-8.028-5.8a5.807,5.807,0,0,1-1.3-8.111l4.346-6a5.482,5.482,0,0,0,.155-6.183l-.043-.066a5.47,5.47,0,0,0-5.949-2.319l-7.645,1.97a5.807,5.807,0,0,1-7.073-4.175l-2.471-9.593a5.807,5.807,0,0,1,4.176-7.072l8.9-2.291a5.431,5.431,0,0,0,4.034-4.428c.08-.521.171-1.048.272-1.566a5.479,5.479,0,0,0-2.19-5.454l-6.985-5.053a5.814,5.814,0,0,1-1.3-8.108l5.8-8.02a5.807,5.807,0,0,1,8.11-1.3l5.192,3.757a5.476,5.476,0,0,0,6.544-.1,39.9,39.9,0,0,1,4.688-3.049,5.52,5.52,0,0,0,2.838-5.157l-.534-8.128a5.814,5.814,0,0,1,5.412-6.175l9.882-.652a5.807,5.807,0,0,1,6.177,5.412l.379,5.744a5.43,5.43,0,0,0,4.226,4.965c.461.106.925.222,1.38.344a5.453,5.453,0,0,0,5.783-2.089l3.069-4.237a5.814,5.814,0,0,1,8.105-1.3l8.022,5.8a5.807,5.807,0,0,1,1.3,8.11l-3.064,4.234a5.451,5.451,0,0,0-.175,6.154c.261.4.518.8.763,1.209a5.43,5.43,0,0,0,6.035,2.454l5.576-1.438a5.807,5.807,0,0,1,7.074,4.174l2.47,9.586a5.814,5.814,0,0,1-4.172,7.072l-7.884,2.035-.042-.164.042.164a5.519,5.519,0,0,0-4.011,4.316,39.794,39.794,0,0,1-1.422,5.4,5.477,5.477,0,0,0,1.953,6.243l5.2,3.759a5.813,5.813,0,0,1,1.3,8.109l-5.805,8.023a5.807,5.807,0,0,1-8.11,1.3l-6.984-5.056a5.473,5.473,0,0,0-5.863-.374c-.458.256-.929.508-1.4.748a5.43,5.43,0,0,0-2.944,5.218l.608,9.171a5.814,5.814,0,0,1-5.408,6.179l-9.885.658q-.2.013-.394.013M805.32,291.51a5.679,5.679,0,0,1,1.471.193l.085.023a5.809,5.809,0,0,1,4.315,5.232l.518,7.872a5.468,5.468,0,0,0,5.819,5.1l9.885-.658a5.475,5.475,0,0,0,5.093-5.819l-.609-9.171a5.769,5.769,0,0,1,3.129-5.542c.467-.238.934-.487,1.388-.741a5.813,5.813,0,0,1,6.227.4l6.984,5.056a5.468,5.468,0,0,0,7.637-1.224l5.805-8.023a5.474,5.474,0,0,0-1.225-7.636l-5.2-3.759a5.815,5.815,0,0,1-2.076-6.627,39.46,39.46,0,0,0,1.41-5.356,5.86,5.86,0,0,1,4.26-4.581l7.883-2.035a5.475,5.475,0,0,0,3.928-6.659l-2.469-9.585a5.468,5.468,0,0,0-6.661-3.931l-5.576,1.438a5.768,5.768,0,0,1-6.41-2.607c-.244-.4-.5-.806-.757-1.2a5.792,5.792,0,0,1,.184-6.539l3.064-4.234a5.468,5.468,0,0,0-1.226-7.637l-8.022-5.8a5.475,5.475,0,0,0-7.632,1.223l-3.069,4.237a5.793,5.793,0,0,1-6.145,2.218c-.451-.121-.911-.236-1.368-.341a5.767,5.767,0,0,1-4.488-5.273l-.379-5.744a5.468,5.468,0,0,0-5.816-5.1l-9.882.652a5.475,5.475,0,0,0-5.1,5.815l.534,8.129a5.859,5.859,0,0,1-3.012,5.475,39.578,39.578,0,0,0-4.648,3.023,5.813,5.813,0,0,1-6.947.1l-5.192-3.757a5.468,5.468,0,0,0-7.636,1.226l-5.8,8.02A5.475,5.475,0,0,0,768.827,235l6.985,5.053a5.817,5.817,0,0,1,2.324,5.793c-.1.514-.191,1.037-.27,1.553a5.769,5.769,0,0,1-4.285,4.7l-8.9,2.291a5.468,5.468,0,0,0-3.932,6.66l2.471,9.593a5.468,5.468,0,0,0,6.66,3.931l7.645-1.97a5.809,5.809,0,0,1,6.318,2.462l.043.065a5.824,5.824,0,0,1-.164,6.567l-4.346,6a5.467,5.467,0,0,0,1.226,7.637l8.028,5.8a5.469,5.469,0,0,0,7.636-1.228l4.338-6a5.838,5.838,0,0,1,4.715-2.405" transform="translate(-359.845 -15.232)" fill="#47c6e7"/>
    <path id="Path_55701" data-name="Path 55701" d="M469.54,975.419s-2.706-6.833-7.894-7.126-7.556,2.148-6.616,3.563,6.3,2.27,8.316,6.325,7.951,2.314,6.194-2.762" transform="translate(-135.716 -580.048)" fill="#86d6ef"/>
    <path id="Path_55664" data-name="Path 55664" d="M744.891,800.3a35.742,35.742,0,0,1-5.568-5.661c.091.249,3.151,8.5.75,9-.753.158-1.458-.472-2.076-1.417.556,1.857.738,3.415-.284,3.3-.911-.1-1.959-1.092-2.917-2.3.94,1.784,1.435,3.351.161,3.181-2.85-.375-5.055-6.654-7.495-6.147a14.536,14.536,0,0,1-5.023-.756,5.593,5.593,0,0,1-3.459-2.6,5.865,5.865,0,0,1-.085-5.764,5.736,5.736,0,0,1,2.2-2.194l.252-.141a14.968,14.968,0,0,1,7.978-1.942c1.262.053,2.689.143,4.132.311,3.67.422,7.471,1.315,9.1,3.169a14.625,14.625,0,0,1,1.956,2.938c2.077,4.027,2.56,8.654.372,7.023" transform="translate(-328.981 -446.957)" fill="#68a1bf"/>
    <path id="Path_55672" data-name="Path 55672" d="M786.2,794.166c-.826.732-2.39.1-3.292-1.537-1.172-2.124-4.247-2.124-6.431-2.176s-1.335-2.393-1.335-2.393c3.67.422,7.471,1.315,9.1,3.169a14.625,14.625,0,0,1,1.956,2.938" transform="translate(-370.666 -447.851)" fill="#7dbfda"/>
    <path id="Path_55680" data-name="Path 55680" d="M717.407,849.786h95.749v5.192H715.715a1.749,1.749,0,0,1-1.75-1.75,3.442,3.442,0,0,1,3.442-3.443" transform="translate(-325.887 -493.134)" fill="#30262a"/>
  </g>
</svg>
