<svg xmlns="http://www.w3.org/2000/svg" width="30" height="30" viewBox="0 0 30 30">
  <g id="email" transform="translate(0 -49.088)">
    <g id="bg" transform="translate(0 49.088)" fill="#00aa63" stroke="#707070" stroke-width="1" opacity="0">
      <rect width="30" height="30" stroke="none"/>
      <rect x="0.5" y="0.5" width="29" height="29" fill="none"/>
    </g>
    <path id="Path_45462" data-name="Path 45462" d="M-7805.574-7483.341a4.585,4.585,0,0,1-4.426-4.723v-12.2l14.094,9.178a1.625,1.625,0,0,0,.887.265,1.6,1.6,0,0,0,.887-.265l14.133-9.178v12.2a4.588,4.588,0,0,1-4.428,4.723Zm-4.283-19.871a4.477,4.477,0,0,1,4.283-3.7h21.143a4.478,4.478,0,0,1,4.289,3.7l-14.84,9.672Z" transform="translate(7810 7559.213)" fill="#00aa63"/>
  </g>
</svg>
