<svg id="email" xmlns="http://www.w3.org/2000/svg" width="24" height="24" viewBox="0 0 24 24">
  <rect id="bg_" data-name="bg " width="24" height="24" fill="#04bab8" opacity="0"/>
  <g id="email-2" data-name="email" transform="translate(2.5 5)">
    <g id="Group_7346" data-name="Group 7346">
      <path id="Path_19576" data-name="Path 19576" d="M17.177,59.32Q16.816,59.569,15,60.8T12.225,62.69q-.106.073-.451.316T11.2,63.4q-.228.15-.551.337a3.231,3.231,0,0,1-.61.28,1.714,1.714,0,0,1-.53.093H9.489a1.715,1.715,0,0,1-.53-.093,3.235,3.235,0,0,1-.61-.28q-.323-.187-.551-.337t-.573-.394q-.344-.244-.451-.316L1.813,59.32A4.982,4.982,0,0,1,.52,58.045,2.7,2.7,0,0,1,0,56.479a1.572,1.572,0,0,1,.5-1.172A1.657,1.657,0,0,1,1.7,54.82H17.3a1.529,1.529,0,0,1,1.256.539A2.063,2.063,0,0,1,19,56.707a2.392,2.392,0,0,1-.583,1.416A5.209,5.209,0,0,1,17.177,59.32Z" transform="translate(0 -54.82)" fill="#04bab8"/>
      <path id="Path_19577" data-name="Path 19577" d="M1.06,185.277q3.477,2.144,5.28,3.332.6.405.981.633a6.3,6.3,0,0,0,1,.464,3.305,3.305,0,0,0,1.166.237h.021a3.306,3.306,0,0,0,1.166-.237,6.3,6.3,0,0,0,1-.464q.376-.227.981-.633,1.431-.956,5.27-3.332a5.507,5.507,0,0,0,1.071-.84v7.668a1.425,1.425,0,0,1-.5,1.091,1.717,1.717,0,0,1-1.2.454H1.7A1.717,1.717,0,0,1,.5,193.2a1.425,1.425,0,0,1-.5-1.091v-7.668A5.728,5.728,0,0,0,1.06,185.277Z" transform="translate(0 -179.651)" fill="#04bab8"/>
    </g>
  </g>
</svg>
