<svg xmlns="http://www.w3.org/2000/svg" width="29.998" height="29.999" viewBox="0 0 29.998 29.999">
  <g id="location" transform="translate(0 -0.001)">
    <path id="Path_56667" data-name="Path 56667" d="M-17347.266-8435.449c-3.912-1.329-4.734-3.034-4.734-4.225,0-1.56,1.391-2.65,2.557-3.293a.879.879,0,0,1,1.2.347.879.879,0,0,1-.348,1.194c-1.049.578-1.646,1.212-1.646,1.752,0,.656.928,1.671,3.541,2.558a31.353,31.353,0,0,0,9.7,1.357,31.313,31.313,0,0,0,9.7-1.357c2.613-.887,3.545-1.9,3.545-2.558,0-.54-.6-1.174-1.652-1.752a.882.882,0,0,1-.346-1.194.88.88,0,0,1,1.2-.347c1.17.643,2.557,1.733,2.557,3.293,0,1.19-.818,2.9-4.73,4.225A33.176,33.176,0,0,1-17337-8434,33.163,33.163,0,0,1-17347.266-8435.449Zm3.629-2.938c-2.184-.618-3.293-1.509-3.293-2.653s1.109-2.034,3.293-2.653c.486-.134,1.014-.255,1.574-.359.3.526.621,1.07.955,1.626a16.575,16.575,0,0,0-1.734.343,4.519,4.519,0,0,0-2.311,1.044,4.507,4.507,0,0,0,2.311,1.05,24.633,24.633,0,0,0,5.537.627c.1.008.2.012.3.012s.2,0,.3-.012a24.629,24.629,0,0,0,5.535-.627,4.51,4.51,0,0,0,2.314-1.05,4.522,4.522,0,0,0-2.314-1.044,16.657,16.657,0,0,0-1.729-.343c.32-.539.639-1.083.951-1.626.561.1,1.092.226,1.576.359,2.182.619,3.287,1.513,3.287,2.653s-1.105,2.035-3.287,2.653a25.366,25.366,0,0,1-6.637.782A25.366,25.366,0,0,1-17343.637-8438.388Zm4.736-3.789c-2.863-4.681-6.27-10.849-6.27-13.652a8.177,8.177,0,0,1,8.17-8.17,8.179,8.179,0,0,1,8.17,8.17c0,2.8-3.408,8.972-6.268,13.652a2.217,2.217,0,0,1-1.9,1.065A2.209,2.209,0,0,1-17338.9-8442.177Zm-1.383-14.212a3.286,3.286,0,0,0,3.283,3.284,3.288,3.288,0,0,0,3.281-3.284,3.285,3.285,0,0,0-3.281-3.284A3.283,3.283,0,0,0-17340.283-8456.389Z" transform="translate(17352 8464)" fill="#6fabe6"/>
  </g>
</svg>
