<svg id="user_-_icon" data-name="user - icon" xmlns="http://www.w3.org/2000/svg" width="24" height="24" viewBox="0 0 24 24">
  <g id="bg" fill="#fff" stroke="#707070" stroke-width="1" opacity="0">
    <rect width="24" height="24" stroke="none"/>
    <rect x="0.5" y="0.5" width="23" height="23" fill="none"/>
  </g>
  <path id="user" d="M-9754.5-658v-22a5.374,5.374,0,0,1,4.21,1.46,3.645,3.645,0,0,1,.847,2.659v2.647a1.364,1.364,0,0,1,.461,1.015v1.831a1.371,1.371,0,0,1-.637,1.153,9.15,9.15,0,0,1-1.662,3.424v1.674a1.665,1.665,0,0,0,.872,1.463,17.564,17.564,0,0,1,4.1,2.227,3.283,3.283,0,0,1,1.2,2.1A.638.638,0,0,0-9745-658h-9.5Zm0,0h-9.5a.674.674,0,0,0,.106-.344,3.27,3.27,0,0,1,1.193-2.1,17.564,17.564,0,0,1,4.107-2.227,1.676,1.676,0,0,0,.874-1.463v-1.674a9.073,9.073,0,0,1-1.667-3.424,1.37,1.37,0,0,1-.636-1.153v-1.831a1.365,1.365,0,0,1,.462-1.015v-2.647a3.633,3.633,0,0,1,.848-2.659A5.378,5.378,0,0,1-9754.5-680v22Z" transform="translate(9766.502 681)" fill="#09a7a1"/>
</svg>
