<?xml version="1.0" encoding="utf-8"?>
<!-- Generator: Adobe Illustrator 24.3.0, SVG Export Plug-In . SVG Version: 6.00 Build 0)  -->
<svg version="1.1" id="Layer_1" xmlns="http://www.w3.org/2000/svg" xmlns:xlink="http://www.w3.org/1999/xlink" x="0px" y="0px"
	 viewBox="0 0 964 219" style="enable-background:new 0 0 964 219;" xml:space="preserve" fill="white">
<g>
	<g>
		<path d="M914.8,149.4c-2.7,0.1-5.4-0.4-8-1.2c-2-0.6-3.9-1.6-5.6-2.8c-1.3-1.1-2.4-2.5-3.2-4c-0.8-1.6-1.2-3.4-1.2-5.2
			c0-1.8,0.4-3.6,1.2-5.2c0.6-1.6,1.7-3.1,3.2-4c1.7-1.2,3.6-2.2,5.6-2.8c2.6-0.8,5.3-1.3,8-1.2c2.7-0.1,5.4,0.3,8,1.2
			c2,0.6,3.9,1.6,5.6,2.8c1.4,1,2.5,2.4,3.2,4c0.7,1.6,1.1,3.4,1.2,5.2c0,1.8-0.4,3.6-1.2,5.2c-0.7,1.6-1.8,3-3.2,4
			c-1.7,1.2-3.6,2.2-5.6,2.8C920.3,149.3,917.6,149.7,914.8,149.4z"/>
		<path d="M784.8,81.7l35.5-11.3v11.3c4.3-4.1,9.2-7.3,14.5-9.3c5-1.9,10.2-2.9,15.4-2.9c2.9-0.1,5.9,0.6,8.6,2c2.7,1,5,2.9,6.8,5.4
			c2.2,2.9,3.8,6.2,4.7,9.8c1.3,4.6,1.9,9.4,1.7,14.2v47.5h-36.3V96.9c0.2-2.2-0.4-4.3-1.7-5.9c-1.2-1.5-2.9-2.2-4.7-2
			c-5.5,0.6-7.2,4-8.1,5.5v53.8h-36.3V81.7z"/>
		<path d="M431.1,111.4c-0.1-5.4,0.8-10.7,2.4-15.7c1.5-4.6,4-8.7,7.2-12c3.3-3.4,7.3-6,11.5-7.4c4.9-1.9,10-2.9,15.1-2.8
			c3.9-0.1,7.8,0.5,11.5,1.8c3.1,1.1,6,2.6,8.8,4.6V46.2L523.1,31v116.9l-32.6-0.4l-2.4-9.2c-1.2,1.6-2.7,2.9-4.4,3.7
			c-1.6,1.3-3.4,2.3-5.2,3.2c-2,1-4.2,1.8-6.4,2.3c-2.4,0.5-4.8,0.8-7.2,0.9c-4.5,0-8.9-0.8-13.1-2.3c-3.9-1.6-7.5-3.9-10.7-6.9
			c-3.3-3.2-5.7-7.4-7.2-12C432,122.1,431.1,116.8,431.1,111.4z M466.2,110c-0.1,3.6,0.3,7.2,1.2,10.6c0.6,2.6,1.5,5.1,2.8,7.4
			c1.2,1.8,2.7,3.2,4.4,4.2c1.7,0.9,3.6,1.4,5.6,1.4c1.5,0,3-0.4,4.4-0.9c1.5-0.5,2.9-1.4,4-2.8V89.6c-1.1-0.9-2.3-1.7-3.6-2.3
			c-1.3-0.6-2.6-0.9-4-0.9c-2,0-4.1,0.5-6,1.4c-1.8,1.1-3.4,2.5-4.8,4.2c-1.5,2.2-2.5,4.7-3.2,7.4
			C466.5,102.9,466.2,106.4,466.2,110z"/>
		<path d="M130.4,108.8c0.1,5.4-0.8,10.7-2.4,15.7c-1.5,4.6-4,8.7-7.2,12c-3.3,3.4-7.3,6-11.5,7.4c-4.9,1.9-10,2.9-15.1,2.8
			c-3.9,0.1-7.8-0.5-11.5-1.8c-3.1-1.1-6-2.6-8.8-4.6v47.4h-37V85.8l33.2-12.7l3.4,8.9c1.2-1.6,2.7-2.9,4.4-3.7
			c1.6-1.3,3.4-2.3,5.2-3.2c2-1,4.2-1.8,6.4-2.3c2.4-0.5,4.8-0.8,7.2-0.9c4.5,0,8.9,0.8,13.1,2.3c3.9,1.6,7.5,3.9,10.7,6.9
			c3.3,3.2,5.7,7.4,7.2,12C129.5,98,130.5,103.4,130.4,108.8z M95.4,110.2c0.1-3.6-0.3-7.2-1.2-10.6c-0.6-2.6-1.5-5.1-2.8-7.4
			C90.2,90.4,88.7,89,87,88c-1.7-0.9-3.6-1.4-5.6-1.4c-1.5,0-3,0.4-4.4,0.9c-1.5,0.5-2.9,1.4-4,2.8v40.2c1.1,0.9,2.3,1.7,3.6,2.3
			c1.3,0.6,2.6,0.9,4,0.9c2,0,4.1-0.5,6-1.4c1.8-1.1,3.4-2.5,4.8-4.2c1.5-2.2,2.5-4.7,3.2-7.4C95.1,117.3,95.4,113.7,95.4,110.2z"/>
		<path d="M195.7,67.6c-14,0-30.1,1.7-46,5l3.7,14.7c12.4-2.9,24.1-4.7,33.5-4.7c8.8,0,13.2,2.3,13.2,7.9v3.7l-27,4.5
			c-18.2,3.4-28.5,13-28.5,26.7c0,14.6,9.6,22.8,26.7,22.8c11.9,0,22.3-4.7,30.7-14.4l5.1,12.9h26.5V91.2
			C233.7,75.2,220.2,67.6,195.7,67.6z M200.1,119.6c0,6.2-5.2,11.8-13.2,11.8c-6.7,0-10.6-4.2-10.6-11.3c0-7.8,4.6-12.9,13-14.4
			l10.7-1.4V119.6z"/>
		<path d="M300.7,97.7c-9.1-1.7-17.1-2.5-17.1-8.2c0-4.5,5.5-7.1,13.3-7.1c7,0,14.6,1.2,21.6,3.4l3.3-15.1
			c-9.4-2.2-19.7-3.1-29.1-3.1c-26.7,0-41.8,9.6-41.8,27.2c0,11.6,8.8,18.9,25.9,22.5c11.2,2.3,19.7,1.9,19.7,7.9
			c0,5.3-7.5,8.2-18,8.2c-9.1,0-18.4-1.6-26.3-4.3l-2.9,15.8c8.6,2.5,18.9,3.4,29.1,3.4c30.4,0,47.3-10.7,47.3-30
			C325.5,107.1,315.6,100.4,300.7,97.7z"/>
		<path d="M390.7,97.7c-9.1-1.7-17.1-2.5-17.1-8.2c0-4.5,5.5-7.1,13.3-7.1c7,0,14.6,1.2,21.6,3.4l3.3-15.1
			c-9.4-2.2-19.7-3.1-29.1-3.1c-26.7,0-41.8,9.6-41.8,27.2c0,11.6,8.8,18.9,25.9,22.5c11.2,2.3,19.7,1.9,19.7,7.9
			c0,5.3-7.5,8.2-18,8.2c-9.1,0-18.4-1.6-26.3-4.3l-2.9,15.8c8.6,2.5,18.9,3.4,29.1,3.4c30.4,0,47.3-10.7,47.3-30
			C415.6,107.1,405.6,100.4,390.7,97.7z"/>
		<path d="M586.3,67.6C556,67.6,539,82.1,539,108s17.1,40.4,47.3,40.4s47.2-14.4,47.2-40.4S616.5,67.6,586.3,67.6z M586.3,133.4
			c-8.6,0-13.5-9.3-13.5-25.8c0-16.1,4.9-25.3,13.5-25.3s13.5,9.2,13.5,25.3C599.8,124.1,594.9,133.4,586.3,133.4z"/>
		<polygon points="739.3,116.7 725.5,70.7 700.3,70.7 688.6,116.8 674.7,70.7 636,70.7 663.3,148.3 694.6,148.3 705.5,112.6 
			718,148.3 746.9,148.3 771.8,70.7 752.3,70.7 		"/>
	</g>
</g>
</svg>
