<svg id="Price" xmlns="http://www.w3.org/2000/svg" width="35" height="35" viewBox="0 0 35 35">
  <path id="Path_45190" data-name="Path 45190" d="M35,17.823q0-.325-.011-.647A17.65,17.65,0,0,0,17.5,0,17.65,17.65,0,0,0,.011,17.177Q0,17.5,0,17.823C0,27.667,8.989,35,17.5,35,26.165,35,35,27.667,35,17.823Z" transform="translate(0)" fill="#fae25c"/>
  <path id="Path_45192" data-name="Path 45192" d="M72.574,57.2a15,15,0,0,0-30,0c-.009.223,0,15.181,15,15.181S72.584,57.424,72.574,57.2Z" transform="translate(-40.075 -39.882)" fill="#ffed83"/>
  <path id="Path_45207" data-name="Path 45207" d="M40.625,12.75h-1.25a1.875,1.875,0,0,1,0-3.75H43.75a1.25,1.25,0,0,0,0-2.5h-2.5V4h-2.5V6.55a4.375,4.375,0,0,0,.625,8.7h1.25a1.875,1.875,0,0,1,0,3.75H36.25a1.25,1.25,0,0,0,0,2.5h2.5V24h2.5V21.45a4.375,4.375,0,0,0-.625-8.7Z" transform="translate(-22.5 3.5)" fill="#b57e58"/>
</svg>
