<svg id="Time" xmlns="http://www.w3.org/2000/svg" width="35" height="35" viewBox="0 0 35 35">
  <path id="Path_45190" data-name="Path 45190" d="M35,17.823q0-.325-.011-.647A17.65,17.65,0,0,0,17.5,0,17.65,17.65,0,0,0,.011,17.177Q0,17.5,0,17.823C0,27.667,8.989,35,17.5,35,26.165,35,35,27.667,35,17.823Z" transform="translate(0)" fill="#ff5876"/>
  <path id="Path_45192" data-name="Path 45192" d="M72.574,57.2a15,15,0,0,0-30,0c-.009.223,0,15.181,15,15.181S72.584,57.424,72.574,57.2Z" transform="translate(-40.075 -39.882)" fill="#e4eef9"/>
  <path id="Path_45194" data-name="Path 45194" d="M7.4,5.288,1.763.268A1.058,1.058,0,0,0,.354,1.849L6.1,6.967l1.2-.4Z" transform="matrix(-0.978, 0.208, -0.208, -0.978, 27.305, 23.234)" fill="#405b6c"/>
  <path id="Path_45195" data-name="Path 45195" d="M7.233,6.69a.527.527,0,0,1-.34-.124L.189.934A.529.529,0,1,1,.87.124l6.7,5.631a.529.529,0,0,1-.341.934Z" transform="matrix(-0.643, -0.766, 0.766, -0.643, 17.396, 17.5)" fill="#86dcff"/>
  <path id="Path_45196" data-name="Path 45196" d="M0,1.679l.988.881,1.269-.431L2.189.795,1.3,0A2.919,2.919,0,0,0,0,1.679Z" transform="matrix(-0.978, 0.208, -0.208, -0.978, 20.241, 19.33)" fill="#2d4456"/>
  <path id="Path_45197" data-name="Path 45197" d="M234.351,230.713a1.81,1.81,0,0,0-3.388,0,1.7,1.7,0,1,0,3.388,0Z" transform="translate(-215.157 -213.848)" fill="#ff5876"/>
  <path id="Path_45198" data-name="Path 45198" d="M231.348,247.884a1.809,1.809,0,0,1-1.694-1.174,1.809,1.809,0,1,0,3.388,0A1.809,1.809,0,0,1,231.348,247.884Z" transform="translate(-213.848 -229.845)" fill="#e6485d"/>
  <g id="Group_32" data-name="Group 32" transform="translate(4.224 4.224)">
    <path id="Path_45199" data-name="Path 45199" d="M75.6,63.962V62.319a.53.53,0,1,0-1.061,0v1.642a.53.53,0,0,0,1.061,0ZM74.535,86.169v1.642a.53.53,0,1,0,1.061,0V86.169a.53.53,0,1,0-1.061,0ZM87.811,75.6a.53.53,0,1,0,0-1.061H86.169a.53.53,0,1,0,0,1.061ZM62.319,74.535a.53.53,0,1,0,0,1.061h1.642a.53.53,0,0,0,0-1.061Z" transform="translate(-61.789 -61.789)" fill="#405b6c"/>
  </g>
</svg>
