<svg xmlns="http://www.w3.org/2000/svg" width="17" height="17" viewBox="0 0 17 17">
  <g id="instagram_-_icon" data-name="instagram - icon" transform="translate(-12.804 -6.991)">
    <rect id="bg" width="17" height="17" rx="4" transform="translate(12.805 6.991)" fill="#b1b1b1" opacity="0"/>
    <path id="Instagram_" data-name="Instagram " d="M-3048.347-1140.81h1.737c2.707,0,5.222-.225,6.277-2.94a13.6,13.6,0,0,0,.445-4.71v-1.774c.015-2.824.025-4.689-1.424-6.143-1.322-1.327-3.067-1.432-5.219-1.432h-3.455c-2.855,0-5.313.221-6.368,2.937a13.62,13.62,0,0,0-.445,4.722v1.541a15.048,15.048,0,0,0,.445,4.86c1.051,2.717,3.507,2.938,6.37,2.938h.848Q-3048.749-1140.81-3048.347-1140.81Zm1.922-1.52h0c-.3,0-.615,0-.917-.007s-.65-.007-1-.007c-6.737,0-6.932-.194-6.932-6.96,0-3.471.141-5.169.972-6.044s2.272-.912,5.2-.914h.146c.423,0,.824,0,1.211-.007h.038c.4,0,.779-.007,1.133-.007,2.15,0,3.384.147,4.147.95,1.141,1.2,1.221,3.885.969,9.456-.15,3.278-2.244,3.543-4.962,3.543Zm-1.919-11.332a4.357,4.357,0,0,0-4.343,4.356,4.356,4.356,0,0,0,4.343,4.356,4.356,4.356,0,0,0,4.341-4.356,4.356,4.356,0,0,0-4.344-4.36Zm4.514-1.191a1.017,1.017,0,0,0-1.014,1.018,1.017,1.017,0,0,0,1.014,1.019,1.018,1.018,0,0,0,1.015-1.019,1.018,1.018,0,0,0-1.015-1.021Zm-4.514,8.382a2.684,2.684,0,0,1-2.019-.8,2.71,2.71,0,0,1-.778-2.035,2.931,2.931,0,0,1,.7-1.944,2.7,2.7,0,0,1,2.1-.884,2.686,2.686,0,0,1,2.02.8,2.71,2.71,0,0,1,.778,2.035,2.708,2.708,0,0,1-.78,2.031,2.683,2.683,0,0,1-2.018.795Z" transform="translate(3069.649 1164.801)" fill="#b1b1b1"/>
  </g>
</svg>
