<svg xmlns="http://www.w3.org/2000/svg" width="16.999" height="17" viewBox="0 0 16.999 17">
  <g id="snapchat" transform="translate(-3.009 -3.424)">
    <path id="snapchat_-_icon" data-name="snapchat - icon" d="M19.982,16.775a1.053,1.053,0,0,1-.485.425,5.605,5.605,0,0,1-1.627.446.345.345,0,0,0-.176.141,2,2,0,0,0-.106.447l-.022.118c-.022.095-.045.212-.066.306a.241.241,0,0,1-.242.188A1.245,1.245,0,0,1,16.9,18.8a4.577,4.577,0,0,0-.947-.118,3.212,3.212,0,0,0-.683.07,3.47,3.47,0,0,0-1.322.706,3.62,3.62,0,0,1-2.27.966h-.2a3.737,3.737,0,0,1-2.3-.966,3.393,3.393,0,0,0-1.3-.706,3.368,3.368,0,0,0-.683-.07,4.142,4.142,0,0,0-.926.118H6.25a1.813,1.813,0,0,1-.353.047.242.242,0,0,1-.264-.188,1.36,1.36,0,0,1-.154-.4l-.022-.07a1.5,1.5,0,0,0-.133-.447.167.167,0,0,0-.154-.118,6.988,6.988,0,0,1-1.653-.447,1.015,1.015,0,0,1-.485-.4.271.271,0,0,1-.022-.118v-.047a.541.541,0,0,1,.2-.165,3.749,3.749,0,0,0,1.565-.659,4.637,4.637,0,0,0,1.1-1.036,6.1,6.1,0,0,0,.9-1.506v-.023a.97.97,0,0,0,.088-.8c-.176-.425-.705-.612-1.08-.73l-.066-.023a1.46,1.46,0,0,1-.176-.07,1.842,1.842,0,0,1-.574-.353.458.458,0,0,1-.176-.425.558.558,0,0,1,.264-.353.661.661,0,0,1,.617-.07,1.36,1.36,0,0,0,1.234.165.262.262,0,0,0,.133-.236c0-.141-.022-.283-.022-.425V9.878a10.078,10.078,0,0,1,.2-3.625A4.982,4.982,0,0,1,8.234,4.7a4.11,4.11,0,0,1,1.212-.85,4.445,4.445,0,0,1,1.9-.425h.33a4.445,4.445,0,0,1,1.9.425,4.109,4.109,0,0,1,1.212.85,4.623,4.623,0,0,1,1.014,1.554,9.511,9.511,0,0,1,.2,3.6v.07c0,.095-.022.165-.022.259V10.3a.262.262,0,0,0,.133.236.667.667,0,0,0,.309.07h.045a2.285,2.285,0,0,0,.793-.236.67.67,0,0,1,.264-.047.736.736,0,0,1,.309.07.583.583,0,0,1,.418.471.48.48,0,0,1-.154.329,2.124,2.124,0,0,1-.617.4.389.389,0,0,1-.154.047l-.066.023c-.353.118-.9.306-1.08.73a1.028,1.028,0,0,0,.088.824c0,.023,0,.023.022.047a5.328,5.328,0,0,0,3.571,3.178.2.2,0,0,1,.154.212A1.08,1.08,0,0,1,19.982,16.775Z" transform="translate(0 0)" fill="#b1b1b1"/>
  </g>
</svg>
