<svg xmlns="http://www.w3.org/2000/svg" xmlns:xlink="http://www.w3.org/1999/xlink" width="473" height="309" viewBox="0 0 473 309">
  <defs>
    <clipPath id="clip-path">
      <rect id="Rectangle_119" data-name="Rectangle 119" width="25" height="25" transform="translate(0 -0.333)" fill="#fff"/>
    </clipPath>
  </defs>
  <g id="Group_71" data-name="Group 71" transform="translate(-426 -166)">
    <g id="Rectangle_124" data-name="Rectangle 124" transform="translate(485 166)" fill="none" stroke="#fff" stroke-width="1">
      <path d="M5,0H178a15,15,0,0,1,15,15V34a15,15,0,0,1-15,15H15A15,15,0,0,1,0,34V5A5,5,0,0,1,5,0Z" stroke="none"/>
      <path d="M5,.5H178A14.5,14.5,0,0,1,192.5,15V34A14.5,14.5,0,0,1,178,48.5H15A14.5,14.5,0,0,1,.5,34V5A4.5,4.5,0,0,1,5,.5Z" fill="none"/>
    </g>
    <g id="Rectangle_126" data-name="Rectangle 126" transform="translate(485 333)" fill="none" stroke="#f5f5f5" stroke-width="1">
      <path d="M5,0H204a15,15,0,0,1,15,15V53a15,15,0,0,1-15,15H15A15,15,0,0,1,0,53V5A5,5,0,0,1,5,0Z" stroke="none"/>
      <path d="M5,.5H204A14.5,14.5,0,0,1,218.5,15V53A14.5,14.5,0,0,1,204,67.5H15A14.5,14.5,0,0,1,.5,53V5A4.5,4.5,0,0,1,5,.5Z" fill="none"/>
    </g>
    <path id="Rectangle_125" data-name="Rectangle 125" d="M15,0H238a5,5,0,0,1,5,5V53a15,15,0,0,1-15,15H15A15,15,0,0,1,0,53V15A15,15,0,0,1,15,0Z" transform="translate(597 240)" fill="#fff"/>
    <path id="Rectangle_127" data-name="Rectangle 127" d="M15,0H84a5,5,0,0,1,5,5V34A15,15,0,0,1,74,49H15A15,15,0,0,1,0,34V15A15,15,0,0,1,15,0Z" transform="translate(571 426)" fill="#fff"/>
    <text id="Hi_How_can_I_help_you_" data-name="Hi , How can I help you?" transform="translate(505 196)" fill="#fff" font-size="14" font-family="SegoeUI-Semibold, Segoe UI" font-weight="600"><tspan x="0" y="0">Hi , How can I help you?</tspan></text>
    <text id="Yes_we_are_here_to_help_you_make_a_will_click_here" data-name="Yes, we are here to help you make a will, click here" transform="translate(505 348)" fill="#fff" font-size="14" font-family="SegoeUI-Semibold, Segoe UI" font-weight="600"><tspan x="0" y="15">Yes, we are here to help you </tspan><tspan x="0" y="34">make a will, </tspan><tspan y="34" font-family="SegoeUI-Bold, Segoe UI" font-weight="700" text-decoration="underline">Click Here</tspan></text>
    <text id="Hello_I_need_to_make_a_will_with_quick_steps." data-name="Hello, I need to make a will with
quick steps." transform="translate(617 270)" fill="#05769c" font-size="14" font-family="SegoeUI-Semibold, Segoe UI" font-weight="600"><tspan x="0" y="0">Hello, I need to make a will with</tspan><tspan x="0" y="19">quick steps.</tspan></text>
    <text id="Thanks_" data-name="Thanks!" transform="translate(591 456)" fill="#05769c" font-size="14" font-family="SegoeUI-Semibold, Segoe UI" font-weight="600"><tspan x="0" y="0">Thanks!</tspan></text>
    <circle id="Ellipse_33" data-name="Ellipse 33" cx="24.5" cy="24.5" r="24.5" transform="translate(426 166)" fill="#2996b8"/>
    <circle id="Ellipse_34" data-name="Ellipse 34" cx="24.5" cy="24.5" r="24.5" transform="translate(426 333)" fill="#2996b8"/>
    <g id="svgexport-1_1_" data-name="svgexport-1 (1)" transform="translate(438 178.333)">
      <g id="Group_61" data-name="Group 61" clip-path="url(#clip-path)">
        <path id="Path_45452" data-name="Path 45452" d="M17.952,4.94h-.616V3.593a1.849,1.849,0,1,0-1.233,0V4.94H8.7V3.593a1.849,1.849,0,1,0-1.233,0V4.94H6.855A3.086,3.086,0,0,0,3.773,8.022V18.5a3.086,3.086,0,0,0,3.082,3.083H8.7V24.05a.616.616,0,0,0,.943.523l4.782-2.988h3.522A3.085,3.085,0,0,0,21.034,18.5V8.022A3.085,3.085,0,0,0,17.952,4.94Zm-8.631,3.7a1.852,1.852,0,0,1,1.849,1.849.616.616,0,0,1-1.233,0,.617.617,0,1,0-1.233,0,.616.616,0,0,1-1.233,0A1.852,1.852,0,0,1,9.321,8.638Zm7.673,7.641a10.443,10.443,0,0,1-4.591,1,10.441,10.441,0,0,1-4.591-1,.617.617,0,0,1,.552-1.1,9.883,9.883,0,0,0,8.079,0,.617.617,0,1,1,.551,1.1ZM16.719,11.1a.616.616,0,0,1-.617-.616.616.616,0,1,0-1.233,0,.616.616,0,0,1-1.233,0,1.849,1.849,0,1,1,3.7,0,.616.616,0,0,1-.617.616Zm6.165-1.233h-.617v6.165h.617a1.852,1.852,0,0,0,1.849-1.849V11.721A1.852,1.852,0,0,0,22.884,9.871ZM.074,11.721v2.466a1.852,1.852,0,0,0,1.849,1.849H2.54V9.871H1.924A1.852,1.852,0,0,0,.074,11.721Z" transform="translate(-0.028)" fill="#fff"/>
      </g>
    </g>
    <g id="svgexport-1_1_2" data-name="svgexport-1 (1)" transform="translate(438 345.333)">
      <g id="Group_61-2" data-name="Group 61" clip-path="url(#clip-path)">
        <path id="Path_45452-2" data-name="Path 45452" d="M17.952,4.94h-.616V3.593a1.849,1.849,0,1,0-1.233,0V4.94H8.7V3.593a1.849,1.849,0,1,0-1.233,0V4.94H6.855A3.086,3.086,0,0,0,3.773,8.022V18.5a3.086,3.086,0,0,0,3.082,3.083H8.7V24.05a.616.616,0,0,0,.943.523l4.782-2.988h3.522A3.085,3.085,0,0,0,21.034,18.5V8.022A3.085,3.085,0,0,0,17.952,4.94Zm-8.631,3.7a1.852,1.852,0,0,1,1.849,1.849.616.616,0,0,1-1.233,0,.617.617,0,1,0-1.233,0,.616.616,0,0,1-1.233,0A1.852,1.852,0,0,1,9.321,8.638Zm7.673,7.641a10.443,10.443,0,0,1-4.591,1,10.441,10.441,0,0,1-4.591-1,.617.617,0,0,1,.552-1.1,9.883,9.883,0,0,0,8.079,0,.617.617,0,1,1,.551,1.1ZM16.719,11.1a.616.616,0,0,1-.617-.616.616.616,0,1,0-1.233,0,.616.616,0,0,1-1.233,0,1.849,1.849,0,1,1,3.7,0,.616.616,0,0,1-.617.616Zm6.165-1.233h-.617v6.165h.617a1.852,1.852,0,0,0,1.849-1.849V11.721A1.852,1.852,0,0,0,22.884,9.871ZM.074,11.721v2.466a1.852,1.852,0,0,0,1.849,1.849H2.54V9.871H1.924A1.852,1.852,0,0,0,.074,11.721Z" transform="translate(-0.028)" fill="#fff"/>
      </g>
    </g>
    <g id="Group_88" data-name="Group 88" transform="translate(713 -93)">
      <circle id="Ellipse_33-2" data-name="Ellipse 33" cx="24.5" cy="24.5" r="24.5" transform="translate(137 333)" fill="#2996b8"/>
      <text id="You" transform="translate(148 364)" fill="#fff" font-size="16" font-family="SegoeUI-Semibold, Segoe UI" font-weight="600"><tspan x="0" y="0">You</tspan></text>
    </g>
    <g id="Group_48366" data-name="Group 48366" transform="translate(533 93)">
      <circle id="Ellipse_33-3" data-name="Ellipse 33" cx="24.5" cy="24.5" r="24.5" transform="translate(137 333)" fill="#2996b8"/>
      <text id="You-2" data-name="You" transform="translate(148 364)" fill="#fff" font-size="16" font-family="SegoeUI-Semibold, Segoe UI" font-weight="600"><tspan x="0" y="0">You</tspan></text>
    </g>
  </g>
</svg>
