<svg xmlns="http://www.w3.org/2000/svg" width="22" height="22" viewBox="0 0 22 22">
  <g id="send_2_" data-name="send (2)" transform="translate(-1.767 -1.703)">
    <path id="Path_45457" data-name="Path 45457" d="M23.767,12.7a2.2,2.2,0,0,1-1.387,1.912L4.727,23.383a2.8,2.8,0,0,1-1.236.32,1.675,1.675,0,0,1-1.366-.65,2.158,2.158,0,0,1-.214-2.02L3.9,14.442a2.984,2.984,0,0,0,.129-.673H14.919a1.068,1.068,0,1,0,0-2.136H4.028A3.12,3.12,0,0,0,3.9,10.96L1.91,4.37a2.152,2.152,0,0,1,.215-2.019,1.993,1.993,0,0,1,2.6-.331l17.655,8.769A2.2,2.2,0,0,1,23.767,12.7Z" transform="translate(0 0)" fill="#04bab8"/>
  </g>
</svg>
