<svg xmlns="http://www.w3.org/2000/svg" width="80" height="80" viewBox="0 0 80 80">
  <g id="Group_54946" data-name="Group 54946" transform="translate(-231 -5648)">
    <circle id="Ellipse_17" data-name="Ellipse 17" cx="40" cy="40" r="40" transform="translate(231 5648)" fill="#09a7a1" opacity="0.1"/>
    <g id="Group_41" data-name="Group 41" transform="translate(-9 -4)">
      <g id="bg" transform="translate(260 5672)" fill="#09a7a1" stroke="#09a7a1" stroke-width="1" opacity="0">
        <rect width="40" height="40" stroke="none"/>
        <rect x="0.5" y="0.5" width="39" height="39" fill="none"/>
      </g>
      <g id="Easy_To_Use" data-name="Easy To Use" transform="translate(253.288 5672)">
        <path id="Path_45410" data-name="Path 45410" d="M41.924,25.015a2.15,2.15,0,0,0-1.131-.453,2.739,2.739,0,0,0-.956-2.784,3.039,3.039,0,0,0-1.761-.741,2.807,2.807,0,0,0-.885-3.525,3.189,3.189,0,0,0-2.182-.559c1.532-3.041,4.535-9.016,5.373-10.822.3-.625,1.194-2.569-.357-3.75a2.436,2.436,0,0,0-1.9-.462A3.765,3.765,0,0,0,35.65,3.677c-.79,1.181-1.812,2.878-2.9,4.687-1.465,2.422-3.124,5.169-4.408,6.969-.178.247-1.061,1.6-1.768,2.772-.481-1.875-1-3.894-1.226-4.587-.28-.872-1.825-5.2-4.854-4.956a2.2,2.2,0,0,0-1.784.962c-.742,1.147-.287,2.987.226,4.328.408,1.066.557,6.094.557,9.016,0,.356-.255,2.406-.5,4.375-.22,1.75-.462,3.681-.605,5.053L16.7,31.415a.644.644,0,0,0-.857.237l-5.055,8.594a.619.619,0,0,0,.246.831.644.644,0,0,0,.856-.206L16.635,32.8,32.56,41.218a.647.647,0,0,0,.3.075.635.635,0,0,0,.632-.464.621.621,0,0,0-.313-.711l-.58-.312a26.681,26.681,0,0,0,3.707-3.687,17.5,17.5,0,0,0,2.013-3.984c.1-.078.191-.156.28-.241a38.366,38.366,0,0,0,3.746-4.153,1.981,1.981,0,0,0-.424-2.725Zm-4.16-2.731a1.656,1.656,0,0,1,1.249.441,1.506,1.506,0,0,1,.233,2.156c-.28.312-1.21,1.331-2.3,2.5-.048.047-.092.1-.14.147-.656.691-1.223,1.287-1.526,1.644-1.143,1.25-2.185,2.356-2.694,2.919a1.249,1.249,0,0,1-.866.453,1.084,1.084,0,0,1-.8-.312c-.188-.178-.58-.55.172-1.6.127-.181.392-.541.742-1.016l.025-.028c.506-.669,1.573-2.109,2.669-3.594l1.478-1.978.892-1.2a1.242,1.242,0,0,1,.866-.534Zm-1.319-3.75a1.617,1.617,0,0,1,.341,2.234c-.344.475-1.844,2.519-3.29,4.478-.955,1.3-1.987,2.662-2.682,3.6a1.208,1.208,0,0,1-1.752.438c-.236-.147-.86-.537-.089-1.85.118-.194.357-.606.672-1.147,1.271-2.184,3.637-6.228,4.408-7.5a1.372,1.372,0,0,1,.92-.591,1.94,1.94,0,0,1,1.471.322Zm-1.2,16.875a28.382,28.382,0,0,1-3.876,3.778L19.6,32.952c.121-1.347.408-3.566.656-5.547.319-2.547.513-4.131.513-4.541,0-.8,0-7.828-.637-9.456-.567-1.475-.694-2.678-.347-3.216A.962.962,0,0,1,20.6,9.8c1.694-.138,3.029,2.5,3.539,4.087.436,1.362,2.143,8.272,2.159,8.341a.638.638,0,0,0,.769.461.625.625,0,0,0,.47-.755c-.022-.1-.233-.937-.516-2.072.583-1.1,2.137-3.5,2.366-3.819C30.7,14.208,32.3,11.558,33.844,9c1.077-1.784,2.1-3.466,2.866-4.625a2.6,2.6,0,0,1,1.621-1.206,1.151,1.151,0,0,1,.9.206c.245.187.755.575-.022,2.244C38.1,8,33.175,17.743,32.952,18.183c-.809,1.291-3.144,5.3-4.411,7.484l-.669,1.144c-.876,1.491-.691,2.775.5,3.528a2.606,2.606,0,0,0,1.2.406,2.022,2.022,0,0,0,.459,2.366,2.376,2.376,0,0,0,1.65.681h.083a2.521,2.521,0,0,0,1.774-.859c.268-.312.688-.753,1.194-1.3a2.074,2.074,0,0,0,.545.741,1.831,1.831,0,0,0,1.245.481h.147A13.986,13.986,0,0,1,35.242,35.4Zm6.029-8.325a35.663,35.663,0,0,1-3.554,3.9c-.041.041-1.013.937-1.592.444-.557-.494-.111-1.166.118-1.444l.36-.366,1.274-1.387c.637-.678,1.347-1.419,1.841-1.987a1.15,1.15,0,0,1,.854-.444.9.9,0,0,1,.554.2.784.784,0,0,1,.147,1.075Z" transform="translate(0 -1.293)" fill="#09a7a1"/>
        <path id="Path_45411" data-name="Path 45411" d="M47.263,5.662a.625.625,0,0,0,.625-.625V.625a.625.625,0,1,0-1.25,0V5.037a.625.625,0,0,0,.625.625Zm2.494,1.172a.625.625,0,0,0,.459-.2L53.263,3.3a.631.631,0,0,0-.937-.844L49.294,5.791a.623.623,0,0,0,.462,1.044Zm-5.45-.2a.624.624,0,1,0,.922-.841L42.181,2.453a.631.631,0,1,0-.937.844Z" transform="translate(-20.579)" fill="#09a7a1"/>
      </g>
    </g>
  </g>
</svg>
