<svg xmlns="http://www.w3.org/2000/svg" width="80" height="80" viewBox="0 0 80 80">
  <g id="Group_54949" data-name="Group 54949" transform="translate(-1048 -5678)">
    <circle id="Ellipse_20" data-name="Ellipse 20" cx="40" cy="40" r="40" transform="translate(1048 5678)" fill="#fae25d" opacity="0.1"/>
    <g id="Communication" transform="translate(1067.994 5698)">
      <path id="Path_45432" data-name="Path 45432" d="M4.617,31.2A7.78,7.78,0,0,1,.792,30.192,1.205,1.205,0,0,1,.311,28.5,8.475,8.475,0,0,0,1.4,21.992C.829,19.69,0,17.752,0,15.315A15.42,15.42,0,0,1,15.68,0a15.5,15.5,0,0,1,15.046,15.35A15.49,15.49,0,0,1,9.464,29.532,7.889,7.889,0,0,1,4.617,31.2ZM2.993,28.567a5.509,5.509,0,0,0,5.438-1.283,1.188,1.188,0,0,1,1.338-.218A13.071,13.071,0,0,0,28.35,15.353a12.985,12.985,0,0,0-25.969-.032c-.006,2.314.9,4.164,1.391,6.356a10.6,10.6,0,0,1-.778,6.89Z" transform="translate(0 0)" fill="#fae25d"/>
      <path id="Path_45433" data-name="Path 45433" d="M164.361,165.932a7.89,7.89,0,0,1-4.847-1.665,15.535,15.535,0,0,1-15.956-2.549,1.188,1.188,0,1,1,1.553-1.8,13.138,13.138,0,0,0,14.1,1.882,1.188,1.188,0,0,1,1.338.218,5.509,5.509,0,0,0,5.438,1.283,10.559,10.559,0,0,1-.439-8.082c.008-.024.018-.048.028-.071A13.118,13.118,0,0,0,163.6,141.72a1.188,1.188,0,0,1,1.823-1.524,15.433,15.433,0,0,1,3.55,9.853,15.252,15.252,0,0,1-1.2,5.99,8.382,8.382,0,0,0,.891,7.2,1.206,1.206,0,0,1-.481,1.689,7.784,7.784,0,0,1-3.826,1.005Z" transform="translate(-128.97 -125.932)" fill="#fae25d"/>
      <ellipse id="Ellipse_21" data-name="Ellipse 21" cx="1.88" cy="1.879" rx="1.88" ry="1.879" transform="translate(13.485 13.533)" fill="#fae25d"/>
      <ellipse id="Ellipse_22" data-name="Ellipse 22" cx="1.88" cy="1.879" rx="1.88" ry="1.879" transform="translate(6.559 13.533)" fill="#fae25d"/>
      <ellipse id="Ellipse_23" data-name="Ellipse 23" cx="1.88" cy="1.879" rx="1.88" ry="1.879" transform="translate(20.412 13.533)" fill="#fae25d"/>
    </g>
  </g>
</svg>
