<svg xmlns="http://www.w3.org/2000/svg" width="80" height="80" viewBox="0 0 80 80">
  <g id="Group_54947" data-name="Group 54947" transform="translate(-518 -5678)">
    <circle id="Ellipse_18" data-name="Ellipse 18" cx="40" cy="40" r="40" transform="translate(518 5678)" fill="#f26674" opacity="0.1"/>
    <g id="Group_42" data-name="Group 42" transform="translate(3008 -928)">
      <g id="Rectangle_115" data-name="Rectangle 115" transform="translate(-2470 6626)" fill="#f26674" stroke="#f26674" stroke-width="0.3" opacity="0">
        <rect width="40" height="40" stroke="none"/>
        <rect x="0.15" y="0.15" width="39.7" height="39.7" fill="none"/>
      </g>
      <g id="Design" transform="translate(-2473.561 6626)">
        <path id="Path_45412" data-name="Path 45412" d="M2486.452-6629a.591.591,0,0,1-.59-.594,2.939,2.939,0,0,1,2.869-2.948v-3.151h-6.037a.593.593,0,0,1-.59-.6.591.591,0,0,1,.59-.593h28.136a1.057,1.057,0,0,0,1.051-1.062v-4.885h-36.643v4.885a1.059,1.059,0,0,0,1.052,1.062h3.628a.591.591,0,0,1,.588.593.593.593,0,0,1-.588.6h-3.628a2.244,2.244,0,0,1-2.23-2.251v-22.972a2.242,2.242,0,0,1,2.23-2.25h3.092v-4.047a1.781,1.781,0,0,1,1.77-1.788h24.66a1.781,1.781,0,0,1,1.77,1.788v4.046h.982a.593.593,0,0,1,.59.6.594.594,0,0,1-.59.6h-.982v17.958h4.3v-16.9a1.056,1.056,0,0,0-1.051-1.061.593.593,0,0,1-.59-.6.592.592,0,0,1,.59-.594,2.242,2.242,0,0,1,2.23,2.25v22.972a2.244,2.244,0,0,1-2.23,2.251H2498.39v3.151a2.939,2.939,0,0,1,2.87,2.948.592.592,0,0,1-.59.594Zm.691-1.189h12.835a1.746,1.746,0,0,0-1.642-1.164h-9.551A1.746,1.746,0,0,0,2487.143-6630.19Zm2.767-2.354h7.3v-3.149h-7.3Zm-9.35-11.474H2506.4v-15.1h-20.071a.591.591,0,0,1-.588-.6.592.592,0,0,1,.588-.6H2506.4v-6.9a.6.6,0,0,0-.592-.6h-24.66a.6.6,0,0,0-.592.6v6.9h2.709a.593.593,0,0,1,.59.6.593.593,0,0,1-.59.6h-2.709Zm-5.322-16.9v16.9h4.144v-17.958h-3.092A1.057,1.057,0,0,0,2475.239-6660.917Zm16.857,21.06a1.791,1.791,0,0,1,1.781-1.8,1.791,1.791,0,0,1,1.781,1.8,1.79,1.79,0,0,1-1.781,1.8A1.791,1.791,0,0,1,2492.1-6639.856Zm1.18,0a.605.605,0,0,0,.6.607.6.6,0,0,0,.6-.607.607.607,0,0,0-.6-.609A.607.607,0,0,0,2493.275-6639.856Zm2.86-5.422a.593.593,0,0,1-.589-.6.592.592,0,0,1,.589-.6h3.988a.591.591,0,0,1,.588.6.593.593,0,0,1-.588.6Zm-13.513,0a.593.593,0,0,1-.59-.6v-10.963a.593.593,0,0,1,.59-.6h10.861a.592.592,0,0,1,.588.6v10.963a.592.592,0,0,1-.588.6Zm1.863-4.649a2.75,2.75,0,0,0-1.274.423v3.036h9.682v-2.34a2.258,2.258,0,0,0-.328-.062,1.619,1.619,0,0,0-1.289.427,3.322,3.322,0,0,1-1.756.717,3.85,3.85,0,0,1-2.891-1.212,3.1,3.1,0,0,0-2.006-.993C2484.577-6649.932,2484.531-6649.931,2484.484-6649.928Zm2.894.072a2.759,2.759,0,0,0,2.047.943,2.209,2.209,0,0,0,1.178-.509,2.774,2.774,0,0,1,2.093-.632c.066.008.132.017.2.028v-6.218h-9.682v5.409a3.737,3.737,0,0,1,1.2-.281c.073,0,.144-.007.213-.007A4.156,4.156,0,0,1,2487.378-6649.855Zm8.757,1.961a.592.592,0,0,1-.589-.6.592.592,0,0,1,.589-.6h8.532a.593.593,0,0,1,.59.6.593.593,0,0,1-.59.6Zm0-2.616a.591.591,0,0,1-.589-.6.591.591,0,0,1,.589-.594h8.532a.592.592,0,0,1,.59.594.592.592,0,0,1-.59.6Zm-8.331-2.583a1.813,1.813,0,0,1,1.8-1.82,1.813,1.813,0,0,1,1.8,1.82,1.811,1.811,0,0,1-1.8,1.818A1.813,1.813,0,0,1,2487.8-6653.093Zm1.178,0a.627.627,0,0,0,.625.628.627.627,0,0,0,.623-.628.628.628,0,0,0-.623-.631A.628.628,0,0,0,2488.983-6653.093Zm7.153-.032a.591.591,0,0,1-.589-.6.591.591,0,0,1,.589-.594h8.532a.592.592,0,0,1,.59.594.592.592,0,0,1-.59.6Zm0-2.615a.591.591,0,0,1-.589-.593.592.592,0,0,1,.589-.6h8.532a.591.591,0,0,1,.59.594.592.592,0,0,1-.59.6Zm-13.513-6.216a.588.588,0,0,1-.51-.3.6.6,0,0,1,0-.6l1.938-3.39a.59.59,0,0,1,.51-.3.588.588,0,0,1,.51.3l1.94,3.39a.605.605,0,0,1,0,.6.59.59,0,0,1-.51.3Zm1.021-1.189h1.837l-.919-1.607Zm5.782.47a.591.591,0,0,1,.588-.6h4.5a.592.592,0,0,1,.59.6.592.592,0,0,1-.59.594h-4.5A.59.59,0,0,1,2489.425-6662.676Zm.588-1.94a.591.591,0,0,1-.588-.593.592.592,0,0,1,.588-.6h10.11a.592.592,0,0,1,.588.6.591.591,0,0,1-.588.593Z" transform="translate(-2470 6669)" fill="#f26674" stroke="#f26674" stroke-width="0.3"/>
      </g>
    </g>
  </g>
</svg>
