<svg xmlns="http://www.w3.org/2000/svg" xmlns:xlink="http://www.w3.org/1999/xlink" width="80" height="80" viewBox="0 0 80 80">
  <defs>
    <clipPath id="clip-path">
      <path id="Path_45431" data-name="Path 45431" d="M0-682.665H40v40H0Z" transform="translate(0 682.665)" fill="none"/>
    </clipPath>
  </defs>
  <g id="Group_54948" data-name="Group 54948" transform="translate(-783 -5648)">
    <circle id="Ellipse_19" data-name="Ellipse 19" cx="40" cy="40" r="40" transform="translate(783 5648)" fill="#057ca4" opacity="0.1"/>
    <g id="Support" transform="translate(803 5667.998)">
      <path id="Path_45413" data-name="Path 45413" d="M0,0H5.113" transform="translate(31.678 3.498)" fill="none" stroke="#057ca4" stroke-linecap="round" stroke-linejoin="round" stroke-miterlimit="10" stroke-width="1.5"/>
      <path id="Path_45414" data-name="Path 45414" d="M0,0H.623" transform="translate(28.775 3.498)" fill="none" stroke="#057ca4" stroke-linecap="round" stroke-linejoin="round" stroke-miterlimit="10" stroke-width="1.5"/>
      <path id="Path_45415" data-name="Path 45415" d="M0,0H8.016" transform="translate(28.775 6.251)" fill="none" stroke="#057ca4" stroke-linecap="round" stroke-linejoin="round" stroke-miterlimit="10" stroke-width="1.5"/>
      <g id="Group_43" data-name="Group 43" transform="translate(0 0.002)" clip-path="url(#clip-path)">
        <path id="Path_45416" data-name="Path 45416" d="M-52.554,0V2.4A1.793,1.793,0,0,1-54.347,4.19h-1.478" transform="translate(77.216 14.115)" fill="none" stroke="#057ca4" stroke-linecap="round" stroke-linejoin="round" stroke-miterlimit="10" stroke-width="1.5"/>
        <path id="Path_45417" data-name="Path 45417" d="M-464.824,0h-27.671a1.26,1.26,0,0,0-1.26,1.26,1.26,1.26,0,0,0,1.26,1.26h27.671a1.26,1.26,0,0,0,1.26-1.26A1.26,1.26,0,0,0-464.824,0Z" transform="translate(494.341 36.87)" fill="none" stroke="#057ca4" stroke-linecap="round" stroke-linejoin="round" stroke-miterlimit="10" stroke-width="1.5"/>
        <path id="Path_45418" data-name="Path 45418" d="M-82.675-134a4.175,4.175,0,0,1,1.078-2.792l.015-.017a3.56,3.56,0,0,0,.908-2.381,3.572,3.572,0,0,0-1.811-3.109.307.307,0,0,0-.46.266v2.659a.807.807,0,0,1-.807.807h-.992a.807.807,0,0,1-.807-.807v-2.659a.307.307,0,0,0-.46-.266,3.572,3.572,0,0,0-1.811,3.109,3.56,3.56,0,0,0,.908,2.381l.015.017A4.175,4.175,0,0,1-85.82-134" transform="translate(99.929 170.871)" fill="none" stroke="#057ca4" stroke-linecap="round" stroke-linejoin="round" stroke-miterlimit="10" stroke-width="1.5"/>
        <path id="Path_45419" data-name="Path 45419" d="M0,0,.124,2.286" transform="translate(3.607 34.583)" fill="none" stroke="#057ca4" stroke-linecap="round" stroke-linejoin="round" stroke-miterlimit="10" stroke-width="1.5"/>
        <path id="Path_45420" data-name="Path 45420" d="M-393.388-202.354l.581-10.7a1.8,1.8,0,0,0-1.8-1.9h-21.471a1.8,1.8,0,0,0-1.8,1.9l.309,5.693" transform="translate(421.02 239.224)" fill="none" stroke="#057ca4" stroke-linecap="round" stroke-linejoin="round" stroke-miterlimit="10" stroke-width="1.5"/>
        <path id="Path_45421" data-name="Path 45421" d="M-35.6-140.715v-2.454a10.056,10.056,0,0,0-2.216-6.3" transform="translate(65.908 177.865)" fill="none" stroke="#057ca4" stroke-linecap="round" stroke-linejoin="round" stroke-miterlimit="10" stroke-width="1.5"/>
        <path id="Path_45422" data-name="Path 45422" d="M-35.6,0a10.056,10.056,0,0,0-2.216,6.3V8.758" transform="translate(38.871 28.392)" fill="none" stroke="#057ca4" stroke-linecap="round" stroke-linejoin="round" stroke-miterlimit="10" stroke-width="1.5"/>
        <path id="Path_45423" data-name="Path 45423" d="M-223-41.9h-.066a.658.658,0,0,1-.659-.659,1.95,1.95,0,0,0-1.95-1.95h-6.205a5,5,0,0,0-5,5v3.3a1.141,1.141,0,0,0,.766,1.077l1.232.429a.662.662,0,0,0,.879-.626l0-2.33a2.04,2.04,0,0,1,2.019-2.061h.024a3.238,3.238,0,0,1,1.005.156,5.713,5.713,0,0,0,1.77.293h.444a5.713,5.713,0,0,0,1.77-.293,3.238,3.238,0,0,1,1.005-.156h.024a2.04,2.04,0,0,1,2.019,2.061l0,2.33a.662.662,0,0,0,.879.626l1.231-.429a1.141,1.141,0,0,0,.765-1.077v-3.747A1.95,1.95,0,0,0-223-41.9Z" transform="translate(244.644 47.32)" fill="none" stroke="#057ca4" stroke-linecap="round" stroke-linejoin="round" stroke-miterlimit="10" stroke-width="1.5"/>
        <path id="Path_45424" data-name="Path 45424" d="M0,0H.011A6.052,6.052,0,0,0,2.046,4.438,6.657,6.657,0,0,0,6.428,6.116,6.658,6.658,0,0,0,10.8,4.4,6.042,6.042,0,0,0,12.79.046" transform="translate(9.287 15.588)" fill="none" stroke="#057ca4" stroke-linecap="round" stroke-linejoin="round" stroke-miterlimit="10" stroke-width="1.5"/>
        <path id="Path_45425" data-name="Path 45425" d="M-17.118,0a1.3,1.3,0,0,0-1.065,1.28V3.505a1.3,1.3,0,0,0,1.3,1.3H-15.6V1.6" transform="translate(24.885 10.856)" fill="none" stroke="#057ca4" stroke-linecap="round" stroke-linejoin="round" stroke-miterlimit="10" stroke-width="1.5"/>
        <path id="Path_45426" data-name="Path 45426" d="M0-25.653v3.211H1.283a1.3,1.3,0,0,0,1.3-1.3v-2.225a1.3,1.3,0,0,0-1.065-1.28" transform="translate(22.076 38.105)" fill="none" stroke="#057ca4" stroke-linecap="round" stroke-linejoin="round" stroke-miterlimit="10" stroke-width="1.5"/>
        <path id="Path_45427" data-name="Path 45427" d="M-39.947-32.642h-1.47a1.016,1.016,0,0,1-1.016-1.016,1.016,1.016,0,0,1,1.016-1.016h1.47a1.016,1.016,0,0,1,1.016,1.016A1.016,1.016,0,0,1-39.947-32.642Z" transform="translate(60.05 51.866)" fill="none" stroke="#057ca4" stroke-linecap="round" stroke-linejoin="round" stroke-miterlimit="10" stroke-width="1.5"/>
        <path id="Path_45428" data-name="Path 45428" d="M-14.361-55.638a1.705,1.705,0,0,1-.894-1.5V-59.1" transform="translate(34.198 79.913)" fill="none" stroke="#057ca4" stroke-linecap="round" stroke-linejoin="round" stroke-miterlimit="10" stroke-width="1.5"/>
        <path id="Path_45429" data-name="Path 45429" d="M-14.39,0V1.97a1.706,1.706,0,0,1-.9,1.5" transform="translate(26.81 20.806)" fill="none" stroke="#057ca4" stroke-linecap="round" stroke-linejoin="round" stroke-miterlimit="10" stroke-width="1.5"/>
        <path id="Path_45430" data-name="Path 45430" d="M-213.09-45.6v-1.134a1.7,1.7,0,0,0-1.7-1.7h-9.855a1.7,1.7,0,0,0-1.7,1.7V-41.8a1.7,1.7,0,0,0,1.7,1.7,1,1,0,0,1,1,1v3.048a.381.381,0,0,0,.709.2l2.252-3.756a1,1,0,0,1,.853-.483h5.045a1.7,1.7,0,0,0,1.7-1.7v-1.055" transform="translate(252.504 49.046)" fill="none" stroke="#057ca4" stroke-linecap="round" stroke-linejoin="round" stroke-miterlimit="10" stroke-width="1.5"/>
      </g>
    </g>
  </g>
</svg>
