<svg xmlns="http://www.w3.org/2000/svg" xmlns:xlink="http://www.w3.org/1999/xlink" width="593" height="380" viewBox="0 0 593 380">
  <defs>
    <clipPath id="clip-path">
      <rect id="Rectangle_19918" data-name="Rectangle 19918" width="8.567" height="9.727" fill="none"/>
    </clipPath>
  </defs>
  <g id="Group_54543" data-name="Group 54543" transform="translate(-1 0)">
    <g id="Group_54545" data-name="Group 54545" transform="translate(0 0)">
      <g id="Group_52804" data-name="Group 52804">
        <g id="Group_54544" data-name="Group 54544">
          <path id="Path_49841" data-name="Path 49841" d="M1036.82,327.135s-33.659,46.788-34.811,59.539-5.442,21.224,18.816,12.094c17.462-6.572,36.013-47.385,36.013-47.385l-7.527-15.441Z" transform="translate(-728.031 -249.75)" fill="#ffe3db"/>
          <path id="Path_49842" data-name="Path 49842" d="M593,925.993c0,21.262-132.747,38.5-296.5,38.5S0,947.255,0,925.993s132.748-38.5,296.5-38.5S593,904.731,593,925.993" transform="translate(1 -584.492)" fill="#04bab8" opacity="0.1"/>
          <path id="Path_49843" data-name="Path 49843" d="M1337.612,816.2s-24.008-103.757-27.727-106.8-9.469-.339-7.439,5.41,29.942,99.293,31.109,101.389c1.127,2.024,4.732,2.9,4.058,0" transform="translate(-907.486 -477.578)" fill="#d3a09f"/>
          <path id="Path_49844" data-name="Path 49844" d="M979.879,476.872c12.5-15.954,63.062-54.961,89.054-68.6,33.115-17.379,73.267-24.221,85.359,4.011s-28.413,115.194-28.413,115.194-2.249,7.725-10.454,8.588-110.38.03-125.484,0c-44.272-.089-35.2-27.1-10.061-59.191" transform="translate(-702.936 -289.281)" fill="#9f746e"/>
          <path id="Path_49845" data-name="Path 49845" d="M908.457,936.642s-.1,8.4-5.751,10.836-22.075,4.789-15.857,10.1c3.568,3.051,20.168.836,24.863.776s9.128,1.929,12.576-1.258c3.794-3.506-.266-20.659-.266-20.659s-4.023,2.163-7.668,2.115c-5.251-.069-7.9-1.914-7.9-1.914" transform="translate(-659.174 -613.67)"/>
          <path id="Path_49846" data-name="Path 49846" d="M784.209,933.258s-.088,8.4-5.732,10.846-22.067,4.827-15.839,10.133c3.573,3.045,20.17.8,24.864.732s9.132,1.913,12.574-1.28c3.787-3.513-.3-20.659-.3-20.659s-4.02,2.169-7.664,2.128c-5.252-.059-7.9-1.9-7.9-1.9" transform="translate(-585.128 -611.637)"/>
          <path id="Path_49847" data-name="Path 49847" d="M804.962,691.194a18.25,18.25,0,0,1-16.144-19.378c3.783-55.007,8.9-82.711,27.486-105.633,11.94-14.726,29.377-28.7,50.29-36.336,18.031-6.583,33.222-9.368,52.932-8.825,32.143.887,46.8,6.947,46.8,6.947,19.7,51.99-18.47,55.371-46.4,54.339q-1.383-.051-2.781-.083c-16.931-.391-47.241,1.306-60.016,17.062-10.116,12.477-17.947,30.542-24.709,78.3a17.077,17.077,0,0,1-18.833,14.592Z" transform="translate(-601.535 -365.997)" fill="#44393d"/>
          <path id="Path_49848" data-name="Path 49848" d="M919.087,718.483a18.25,18.25,0,0,1-16.144-19.378c3.783-55.007,8.9-82.711,27.486-105.633,11.94-14.725,28.886-25.158,50.368-31.006,15.331-4.174,33.1-6.015,52.81-5.471,32.143.887,46.847-1.737,46.847-1.737,20.375,66.133-73.135,44.406-100.131,69.508-11.763,10.937-27.016,32.352-33.777,80.107a17.076,17.076,0,0,1-18.833,14.592Z" transform="translate(-669.566 -386.445)" fill="#44393d"/>
          <path id="Path_49849" data-name="Path 49849" d="M1158.708,288.482s-9.877-26.138-43.631-24.327-47.851,47.167-66.713,105.278c0,0-.031,6.149,28.368,13.881,18.443,5.021,38.378-.237,75.278,24.041,8.693,5.72,23.508-.954,24.083-11.343,1.143-20.692-3.114-60.211-17.385-107.53" transform="translate(-756.279 -211.913)" fill="#04bab8"/>
          <path id="Path_49850" data-name="Path 49850" d="M1205.356,291.843l-29.659,9.4s-61.408,7.188-77.778,4.563-21.046-15.568-21.046-15.568,17.093-19.864,46.569-25.621a82.649,82.649,0,0,1,8.627-1.226c5.007-.442,9.821-.9,14.735-.385,48.023,5.035,58.551,28.841,58.551,28.841" transform="translate(-773.274 -211.144)" fill="#04bab8"/>
          <path id="Path_49851" data-name="Path 49851" d="M1349.343,332.675c1.588,3.537-5.36,6.855-13.877,10.012s-16.114,3.794-16.968,1.422,5.36-6.855,13.878-10.012,15.935-3.722,16.967-1.422" transform="translate(-917.26 -252.18)" fill="#30262a"/>
          <path id="Path_49852" data-name="Path 49852" d="M1206.074,213.3l-5.084-8.965-1.479-2.61-8.7-15.346,2.91,16.522,1.748,9.916.553,3.139c.375,2.131-.815,2.856-1.98,5.034-.472.882-3.548,6.279,1.508,7.308,6.3,1.282,16.193-4.909,19.174-10.834-.034,0-7.008-1.266-8.651-4.163" transform="translate(-841.192 -165.602)" fill="#ffe3db"/>
          <path id="Path_49853" data-name="Path 49853" d="M1154.969,178.178a22.137,22.137,0,0,0,1.964,8.981c2.132,4.768,4.528-8.623,4.528-8.623Z" transform="translate(-819.824 -160.715)" fill="#30262a"/>
          <path id="Path_49854" data-name="Path 49854" d="M1159,175.815c-.844-9.937,5.151-18.56,13.392-19.26s15.606,6.787,16.45,16.724-5.151,18.56-13.392,19.26-15.606-6.787-16.45-16.724" transform="translate(-822.184 -147.798)" fill="#ffe3db"/>
          <path id="Path_49855" data-name="Path 49855" d="M1173.088,155.292l-7.242.814a5.275,5.275,0,0,1-4.331-1.481c-1.947-1.954-3.948-2.738-10.5-1.045-8.3,2.143-14.909-1.635-16.77-5.814-1.9-4.266,1.719-8.229,6.386-7.018s1.721-3.618,5.64-5.056c7.323-2.687,10.01,2.823,16.149,1.282,8.05-2.021,23.914.963,20.149,16.735Z" transform="translate(-807.166 -134.941)" fill="#30262a"/>
          <path id="Path_49856" data-name="Path 49856" d="M1193.463,198.6a.3.3,0,0,1,.013-.576,3.287,3.287,0,0,1,3.844,1.2.305.305,0,0,1-.046.427.333.333,0,0,1-.427-.046,5.2,5.2,0,0,0-3.192-1,.3.3,0,0,1-.192-.005" transform="translate(-842.653 -172.424)" fill="#080435"/>
          <path id="Path_49857" data-name="Path 49857" d="M1196.192,206.472c-.037.723-.492,1.288-1.017,1.261s-.921-.635-.884-1.358.492-1.288,1.017-1.261.92.635.884,1.358" transform="translate(-843.265 -176.771)" fill="#080435"/>
          <path id="Path_49858" data-name="Path 49858" d="M1165.752,201.458a.222.222,0,0,1-.193-.113.364.364,0,0,1,.028-.426,2.129,2.129,0,0,1,3.1-.318.361.361,0,0,1,.1.413.225.225,0,0,1-.318.116,3.183,3.183,0,0,0-2.574.261.2.2,0,0,1-.138.067" transform="translate(-826.106 -173.761)" fill="#080435"/>
          <path id="Path_49859" data-name="Path 49859" d="M1171.661,208.161a1.176,1.176,0,0,1-.46,1.554c-.5.175-1.093-.236-1.334-.919a1.175,1.175,0,0,1,.46-1.554c.5-.175,1.093.236,1.335.919" transform="translate(-828.647 -178.016)" fill="#080435"/>
          <path id="Path_49860" data-name="Path 49860" d="M1227.512,180.763s-2.581,11.622-9.347,13.913c0,0,3.849-9.269-9.042-11.585,0,0,10.478-4.08,18.389-2.328" transform="translate(-852.108 -161.995)" fill="#30262a"/>
          <path id="Path_49861" data-name="Path 49861" d="M1226.013,193.514a2.93,2.93,0,1,1,.26-4.362,3.1,3.1,0,0,1-.26,4.362" transform="translate(-859.11 -166.784)" fill="#ffe3db"/>
          <path id="Path_49862" data-name="Path 49862" d="M1182.916,187.12s2.883,8.649,1.447,10.718-13.181,5.391-19.2,4.46a11.842,11.842,0,0,0,12.074,9.568,17.223,17.223,0,0,0,5.678-1.262c3.74-1.53,7.168-3.965,7.983-7.923.248-1.2-2.648-7.646-2.648-7.646s-1.4-3.846.454-6.412c0,0-3.184-1.81-5.783-1.5" transform="translate(-825.901 -166.025)" fill="#30262a"/>
          <path id="Path_49863" data-name="Path 49863" d="M1174.147,229.1a30.727,30.727,0,0,0,9.708-1.335,4.712,4.712,0,0,1-4.965,4.957c-3.049.107-4.742-3.622-4.742-3.622" transform="translate(-831.258 -190.274)" fill="#fff"/>
          <path id="Path_49864" data-name="Path 49864" d="M1152.253,143.535l-.075-.4a1.871,1.871,0,0,0,1.767-2.009l.405-.05a2.29,2.29,0,0,1-2.1,2.461" transform="translate(-818.163 -138.597)" fill="#30262a"/>
          <path id="Path_49865" data-name="Path 49865" d="M1152.56,162.847a27.325,27.325,0,0,1-5.01-.906c-3.414-.979-5.528-2.513-6.114-4.438-.408-1.34-.369-2.307.119-2.957.779-1.035,2.521-1.012,4.059-.99q.342,0,.664.006v.2c-.217,0-.439,0-.667-.006-1.489-.021-3.177-.044-3.893.908a3.082,3.082,0,0,0-.088,2.774c1.371,4.5,10.847,5.193,10.943,5.2Z" transform="translate(-811.593 -146.035)" fill="#fff"/>
          <path id="Path_49866" data-name="Path 49866" d="M1187.33,141.694a14.99,14.99,0,0,1-3.821-.481,11.067,11.067,0,0,1-3.734-1.666l.125-.161c.052.04,5.307,4.007,13.736.932l.07.192a18.541,18.541,0,0,1-6.376,1.184" transform="translate(-834.613 -137.591)" fill="#fff"/>
          <path id="Path_49867" data-name="Path 49867" d="M909.083,689.07a149.511,149.511,0,0,1,7.829-43.751c4.584-13.249,10.913-24.435,18.813-33.25a69.964,69.964,0,0,1,36.784-21.759l.084.359A69.6,69.6,0,0,0,936,612.315c-7.867,8.778-14.172,19.922-18.739,33.124a149.077,149.077,0,0,0-7.809,43.629Z" transform="translate(-673.252 -407.008)" fill="#020202"/>
          <path id="Path_49875" data-name="Path 49875" d="M1262.171,738.021l.864-.084c.673-.066,1.176-1.178,1.123-2.485l-6.7-165.2-12.737-6.307,15.44,170.746c.113,1.954,1,3.427,2.012,3.329" transform="translate(-873.327 -391.623)" fill="#654d53"/>
          <path id="Path_49876" data-name="Path 49876" d="M601.746,738.021l-.864-.084c-.673-.066-1.176-1.178-1.123-2.485l6.7-165.2,12.737-6.307-15.44,170.746c-.113,1.954-1,3.427-2.012,3.329" transform="translate(-488.86 -391.623)" fill="#654d53"/>
          <path id="Path_49877" data-name="Path 49877" d="M612.868,586.733a.663.663,0,0,1-.067,0c-17.711-1.816-31.865-3.91-42.068-6.224a.654.654,0,1,1,.29-1.276c10.152,2.3,24.253,4.387,41.912,6.2a.654.654,0,0,1-.066,1.305" transform="translate(-471.255 -400.231)" fill="#fff"/>
          <path id="Path_49878" data-name="Path 49878" d="M865.4,552.784c0,11.629-75.587,21.057-168.828,21.057s-168.828-9.428-168.828-21.057,75.587-21.057,168.828-21.057S865.4,541.154,865.4,552.784" transform="translate(-445.932 -371.917)" fill="#f7f0f7"/>
          <rect id="Rectangle_19917" data-name="Rectangle 19917" width="337.655" height="9.71" transform="translate(81.81 171.167)" fill="#f7f0f7"/>
          <path id="Path_49879" data-name="Path 49879" d="M865.4,528.742c0,11.629-75.587,21.056-168.828,21.056s-168.828-9.427-168.828-21.056,75.587-21.057,168.828-21.057S865.4,517.112,865.4,528.742" transform="translate(-445.932 -357.558)" fill="#ddd7dd"/>
          <path id="Path_49880" data-name="Path 49880" d="M1291.991,579.4a.586.586,0,0,1-.112-1.161c.164-.032,16.522-3.252,22.657-6.181a.586.586,0,0,1,.5,1.057c-6.268,2.993-22.259,6.141-22.937,6.274a.571.571,0,0,1-.113.011" transform="translate(-901.157 -395.926)" fill="#fff"/>
          <path id="Path_49881" data-name="Path 49881" d="M1591.459,756.976a16.22,16.22,0,0,1-1.064,1.529.953.953,0,0,0-.061.08l-.006,0a36.593,36.593,0,0,1-7.621,7.172,16.094,16.094,0,0,1-5.258,2.253h0l-.044.012c-.453.116-.921.227-1.4.324h0c-6.826,1.429-16.2,1.122-23.556-.431h0l-1.266-.286h0q-.945-.226-1.833-.48a19.218,19.218,0,0,1-4.711-2c-.16-.1-.315-.2-.467-.3-5.1-3.353-5.011-7.884-5.011-7.884Z" transform="translate(-1048.839 -506.387)" fill="#d3a09f"/>
          <path id="Path_49882" data-name="Path 49882" d="M1589.625,734.531v4.957c0,3.067-12.617,5.553-28.184,5.553s-28.184-2.486-28.184-5.553v-4.957c0-1.557,7.268-2.892,17.571-3.443,3.276-.178,6.859-.276,10.613-.276,15.567,0,28.184,1.663,28.184,3.719" transform="translate(-1045.326 -490.767)" fill="#f7f0f7"/>
          <path id="Path_49883" data-name="Path 49883" d="M1589.625,734.53c0,.3-.265.591-.77.867-2.548,1.409-11.188,2.51-22.057,2.787-.214.006-.427.009-.64.015-1.481.034-3.005.052-4.559.052h-.158q-1.9,0-3.729-.032-.977-.017-1.937-.043c-.245-.006-.487-.015-.729-.02l-1.733-.061q-1.128-.047-2.213-.1l-.2-.011-.738-.04c-9.952-.574-16.9-1.882-16.9-3.409,0-1.285,4.963-2.421,12.5-3.084,1.326-.118,2.729-.222,4.2-.309.285-.017.577-.034.867-.049.015,0,.026,0,.041,0,.089-.006.182-.009.271-.015.248-.014.5-.026.752-.037,1.384-.067,2.819-.118,4.3-.156q1.561-.043,3.179-.054c.683-.009,1.375-.012,2.072-.012,2.818,0,5.539.055,8.1.155.216.009.432.018.645.029,2.637.112,5.1.274,7.335.481h0q1.223.113,2.348.243h0a51.183,51.183,0,0,1,6.654,1.115.009.009,0,0,0,.012,0,13.787,13.787,0,0,1,1.712.548c.888.36,1.366.746,1.366,1.147" transform="translate(-1045.326 -490.756)" fill="#30262a"/>
          <path id="Path_49889" data-name="Path 49889" d="M1557.175,690.765c-12.189-1.4-22.066-7.4-29.358-17.836a8.773,8.773,0,0,0-.563-.764.2.2,0,0,0,.061.031l.188-.568c.166.056.271.2.8.956,7.191,10.289,16.928,16.205,28.941,17.585Z" transform="translate(-1041.748 -455.433)" fill="#f7f0f7"/>
          <path id="Path_49890" data-name="Path 49890" d="M1553.2,673.642l-.573-.156c2.105-7.849-3.078-19.392-3.131-19.507l.539-.25a50.032,50.032,0,0,1,2.4,6.884c.974,3.614,1.9,8.808.765,13.03" transform="translate(-1055.005 -444.744)" fill="#f7f0f7"/>
          <path id="Path_49893" data-name="Path 49893" d="M1545.1,639.819c1.436,2.814.978,4.112-.114,4.68s-2.4.192-3.842-2.622c-2.616-5.126-1.9-8.633-1.9-8.633s3.2,1.374,5.858,6.575" transform="translate(-1048.838 -432.5)" fill="#f7f0f7"/>
          <path id="Path_49895" data-name="Path 49895" d="M1571.51,682.388c-.172,3.161-1.218,4.046-2.444,3.978s-2.171-1.063-2-4.224c.312-5.758,2.685-8.418,2.685-8.418s2.075,2.822,1.758,8.664" transform="translate(-1065.468 -456.674)" fill="#f7f0f7"/>
          <path id="Path_49896" data-name="Path 49896" d="M1524.779,665.915c2,2.438,1.827,3.805.88,4.6s-2.308.708-4.308-1.731c-3.642-4.442-3.689-8.021-3.689-8.021s3.421.649,7.117,5.156" transform="translate(-1036.03 -448.928)" fill="#f7f0f7"/>
          <g id="Group_54944" data-name="Group 54944">
            <path id="Path_49884" data-name="Path 49884" d="M1600,560.153c-2.7,1.6-4.013,1.212-4.635.142s-.323-2.414,2.381-4.017c4.925-2.92,8.432-2.393,8.432-2.393s-1.182,3.306-6.179,6.268" transform="translate(-1082.187 -385.085)" fill="#74aa9c"/>
            <path id="Path_49885" data-name="Path 49885" d="M1599.535,608.516c-2.045,2.4-3.408,2.458-4.34,1.649s-1.079-2.179.966-4.579c3.725-4.372,7.211-5.02,7.211-5.02s-.059,3.514-3.838,7.95" transform="translate(-1081.858 -412.985)" fill="#74aa9c"/>
            <path id="Path_49886" data-name="Path 49886" d="M1562.438,641.562l-1.379-1.044c.279-2.536.554-5.959-2.531-19.535a116.592,116.592,0,0,0-25.781-50.106l.447-.394a117.2,117.2,0,0,1,25.918,50.392c3.1,13.661,3.333,20.594,3.326,20.687" transform="translate(-1045.022 -395.11)" fill="#74aa9c"/>
            <path id="Path_49887" data-name="Path 49887" d="M1572.494,568.038l-.5-.323c11.622-18.323,4.618-40.572,4.547-40.794l.564-.187c.072.225,7.165,22.737-4.611,41.3" transform="translate(-1068.418 -368.934)" fill="#74aa9c"/>
            <path id="Path_49888" data-name="Path 49888" d="M1535.412,599.647a20.882,20.882,0,0,1-10.635-3.083l.332-.5a19.776,19.776,0,0,0,13.021,2.76l.1.591a17.262,17.262,0,0,1-2.814.228" transform="translate(-1040.271 -410.29)" fill="#74aa9c"/>
            <path id="Path_49891" data-name="Path 49891" d="M1517.046,554.246c3.139,2.86,3.406,4.457,2.583,5.378s-2.424.818-5.563-2.042c-5.719-5.209-6.993-9.395-6.993-9.395s4.171.774,9.974,6.059" transform="translate(-1029.718 -381.709)" fill="#74aa9c"/>
            <path id="Path_49892" data-name="Path 49892" d="M1512.014,588.411c3.847,1.771,4.578,3.213,4.069,4.342s-2.068,1.518-5.915-.253c-7.009-3.225-9.473-6.829-9.473-6.829s4.208-.532,11.318,2.74" transform="translate(-1025.916 -404.068)" fill="#74aa9c"/>
            <path id="Path_49894" data-name="Path 49894" d="M1558.966,569.763c.715,3.082-.042,4.228-1.239,4.512s-2.379-.4-3.094-3.487c-1.3-5.615.234-8.841.234-8.841s2.777,2.12,4.1,7.816" transform="translate(-1057.756 -389.927)" fill="#74aa9c"/>
            <path id="Path_49897" data-name="Path 49897" d="M1579.954,504.941c.986,4.152.31,5.621-.885,5.91s-2.457-.711-3.442-4.863c-1.8-7.563-.5-11.742-.5-11.742s3.005,3.021,4.826,10.694" transform="translate(-1070.016 -349.504)" fill="#74aa9c"/>
          </g>
          <path id="Path_49898" data-name="Path 49898" d="M1552.722,673.052h-.158c-1.265,0-2.511-.012-3.729-.032q-.977-.017-1.937-.043c-.245-.006-.487-.014-.729-.02l-1.732-.061a47.506,47.506,0,0,0-3.352-6.957c-1.876-3.291-4.176-6.779-6.588-10.295,0,0,0-.005-.006-.005-.917-1.343-1.851-2.692-2.787-4.035l0,0c-4.649-6.689-9.257-13.254-11.649-18.575-2.51-5.58-2.58-9.781,2.3-11.3,11.5-3.585,22.987,27.6,28.14,43.9.995,3.15,1.755,5.747,2.231,7.427" transform="translate(-1036.45 -425.511)" fill="#09a7a1"/>
          <path id="Path_49899" data-name="Path 49899" d="M1537.655,688.169l-2.2.5q-.977-.017-1.937-.043l-.729-.02-1.732-.06q-1.128-.048-2.213-.1a37.768,37.768,0,0,0-5.34-6.545c-12.537-12.825-36.337-27.78-24.258-33.493a8.7,8.7,0,0,1,7.427.271c10.064,4.406,21.509,22.566,27.261,32.654,2.326,4.078,3.721,6.836,3.721,6.836" transform="translate(-1023.071 -441.177)" fill="#f7f0f7"/>
          <path id="Path_49900" data-name="Path 49900" d="M1544.651,698.118c-.246-.006-.487-.015-.729-.02a57.523,57.523,0,0,0-3.905-7.084,87.729,87.729,0,0,0-7.767-10.228s0-.006-.005-.006a129.612,129.612,0,0,0-17.647-16.633l.389-.533a129.714,129.714,0,0,1,14.468,13.128l0,0a94.655,94.655,0,0,1,11.312,14.232,56.88,56.88,0,0,1,3.882,7.142" transform="translate(-1034.203 -450.672)" fill="#09a7a1"/>
          <path id="Path_49901" data-name="Path 49901" d="M1633.505,627.523c-.133.331-.271.663-.419.994,0,0,0,0,0,.006a30.592,30.592,0,0,1-3.68,6.17,9.489,9.489,0,0,0-1.807,6.606v0c0,.063.005.124.009.19.21,3.38,1.357,6.79.729,9.666-.047.2-.1.4-.164.6a6.926,6.926,0,0,1-3.906,4.1c-7.577,3.744-8.787,3.438-9.461,6.721v0c-.044.2-.081.4-.119.622v0c-.6.093-1.182.159-1.76.2.888.36,1.365.747,1.365,1.147,0,.3-.265.591-.769.867-2.547,1.409-11.188,2.51-22.056,2.787-.213.006-.427.008-.64.014-1.533.034-3.109.052-4.718.052-3.727,0-7.288-.095-10.543-.271-.248-.014-.492-.026-.738-.04a12.528,12.528,0,0,1,.669-6.749c.015-.035.026-.07.041-.1a15.116,15.116,0,0,1,2.646-4.254c6.788-7.825,12.24-6.453,10.966-20.3-.014-.156-.031-.312-.046-.476v0c-.014-.127-.026-.259-.04-.392-1.579-14.782,18.194-8.393,23.14-13.381s8.309-10.586,17.2-8.393c6.26,1.547,6.456,7.632,4.1,13.6" transform="translate(-1069.992 -420.734)" fill="#04bab8"/>
          <path id="Path_49902" data-name="Path 49902" d="M1655.992,618.225a201.278,201.278,0,0,0-18.745,18.869v0h0c-.168.193-.329.383-.493.574a147.347,147.347,0,0,0-16.14,22.558c-.1.179-.2.349-.3.522v0q-.851,1.505-1.562,2.862c-1.567,2.983-2.663,5.415-3.392,7.188-.213.006-.426.009-.64.014.714-1.76,1.8-4.21,3.386-7.231a130.341,130.341,0,0,1,11.079-17.416c.121-.164.245-.331.372-.5a190.32,190.32,0,0,1,26.048-27.9Z" transform="translate(-1093.885 -423.326)" fill="#f7f0f7"/>
          <path id="Path_49903" data-name="Path 49903" d="M1621.747,672.6c-8.109-.294-11.688-2.943-11.837-3.055l.356-.48c.035.027,3.6,2.649,11.5,2.936Z" transform="translate(-1091.02 -453.881)" fill="#f7f0f7"/>
          <path id="Path_49904" data-name="Path 49904" d="M1637.558,662.368c-3.216-1.214-5.855-4.651-7.632-9.937a40.374,40.374,0,0,1-1.728-7.649l.59-.063c.015.143,1.583,14.3,8.978,17.088Z" transform="translate(-1101.921 -439.361)" fill="#f7f0f7"/>
          <path id="Path_49905" data-name="Path 49905" d="M1670.352,655.79c-.936,0-1.484-.051-1.509-.053l.059-.6c.116.012,11.66,1.071,20.683-7.034l.394.447c-7.271,6.531-16.14,7.236-19.627,7.236" transform="translate(-1126.15 -441.37)" fill="#f7f0f7"/>
          <path id="Path_49906" data-name="Path 49906" d="M1690.466,673.225a13.943,13.943,0,0,1-8.1-3.926,10.459,10.459,0,0,1-2.182-3.093l.549-.226c.022.056,2.336,5.564,9.816,6.653Z" transform="translate(-1132.911 -452.041)" fill="#f7f0f7"/>
          <path id="Path_49907" data-name="Path 49907" d="M1646.635,728.165c-.081.015-.162.026-.242.038-.6.092-1.182.158-1.762.2q-.756.052-1.487.052a23.766,23.766,0,0,1-9.243-1.957h0a26.253,26.253,0,0,1-5.772-3.343v0c-.191-.147-.292-.233-.3-.242l.39-.452c.005.006.077.066.21.173a25.325,25.325,0,0,0,5.585,3.268c.185.081.372.159.565.236.53.213,1.089.418,1.675.606h0a22.353,22.353,0,0,0,6.654,1.115.008.008,0,0,0,.012,0,20.119,20.119,0,0,0,3.591-.277.078.078,0,0,0,.026,0Z" transform="translate(-1101.699 -485.763)" fill="#f7f0f7"/>
          <path id="Path_49908" data-name="Path 49908" d="M1643.294,717.134l-.5-.317c1.762-2.851,5.873-6.68,15.442-8.734a58.041,58.041,0,0,1,10.758-1.239v.6c-.2,0-19.779.121-25.7,9.691" transform="translate(-1110.62 -476.448)" fill="#f7f0f7"/>
          <path id="Path_49909" data-name="Path 49909" d="M1639.888,797.67H1573.81v75.42h61.643Z" transform="translate(-1069.5 -530.947)" fill="#ddd7dd"/>
          <path id="Path_49910" data-name="Path 49910" d="M1556.284,797.67h-71.211l3.126,75.42h68.085Z" transform="translate(-1016.603 -530.947)" fill="#f7f0f7"/>
          <path id="Path_49911" data-name="Path 49911" d="M1582.493,783.883H1476.327l-1.834,8.073,108,1.355Z" transform="translate(-1010.297 -522.449)" fill="#743701"/>
          <path id="Path_49912" data-name="Path 49912" d="M1556.349,919.41h-48.392a2.844,2.844,0,0,1-2.824-2.627l-1.585-19.445a2.85,2.85,0,0,1,2.824-3.1h49.976a2.848,2.848,0,0,1,2.834,2.861v19.445a2.848,2.848,0,0,1-2.834,2.862" transform="translate(-1027.611 -588.515)" fill="#ddd7dd"/>
          <path id="Path_49913" data-name="Path 49913" d="M1556.349,843.068h-48.392a2.845,2.845,0,0,1-2.824-2.627L1503.549,821a2.85,2.85,0,0,1,2.824-3.1h49.976a2.848,2.848,0,0,1,2.834,2.861v19.445a2.848,2.848,0,0,1-2.834,2.861" transform="translate(-1027.611 -542.794)" fill="#ddd7dd"/>
          <path id="Path_49914" data-name="Path 49914" d="M1665.892,783.883v9.043l30.7.385v-9.428Z" transform="translate(-1124.391 -522.449)" fill="#8d4302"/>
          <path id="Path_49915" data-name="Path 49915" d="M1514.283,984.4l-.8,3.743a2.069,2.069,0,0,1-2.408,1.964c-1.064-.017-1.829-1.851-1.56-3.543l.336-2.164Z" transform="translate(-1031.139 -642.259)" fill="#30262a"/>
          <path id="Path_49916" data-name="Path 49916" d="M1635.335,984.4l.8,3.743a2.07,2.07,0,0,0,2.409,1.964c1.063-.017,1.828-1.851,1.56-3.543l-.335-2.164Z" transform="translate(-1106.176 -642.259)" fill="#30262a"/>
          <path id="Path_49917" data-name="Path 49917" d="M1706.663,984.4l.8,3.743a2.068,2.068,0,0,0,2.408,1.964c1.063-.017,1.829-1.851,1.56-3.543l-.335-2.164Z" transform="translate(-1148.695 -642.259)" fill="#30262a"/>
          <path id="Path_49918" data-name="Path 49918" d="M1568,828.18a2.65,2.65,0,0,1-2.043-.886,1.866,1.866,0,0,1-.356-1.6c.3-1.463,1.223-2.373,2.4-2.373a2.425,2.425,0,0,1,2.629,2.182A2.628,2.628,0,0,1,1568,828.18m-1.871-2.373a1.318,1.318,0,0,0,.247,1.144,2.143,2.143,0,0,0,3.713-1.445c0-1.025-1.062-1.637-2.089-1.637-1.363,0-1.776,1.484-1.871,1.939" transform="translate(-1064.58 -545.992)" fill="#30262a"/>
          <path id="Path_49919" data-name="Path 49919" d="M1570.869,836.764h0a.66.66,0,0,1-.658-.658v-2.574a.658.658,0,1,1,1.316,0v2.574a.66.66,0,0,1-.658.658" transform="translate(-1067.354 -551.693)" fill="#30262a"/>
          <path id="Path_49920" data-name="Path 49920" d="M1568,906.426a2.649,2.649,0,0,1-2.043-.886,1.865,1.865,0,0,1-.356-1.6c.3-1.464,1.223-2.373,2.4-2.373a2.425,2.425,0,0,1,2.629,2.182,2.628,2.628,0,0,1-2.629,2.675m-1.871-2.373a1.317,1.317,0,0,0,.247,1.143,2.143,2.143,0,0,0,3.713-1.445c0-1.025-1.062-1.637-2.089-1.637-1.363,0-1.776,1.485-1.871,1.94" transform="translate(-1064.58 -592.882)" fill="#30262a"/>
          <path id="Path_49921" data-name="Path 49921" d="M1570.869,915.008h0a.66.66,0,0,1-.658-.658v-2.574a.658.658,0,0,1,1.316,0v2.574a.66.66,0,0,1-.658.658" transform="translate(-1067.354 -598.574)" fill="#30262a"/>
          <path id="Path_49984" data-name="Path 49984" d="M1166.418,421.106c-5.775-.857,2.216-19,2.195-19.012.058.03,55.368-1.044,59.9-53.6.036-.4,2.031-5.3,10.819-8.2,9.491-3.138,15.254-3.344,15.254-3.344,1.417,5.31,2.766,20.261-.946,35.79-13.1,54.8-77.712,49.784-87.226,48.372" transform="translate(-825.401 -255.617)" fill="#ffe3db"/>
          <g id="Group_52802" data-name="Group 52802" transform="translate(403.126 137.283)" opacity="0.3">
            <g id="Group_52801" data-name="Group 52801" transform="translate(0 0)">
              <g id="Group_52800" data-name="Group 52800" clip-path="url(#clip-path)">
                <path id="Path_49985" data-name="Path 49985" d="M1325.394,485.439a2.063,2.063,0,0,1-1.316-.429c-1.37-1.1-.911-3.9,1.046-6.391a7.2,7.2,0,0,1,4.3-2.888,2.176,2.176,0,0,1,1.647.409c1.37,1.1.911,3.9-1.046,6.391a7.2,7.2,0,0,1-4.3,2.888,2.9,2.9,0,0,1-.33.019m4.363-8.922a2.15,2.15,0,0,0-.244.015,6.5,6.5,0,0,0-3.756,2.586c-1.625,2.063-2.163,4.474-1.176,5.264a1.375,1.375,0,0,0,1.051.238,6.5,6.5,0,0,0,3.756-2.586c1.624-2.063,2.162-4.474,1.175-5.264a1.255,1.255,0,0,0-.807-.253" transform="translate(-1323.29 -475.711)" fill="#ec865c"/>
              </g>
            </g>
          </g>
          <path id="Path_49986" data-name="Path 49986" d="M1149.1,329.05c-1.757-2.7-5.422-4.358-5.7-7.567-.1-1.191.292-2.5-.329-3.522-.682-1.123-2.234-1.3-3.54-1.169a5.42,5.42,0,0,0-3.844,1.724c-1.114,1.438-.867,3.463-1.219,5.248-.847,4.3-5.085,6.947-8.952,9.014-2.008,1.073-4.115,2.213-5.336,4.135-2.066,3.253-.926,7.479-1.1,11.329a16.073,16.073,0,0,1-2.945,8.547c-1.043,1.465-2.126,2.9-3.3,4.266-2.077,2.406-1.2,5.618,1.823,6.077a4.062,4.062,0,0,0,4.028-1.5c2.141-3.467,8.412-3.766,10.749-4.1s4.785-1.494,5.667-3.684c.832-2.063.058-4.418.4-6.617.467-3.047,2.946-5.33,5.275-7.351l5.994-5.2a12.184,12.184,0,0,0,2.51-2.666,6.649,6.649,0,0,0-.174-6.957m-5.935,7.174c-2.125,2.36-5.486,2.579-8.264,3.711-2.16.88-4.026,1.944-6.455,1.829-1.572-.075-3.5-.552-3.55-2.43-.082-3.245,4.332-3.814,6.624-3.952a10.764,10.764,0,0,0,4.17-.828,5.482,5.482,0,0,0,2.281-2.125,8.666,8.666,0,0,1,1.126-1.841,2.768,2.768,0,0,1,1.235-.7,3.322,3.322,0,0,1,3.622,1.459,4.282,4.282,0,0,1-.788,4.874" transform="translate(-794.033 -243.533)" fill="#f7f0f7"/>
          <path id="Path_49987" data-name="Path 49987" d="M1116.738,454.251s-4.631,34.465-8.015,34.783-16.066,1.038-19.932,0-6-35.279-4.933-36.1,34.295-2.61,32.88,1.321" transform="translate(-777.273 -324.179)" fill="#fff"/>
          <path id="Path_49988" data-name="Path 49988" d="M1136.715,475.826s-3.722-11.265-10.1-14.024-16.6-1.463-13.012,1.086a45.8,45.8,0,0,0,9.071,4.539s-11.916-3.7-11.575-.54,10.736,6.281,10.736,6.281-14.531-3.275-13.241-.392,12.346,5.291,12.346,5.291-13.641-2.506-12.065.807,11.286,2,11.627,5.16a12.658,12.658,0,0,0,12.646,10.58Z" transform="translate(-792.136 -329.225)" fill="#ffe3db"/>
          <path id="Path_49989" data-name="Path 49989" d="M1147.768,480.252c-.865-1.82-4.253-2.36-4.287-2.365l.078-.506c.15.023,3.692.588,4.672,2.651Z" transform="translate(-812.978 -339.419)" fill="#e47e6a"/>
          <path id="Path_49990" data-name="Path 49990" d="M1146.594,495a8.652,8.652,0,0,0-5.178-2.894l.069-.508a9.016,9.016,0,0,1,5.52,3.1Z" transform="translate(-811.747 -347.906)" fill="#e47e6a"/>
          <path id="Path_49991" data-name="Path 49991" d="M1144.01,506.882c-.754-2.007-4.782-2.644-4.823-2.65l.077-.507c.178.027,4.366.688,5.225,2.976Z" transform="translate(-810.419 -355.15)" fill="#e47e6a"/>
          <path id="Path_49992" data-name="Path 49992" d="M1078.55,990.615l-2.346-6.4a3.716,3.716,0,0,0-2.337-2.255l-3.6-1.175a3.717,3.717,0,0,0-3.941,1.074l-1.028,1.165a3.717,3.717,0,0,1-4.069,1.03,3.717,3.717,0,0,0-4.67,1.958l-1.679,3.717a3.715,3.715,0,0,0-.162,2.635l1.6,5.132a3.715,3.715,0,0,0,3.16,2.593l7.941.836a3.717,3.717,0,0,0,2.59-.7l7.254-5.332a3.716,3.716,0,0,0,1.288-4.274" transform="translate(-759.967 -639.993)" fill="#e6e6e6"/>
          <path id="Path_49993" data-name="Path 49993" d="M1079.719,993.927l-4.572-1.173a3.155,3.155,0,0,1-1.43-.809l-2.891-2.848.212-.215,2.891,2.848a2.86,2.86,0,0,0,1.294.731l4.571,1.173Z" transform="translate(-769.669 -644.931)" fill="#30262a"/>
          <path id="Path_49994" data-name="Path 49994" d="M1081.3,1017.883a3.444,3.444,0,0,1-1.026-.158l-.893-.279.09-.288.894.279a3.1,3.1,0,0,0,2.7-.411l1.147-.792a2.937,2.937,0,0,1,2.005-.5l5,.574-.034.3-5-.574a2.635,2.635,0,0,0-1.8.451l-1.147.792a3.4,3.4,0,0,1-1.936.608" transform="translate(-774.765 -660.925)" fill="#30262a"/>
          <path id="Path_49995" data-name="Path 49995" d="M1062.99,1007.668a3.888,3.888,0,0,1-3.057-1.486l-.349-.443.238-.186.349.443a3.586,3.586,0,0,0,3.449,1.316l3.978-.7.053.3-3.979.7a3.875,3.875,0,0,1-.681.06" transform="translate(-762.966 -654.867)" fill="#30262a"/>
          <path id="Path_49996" data-name="Path 49996" d="M955.814,440.518s-44.834,13.058-53.838,22.167,7.743,13.884,7.743,13.884,49.778-1.891,52.04-8.862c6.527-20.115-5.945-27.189-5.945-27.189" transform="translate(-667.431 -317.437)" fill="#ffe3db"/>
          <path id="Path_49997" data-name="Path 49997" d="M867.577,476.568H805.01a3.04,3.04,0,0,1-2.886-2.068l-13-38.83a3.024,3.024,0,0,1,2.886-3.973h60.168a6.363,6.363,0,0,1,6.041,4.327l12.245,36.57a3.024,3.024,0,0,1-2.886,3.973" transform="translate(-601.649 -312.178)" fill="#30262a"/>
          <path id="Path_49998" data-name="Path 49998" d="M857.854,476.568H795.287A3.039,3.039,0,0,1,792.4,474.5l-13-38.83a3.024,3.024,0,0,1,2.886-3.973h60.168a6.363,6.363,0,0,1,6.041,4.327l12.245,36.57a3.024,3.024,0,0,1-2.886,3.973" transform="translate(-595.853 -312.178)" fill="#30262a"/>
          <path id="Path_49999" data-name="Path 49999" d="M865.337,481.035c0-1.474,1.7-2.075,3.185-2.075s3.909,1.618,3.893,3.684c-.016,2.229-1.759,2.519-3.243,2.519s-3.835-2.251-3.835-4.128" transform="translate(-647.175 -340.365)" fill="#fff"/>
          <path id="Path_50000" data-name="Path 50000" d="M904.493,529.206h-85.6v5.487h87.389a1.849,1.849,0,0,0,1.849-1.849,3.638,3.638,0,0,0-3.638-3.638" transform="translate(-619.489 -370.368)" fill="#30262a"/>
          <path id="Path_50001" data-name="Path 50001" d="M948.809,450.991c-.03-.116-3.1-11.622-5.084-15.2-1.942-3.495-4.349-4.2-4.373-4.211l.13-.47c.106.029,2.62.756,4.669,4.444,2.015,3.626,5,14.832,5.13,15.307Z" transform="translate(-691.296 -311.807)" fill="#30262a"/>
          <path id="Path_50002" data-name="Path 50002" d="M974.175,506.422c-2.344,0-2.932-1.046-2.956-1.091l-.017-.038-4.876-14.563.462-.155,4.867,14.536c.069.1.633.823,2.519.823Z" transform="translate(-707.375 -347.311)" fill="#30262a"/>
          <path id="Path_50003" data-name="Path 50003" d="M1026.293,448.694a.254.254,0,0,1-.165-.061c-4.866-4.1-13.54-1.429-13.626-1.4a.256.256,0,1,1-.154-.489,23.127,23.127,0,0,1,5.11-.877c3.781-.223,6.893.6,9,2.375a.256.256,0,0,1-.165.452" transform="translate(-734.702 -320.58)" fill="#e47e6a"/>
          <path id="Path_50004" data-name="Path 50004" d="M677.343,485.346l-26.527-.915-30.066.749-.078,2.264,29.082-1.264a5.824,5.824,0,0,1-.4,11.594l-29-1-.058,1.672,56.531,1.95c3.794.131,6.985-3.132,7.129-7.288s-2.816-7.631-6.61-7.762" transform="translate(-501.103 -343.642)" fill="#47c6e7"/>
          <path id="Path_50005" data-name="Path 50005" d="M657.425,492.193h0c.143-4.156-2.816-7.631-6.61-7.762l-30.065.749-.078,2.264,29.082-1.264a5.825,5.825,0,0,1-.4,11.594l-29-1-.058,1.673,30,1.034c3.794.131,6.985-3.132,7.129-7.288" transform="translate(-501.102 -343.641)" fill="#f7f0f7"/>
          <path id="Path_50006" data-name="Path 50006" d="M649.838,488.777l-29.081,1.258c2.623.423,3.413,3.089,3.775,4.512.735,2.885-1.449,4.544-4.1,4.785v.04l29,1a5.825,5.825,0,0,0,.4-11.594" transform="translate(-501.187 -346.232)" fill="#f7f0f7"/>
          <path id="Path_50007" data-name="Path 50007" d="M654.256,507.3l-23.41-.807.006-.158,23.41.807Z" transform="translate(-507.393 -356.708)" fill="#30262a"/>
          <path id="Path_50008" data-name="Path 50008" d="M704.64,500.715a.332.332,0,0,1-.263-.122.254.254,0,0,1,.087-.381c.023-.013,2.31-1.386,2.682-5.229a5.266,5.266,0,0,0-2.747-5.3.257.257,0,0,1-.131-.371.342.342,0,0,1,.428-.114,5.735,5.735,0,0,1,3.081,5.831c-.4,4.128-2.858,5.581-2.963,5.641a.351.351,0,0,1-.174.045" transform="translate(-551.139 -346.465)" fill="#30262a"/>
          <rect id="Rectangle_19919" data-name="Rectangle 19919" width="17.986" height="0.158" transform="translate(123.344 148.231) rotate(-0.883)" fill="#30262a"/>
          <path id="Path_50009" data-name="Path 50009" d="M719.579,501.848h-.011l-5.67-.2a.316.316,0,0,1-.262-.476,17.041,17.041,0,0,0,1.562-3.988,6.506,6.506,0,0,0-.957-4.5.314.314,0,0,1-.013-.329.322.322,0,0,1,.287-.161l5.38.185a.317.317,0,0,1,.248.135,7.691,7.691,0,0,1-.323,9.218.317.317,0,0,1-.241.111m-5.15-.811,5,.173a6.91,6.91,0,0,0,.281-8.2l-4.649-.16a6.65,6.65,0,0,1,.749,4.492,18.029,18.029,0,0,1-1.383,3.7" transform="translate(-556.719 -348.273)" fill="#30262a"/>
          <path id="Path_50010" data-name="Path 50010" d="M611.782,519.507l26.543.028,30.02,1.817,0,2.266-29.018-2.3a5.824,5.824,0,0,0-.013,11.6l29.021.031,0,1.673-56.565-.06c-3.8,0-6.87-3.378-6.865-7.536s3.085-7.526,6.881-7.522" transform="translate(-491.927 -364.586)" fill="#04bab8"/>
          <path id="Path_50011" data-name="Path 50011" d="M670.618,527.1h0c0-4.158,3.085-7.526,6.881-7.522l30.02,1.817,0,2.266-29.018-2.3a5.825,5.825,0,0,0-.013,11.6l29.021.031,0,1.673-30.022-.032c-3.8,0-6.87-3.378-6.865-7.537" transform="translate(-531.102 -364.628)" fill="#04bab8"/>
          <path id="Path_50012" data-name="Path 50012" d="M682.306,524.014l29.018,2.29c-2.636.329-3.52,2.966-3.933,4.375-.837,2.857,1.287,4.593,3.923,4.927v.04l-29.02-.031a5.824,5.824,0,0,1,.013-11.6" transform="translate(-534.909 -367.274)" fill="#f7f0f7"/>
          <path id="Path_50013" data-name="Path 50013" d="M672.731,535.1a.313.313,0,0,1-.183-.059c-.1-.073-2.5-1.834-2.731-6.6-.233-4.825,3.172-6.539,3.317-6.609a.317.317,0,0,1,.278.569c-.13.064-3.174,1.615-2.962,6.01.216,4.467,2.443,6.1,2.466,6.12a.317.317,0,0,1-.184.574" transform="translate(-530.617 -365.952)" fill="#30262a"/>
          <path id="Path_50014" data-name="Path 50014" d="M654.063,536.087h-1.625a2.291,2.291,0,0,1-2.056-1.264,7.429,7.429,0,0,1,.035-7.051,2.27,2.27,0,0,1,2-1.156h0l1.28,0a2.3,2.3,0,0,1,2.238,2.842,4.737,4.737,0,0,0-.073,2.124c.107.5.242,1.01.4,1.519a2.3,2.3,0,0,1-2.2,2.985m-1.647-8.839a1.638,1.638,0,0,0-1.445.828,6.81,6.81,0,0,0-.023,6.461,1.659,1.659,0,0,0,1.491.915l1.621,0h0a1.662,1.662,0,0,0,1.352-.684,1.641,1.641,0,0,0,.246-1.477c-.166-.528-.306-1.059-.417-1.577a5.352,5.352,0,0,1,.078-2.408,1.643,1.643,0,0,0-.305-1.414,1.669,1.669,0,0,0-1.319-.644h-1.281Z" transform="translate(-518.515 -368.825)" fill="#30262a"/>
          <path id="Path_50015" data-name="Path 50015" d="M658.879,426.7a8.759,8.759,0,0,1,8.315-6.11s-.544,8.1-8.315,6.11" transform="translate(-524.104 -305.508)" fill="#007e00"/>
          <path id="Path_50016" data-name="Path 50016" d="M659.636,434.588a.546.546,0,0,1-.624-.055,12.319,12.319,0,0,1-3.89-6.757.546.546,0,0,1,1.077-.175,11.351,11.351,0,0,0,3.516,6.1.546.546,0,0,1,.066.768.536.536,0,0,1-.145.122" transform="translate(-521.86 -309.424)" fill="#007e00"/>
          <path id="Path_50017" data-name="Path 50017" d="M660.955,434.622a7.551,7.551,0,0,1,2.715,2.646,13.688,13.688,0,0,1,.391,12.955c-2.208,4.061-7.77,5.917-12.087,4.733a11.116,11.116,0,0,1-7.884-9.026c-.477-3.57,1.212-6.879,4.9-7.66,1.289-.273,2.756-.038,3.913-.8,1.795-1.184,3.4-3.3,5.709-3.421a4.416,4.416,0,0,1,2.34.574" transform="translate(-515.241 -313.556)" fill="#ff0606"/>
          <path id="Path_50018" data-name="Path 50018" d="M1029.482,549.768l-28.242-3.047-30.688,8.461,36.692,5.956Z" transform="translate(-709.894 -380.836)" fill="#f7f0f7"/>
          <path id="Path_50019" data-name="Path 50019" d="M1034.93,560.854l-27.009-2.889L988.7,569.9l28.166,6.121Z" transform="translate(-720.71 -387.555)" fill="#fff"/>
          <path id="Path_50020" data-name="Path 50020" d="M1020,585.157l-.028,0a8.182,8.182,0,0,1-2.914-1.225c-1.2-.862-4.837-.693-4.873-.691a.148.148,0,0,1-.015-.3c.154-.007,3.773-.175,5.06.746a8.053,8.053,0,0,0,2.8,1.174.148.148,0,0,1-.027.294" transform="translate(-734.622 -402.442)" fill="#f7f0f7"/>
          <path id="Path_50021" data-name="Path 50021" d="M1039.683,590.014h-.021a15.954,15.954,0,0,1-3.247-.849.148.148,0,0,1,.109-.275,15.759,15.759,0,0,0,3.179.831.148.148,0,0,1-.02.3" transform="translate(-749.1 -405.994)" fill="#f7f0f7"/>
          <path id="Path_50022" data-name="Path 50022" d="M1052.012,593.785a.147.147,0,0,1-.071-.018,10.181,10.181,0,0,0-2.771-.923.148.148,0,0,1,.047-.293,10.311,10.311,0,0,1,2.864.955.148.148,0,0,1-.07.279" transform="translate(-756.685 -408.187)" fill="#f7f0f7"/>
          <path id="Path_50023" data-name="Path 50023" d="M1024.47,581.594a.154.154,0,0,1-.064-.014,12.627,12.627,0,0,0-4.1-1.091.148.148,0,1,1,.019-.3,12.7,12.7,0,0,1,4.206,1.119.148.148,0,0,1-.064.282" transform="translate(-739.472 -400.808)" fill="#f7f0f7"/>
          <path id="Path_50024" data-name="Path 50024" d="M1043.146,586.586a.145.145,0,0,1-.058-.012,19.019,19.019,0,0,0-4.551-.955.149.149,0,0,1-.135-.161.152.152,0,0,1,.161-.135,18.932,18.932,0,0,1,4.641.978.148.148,0,0,1-.058.285" transform="translate(-750.34 -403.872)" fill="#f7f0f7"/>
          <path id="Path_50025" data-name="Path 50025" d="M1030.38,578.675a.153.153,0,0,1-.031,0,28.028,28.028,0,0,1-4.356-1.311,8.1,8.1,0,0,0-3.458-.544.145.145,0,0,1-.16-.135.148.148,0,0,1,.135-.16,8.279,8.279,0,0,1,3.6.569,27.649,27.649,0,0,0,4.3,1.292.149.149,0,0,1-.031.294" transform="translate(-740.785 -398.607)" fill="#f7f0f7"/>
          <path id="Path_50026" data-name="Path 50026" d="M1052.731,583.844l-.021,0a19.465,19.465,0,0,1-3.232-.794,7.673,7.673,0,0,0-2.96-.388.148.148,0,1,1-.029-.3,7.864,7.864,0,0,1,3.088.4,19.146,19.146,0,0,0,3.175.78.148.148,0,0,1-.021.295" transform="translate(-755.081 -402.094)" fill="#f7f0f7"/>
          <path id="Path_50027" data-name="Path 50027" d="M1067.884,587.127a.148.148,0,0,1-.045-.007,10.291,10.291,0,0,0-1.531-.3.148.148,0,1,1,.035-.294,10.393,10.393,0,0,1,1.587.316.148.148,0,0,1-.045.29" transform="translate(-766.896 -404.585)" fill="#f7f0f7"/>
          <path id="Path_50028" data-name="Path 50028" d="M1042.614,576.8a.151.151,0,0,1-.085-.027c-1.1-.771-5.188-1.542-5.23-1.549a.148.148,0,1,1,.054-.291c.171.032,4.2.79,5.346,1.6a.148.148,0,0,1-.086.269" transform="translate(-749.61 -397.666)" fill="#f7f0f7"/>
          <path id="Path_50029" data-name="Path 50029" d="M1134.126,570.865s.43.106.419.258c-.018.245-.4.279-.4.279Z" transform="translate(-807.402 -395.238)" fill="#30262a"/>
          <path id="Path_50030" data-name="Path 50030" d="M1072.417,567.078v.019a.309.309,0,0,1-.32.3l-8.5-.322a.4.4,0,0,0-.122.258l-.181,1.6a.308.308,0,0,1-.613-.069l.183-1.613c0-.005,0-.011,0-.016.08-.48.381-.794.748-.78l8.5.322a.308.308,0,0,1,.3.3" transform="translate(-764.813 -392.607)" fill="#04bab8"/>
          <path id="Path_50031" data-name="Path 50031" d="M1087.625,571.424l-27,.4c-.258,0-.474-.334-.485-.754l-.027-1.035c-.011-.417.185-.763.441-.778l26.931-1.536Z" transform="translate(-763.279 -393.367)" fill="#30262a"/>
          <path id="Path_50032" data-name="Path 50032" d="M1057.273,573.243l-1.681.224c-.14.019-.244.212-.238.441l.005.193c.006.24.13.432.278.428l1.668-.043Z" transform="translate(-760.445 -396.658)" fill="#04bab8"/>
          <path id="Path_50033" data-name="Path 50033" d="M1070.582,570.815a7.569,7.569,0,0,0,.072,2.758l1.72-.016a5.412,5.412,0,0,1-.074-2.842Z" transform="translate(-769.469 -395.15)" fill="#04bab8"/>
          <path id="Path_50034" data-name="Path 50034" d="M1128.022,571.423l2.393-1.893-.014-.538-2.524-1.268Z" transform="translate(-803.677 -393.366)" fill="#04bab8"/>
          <path id="Path_50035" data-name="Path 50035" d="M1208.1,957.721l1.853-2.408a1.656,1.656,0,0,1,1.294-.646l1.686-.018a1.654,1.654,0,0,1,1.531.983l.282.633a1.656,1.656,0,0,0,1.592.981,1.656,1.656,0,0,1,1.724,1.456l.217,1.8a1.654,1.654,0,0,1-.282,1.141l-1.364,1.969a1.656,1.656,0,0,1-1.689.68l-3.487-.706a1.656,1.656,0,0,1-1.007-.644l-2.371-3.235a1.657,1.657,0,0,1,.023-1.988" transform="translate(-851.295 -624.523)" fill="#e6e6e6"/>
          <path id="Path_50036" data-name="Path 50036" d="M1220.3,962.027h-.074l-2.1-.112.008-.135,2.1.112a1.282,1.282,0,0,0,.647-.138l1.609-.824.061.119-1.609.824a1.405,1.405,0,0,1-.642.155" transform="translate(-857.474 -628.267)" fill="#30262a"/>
          <path id="Path_50037" data-name="Path 50037" d="M1214.125,970.036h-.417a1.511,1.511,0,0,1-1.2-.586l-.381-.49a1.173,1.173,0,0,0-.7-.431l-2.2-.424.025-.132,2.2.424a1.3,1.3,0,0,1,.785.481l.382.49a1.379,1.379,0,0,0,1.093.535h.417Z" transform="translate(-852.167 -632.465)" fill="#30262a"/>
          <path id="Path_50038" data-name="Path 50038" d="M1225.166,969.191a1.742,1.742,0,0,1-.8-.2l-1.6-.831.062-.119,1.6.831a1.6,1.6,0,0,0,1.641-.1l.207-.142.077.111-.208.142a1.731,1.731,0,0,1-.979.3" transform="translate(-860.242 -632.509)" fill="#30262a"/>
          <path id="Path_50039" data-name="Path 50039" d="M1134.481,960.626l1.953-5.329a3.091,3.091,0,0,1,1.944-1.876l2.994-.978a3.093,3.093,0,0,1,3.28.894l.856.97a3.092,3.092,0,0,0,3.387.857,3.094,3.094,0,0,1,3.886,1.63l1.4,3.093a3.09,3.09,0,0,1,.135,2.192l-1.328,4.272a3.094,3.094,0,0,1-2.63,2.158l-6.608.695a3.092,3.092,0,0,1-2.156-.584l-6.037-4.437a3.093,3.093,0,0,1-1.072-3.557" transform="translate(-807.5 -623.118)" fill="#e6e6e6"/>
          <path id="Path_50040" data-name="Path 50040" d="M1152.247,963.383l-.062-.243,3.8-.977a2.376,2.376,0,0,0,1.076-.608l2.406-2.37.176.178-2.406,2.37a2.627,2.627,0,0,1-1.191.673Z" transform="translate(-818.167 -627.227)" fill="#30262a"/>
          <path id="Path_50041" data-name="Path 50041" d="M1147.414,983.319a2.826,2.826,0,0,1-1.611-.506l-.955-.659a2.186,2.186,0,0,0-1.5-.375l-4.16.477-.029-.249,4.16-.477a2.445,2.445,0,0,1,1.668.417l.956.659a2.578,2.578,0,0,0,2.247.342l.744-.232.074.24-.743.232a2.864,2.864,0,0,1-.854.131" transform="translate(-810.404 -640.538)" fill="#30262a"/>
          <path id="Path_50042" data-name="Path 50042" d="M1167.278,974.818a3.265,3.265,0,0,1-.567-.05l-3.311-.586.044-.247,3.311.586a2.984,2.984,0,0,0,2.87-1.095l.29-.369.2.156-.29.369a3.236,3.236,0,0,1-2.544,1.237" transform="translate(-824.852 -635.497)" fill="#30262a"/>
          <path id="Path_50043" data-name="Path 50043" d="M1168.24,936.634l1.728-4.715a2.738,2.738,0,0,1,1.721-1.66l2.649-.865a2.738,2.738,0,0,1,2.9.791l.757.858a2.737,2.737,0,0,0,3,.758,2.738,2.738,0,0,1,3.439,1.442l1.236,2.736a2.738,2.738,0,0,1,.12,1.94l-1.175,3.78a2.738,2.738,0,0,1-2.328,1.909l-5.848.616a2.74,2.74,0,0,1-1.907-.516l-5.342-3.927a2.738,2.738,0,0,1-.949-3.147" transform="translate(-827.638 -609.388)" fill="#e6e6e6"/>
          <path id="Path_50044" data-name="Path 50044" d="M1183.962,939.072l-.055-.215,3.366-.864a2.1,2.1,0,0,0,.952-.538l2.129-2.1.156.158-2.129,2.1a2.326,2.326,0,0,1-1.053.6Z" transform="translate(-837.077 -613.024)" fill="#30262a"/>
          <path id="Path_50045" data-name="Path 50045" d="M1179.686,956.715a2.5,2.5,0,0,1-1.426-.447l-.844-.584a1.937,1.937,0,0,0-1.325-.331l-3.681.422-.026-.221,3.681-.423a2.165,2.165,0,0,1,1.476.369l.845.584a2.28,2.28,0,0,0,1.988.3l.658-.206.067.212-.658.206a2.54,2.54,0,0,1-.755.115" transform="translate(-830.208 -624.803)" fill="#30262a"/>
          <path id="Path_50046" data-name="Path 50046" d="M1197.264,949.191a2.847,2.847,0,0,1-.5-.044l-2.93-.518.038-.219,2.93.519a2.639,2.639,0,0,0,2.54-.969l.257-.327.175.138-.257.326a2.863,2.863,0,0,1-2.251,1.094" transform="translate(-842.993 -620.341)" fill="#30262a"/>
          <path id="Path_50047" data-name="Path 50047" d="M1126.888,919.995l.956-4.93a2.735,2.735,0,0,1,1.435-1.913l2.479-1.276a2.738,2.738,0,0,1,2.991.32l.884.727a2.737,2.737,0,0,0,3.079.272,2.737,2.737,0,0,1,3.624.877l1.656,2.505a2.739,2.739,0,0,1,.427,1.9l-.559,3.919a2.736,2.736,0,0,1-1.994,2.255l-5.676,1.538a2.737,2.737,0,0,1-1.965-.207l-5.9-3.027a2.736,2.736,0,0,1-1.438-2.956" transform="translate(-803.057 -598.846)" fill="#e6e6e6"/>
          <path id="Path_50048" data-name="Path 50048" d="M1141.719,920.109l-.089-.2,3.186-1.389a2.1,2.1,0,0,0,.855-.682l1.769-2.41.179.132-1.769,2.409a2.32,2.32,0,0,1-.945.755Z" transform="translate(-811.875 -601.142)" fill="#30262a"/>
          <path id="Path_50049" data-name="Path 50049" d="M1132.248,938.988l-.06-.214,3.567-1a2.166,2.166,0,0,1,1.517.13l.926.442a2.281,2.281,0,0,0,2.012-.018l.617-.307.1.2-.617.308a2.5,2.5,0,0,1-2.206.02l-.927-.442a1.94,1.94,0,0,0-1.36-.116Z" transform="translate(-806.246 -614.415)" fill="#30262a"/>
          <path id="Path_50050" data-name="Path 50050" d="M1155.414,928.182h-.046l-2.975-.046,0-.222,2.975.046h.042a2.64,2.64,0,0,0,2.311-1.361l.2-.363.194.107-.2.363a2.862,2.862,0,0,1-2.505,1.475" transform="translate(-818.291 -607.587)" fill="#30262a"/>
          <path id="Path_50051" data-name="Path 50051" d="M1207.864,918.332l-3.716-3.377a2.736,2.736,0,0,1-.89-2.219l.2-2.78a2.736,2.736,0,0,1,1.827-2.39l1.08-.378a2.738,2.738,0,0,0,1.832-2.49,2.738,2.738,0,0,1,2.631-2.642l3-.115a2.74,2.74,0,0,1,1.843.621l3.058,2.513a2.738,2.738,0,0,1,.892,2.875l-1.633,5.648a2.734,2.734,0,0,1-1.2,1.573l-5.65,3.469a2.737,2.737,0,0,1-3.273-.307" transform="translate(-848.608 -593.103)" fill="#e6e6e6"/>
          <path id="Path_50052" data-name="Path 50052" d="M1216.264,916.07l-.22-.03.468-3.444a2.1,2.1,0,0,0-.14-1.086l-1.14-2.762.205-.085,1.141,2.763a2.333,2.333,0,0,1,.155,1.2Z" transform="translate(-855.75 -597.111)" fill="#30262a"/>
          <path id="Path_50053" data-name="Path 50053" d="M1224.393,930.772l-.214-.06,1-3.569a2.164,2.164,0,0,1,.9-1.229l.858-.563a2.279,2.279,0,0,0,1.03-1.728l.058-.687.222.019-.058.687a2.5,2.5,0,0,1-1.129,1.9l-.859.563a1.941,1.941,0,0,0-.806,1.1Z" transform="translate(-861.083 -605.62)" fill="#30262a"/>
          <path id="Path_50054" data-name="Path 50054" d="M1226.333,911.425l-.187-.119,1.584-2.519a2.641,2.641,0,0,0,.059-2.717l-.206-.361.193-.11.206.361a2.863,2.863,0,0,1-.064,2.946Z" transform="translate(-862.255 -595.285)" fill="#30262a"/>
          <path id="Path_50055" data-name="Path 50055" d="M1181.663,979.224l1.728-4.715a2.738,2.738,0,0,1,1.721-1.66l2.65-.865a2.738,2.738,0,0,1,2.9.791l.757.858a2.737,2.737,0,0,0,3,.758,2.737,2.737,0,0,1,3.438,1.442l1.237,2.737a2.736,2.736,0,0,1,.12,1.94l-1.175,3.78a2.738,2.738,0,0,1-2.327,1.909l-5.848.616a2.739,2.739,0,0,1-1.907-.517l-5.342-3.927a2.737,2.737,0,0,1-.949-3.147" transform="translate(-835.639 -634.776)" fill="#e6e6e6"/>
          <path id="Path_50056" data-name="Path 50056" d="M1197.385,981.664l-.055-.215,3.366-.864a2.1,2.1,0,0,0,.952-.538l2.13-2.1.156.158-2.129,2.1a2.326,2.326,0,0,1-1.053.6Z" transform="translate(-845.078 -638.413)" fill="#30262a"/>
          <path id="Path_50057" data-name="Path 50057" d="M1193.108,999.306a2.5,2.5,0,0,1-1.426-.447l-.845-.584a1.932,1.932,0,0,0-1.325-.331l-3.682.423-.025-.221,3.681-.423a2.169,2.169,0,0,1,1.477.369l.845.584a2.283,2.283,0,0,0,1.989.3l.658-.206.067.212-.658.206a2.528,2.528,0,0,1-.755.116" transform="translate(-838.209 -650.192)" fill="#30262a"/>
          <path id="Path_50058" data-name="Path 50058" d="M1210.686,991.782a2.873,2.873,0,0,1-.5-.044l-2.93-.518.038-.219,2.93.518a2.641,2.641,0,0,0,2.54-.969l.257-.326.175.138-.257.326a2.862,2.862,0,0,1-2.252,1.094" transform="translate(-850.995 -645.73)" fill="#30262a"/>
          <path id="Path_50059" data-name="Path 50059" d="M1150.929,917.462h-21.288a10.144,10.144,0,0,1-9.97-8.282l-9.608-51.522,58.522-4.355-7.609,55.4a10.181,10.181,0,0,1-10.048,8.762m-39.392-58.67,9.353,50.161a8.9,8.9,0,0,0,8.751,7.269h21.288a8.935,8.935,0,0,0,8.818-7.69l7.4-53.879Z" transform="translate(-793.058 -564.11)" fill="#30262a"/>
          <rect id="Rectangle_19920" data-name="Rectangle 19920" width="1.241" height="41.708" transform="translate(326.015 339.232) rotate(-87.671)" fill="#30262a"/>
          <rect id="Rectangle_19921" data-name="Rectangle 19921" width="46.726" height="1.241" transform="matrix(0.999, -0.048, 0.048, 0.999, 323.54, 324.748)" fill="#30262a"/>
          <rect id="Rectangle_19922" data-name="Rectangle 19922" width="51.568" height="1.241" transform="translate(320.824 310.218) rotate(-3.342)" fill="#30262a"/>
          <rect id="Rectangle_19923" data-name="Rectangle 19923" width="1.241" height="60.21" transform="translate(335.91 292.766) rotate(-4.602)" fill="#30262a"/>
          <rect id="Rectangle_19924" data-name="Rectangle 19924" width="61.849" height="1.241" transform="translate(350.203 352.67) rotate(-84.263)" fill="#30262a"/>
          <path id="Path_50060" data-name="Path 50060" d="M1163.346,852.444l-58.639,4.063a1.869,1.869,0,0,1-1.988-1.73l-.04-.585a1.869,1.869,0,0,1,1.73-1.988l58.638-4.063a1.869,1.869,0,0,1,1.988,1.73l.04.585a1.869,1.869,0,0,1-1.729,1.988" transform="translate(-788.654 -560.816)" fill="#04bab8"/>
          <path id="Path_50061" data-name="Path 50061" d="M530.729,1027.235l-.256-.385c.026-.017,2.63-1.774,2.993-3.822a2.544,2.544,0,0,0-.492-2.009,1.392,1.392,0,0,0-1.181-.638c-2.261.032-5.539,4.748-5.571,4.795l-.6.87.182-1.041c.007-.043.717-4.227-.734-5.464a1.852,1.852,0,0,0-1.889-.156,2.789,2.789,0,0,0-1.759,1.591c-.955,2.292.778,5.93.8,5.966l-.416.2c-.076-.156-1.841-3.86-.806-6.345a3.232,3.232,0,0,1,2.036-1.85,2.276,2.276,0,0,1,2.34.241c1.208,1.03,1.141,3.613,1.005,4.995,1.06-1.384,3.478-4.238,5.41-4.266a1.852,1.852,0,0,1,1.561.828,2.988,2.988,0,0,1,.573,2.364c-.4,2.243-3.078,4.049-3.191,4.125" transform="translate(-441.717 -662.732)" fill="#04bab8"/>
          <path id="Path_50062" data-name="Path 50062" d="M1005.993,1041.255l-.257-.385c.026-.017,2.63-1.774,2.993-3.822a2.546,2.546,0,0,0-.492-2.009,1.384,1.384,0,0,0-1.159-.639h-.022c-2.261.032-5.539,4.748-5.572,4.8l-.6.87.181-1.041c.007-.042.717-4.227-.734-5.464a1.853,1.853,0,0,0-1.888-.156,2.789,2.789,0,0,0-1.759,1.591c-.955,2.294.778,5.929.8,5.965l-.417.2c-.076-.156-1.841-3.86-.806-6.345a3.234,3.234,0,0,1,2.036-1.85,2.275,2.275,0,0,1,2.34.241c1.208,1.03,1.141,3.613,1.005,4.995,1.059-1.383,3.478-4.238,5.411-4.266a1.854,1.854,0,0,1,1.561.828,2.993,2.993,0,0,1,.574,2.365c-.4,2.242-3.078,4.049-3.192,4.124" transform="translate(-725.025 -671.09)" fill="#04bab8"/>
          <path id="Path_50063" data-name="Path 50063" d="M659.467,939.143a38.168,38.168,0,0,1-4.342-5.586c-2.651-4.236-3.283-7.6-1.878-9.993.525-.893,1.153-1.306,1.874-1.224,2.431.276,5.095,6.658,6.476,10.467-.457-4.766-.976-14.179,1.615-17.341a2.784,2.784,0,0,1,2.024-1.1,2.121,2.121,0,0,1,1.869.815c2.34,2.888.236,13.169-.92,17.982.861-1.407,2.082-2.973,3.328-3.153a1.215,1.215,0,0,1,1.323.618c.763,1.391-.272,4.951-3.326,8.5l-.463-.4c3-3.492,3.819-6.78,3.253-7.811a.609.609,0,0,0-.7-.307c-1.607.232-3.48,3.749-4.067,5.085l-.574-.2c.012-.041,1.149-4.18,1.91-8.707,1-5.92.913-9.8-.239-11.223a1.527,1.527,0,0,0-1.358-.589,2.169,2.169,0,0,0-1.589.878c-3.282,4-1.186,19.525-1.164,19.681l-.593.133c-1.084-3.444-4.431-12.444-6.874-12.721-.461-.055-.881.25-1.278.926-3.086,5.259,6.039,14.75,6.131,14.845Z" transform="translate(-520.313 -600.507)" fill="#04bab8"/>
          <path id="Path_50065" data-name="Path 50065" d="M181.011,1003.512a43.2,43.2,0,0,1-4.924-6.335c-3.007-4.8-3.723-8.615-2.129-11.331.595-1.013,1.307-1.483,2.125-1.388,2.762.313,5.788,7.573,7.351,11.891-.164-1.73-.337-4.006-.4-6.4-.18-6.8.568-11.267,2.224-13.287a3.154,3.154,0,0,1,2.3-1.248,2.4,2.4,0,0,1,2.12.923c2.653,3.273.268,14.934-1.043,20.39.977-1.6,2.36-3.371,3.774-3.575a1.376,1.376,0,0,1,1.5.7c.865,1.577-.309,5.614-3.771,9.641l-.525-.451c3.405-3.96,4.33-7.688,3.689-8.857a.692.692,0,0,0-.794-.349c-1.821.263-3.946,4.251-4.611,5.766l-.651-.231c.013-.047,1.3-4.74,2.166-9.874,1.129-6.713,1.035-11.114-.271-12.727a1.731,1.731,0,0,0-1.54-.668,2.46,2.46,0,0,0-1.8,1c-3.721,4.541-1.344,22.141-1.32,22.318l-.673.151c-1.229-3.906-5.025-14.111-7.8-14.426-.525-.064-1,.284-1.449,1.05-3.5,5.96,6.848,16.726,6.953,16.834Z" transform="translate(-136.041 -665.52)" fill="#04bab8"/>
          <path id="Path_50066" data-name="Path 50066" d="M1318.7,1043.474a36.136,36.136,0,0,1-4.115-5.294c-2.512-4.014-3.111-7.2-1.779-9.469.5-.847,1.1-1.235,1.775-1.16,2.3.261,4.828,6.308,6.136,9.918-.433-4.516-.925-13.436,1.53-16.432a2.638,2.638,0,0,1,1.918-1.043,2.011,2.011,0,0,1,1.771.772c2.217,2.736.224,12.479-.871,17.039.816-1.334,1.972-2.817,3.154-2.988a1.147,1.147,0,0,1,1.253.586c.723,1.318-.257,4.692-3.151,8.057l-.439-.377c2.845-3.31,3.619-6.425,3.083-7.4a.576.576,0,0,0-.663-.291c-1.522.22-3.3,3.553-3.854,4.819l-.543-.194c.011-.039,1.088-3.961,1.81-8.25.943-5.61.865-9.287-.227-10.635a1.439,1.439,0,0,0-1.287-.559,2.052,2.052,0,0,0-1.506.832c-3.111,3.8-1.123,18.5-1.1,18.65l-.562.126c-1.027-3.264-4.2-11.792-6.514-12.054-.438-.05-.835.237-1.211.877-2.923,4.981,5.723,13.977,5.81,14.067Z" transform="translate(-917.402 -676.318)" fill="#04bab8"/>
          <path id="Path_50067" data-name="Path 50067" d="M1432.878,952.611a25.006,25.006,0,0,1-2.849-3.665c-1.74-2.779-2.154-4.985-1.232-6.556.344-.586.752-.856,1.229-.8,1.6.181,3.343,4.368,4.249,6.868-.3-3.128-.64-9.3,1.059-11.378a1.827,1.827,0,0,1,1.328-.722,1.39,1.39,0,0,1,1.226.534c1.535,1.895.155,8.641-.6,11.8.565-.923,1.366-1.951,2.185-2.069a.8.8,0,0,1,.868.406c.5.912-.179,3.249-2.182,5.579l-.3-.262c1.971-2.292,2.506-4.448,2.135-5.125a.4.4,0,0,0-.459-.2c-1.053.152-2.283,2.46-2.668,3.337l-.377-.134c.03-.107,2.951-10.789,1.1-13.077a1,1,0,0,0-.891-.387,1.424,1.424,0,0,0-1.043.576c-2.153,2.627-.778,12.812-.764,12.914l-.39.088c-.711-2.26-2.908-8.166-4.51-8.347-.3-.034-.578.165-.839.608-2.025,3.45,3.962,9.678,4.023,9.74Z" transform="translate(-982.772 -613.615)" fill="#04bab8"/>
          <path id="Path_50068" data-name="Path 50068" d="M1770.283,997.44a24.958,24.958,0,0,1-2.85-3.666c-1.739-2.779-2.154-4.985-1.231-6.557.344-.586.752-.856,1.229-.8,1.6.18,3.343,4.368,4.249,6.868-.3-3.127-.64-9.3,1.059-11.378a1.826,1.826,0,0,1,1.329-.722,1.392,1.392,0,0,1,1.226.534c1.535,1.895.155,8.641-.6,11.8.565-.924,1.365-1.951,2.184-2.069a.8.8,0,0,1,.868.4c.5.912-.178,3.249-2.182,5.579l-.3-.262c1.97-2.291,2.505-4.448,2.135-5.125a.4.4,0,0,0-.46-.2c-1.054.152-2.284,2.46-2.668,3.337l-.377-.134c.03-.108,2.95-10.789,1.1-13.078a1.008,1.008,0,0,0-.891-.387,1.423,1.423,0,0,0-1.043.577c-2.153,2.628-.778,12.812-.765,12.914l-.389.087c-.711-2.26-2.908-8.165-4.51-8.347-.306-.039-.578.164-.839.608-2.024,3.449,3.962,9.678,4.023,9.741Z" transform="translate(-1193.527 -658.445)" fill="#fff"/>
        </g>
      </g>
    </g>
  </g>
</svg>
