<svg xmlns="http://www.w3.org/2000/svg" width="50" height="50" viewBox="0 0 50 50">
  <g id="Group_29" data-name="Group 29" transform="translate(-299 -1963)">
    <rect id="Rectangle_79" data-name="Rectangle 79" width="50" height="50" transform="translate(299 1963)" fill="#fff" opacity="0"/>
    <g id="fill_out_" data-name="fill out " transform="translate(296.8 1960.555)">
      <path id="Path_45160" data-name="Path 45160" d="M49.487,18.694V43.652H4.666V18.694a4.635,4.635,0,0,1,4.643-4.632H44.855a4.626,4.626,0,0,1,4.632,4.632Z" transform="translate(0.124 1.226)" fill="#5b5e8b"/>
      <path id="Path_45161" data-name="Path 45161" d="M49.491,40.569v3.078H4.67V18.689a4.629,4.629,0,0,1,3.361-4.454,4.545,4.545,0,0,0-.21,1.376v18.92a6.037,6.037,0,0,0,6.039,6.038Z" transform="translate(0.125 1.235)" fill="#312e4b"/>
      <path id="Path_45162" data-name="Path 45162" d="M47.137,47.293H7.263A5.062,5.062,0,0,1,2.2,42.232h50a5.062,5.062,0,0,1-5.06,5.061Z" transform="translate(0 2.647)" fill="#5b5e8b"/>
      <path id="Path_45163" data-name="Path 45163" d="M11.486,47.3H7.263A5.066,5.066,0,0,1,2.2,42.235H6.423A5.066,5.066,0,0,0,11.486,47.3Z" transform="translate(0 2.647)" fill="#312e4b"/>
      <path id="Path_45164" data-name="Path 45164" d="M7.669,38.3V19.108a2.051,2.051,0,0,1,2.05-2.05H44.136a2.051,2.051,0,0,1,2.051,2.051V38.3a2.051,2.051,0,0,1-2.051,2.05H9.719a2.051,2.051,0,0,1-2.05-2.05Z" transform="translate(0.276 1.077)" fill="#e9e9e9"/>
      <path id="Path_45165" data-name="Path 45165" d="M11.557,40.353H9.718A2.051,2.051,0,0,1,7.67,38.305V19.114a2.053,2.053,0,0,1,2.048-2.059h1.838a2.053,2.053,0,0,0-2.048,2.059V38.305A2.044,2.044,0,0,0,11.557,40.353Z" transform="translate(0.276 1.077)" fill="#dcdcdc"/>
      <path id="Path_45166" data-name="Path 45166" d="M42.241,40.962H11.254V7.348a2.4,2.4,0,0,1,2.4-2.4H39.841a2.4,2.4,0,0,1,2.4,2.4Z" transform="translate(0.457 0)" fill="#f8f8f8"/>
      <path id="Path_45167" data-name="Path 45167" d="M15.41,4.945A2.4,2.4,0,0,0,13,7.35V40.964H11.25V7.35a2.412,2.412,0,0,1,2.405-2.405Z" transform="translate(0.456 0)" fill="#c6c6f7"/>
      <path id="Path_45168" data-name="Path 45168" d="M42.237,7.35V9.63H11.25V7.35a2.412,2.412,0,0,1,2.405-2.405H39.842A2.4,2.4,0,0,1,42.237,7.35Z" transform="translate(0.456 0)" fill="#f879ca"/>
      <path id="Path_45169" data-name="Path 45169" d="M15.41,4.945A2.4,2.4,0,0,0,13,7.35V9.63H11.25V7.35a2.412,2.412,0,0,1,2.405-2.405H15.41Z" transform="translate(0.456 0)" fill="#f44aaf"/>
      <path id="Path_45170" data-name="Path 45170" d="M14.7,15.6l-.011-3.132a.9.9,0,0,1,.9-.9h3.929a.9.9,0,0,1,.9.9V15.6a.9.9,0,0,1-.9.9H15.6a.9.9,0,0,1-.9-.9Zm0,7.168-.011-3.131a.9.9,0,0,1,.9-.905h3.929a.9.9,0,0,1,.9.9v3.13a.9.9,0,0,1-.9.9H15.6a.9.9,0,0,1-.9-.9Zm0,7.169-.011-3.132a.9.9,0,0,1,.9-.9h3.929a.9.9,0,0,1,.9.9v3.131a.9.9,0,0,1-.9.9H15.6a.9.9,0,0,1-.9-.9Zm0,7.168-.011-3.131a.9.9,0,0,1,.9-.905h3.929a.9.9,0,0,1,.9.9v3.13a.9.9,0,0,1-.9.9H15.6a.9.9,0,0,1-.9-.9Z" transform="translate(0.63 0.634)" fill="#46cc6b"/>
      <g id="Group_21" data-name="Group 21" transform="translate(16.638 13.507)">
        <path id="Path_45171" data-name="Path 45171" d="M16.686,15.161a.464.464,0,0,0,.66,0l1.445-1.446a.465.465,0,0,0-.659-.658l-1.117,1.116L16.74,13.9a.466.466,0,1,0-.66.658Zm.33,7.164a.462.462,0,0,0,.33-.137l1.445-1.446a.465.465,0,0,0-.659-.658L17.015,21.2l-.275-.275a.466.466,0,0,0-.66.658l.605.606a.469.469,0,0,0,.33.137Z" transform="translate(-15.945 -12.92)" fill="#deddff"/>
      </g>
      <g id="Group_22" data-name="Group 22" transform="translate(23.74 12.428)">
        <path id="Path_45172" data-name="Path 45172" d="M38.054,12.558a.617.617,0,0,1-.621.612H23.349a.618.618,0,1,1,0-1.234H37.433a.62.62,0,0,1,.621.622ZM33.981,15.48a.616.616,0,0,1-.614.617H23.348a.616.616,0,1,1,0-1.231H33.367a.615.615,0,0,1,.616.616Z" transform="translate(-22.706 -11.935)" fill="#b5b5ea"/>
      </g>
      <g id="Group_23" data-name="Group 23" transform="translate(23.729 19.734)">
        <path id="Path_45173" data-name="Path 45173" d="M38.054,19.382a.617.617,0,0,1-.621.612H23.349a.618.618,0,1,1,0-1.233H37.433a.62.62,0,0,1,.621.621Zm-4.072,2.923a.616.616,0,0,1-.614.616H23.348a.616.616,0,1,1,0-1.231H33.367a.616.616,0,0,1,.616.616Z" transform="translate(-22.696 -18.76)" fill="#b5b5ea"/>
      </g>
      <g id="Group_24" data-name="Group 24" transform="translate(23.74 27.04)">
        <path id="Path_45174" data-name="Path 45174" d="M38.054,26.206a.618.618,0,0,1-.621.613H23.349a.618.618,0,1,1,0-1.234H37.433a.62.62,0,0,1,.621.621ZM33.981,29.13a.616.616,0,0,1-.614.616H23.348a.616.616,0,1,1,0-1.231H33.367a.615.615,0,0,1,.616.616Z" transform="translate(-22.706 -25.584)" fill="#b5b5ea"/>
      </g>
      <g id="Group_25" data-name="Group 25" transform="translate(23.729 34.346)">
        <path id="Path_45175" data-name="Path 45175" d="M38.054,33.031a.617.617,0,0,1-.621.612H23.349a.618.618,0,1,1,0-1.233H37.433a.62.62,0,0,1,.621.621Zm-4.072,2.923a.616.616,0,0,1-.614.616H23.348a.616.616,0,1,1,0-1.231H33.367a.616.616,0,0,1,.616.616Z" transform="translate(-22.696 -32.409)" fill="#b5b5ea"/>
      </g>
      <path id="Path_45176" data-name="Path 45176" d="M38.074,7.727H26.555a.525.525,0,0,1,0-1.05H38.074a.525.525,0,1,1,0,1.05Z" transform="translate(1.202 0.087)" fill="#deddff"/>
      <g id="Group_26" data-name="Group 26" transform="translate(14.6 6.37)">
        <circle id="Ellipse_10" data-name="Ellipse 10" cx="0.919" cy="0.919" r="0.919" transform="translate(0)" fill="#deddff"/>
        <circle id="Ellipse_11" data-name="Ellipse 11" cx="0.919" cy="0.919" r="0.919" transform="translate(2.641)" fill="#deddff"/>
        <circle id="Ellipse_12" data-name="Ellipse 12" cx="0.919" cy="0.919" r="0.919" transform="translate(5.282)" fill="#deddff"/>
        <path id="Path_45177" data-name="Path 45177" d="M31.982,44.688a.983.983,0,0,1-.978.977H21.539a.977.977,0,0,1,0-1.954H31a.982.982,0,0,1,.977.977Z" transform="translate(-13.674 -3.649)" fill="#deddff"/>
      </g>
      <path id="Path_45178" data-name="Path 45178" d="M41.4,31.67,36.167,29.12,42.9,15.157l5.233,2.549Z" transform="translate(1.713 0.812)" fill="#e83d62"/>
      <path id="Path_45179" data-name="Path 45179" d="M45.517,16.431,42.9,15.157,36.167,29.12,38.785,30.4Z" transform="translate(1.713 0.799)" fill="#ce2955"/>
      <path id="Path_45180" data-name="Path 45180" d="M48.33,16.694,43.1,14.146l-.52,1.062,5.234,2.549Z" transform="translate(2.036 0.646)" fill="#deddff"/>
      <path id="Path_45181" data-name="Path 45181" d="M48.305,16.824l-5.234-2.548.539-1.068a2.911,2.911,0,1,1,5.234,2.549Z" transform="translate(2.061 0.471)" fill="#312e4b"/>
      <path id="Path_45182" data-name="Path 45182" d="M41.405,31l-2.643,1.691L37.034,33.8a.245.245,0,0,1-.372-.181l-.194-2.044-.3-3.123Z" transform="translate(1.713 1.672)" fill="#ffaf93"/>
      <path id="Path_45183" data-name="Path 45183" d="M38.748,32.541l-1.729,1.107a.245.245,0,0,1-.372-.181l-.2-2.048Z" transform="translate(1.727 1.843)" fill="#312e4b"/>
    </g>
  </g>
</svg>
