<svg xmlns="http://www.w3.org/2000/svg" width="50" height="50" viewBox="0 0 50 50">
  <g id="Group_31" data-name="Group 31" transform="translate(-1034 -1959)">
    <rect id="Rectangle_81" data-name="Rectangle 81" width="50" height="50" transform="translate(1034 1959)" fill="#fff" opacity="0"/>
    <g id="Sign" transform="translate(1007.908 1959)">
      <path id="Path_45150" data-name="Path 45150" d="M73.586,3.174V36.556a3.128,3.128,0,0,1-3.149,3.11h-38.7a3.139,3.139,0,0,1-3.149-3.11V3.174A3.128,3.128,0,0,1,31.741.064h38.7A3.118,3.118,0,0,1,73.586,3.174Z" transform="translate(0 -0.058)" fill="#7d7d7d"/>
      <path id="Path_45151" data-name="Path 45151" d="M70.458,0h-38.7a3.128,3.128,0,0,0-3.149,3.11V9.617h45V3.11A3.129,3.129,0,0,0,70.458,0Z" transform="translate(-0.014)" fill="#fff"/>
      <circle id="Ellipse_7" data-name="Ellipse 7" cx="2.181" cy="2.181" r="2.181" transform="translate(31.761 2.621)" fill="#ffcc5b"/>
      <circle id="Ellipse_8" data-name="Ellipse 8" cx="2.181" cy="2.181" r="2.181" transform="translate(37.83 2.621)" fill="#e86f3e"/>
      <circle id="Ellipse_9" data-name="Ellipse 9" cx="2.181" cy="2.181" r="2.181" transform="translate(43.853 2.621)" fill="#ec9922"/>
      <path id="Path_45152" data-name="Path 45152" d="M28.608,125.588V98.976h11.9a2.245,2.245,0,1,1,0,4.49h-3a1.879,1.879,0,0,0-1.877,1.888v.025c0,.047,0,.092,0,.137A1.777,1.777,0,0,0,37.4,107.4H42a2.328,2.328,0,0,1,2.368,2.124,2.244,2.244,0,0,1-2.242,2.365H36.489a1.881,1.881,0,0,0-1.881,1.892v.157a1.988,1.988,0,0,0,1.984,2h5.373a2.329,2.329,0,0,1,2.368,2.124,2.244,2.244,0,0,1-2.242,2.365H36.354a1.915,1.915,0,0,0-1.881,2v.053a1.915,1.915,0,0,0,1.881,2H40.1a2.328,2.328,0,0,1,2.368,2.124,2.244,2.244,0,0,1-2.242,2.365H31.979A3.371,3.371,0,0,1,28.608,125.588Z" transform="translate(-0.014 -89.358)" fill="#717171"/>
      <path id="Path_45153" data-name="Path 45153" d="M53.968,133.134v8.059a1.443,1.443,0,0,0,2.886,0v-8.059a1.443,1.443,0,1,0-2.886,0Zm0-3.8v.18a1.442,1.442,0,1,0,2.884,0v-.18a1.442,1.442,0,1,0-2.884,0Z" transform="translate(-22.91 -115.46)" fill="#626464"/>
      <g id="Group_20" data-name="Group 20" transform="translate(55.239 21.401)" opacity="0.12">
        <path id="Path_45154" data-name="Path 45154" d="M315.419,226.816v8.5a3.109,3.109,0,0,1-3.11,3.11H301.426l-4.354-4.214,11.754-13.993Z" transform="translate(-297.072 -220.224)" fill="#010101"/>
      </g>
      <path id="Path_45155" data-name="Path 45155" d="M126.83,163.488a18.72,18.72,0,0,1-14.35,5.52v5.863a22.966,22.966,0,0,0,14.35,21.175,22.966,22.966,0,0,0,14.35-21.175v-5.863a18.72,18.72,0,0,1-14.35-5.52Z" transform="translate(-75.736 -147.601)" fill="#32d602"/>
      <path id="Path_45156" data-name="Path 45156" d="M126.42,164.8a18.28,18.28,0,0,1-13.956,5.392v5.863a22.965,22.965,0,0,0,13.956,21.121Z" transform="translate(-75.573 -148.785)" fill="#2bbc01"/>
      <path id="Path_45157" data-name="Path 45157" d="M112.368,183.17a1.6,1.6,0,0,1-.612-.121,24.466,24.466,0,0,1-15.292-22.607v-5.863a1.57,1.57,0,0,1,1.647-1.553,16.942,16.942,0,0,0,13.053-4.977,1.6,1.6,0,0,1,1.2-.544h0a1.605,1.605,0,0,1,1.2.546,16.887,16.887,0,0,0,13.053,4.975,1.57,1.57,0,0,1,1.647,1.553v5.863a24.466,24.466,0,0,1-15.292,22.607A1.628,1.628,0,0,1,112.368,183.17ZM99.631,156.136v4.305a21.344,21.344,0,0,0,12.739,19.476,21.341,21.341,0,0,0,12.739-19.476v-4.305a20.5,20.5,0,0,1-12.739-4.9A20.506,20.506,0,0,1,99.631,156.136Z" transform="translate(-61.276 -133.17)" fill="#fff"/>
      <path id="Path_45158" data-name="Path 45158" d="M244.159,232.953h-2.575a1.493,1.493,0,0,1-1.49-1.5v-.118a1.413,1.413,0,0,1,1.412-1.421h2.769a1.684,1.684,0,0,0,1.682-1.776,1.749,1.749,0,0,0-1.777-1.594H242.19a1.334,1.334,0,0,1-1.332-1.415c0-.034,0-.068,0-.1v-.019a1.411,1.411,0,0,1,1.409-1.416h.795a1.685,1.685,0,1,0,0-3.369H237.92V242.73h4.935a1.684,1.684,0,0,0,1.682-1.776,1.749,1.749,0,0,0-1.777-1.594h-1.354a1.437,1.437,0,0,1-1.412-1.5v-.04a1.437,1.437,0,0,1,1.412-1.5h2.848a1.684,1.684,0,0,0,1.682-1.776,1.75,1.75,0,0,0-1.777-1.594Z" transform="translate(-188.675 -198.823)" fill="#2bbc01"/>
      <path id="Path_45159" data-name="Path 45159" d="M176.977,276.46a2.1,2.1,0,0,1-1.491-.617l-3.548-3.548a2.109,2.109,0,0,1,2.982-2.982l2.057,2.057,7.448-7.448a2.109,2.109,0,0,1,2.982,2.982l-8.939,8.939A2.1,2.1,0,0,1,176.977,276.46Z" transform="translate(-128.58 -237.717)" fill="#fff"/>
    </g>
  </g>
</svg>
