<svg xmlns="http://www.w3.org/2000/svg" xmlns:xlink="http://www.w3.org/1999/xlink" width="17" height="17" viewBox="0 0 17 17">
  <defs>
    <clipPath id="clip-path">
      <rect id="bg" width="17" height="17" rx="4" transform="translate(850 2152)" fill="#04bab8"/>
    </clipPath>
  </defs>
  <g id="Mask_Group_2" data-name="Mask Group 2" transform="translate(-850 -2152)" clip-path="url(#clip-path)">
    <path id="Facebook" d="M15.179,0H0C0,.34,0,1.338,0,1.821V15.178C0,15.661,0,16.66,0,17H7.03V11.22H4.639V8.5H7.03V6.427a3.32,3.32,0,0,1,3.554-3.661,14.484,14.484,0,0,1,2.107.184V5.264H11.5a1.36,1.36,0,0,0-1.534,1.47V8.5h2.61l-.417,2.72H9.971V17H17V0Z" transform="translate(850 2152)" fill="#04bab8"/>
  </g>
</svg>
