<svg xmlns="http://www.w3.org/2000/svg" width="215" height="38" viewBox="0 0 215 38">
  <g id="logo" transform="translate(-57.163 300.9)" style="isolation: isolate">
    <path id="Path_45106" data-name="Path 45106" d="M707.952-300.689c-.346.2-1.355.632-2.258,1.009-.211.09-.572.241-.828.346s-.783.346-1.2.527c-.406.181-.948.407-1.2.512-.241.12-.918.406-1.505.647l-1.054.437-.045,3.869-.03,3.869-.617-.3a9.941,9.941,0,0,0-8.52.09,8.345,8.345,0,0,0-3.327,3.372c-.753,1.611-.843,2.153-.858,4.742,0,2.273.03,2.484.422,3.613a17.189,17.189,0,0,0,.873,1.987,7.763,7.763,0,0,0,4.682,3.282,10.2,10.2,0,0,0,4.637-.151,12.688,12.688,0,0,0,2.679-1.535c.256-.256.482-.12.482.286a3.674,3.674,0,0,0,.181.888l.166.587H708.7v-14.151c0-11.23-.045-14.151-.181-14.136A1.943,1.943,0,0,0,707.952-300.689Zm-8.234,13.865.392.286.015,4.682c0,5.269.075,4.953-1.2,5.4a1.547,1.547,0,0,1-1.385-.015,3.222,3.222,0,0,1-1.957-2.228c-.316-.828-.346-1.159-.331-3.327,0-2.318.015-2.439.422-3.282a3.686,3.686,0,0,1,1.821-1.806A3.532,3.532,0,0,1,699.717-286.825Z" transform="translate(-534.707 0)" fill="#057ca4"/>
    <path id="Path_45107" data-name="Path 45107" d="M240.8-242.584c-.286.03-1.475.122-2.634.213a39.33,39.33,0,0,0-6.819,1.051c-.181.107-.045.792.437,2.361a5.975,5.975,0,0,1,.286,1.188c0,.335.211.335,1.4.046a25.69,25.69,0,0,1,6.247-.838c2.77,0,3.492.366,3.492,1.782,0,.609-.03.655-.557.792a4.408,4.408,0,0,1-.963.168,10.953,10.953,0,0,0-1.505.213c-.617.122-1.791.32-2.619.472-3.176.548-5.3,1.6-6.458,3.229a5.116,5.116,0,0,0-.963,3.808c.06,2.117.482,3.092,1.716,4.036a6.575,6.575,0,0,0,4.29,1.31,9.18,9.18,0,0,0,4.8-.975,12.331,12.331,0,0,0,2.619-1.934c.3-.3.3-.3.512.213.12.289.3.716.406.975.105.244.256.64.346.868l.181.426h6.624v-7.249c0-6.077-.03-7.371-.226-8.026-.617-2.087-2.394-3.335-5.495-3.853A29.584,29.584,0,0,0,240.8-242.584Zm2.409,11.392V-229l-.5.67a2.75,2.75,0,0,1-1.159.914c-2.2.853-3.839-.457-3.553-2.818.226-1.736,1.4-2.62,4-2.97.542-.076,1.024-.152,1.1-.168A11.152,11.152,0,0,1,243.21-231.192Z" transform="translate(-146.932 -49.51)" fill="#057ca4"/>
    <path id="Path_45108" data-name="Path 45108" d="M405.088-242.616c-.241.03-1.024.137-1.731.229-3.071.411-5.284,1.584-6.353,3.335a8.607,8.607,0,0,0-.813,2.7,4.763,4.763,0,0,0,1.37,3.777c1.325,1.31,2.815,1.889,6.849,2.665,2.424.472,2.966.853,2.559,1.812a2.9,2.9,0,0,1-2.017,1.218,18.161,18.161,0,0,1-7.166-.533c-1.4-.411-1.34-.457-1.656,1.691-.09.579-.2,1.31-.256,1.614l-.075.548.723.168a23,23,0,0,0,6.789.594,16.373,16.373,0,0,0,5.69-.746c2.213-.716,4.049-2.071,4.712-3.488a8.359,8.359,0,0,0,.738-3.518,4.64,4.64,0,0,0-1.686-3.016c-1.31-.99-2.273-1.325-5.871-2.056-1.43-.289-2.062-.594-2.378-1.142-.211-.366-.211-.426.06-.868.542-.853,1.159-1.036,3.4-1.02a10.49,10.49,0,0,1,3.1.366c1.49.442,1.641.4,1.852-.533.105-.426.286-1.234.421-1.812.286-1.218.286-1.218-.888-1.447A39.859,39.859,0,0,0,405.088-242.616Z" transform="translate(-287.717 -49.477)" fill="#057ca4"/>
    <path id="Path_45109" data-name="Path 45109" d="M548.634-242.749c-.211.046-1.024.152-1.806.244a9.609,9.609,0,0,0-5.073,1.858,5.846,5.846,0,0,0-1.822,6.442c.738,1.949,2.951,3.3,6.292,3.853a23.7,23.7,0,0,1,3.583.807,1.573,1.573,0,0,1,.557.579c.406.792-.452,1.584-2.092,1.98a18,18,0,0,1-3.989.091,6.573,6.573,0,0,0-1.234-.228,14.618,14.618,0,0,1-2.86-.7c-.271-.107-.466.5-.722,2.239-.075.518-.2,1.173-.241,1.447-.105.472-.105.472.693.64.451.091,1.159.244,1.565.335.422.076,2.123.2,3.794.244a19.411,19.411,0,0,0,7.105-.746c3.537-1.157,5.449-3.442,5.419-6.488-.015-2.68-1.746-4.34-5.329-5.117-.662-.152-1.716-.366-2.333-.5-1.731-.381-2.394-.792-2.409-1.508,0-.381.436-.883,1.1-1.234.723-.4,4.14-.335,5.6.091,1.535.457,1.656.442,1.852-.335a12.877,12.877,0,0,0,.587-3.107C556.612-242.277,550.034-242.977,548.634-242.749Z" transform="translate(-409.534 -49.359)" fill="#057ca4"/>
    <path id="Path_45110" data-name="Path 45110" d="M868.058-242.572c-.211.031-.948.137-1.656.229-4.561.594-7.512,3.061-8.385,6.991-.436,1.919-.211,5.635.391,6.823.075.137.3.594.482,1.005a8.594,8.594,0,0,0,3.628,3.427,12.529,12.529,0,0,0,6.067,1.34,14.9,14.9,0,0,0,4.019-.229,11.38,11.38,0,0,0,3.688-1.294,8.284,8.284,0,0,0,3.778-4.447,11.711,11.711,0,0,0-.918-9.717,8.829,8.829,0,0,0-2.379-2.315,12.255,12.255,0,0,0-4.5-1.584A23.594,23.594,0,0,0,868.058-242.572Zm2.875,4.8c1.008,1.1,1.34,2.345,1.34,5.041,0,3.9-1.1,6.077-3.056,6.062-1.219-.03-2.153-1.02-2.71-2.939a13.766,13.766,0,0,1,0-6.168c.617-2.086,1.626-3,3.131-2.818C870.121-238.551,870.376-238.384,870.933-237.774Z" transform="translate(-680.242 -49.522)" fill="#057ca4"/>
    <path id="Path_45111" data-name="Path 45111" d="M1263.828-239.875c-.165.031-.677.137-1.129.229a8.438,8.438,0,0,0-2.559.9,10.208,10.208,0,0,1-.948.533,5.491,5.491,0,0,0-1.009.716l-.451.411v-1.295c0-1.28,0-1.295-.331-1.2-.316.091-3,.944-6.594,2.087-.783.259-1.521.487-1.611.518-.151.046-.2,1.828-.2,8.287v8.226h9.032v-13.147l.6-.594c.813-.777,1.581-.807,2.168-.107l.391.472v13.375h9.032v-6.688c0-7.388-.06-8.013-.9-9.826A5.1,5.1,0,0,0,1263.828-239.875Z" transform="translate(-1012.643 -51.766)" fill="#057ca4"/>
    <path id="Path_45112" data-name="Path 45112" d="M1012-236.925a22.48,22.48,0,0,0,.9,2.559,1.4,1.4,0,0,1,.181.527c.075.331,1.43,4.215,2.017,5.8.136.331.286.8.361,1.054.181.617,1.174,3.372,1.295,3.568a3.124,3.124,0,0,1,.226.632c.06.256.361,1.144.662,1.972s.617,1.761.708,2.062l.151.572h7.918l.075-.422c.091-.437,1.837-6.292,2.093-7,.09-.226.21-.406.271-.406a4.118,4.118,0,0,1,.5,1.159c.211.647.662,1.957,1.009,2.905s.677,1.927.753,2.183c.075.241.226.708.331,1.009l.2.572h7.286l.181-.647c.09-.346.256-.873.362-1.159s.316-.933.451-1.43.346-1.144.452-1.43c.241-.647.707-2.077,2.258-7,.3-.994.647-2.047.753-2.333s.316-.933.452-1.43c.151-.5.346-1.144.452-1.43a9.856,9.856,0,0,0,.527-1.776c0-.135-.677-.181-2.454-.181h-2.469l-.271.933c-.135.527-.361,1.28-.481,1.7-.105.406-.316,1.129-.437,1.581-.136.452-.361,1.234-.512,1.731s-.391,1.34-.527,1.882c-.151.542-.361,1.234-.467,1.551a3.754,3.754,0,0,0-.226.9c0,.181-.135-.105-.3-.647s-.391-1.325-.527-1.731c-.121-.421-.271-.963-.346-1.2-.06-.256-.542-1.852-1.069-3.583l-.949-3.116h-6.413l-.09.557c-.06.316-.2.873-.3,1.249-.181.647-.587,2.213-1.069,4.095-.361,1.475-.693,2.71-.964,3.658-.256.858-.271.888-.376.452-.135-.557-1.37-4.817-1.806-6.172-.105-.331-.286-.948-.406-1.355-.12-.422-.346-1.144-.5-1.626l-.271-.858h-4.8C1014.153-237,1012-236.97,1012-236.925Z" transform="translate(-811.273 -54.164)" fill="#057ca4"/>
    <path id="Path_45113" data-name="Path 45113" d="M70.16-235.673a8.27,8.27,0,0,0-3.056,1.355,6.966,6.966,0,0,1-.843.542,3.488,3.488,0,0,1-.406-.9,2.334,2.334,0,0,0-.452-.9c-.105,0-2.529.918-3.372,1.28a4.01,4.01,0,0,1-.873.3,1.069,1.069,0,0,0-.5.241.381.381,0,0,1-.3.135,3.015,3.015,0,0,0-.843.3,3.171,3.171,0,0,1-.888.3.5.5,0,0,0-.361.136,1.139,1.139,0,0,1-.527.241.611.611,0,0,0-.527.422c-.045.181-.06,5.72-.045,12.3l.045,11.968,4.561.045,4.546.03v-11.095l1.249.617,1.234.617,2.077.045a7.156,7.156,0,0,0,3.237-.316,7.619,7.619,0,0,0,3.432-1.957c2.514-2.544,3.176-7.226,1.581-11.2a6.182,6.182,0,0,0-2.5-3.191,6.483,6.483,0,0,0-3.071-1.295A7.425,7.425,0,0,0,70.16-235.673ZM68.9-231.819c1.039.286,1.7,1.28,2.168,3.3a11.708,11.708,0,0,1-.135,4.908,4.191,4.191,0,0,1-1.957,2.348A1.835,1.835,0,0,1,67-221.311l-.677-.331v-9.65l.346-.226A2.646,2.646,0,0,1,68.9-231.819Z" transform="translate(0 -55.017)" fill="#057ca4"/>
    <path id="Path_45114" data-name="Path 45114" d="M1430.709-153.579a6.383,6.383,0,0,0-1.957.948,2.714,2.714,0,0,0-.753,2.2,2.027,2.027,0,0,0,.5,1.7,3.563,3.563,0,0,0,2.409,1.43,6.276,6.276,0,0,0,4.636-.617,3.053,3.053,0,0,0,.466-4.621c-.888-.843-1.565-1.069-3.266-1.114A12.029,12.029,0,0,0,1430.709-153.579Z" transform="translate(-1164.696 -124.909)" fill="#057ca4"/>
  </g>
</svg>
