<svg xmlns="http://www.w3.org/2000/svg" width="552" height="296" viewBox="0 0 552 296">
  <g id="Group_54896" data-name="Group 54896" transform="translate(-48.418 -101.337)">
    <path id="Path_56413" data-name="Path 56413" d="M765.379,1465.748l-14.084,1.2-2.639,16.279,14.582.542Z" transform="translate(-560.483 -1093.456)" fill="#ffc5ae"/>
    <path id="Path_56414" data-name="Path 56414" d="M774.75,1509.969l-11.441-5.074c-4.607,4.487-9.834.779-9.834.779a4.792,4.792,0,0,0-5.725,1.5v6.365h31.2c0-2.164-4.2-3.565-4.2-3.565" transform="translate(-559.851 -1120.772)" fill="#0a324c"/>
    <rect id="Rectangle_20474" data-name="Rectangle 20474" width="0.229" height="5.406" transform="translate(187.785 386.397)"/>
    <path id="Path_56415" data-name="Path 56415" d="M771.938,1508.772l-.034-.227a8.121,8.121,0,0,1-5.3-1.385l-.13.19a8.465,8.465,0,0,0,4.749,1.461,5.406,5.406,0,0,0,.71-.039" transform="translate(-572.919 -1122.352)"/>
    <rect id="Rectangle_20475" data-name="Rectangle 20475" width="0.229" height="1.763" transform="matrix(0.558, -0.83, 0.83, 0.558, 189.222, 389.911)"/>
    <rect id="Rectangle_20476" data-name="Rectangle 20476" width="0.229" height="1.762" transform="translate(190.271 389.631) rotate(-55.974)"/>
    <path id="Path_56416" data-name="Path 56416" d="M777.092,1533.771a1.534,1.534,0,0,0,0-3.067H745.677a.336.336,0,0,0-.336.336v2.4a.336.336,0,0,0,.336.336Z" transform="translate(-558.17 -1138.781)" fill="#d6d6d6"/>
    <path id="Path_56417" data-name="Path 56417" d="M814.486,1512.5l.207-.1a5.665,5.665,0,0,0-2.995-2.339c-2.3-.982-12.424-5.471-12.526-5.517l-.093.21c.1.046,10.226,4.535,12.529,5.517a5.58,5.58,0,0,1,2.878,2.227" transform="translate(-595.668 -1120.53)"/>
    <path id="Path_56418" data-name="Path 56418" d="M777.893,1533.228a1.648,1.648,0,0,0-1.066-2.9H745.845a.885.885,0,0,0-.883.884v1.529h.229v-1.529a.655.655,0,0,1,.654-.654h30.982a1.419,1.419,0,0,1,.918,2.5Z" transform="translate(-557.905 -1138.516)"/>
    <path id="Path_56419" data-name="Path 56419" d="M550.249,1444.778l-7.468,14.7,13.725,4.953,7.523-16.51Z" transform="translate(-416.826 -1078.823)" fill="#ffc5ae"/>
    <path id="Path_56420" data-name="Path 56420" d="M565.707,1491.348l-9.354-8.316c-5.754,2.872-9.6-2.251-9.6-2.251a4.791,4.791,0,0,0-5.909-.317l-1.936,6.062,29.721,9.495c.658-2.061-2.917-4.673-2.917-4.673" transform="translate(-414.12 -1103.097)" fill="#0a324c"/>
    <rect id="Rectangle_20477" data-name="Rectangle 20477" width="5.406" height="0.229" transform="translate(124.966 382.481) rotate(-72.284)"/>
    <path id="Path_56421" data-name="Path 56421" d="M569.33,1486.514l.037-.226a8.121,8.121,0,0,1-4.623-2.931l-.181.141a8.473,8.473,0,0,0,4.079,2.837,5.343,5.343,0,0,0,.689.179" transform="translate(-432.024 -1105.743)"/>
    <rect id="Rectangle_20478" data-name="Rectangle 20478" width="0.229" height="1.763" transform="matrix(0.785, -0.62, 0.62, 0.785, 126.911, 381.116)"/>
    <rect id="Rectangle_20479" data-name="Rectangle 20479" width="0.229" height="1.762" transform="matrix(0.785, -0.62, 0.62, 0.785, 127.995, 381.169)"/>
    <path id="Path_56422" data-name="Path 56422" d="M564.808,1512a1.534,1.534,0,0,0,.933-2.922l-29.925-9.56a.337.337,0,0,0-.423.218l-.729,2.282a.336.336,0,0,0,.218.422Z" transform="translate(-411.152 -1117.011)" fill="#d6d6d6"/>
    <path id="Path_56423" data-name="Path 56423" d="M608.71,1502.987l.228-.03a5.672,5.672,0,0,0-2.141-3.14c-1.893-1.635-10.17-8.992-10.253-9.066l-.153.172c.084.074,8.361,7.432,10.255,9.068a5.577,5.577,0,0,1,2.064,3" transform="translate(-454.234 -1110.903)"/>
    <path id="Path_56424" data-name="Path 56424" d="M565.909,1511.843l.088.211a1.648,1.648,0,0,0-.131-3.092l-29.512-9.428a.884.884,0,0,0-1.11.573l-.466,1.457.219.07.465-1.457a.654.654,0,0,1,.822-.424l29.512,9.428a1.419,1.419,0,0,1,.113,2.662" transform="translate(-411.241 -1117.003)"/>
    <path id="Path_56425" data-name="Path 56425" d="M1097.887,837.841a1.328,1.328,0,0,0-1.876.1l-6.41,5.669a2.652,2.652,0,0,0-.044,2.072,108.255,108.255,0,0,0,.024,11.168l7.627-1.191c1.065-.095,4.024-.581,4.53-1.031.873-.778.369-1.76.241-2.966-.18-1.7-.264-3.733-.367-5.332a.322.322,0,0,1-.106-.221l-.019-.346a.315.315,0,0,1,.04-.163h0a.317.317,0,0,1,.223-.171l6.759-1.269a1.359,1.359,0,0,0,1.119-1.472,1.33,1.33,0,0,0-1.565-1.148s-10.411,1.382-12.055,1.465l1.983-3.29a1.329,1.329,0,0,0-.1-1.877" transform="translate(-798.233 -654.909)" fill="#ffe3db"/>
    <path id="Path_56426" data-name="Path 56426" d="M1113.962,867.2a1.78,1.78,0,0,0,.9-1.545,1.509,1.509,0,0,0-.622-1.325l-6.993-.369a1.44,1.44,0,0,0-1.516,1.459,1.474,1.474,0,0,0,1.414,1.421Z" transform="translate(-809.645 -673.372)" fill="#ffe3db"/>
    <path id="Path_56427" data-name="Path 56427" d="M1113.416,876.941a1.776,1.776,0,0,0,.868-1.562,1.509,1.509,0,0,0-.646-1.313l-7-.235a1.441,1.441,0,0,0-1.489,1.488,1.473,1.473,0,0,0,1.441,1.394Z" transform="translate(-809.24 -680.264)" fill="#ffe3db"/>
    <path id="Path_56428" data-name="Path 56428" d="M1113.588,885.958a1.655,1.655,0,0,0,.791-1.465,1.407,1.407,0,0,0-.616-1.216l-6.521-.142a1.342,1.342,0,0,0-1.37,1.4,1.373,1.373,0,0,0,1.357,1.283Z" transform="translate(-809.742 -686.759)" fill="#ffe3db"/>
    <path id="Path_56429" data-name="Path 56429" d="M1106.606,863.6l6.234.329a.271.271,0,0,0,.028-.541l-6.234-.329a1.719,1.719,0,0,0-1.276.475,1.7,1.7,0,0,0-.526,1.258,1.741,1.741,0,0,0,1.67,1.689l6.816.335a.254.254,0,0,0,.058,0,.271.271,0,0,0-.031-.538l-6.815-.335a1.2,1.2,0,0,1-1.156-1.153,1.168,1.168,0,0,1,1.231-1.185" transform="translate(-809.019 -672.746)" fill="#f9cabc"/>
    <path id="Path_56430" data-name="Path 56430" d="M1106,873.476l7,.235a.271.271,0,0,0,.019-.542l-7-.235a1.717,1.717,0,0,0-1.267.5,1.7,1.7,0,0,0-.5,1.267,1.647,1.647,0,0,0,1.659,1.6l6.657.131a.306.306,0,0,0,.05,0,.271.271,0,0,0-.039-.538l-6.654-.131a1.1,1.1,0,0,1-1.132-1.071,1.17,1.17,0,0,1,1.208-1.208" transform="translate(-808.615 -679.638)" fill="#f9cabc"/>
    <path id="Path_56431" data-name="Path 56431" d="M1106.61,882.78l6.521.142a.271.271,0,0,0,.012-.542l-6.521-.142a1.619,1.619,0,0,0-1.188.484,1.6,1.6,0,0,0-.458,1.2,1.64,1.64,0,0,0,1.622,1.542l6.36.139a.309.309,0,0,0,.051,0,.271.271,0,0,0-.039-.538l-6.359-.139a1.1,1.1,0,0,1-1.093-1.023,1.071,1.071,0,0,1,1.094-1.119" transform="translate(-809.117 -686.133)" fill="#f9cabc"/>
    <path id="Path_56432" data-name="Path 56432" d="M1076.84,850.78s-3.186,2.091-4.146,2.189-5.007-.05-5.007-.05l.387,14.188a52.505,52.505,0,0,0,7.978-1.239c5-1.1.788-15.088.788-15.088" transform="translate(-783.099 -664.178)" fill="#ffe3db"/>
    <path id="Path_56433" data-name="Path 56433" d="M556.287,1104.655a19.2,19.2,0,0,0,19.456,5.186s28.311-65.456,29.217-68.174S607,1006.334,607,1006.334L590.95,955.228c-12.2,33.6-11.809,86.439-11.809,86.439l-22.875,62.964Z" transform="translate(-426.235 -737.221)" fill="#3f2037"/>
    <path id="Path_56434" data-name="Path 56434" d="M662.316,942.714s-7.021,18.572-4.983,33.747,35.786,55.038,35.786,55.038l-9.286,73.836.375.17a21.631,21.631,0,0,0,18.2-.17s17.195-73.383,14.712-81.31-24-56.623-24-56.623l4.3-12s-21.29-17.213-35.106-12.683" transform="translate(-496.5 -727.959)" fill="#49263e"/>
    <path id="Path_56435" data-name="Path 56435" d="M926.511,803.12l-33.042,4.159-22.876-25.442-11.551,21.516s28.538,22.8,31.709,22.8,37.74-6.456,37.74-6.456Z" transform="translate(-637.509 -616.059)" fill="#9ac6ed"/>
    <path id="Path_56436" data-name="Path 56436" d="M860.073,627.309s-5.506,1.169-5.759,11.565l2.082-.442.8-5.34Z" transform="translate(-634.21 -508.171)"/>
    <path id="Path_56437" data-name="Path 56437" d="M849.262,671.271a5.208,5.208,0,0,0,4.894-4.474l.978-6.649c4.358.546,5.479-4.332,5.479-4.332l3.906-14.267-15.963-9.122-5.049,16.3-1.016,4.286s-3.564,8.313-3.66,10.231a8.309,8.309,0,0,0,6.3,7.557,13.493,13.493,0,0,0,4.128.469" transform="translate(-623.403 -511.742)" fill="#ffe3db"/>
    <path id="Path_56438" data-name="Path 56438" d="M879.285,667.07a.207.207,0,0,0,.163,0c.139-.062,3.434-1.5,4.863,1.1a.206.206,0,0,0,.282.081.208.208,0,0,0,.081-.283c-1.612-2.937-5.356-1.3-5.393-1.282a.208.208,0,0,0-.105.275.2.2,0,0,0,.11.108" transform="translate(-651.544 -535.321)"/>
    <path id="Path_56439" data-name="Path 56439" d="M907.583,675.976a.2.2,0,0,0,.145,0c.022-.008,2.234-.754,2.824.4a.205.205,0,0,0,.279.089.209.209,0,0,0,.089-.28c-.753-1.467-3.221-.634-3.326-.6a.209.209,0,0,0-.13.264.205.205,0,0,0,.118.126" transform="translate(-671.291 -541.671)"/>
    <path id="Path_56440" data-name="Path 56440" d="M888.9,680.258a.621.621,0,1,0-.764.439.623.623,0,0,0,.764-.439" transform="translate(-657.491 -544.568)"/>
    <path id="Path_56441" data-name="Path 56441" d="M910.516,684.031a.621.621,0,1,0-.764.439.623.623,0,0,0,.764-.439" transform="translate(-672.575 -547.201)"/>
    <path id="Path_56442" data-name="Path 56442" d="M851.492,665.51a3.727,3.727,0,1,0-4.585,2.633,3.738,3.738,0,0,0,4.585-2.633" transform="translate(-627.13 -531.525)" fill="#ffe3db"/>
    <path id="Path_56443" data-name="Path 56443" d="M851,667.409a1.472,1.472,0,0,0-1.02,1.5,1.556,1.556,0,0,0,1.1,1.515l.021.005a.1.1,0,0,0,.054-.2l-.021-.005a1.338,1.338,0,0,1-.947-1.318,1.279,1.279,0,0,1,.871-1.294,1.614,1.614,0,0,1,1.835.763l.185.324.009-.373a2.029,2.029,0,0,0-.556-1.569,2.5,2.5,0,0,0-1.721-.6.1.1,0,0,0-.1.109.1.1,0,0,0,.108.1,2.329,2.329,0,0,1,1.567.541,1.688,1.688,0,0,1,.482,1.089,1.743,1.743,0,0,0-1.869-.583" transform="translate(-631.184 -535.276)" fill="#f07162"/>
    <path id="Path_56445" data-name="Path 56445" d="M894.884,685.155l2.355-.127.688-5.085a.1.1,0,0,0-.088-.117.1.1,0,0,0-.117.089l-.665,4.913-2.184.118a.1.1,0,0,0-.022.2.1.1,0,0,0,.033,0" transform="translate(-662.443 -544.817)" fill="#f07162"/>
    <g id="Group_54904" data-name="Group 54904" opacity="0">
      <path id="Path_56444" data-name="Path 56444" d="M865.333,654.41l-1,2.488-2.331,8.873c-.631,4.435-1.182,9.916,8.075,11.923,6.47,1.4,7.809-8.617,7.809-8.617-1.165-1.319-12.539-2.753-13.185-3.313-.457-.4.64-6.241,1.033-8.415a4.773,4.773,0,0,0-.405-2.938" transform="translate(-639.363 -527.082)"/>
      <path id="Path_56446" data-name="Path 56446" d="M863.234,650l-1.355-2.139-3.1,3.978a2.96,2.96,0,0,1,1.587,3.425c-.617,2.412-2.939,5.805-.256,12.33s1.866-8.131,1.954-8.61S863.234,650,863.234,650" transform="translate(-637.328 -522.513)"/>
    </g>
    <path id="Path_56447" data-name="Path 56447" d="M864.848,640.208c.851-4.908,1.833-7.25,2.56-8.368a15.666,15.666,0,0,1,5.453,1.026,11.742,11.742,0,0,1,4.494,2.723l1.686,2.218a6.168,6.168,0,0,1,.477,1.065c.016-.131.025-.262.032-.394l.055.073a6.739,6.739,0,0,0-1.291-9.185l0,0c-3.978-4.176-10.954-4.914-13.4-3.531-4.906,2.772-3.467,10.446-3.467,10.446a8.737,8.737,0,0,1,1.112-2.019c.231,3.706,1,13.428,2.293,5.942" transform="translate(-639.048 -506.701)"/>
    <path id="Path_56448" data-name="Path 56448" d="M897.275,656.493a30.681,30.681,0,0,0,.979-3.57c.035-.68-5.98-4.307-9.684-4.794s2.14,5.338,2.22,5.36,6.485,3,6.485,3" transform="translate(-657.256 -522.679)" fill="#ffe3db"/>
    <path id="Path_56449" data-name="Path 56449" d="M875.119,634.992l1.964,5.583.607-1.429Z" transform="translate(-648.727 -513.533)" fill="#ffe3db"/>
    <path id="Path_56450" data-name="Path 56450" d="M874.852,1082.192c.453-2.181-13.674-4.815-16.307-5.777-.828-.3-6.032-2.161-9.115-2.192-.036-.047-2.9.614-3.424,1.435,0,0-2.493,7.813,1.1,8.259,0,0,20.687,3.466,19.33,2.008,0,0,2.9-.421.122-2.853,0,0,7.859,1.208,8.293-.881" transform="translate(-627.825 -820.146)" fill="#ffe3db"/>
    <path id="Path_56451" data-name="Path 56451" d="M719.75,778.838c10.872-8.154,22.422-28.085,22.2-34.653s-19.7-16.307-19.7-16.307c-15.855,5.209-47.563,65.456-47.563,65.456,8.154,7.927,35.106,12.684,35.106,12.684,3.171-8.607,9.966-27.179,9.966-27.179" transform="translate(-508.862 -578.398)" fill="#b5d6fb"/>
    <path id="Path_56452" data-name="Path 56452" d="M846.9,719.673c-3.624-4.87-12.457-10.532-12.457-10.532l-2.378,5.662L849.9,727.213s.62-2.67-3-7.54" transform="translate(-618.682 -565.273)" fill="#9ac6ed"/>
    <path id="Path_56453" data-name="Path 56453" d="M837.291,873.757l2.4-91.92c-7.731,1.826-25.594,17.44-24.914,22.762s9.374,69.157,9.374,69.157c3.171,2.038,13.136,0,13.136,0" transform="translate(-606.611 -616.073)" fill="#b5d6fb"/>
    <path id="Path_56454" data-name="Path 56454" d="M706.019,959.52a2.544,2.544,0,0,0,.849-2.369s-23.1-4.67-35.106-12.684a2.715,2.715,0,0,0-1.1,3.252c.7,2.233,25.505,12.4,35.358,11.8" transform="translate(-505.946 -729.574)" fill="#072738"/>
    <path id="Path_56455" data-name="Path 56455" d="M693.495,1110.933l-.11-.13c-.337-.4-33.7-39.948-35.7-54.839l-.768.1c1.992,14.83,33.287,52.171,35.764,55.107l-9.3,73.95.635.287a21.978,21.978,0,0,0,18.524-.173l.168-.08.043-.182c.7-3,17.19-73.577,14.7-81.514l-.739.232c2.362,7.546-13.725,76.839-14.678,80.924a21.2,21.2,0,0,1-17.7.088l-.114-.052,9.25-73.553Z" transform="translate(-496.47 -807.514)" fill="#1d1d1b"/>
    <path id="Path_56456" data-name="Path 56456" d="M893.5,705.448c-.057-.032-3.907-1.41-3.907-1.41a2.125,2.125,0,0,0,3.907,1.41" transform="translate(-658.83 -561.712)" fill="#fbfdfc"/>
    <path id="Path_56523" data-name="Path 56523" d="M1035.049,979.3l-13.806,35.16h39.585l13.806-35.16Z" transform="translate(-750.691 -753.899)"/>
    <path id="Path_56524" data-name="Path 56524" d="M1035.049,979.3l-13.806,35.16h2.066l13.805-35.16Z" transform="translate(-750.691 -753.899)" fill="#fff" opacity="0.1"/>
    <path id="Path_56525" data-name="Path 56525" d="M1115.494,1029.621c.549-1.615.147-3.212-.9-3.567s-2.336.667-2.885,2.282-.147,3.212.9,3.567,2.337-.666,2.885-2.282" transform="translate(-813.647 -786.473)" fill="#fff"/>
    <path id="Path_56526" data-name="Path 56526" d="M989.453,1089.089v-2.84H974.664a1.42,1.42,0,0,0,0,2.84Z" transform="translate(-717.199 -828.539)" fill="#1a1a1a"/>
    <rect id="Rectangle_20483" data-name="Rectangle 20483" width="9.342" height="0.445" transform="translate(261.21 258.686)"/>
    <g id="Group_54900" data-name="Group 54900" transform="translate(418.502 160.129)">
      <path id="Path_56467" data-name="Path 56467" d="M1811.351,1065.533c-2.661,1.973-.1,2.56-.1,2.56-1.32,1.206-1.09,1.84-.67,2.158a1.226,1.226,0,0,0,1.086.182c.684-.2,2.185-.648,3.756-1.143h0a128.94,128.94,0,0,1,13.468-.422l3.417-.3s-4.962-9.749-5-9.71c-2.759-.2-5.969-.424-6.756-.484-1.448-.112-6.429,1.127-8,2.277-2.85,2.086-1.19,2.345-1.19,2.345-2.757,2.443-.015,2.536-.015,2.536" transform="translate(-1762.126 -969.321)" fill="#f9cabc"/>
      <path id="Path_56468" data-name="Path 56468" d="M1894.173,903.256s-9.87,4.721-18.631,42.14l-22.6,4.66v5.4l27.817-1.732s13.979-7.3,13.979-7.391-.565-43.08-.565-43.08" transform="translate(-1791.995 -861.085)" fill="#b5d6fb"/>
      <path id="Path_56469" data-name="Path 56469" d="M1992.882,1274.155v75.713h-22.135a5.447,5.447,0,0,0-5.447,5.447h59.506a5.447,5.447,0,0,0-5.447-5.447H1997.8v-75.713Z" transform="translate(-1870.398 -1119.894)"/>
      <path id="Path_56470" data-name="Path 56470" d="M1786.443,1508.122a8.438,8.438,0,0,1-5.437,1.4l-.035.23a5.819,5.819,0,0,0,.729.038,8.784,8.784,0,0,0,4.877-1.479Z" transform="translate(-1741.773 -1283.153)"/>
      <path id="Path_56471" data-name="Path 56471" d="M1952.829,1463.579l-.313,18.461,15.779.218.249-16.522Z" transform="translate(-1861.477 -1252.071)" fill="#ffe3db"/>
      <path id="Path_56472" data-name="Path 56472" d="M1928.649,1521.114a.425.425,0,0,0,.427-.422v-2.067a.621.621,0,0,0-.625-.616h-13.838l-5.61-6.025-10.262,6.025h-2.21a1.609,1.609,0,0,0-1.6,1.245,1.561,1.561,0,0,0,1.545,1.859Z" transform="translate(-1821.271 -1285.849)" fill="#d6d6d6"/>
      <path id="Path_56473" data-name="Path 56473" d="M1926.171,1506.617s-3.695,1.09-10.1-.789l-11.749,5.137s-3.222,1.062-4.094,2.765h31.819v-5.6a4.955,4.955,0,0,0-5.879-1.514" transform="translate(-1824.992 -1281.552)"/>
      <rect id="Rectangle_20480" data-name="Rectangle 20480" width="0.236" height="5.572" transform="translate(106.94 226.578)"/>
      <path id="Path_56474" data-name="Path 56474" d="M1997.121,1524.578l-1.5,1,.133.193,1.5-1Z" transform="translate(-1891.554 -1294.636)"/>
      <path id="Path_56475" data-name="Path 56475" d="M1993.56,1523.645l-1.5,1,.131.192,1.5-1Z" transform="translate(-1889.069 -1293.986)"/>
      <path id="Path_56476" data-name="Path 56476" d="M1928.922,1534.012v-1.548a.9.9,0,0,0-.907-.895H1896.2a1.682,1.682,0,0,0-1.693,1.669,1.653,1.653,0,0,0,.6,1.272l.152-.177a1.429,1.429,0,0,1-.514-1.1,1.449,1.449,0,0,1,1.457-1.437h31.814a.668.668,0,0,1,.672.663v1.548Z" transform="translate(-1820.999 -1299.515)"/>
      <path id="Path_56477" data-name="Path 56477" d="M1902.925,1511.276c2.364-.995,12.76-5.54,12.865-5.586l-.1-.212c-.1.045-10.5,4.59-12.862,5.584a5.8,5.8,0,0,0-3.075,2.368l.213.1a5.709,5.709,0,0,1,2.956-2.253" transform="translate(-1824.661 -1281.309)"/>
      <path id="Path_56478" data-name="Path 56478" d="M1760.728,1463.579l-.313,18.461,15.779.218.249-16.522Z" transform="translate(-1727.43 -1252.071)" fill="#ffe3db"/>
      <path id="Path_56479" data-name="Path 56479" d="M1736.548,1521.114a.425.425,0,0,0,.428-.422v-2.067a.621.621,0,0,0-.626-.616h-13.837l-5.611-6.025-10.261,6.025h-2.211a1.609,1.609,0,0,0-1.6,1.245,1.561,1.561,0,0,0,1.545,1.859Z" transform="translate(-1687.226 -1285.849)" fill="#d6d6d6"/>
      <path id="Path_56480" data-name="Path 56480" d="M1734.07,1506.617s-3.695,1.09-10.1-.789l-11.748,5.137s-3.221,1.062-4.094,2.765h31.819v-5.6a4.956,4.956,0,0,0-5.879-1.514" transform="translate(-1690.946 -1281.552)"/>
      <rect id="Rectangle_20481" data-name="Rectangle 20481" width="0.236" height="5.572" transform="translate(48.884 226.578)"/>
      <path id="Path_56481" data-name="Path 56481" d="M1805.02,1524.578l-1.5,1,.132.193,1.5-1Z" transform="translate(-1757.509 -1294.636)"/>
      <path id="Path_56482" data-name="Path 56482" d="M1801.46,1523.645l-1.5,1,.131.192,1.5-1Z" transform="translate(-1755.024 -1293.986)"/>
      <path id="Path_56483" data-name="Path 56483" d="M1736.821,1534.012v-1.548a.9.9,0,0,0-.906-.895H1704.1a1.682,1.682,0,0,0-1.692,1.669,1.656,1.656,0,0,0,.6,1.272l.152-.177a1.428,1.428,0,0,1-.514-1.1,1.449,1.449,0,0,1,1.457-1.437h31.815a.668.668,0,0,1,.671.663v1.548Z" transform="translate(-1686.954 -1299.515)"/>
      <path id="Path_56484" data-name="Path 56484" d="M1710.824,1511.276c2.365-.995,12.76-5.54,12.865-5.586l-.1-.212c-.1.045-10.5,4.59-12.862,5.584a5.8,5.8,0,0,0-3.075,2.368l.213.1a5.707,5.707,0,0,1,2.955-2.253" transform="translate(-1690.616 -1281.309)"/>
      <path id="Path_56485" data-name="Path 56485" d="M2091.914,1106.489l22.478-67.187a4.7,4.7,0,0,0-4.453-6.186H2078.3s-24.548,75.254-23.654,74.9,37.271-1.524,37.271-1.524" transform="translate(-1932.722 -951.7)" fill="#ffd3a4"/>
      <path id="Path_56486" data-name="Path 56486" d="M2087.9,1106.489s-23.6.756-33.245,1.237c-.038.2-.041.3-.008.286.9-.359,37.1-.349,37.1-.349l22.652-68.361a4.7,4.7,0,0,0-4.452-6.186h-4.019a4.7,4.7,0,0,1,4.454,6.186Z" transform="translate(-1932.722 -951.7)" fill="#fec786"/>
      <path id="Path_56487" data-name="Path 56487" d="M1974.057,1266.6v0a4.03,4.03,0,0,0-4.03-4.03h-84.307v8.063h84.307a4.029,4.029,0,0,0,4.03-4.029" transform="translate(-1814.867 -1111.805)" fill="#fec786"/>
      <path id="Path_56488" data-name="Path 56488" d="M1796.743,1175.186h15.723l39.509-34.615s-33.865-7.313-42.735.077c0,0-28.848-.941-32.431,3.718s-17.657,64.453-23.032,104.232a36.71,36.71,0,0,0,20.225,3.352s21.128-49.618,22.741-76.764" transform="translate(-1722.798 -1024.429)" fill="#3d1a36"/>
      <path id="Path_56489" data-name="Path 56489" d="M1920.995,1189.607c1.09,23.915,4.607,69.156,4.607,69.156,6.808,2.15,23,2.087,23,2.087l.224-74.947s11.541,1.994,19.425.559,10.07-22.263,10.07-22.263,3.547-7.66-28.868-12-28.685,10.786-28.864,26.2c-.029,2.542.194,6.482.41,11.207" transform="translate(-1839.159 -1034.272)" fill="#49263e"/>
      <path id="Path_56490" data-name="Path 56490" d="M1986.349,874.772c-3.3-1.04-6.687-2.018-9.536-2.656-9-2.016-15.684,4.114-23.773,9.136-5.276,3.275-15.737,74.049-15.737,74.049s11.154-2.016,25.937,2.285,24.8,12.23,26.779,11.423,8.162-6.047,7.759-32.925c-.23-15.322.582-31.549,1.323-42.67a18.277,18.277,0,0,0-12.751-18.642" transform="translate(-1850.859 -839.081)" fill="#fff"/>
      <path id="Path_56491" data-name="Path 56491" d="M1945.226,993.951c.806-14.648-18.949-14.648-18.949-14.648l-12.5,19.621-48.513,6.854v9.407s52.948-.134,57.114-.941,22.846-20.292,22.846-20.292" transform="translate(-1800.594 -914.149)" fill="#ffe3db"/>
      <path id="Path_56492" data-name="Path 56492" d="M2044.1,786.215l-15.633,3.141-.665,12.736s-.4,4.3,3.335,5.031l-1.407,8.388c-.374,2.121,1.2,1.552,3.218,2.309a11.763,11.763,0,0,0,3.529.735c4.3.225,6.946-1.34,7.387-2.935s-.37-10.908-.37-10.908l.329-3.784Z" transform="translate(-1914.002 -779.416)" fill="#ffe3db"/>
      <path id="Path_56493" data-name="Path 56493" d="M2048.269,814.229c2.083-1.505,4.141.825,4.226.925a.18.18,0,1,0,.272-.235c-.022-.027-2.359-2.68-4.709-.981a.179.179,0,0,0,.21.291" transform="translate(-1928.092 -798.364)" fill="#49263e"/>
      <path id="Path_56494" data-name="Path 56494" d="M2030.169,810.814c.886-.682,2.351.708,2.366.723a.18.18,0,0,0,.254,0,.181.181,0,0,0,0-.254c-.069-.067-1.7-1.619-2.834-.748a.18.18,0,0,0,.219.285" transform="translate(-1915.46 -796.197)" fill="#49263e"/>
      <path id="Path_56495" data-name="Path 56495" d="M2052.274,820.126a.539.539,0,1,0-.566.51.539.539,0,0,0,.566-.51" transform="translate(-1930.335 -802.682)"/>
      <path id="Path_56496" data-name="Path 56496" d="M2033.439,817.357a.539.539,0,1,0-.566.51.538.538,0,0,0,.566-.51" transform="translate(-1917.191 -800.75)"/>
      <path id="Path_56497" data-name="Path 56497" d="M2030.834,775.291l3.225-4.1s.314-.636.7-1.6-2.45-3.606-4.885-5.173-4.179,1.205-6.283.136c-3.854-1.958-7.182-.024-7.909.974-1.477,2.024-3.018,3.96,1.427,8.389s13.729,1.37,13.729,1.37" transform="translate(-1904.497 -763.714)" fill="#33192c"/>
      <path id="Path_56498" data-name="Path 56498" d="M2074.384,802.156c5.595.892,5.208-7.163,5.309-8.349s1.766-3.193.818-7.24a5.355,5.355,0,0,0-5.1-4.064l.379,1.172-2.233,5.167Z" transform="translate(-1945.937 -776.825)" fill="#33192c"/>
      <path id="Path_56499" data-name="Path 56499" d="M2072.388,814.659a3.234,3.234,0,1,0-3.4,3.061,3.234,3.234,0,0,0,3.4-3.061" transform="translate(-1940.611 -796.889)" fill="#ffe3db"/>
      <path id="Path_56500" data-name="Path 56500" d="M2074.242,817.088a2.027,2.027,0,0,1,1.437-.018.09.09,0,0,0,.066-.167,2.18,2.18,0,0,0-1.582.022,1.752,1.752,0,0,0-.885,1.133l-.094.308.24-.215a1.408,1.408,0,0,1,1.719-.127,1.1,1.1,0,0,1,.366,1.3,1.16,1.16,0,0,1-1.14.822h-.018a.09.09,0,0,0-.011.179h.02a1.348,1.348,0,0,0,1.319-.942,1.265,1.265,0,0,0-.433-1.5,1.52,1.52,0,0,0-1.7-.03,1.46,1.46,0,0,1,.695-.761" transform="translate(-1945.678 -800.729)" fill="#f07162"/>
      <path id="Path_56501" data-name="Path 56501" d="M2046.084,844.806c-3.149,4.679-8.925,3.2-8.925,3.2l-.74,4.21c9.035-.218,9.664-7.411,9.664-7.411" transform="translate(-1920.023 -820.299)" fill="#f9cabc"/>
      <path id="Path_56502" data-name="Path 56502" d="M2039.609,813.678l.495-7.895-.144-2.306a4.1,4.1,0,0,0-1.134,2.3c-.269,1.885-.954,6.966-1.44,7.167-.684.284-10.444-1.625-11.764-.861,0,0-1.623,8.564,4.088,9.17,8.173.866,9.211-3.769,9.9-7.571" transform="translate(-1912.341 -791.46)" fill="#33192c"/>
      <path id="Path_56503" data-name="Path 56503" d="M2038.814,815.827a.089.089,0,0,0-.1.072l-.817,4.348,1.906.742a.09.09,0,0,0,.117-.051.091.091,0,0,0-.052-.117l-1.767-.688.789-4.2a.09.09,0,0,0-.072-.105" transform="translate(-1921.051 -800.077)" fill="#f07162"/>
      <path id="Path_56504" data-name="Path 56504" d="M2040.408,838.312c-.054-.014-3.547-.278-3.547-.278s.363,1.469,1.661,1.571a2.083,2.083,0,0,0,1.886-1.293" transform="translate(-1920.331 -815.574)" fill="#fbfdfc"/>
      <path id="Path_56505" data-name="Path 56505" d="M1811.351,1072.115c-2.661,1.973-.1,2.559-.1,2.559-1.32,1.206-1.09,1.84-.67,2.159a1.226,1.226,0,0,0,1.086.182c.684-.2,2.185-.648,3.756-1.144h0a128.825,128.825,0,0,1,13.468-.422l3.417-.3s-4.962-9.75-5-9.71c-2.759-.2-5.969-.424-6.756-.485-1.448-.112-6.429,1.128-8,2.277-2.85,2.085-1.19,2.344-1.19,2.344-2.757,2.444-.015,2.537-.015,2.537" transform="translate(-1762.126 -973.913)" fill="#ffe3db"/>
      <path id="Path_56506" data-name="Path 56506" d="M1813.516,1093.457a21.516,21.516,0,0,1,3.161-1.467.175.175,0,0,0-.052-.341.167.167,0,0,0-.055.008,21.35,21.35,0,0,0-3.227,1.5.175.175,0,0,0,.172.3" transform="translate(-1764.302 -992.543)" fill="#f07162"/>
      <path id="Path_56507" data-name="Path 56507" d="M1813.839,1085.794a10.786,10.786,0,0,1,3.054-1.111.174.174,0,0,0-.029-.346.2.2,0,0,0-.033,0,11.005,11.005,0,0,0-3.167,1.152.175.175,0,0,0,.175.3" transform="translate(-1764.526 -987.441)" fill="#f07162"/>
      <path id="Path_56508" data-name="Path 56508" d="M1813.895,1077.431a9.358,9.358,0,0,1,2.664-1.094.174.174,0,0,0-.033-.345.154.154,0,0,0-.037,0,9.528,9.528,0,0,0-2.781,1.141.174.174,0,1,0,.187.294" transform="translate(-1764.561 -981.618)" fill="#f07162"/>
      <path id="Path_56509" data-name="Path 56509" d="M1926.55,1177.042l-.265-.142h0Z" transform="translate(-1843.171 -1052.03)" fill="#1d1d1b"/>
      <path id="Path_56510" data-name="Path 56510" d="M1921.573,1176.568l.264.143-.266-.144h0l-.268-.145c-.074.138-1.824,3.478-1.774,12.238.049,8.639,1.258,35.159,1.872,44.105l.6-.041c-.615-8.94-1.821-35.438-1.87-44.068-.049-8.573,1.684-11.914,1.7-11.946Z" transform="translate(-1838.458 -1051.698)" fill="#1d1d1b"/>
      <path id="Path_56511" data-name="Path 56511" d="M1877.865,1246.289h7.917v-.605h-7.719a47.459,47.459,0,0,1-7.42-6.877l-.468.382a48.45,48.45,0,0,0,7.61,7.041Z" transform="translate(-1804.019 -1095.228)" fill="#1d1d1b"/>
      <path id="Path_56512" data-name="Path 56512" d="M1882.167,1283.5a143.351,143.351,0,0,0,3.993-22.534l.027-.31-.31-.018c-.024,0-2.326-.137-4.307-.4l-.08.6c1.57.21,3.337.339,4.039.386a141.783,141.783,0,0,1-3.945,22.116Z" transform="translate(-1811.915 -1110.182)" fill="#1d1d1b"/>
      <path id="Path_56513" data-name="Path 56513" d="M2009.786,894.97l-10.627,45.892,6.831-1.059,5.674-44.488Z" transform="translate(-1894.023 -855.303)" fill="#fc4963"/>
      <path id="Path_56514" data-name="Path 56514" d="M2036.468,889.031l.378-2.521-1.731-.64-1.887,1.09.092,2.813,1.916.411Z" transform="translate(-1917.797 -848.954)" fill="#fc4963"/>
      <path id="Path_56515" data-name="Path 56515" d="M2032.366,872.877l2.606-.586a21.805,21.805,0,0,0,10.656-5.877l-2.954-6.695L2030.9,865.2l-1.364-3.995-3.325,3.223.757,6.119,3.436-2.782Z" transform="translate(-1912.898 -830.706)" fill="#b5d6fb"/>
      <path id="Path_56516" data-name="Path 56516" d="M1926.644,1009.917c.4-.31,17.445-20.856,17.445-20.856l-2.117-11.966-20.767-4.13-10.629,19.018-48.243,7.67v10.265h56.693s7.223.311,7.619,0" transform="translate(-1798.547 -909.727)" fill="#fff"/>
      <path id="Path_56517" data-name="Path 56517" d="M1909.7,992.112l.115-.018,10.531-19.051-.417-.23-10.418,18.847-48.484,7.752v10.468h.477V999.818Z" transform="translate(-1797.639 -909.621)" fill="#1d1d1b"/>
      <path id="Path_56518" data-name="Path 56518" d="M2061.514,992.675c7.5-11.024,12.7-30.161,12.75-30.353l-.459-.123c-.052.191-5.228,19.252-12.685,30.208-4.865,7.148-15.806,9.809-15.917,9.835l.11.464c.111-.027,11.231-2.729,16.2-10.031" transform="translate(-1926.152 -902.215)" fill="#1d1d1b"/>
      <path id="Path_56519" data-name="Path 56519" d="M1690.857,979.3h-39.585l13.806,35.16h39.585Z" transform="translate(-1651.271 -914.15)"/>
      <path id="Path_56520" data-name="Path 56520" d="M1777.489,979.3h-2.066l13.806,35.16h2.065Z" transform="translate(-1737.902 -914.15)" fill="#1a1a1a"/>
      <path id="Path_56521" data-name="Path 56521" d="M1726.7,1031.9c1.045-.355,1.447-1.952.9-3.567s-1.841-2.637-2.886-2.282-1.447,1.953-.9,3.567,1.841,2.637,2.885,2.282" transform="translate(-1701.723 -946.724)" fill="#fff"/>
      <path id="Path_56522" data-name="Path 56522" d="M1838.515,1087.67a1.42,1.42,0,0,0-1.42-1.42h-14.789v2.84H1837.1a1.419,1.419,0,0,0,1.42-1.42" transform="translate(-1770.617 -988.776)" fill="#1a1a1a"/>
      <rect id="Rectangle_20482" data-name="Rectangle 20482" width="9.342" height="0.445" transform="translate(53.393 98.449)"/>
      <path id="Path_56527" data-name="Path 56527" d="M1995.538,1104.471h-6.6l4.122,131.986h3.3Z" transform="translate(-1886.887 -1001.491)" fill="#4b567a"/>
    </g>
    <path id="Path_56528" data-name="Path 56528" d="M892.818,1104.471,892,1236.457h3.3l4.122-131.986Z" transform="translate(-660.505 -841.361)" fill="#4b567a"/>
    <g id="Group_54898" data-name="Group 54898" transform="translate(48.418 241.233)">
      <path id="Path_56529" data-name="Path 56529" d="M342.6,1273.118v75.713h-21.56a5.448,5.448,0,0,0-5.448,5.448H375.1a5.447,5.447,0,0,0-5.447-5.448H347.515v-75.713Z" transform="translate(-288.084 -1200.274)" stroke="rgba(0,0,0,0)" stroke-width="1"/>
      <path id="Path_56530" data-name="Path 56530" d="M284.571,1106.976c.736.295-15.7-50.452-21.592-68.567a9.16,9.16,0,0,0-8.713-6.328h-24.99a4.7,4.7,0,0,0-4.453,6.186l22.478,67.187s36.374,1.165,37.27,1.523" transform="translate(-224.576 -1032.081)" fill="#ffd3a4"/>
      <path id="Path_56531" data-name="Path 56531" d="M233.293,1032.08h-4.017a4.7,4.7,0,0,0-4.453,6.186l22.653,68.362s36.2-.01,37.1.348c.034.014.031-.085-.007-.286-9.649-.482-33.246-1.237-33.246-1.237l-22.478-67.187a4.7,4.7,0,0,1,4.453-6.186" transform="translate(-224.576 -1032.08)" fill="#fec786"/>
      <path id="Path_56532" data-name="Path 56532" d="M369.055,1269.589a4.032,4.032,0,0,0,0-8.064H303.8a4.03,4.03,0,0,0-4.029,4.03v0a4.03,4.03,0,0,0,4.029,4.03Z" transform="translate(-277.044 -1192.184)" fill="#fec786"/>
    </g>
    <g id="Group_54899" data-name="Group 54899" transform="translate(313.773 101.337)">
      <path id="Path_56533" data-name="Path 56533" d="M1334.994,978.637a52.792,52.792,0,0,0-2.567-5.857l-7.173,4.345s.665,4.128,2.932,6.571,6.873-4.27,6.808-5.059" transform="translate(-1295.77 -850.674)" fill="#ffe3db"/>
      <path id="Path_56534" data-name="Path 56534" d="M1261.888,692.54c-16.736,11.824-32.358,50.75-32.925,52.105-3.753,8.966,28.1,38.94,28.1,38.94,6.276-1.364,13.1-10.369,13.1-10.369L1248.881,746.2l29.105-36.109s-14.8-17.771-16.1-17.554" transform="translate(-1228.365 -655.025)" fill="#164256"/>
      <path id="Path_56535" data-name="Path 56535" d="M1228.655,743.988c2.765-6.735,17.341-40.885,32.733-51.76l-.341-.484c-15.527,10.969-30.164,45.256-32.939,52.018l-.089.214c-3.789,9.052,26.868,38.04,28.175,39.27l.114.107.153-.033c6.31-1.372,12.989-10.109,13.27-10.48l.138-.182-21.546-27.348-5.51,1.519.157.571,5.132-1.414,21.017,26.677c-.992,1.26-7.064,8.722-12.633,10.044-2.087-1.983-31.441-30.091-27.92-38.5Z" transform="translate(-1227.695 -654.471)" fill="#1d1d1b"/>
      <rect id="Rectangle_20484" data-name="Rectangle 20484" width="36.281" height="0.592" transform="translate(20.286 90.938) rotate(-51.13)" fill="#1d1d1b"/>
      <path id="Path_56536" data-name="Path 56536" d="M1375.286,1466.335l-14.231-2.167-.284,18.545,14.291.219Z" transform="translate(-1320.554 -1193.691)" fill="#ffe3db"/>
      <path id="Path_56537" data-name="Path 56537" d="M1523.681,1446.9l-14.622,1.233,3.3,18.193,14.3-3.151Z" transform="translate(-1424.027 -1181.64)" fill="#ffe3db"/>
      <path id="Path_56538" data-name="Path 56538" d="M1348.889,1148.492a37.2,37.2,0,0,0,11.6,1.91,5.447,5.447,0,0,0,5.225-5.065c4.874-43.865,7.192-110.908,7.724-128.048a5.787,5.787,0,0,0-3.377-5.57l-19.658-8.256c-3.139-1.319-6.588.87-7.1,4.5l-.092.659a6.409,6.409,0,0,0-.061.969l1.982,133.468a5.734,5.734,0,0,0,3.759,5.429" transform="translate(-1308.257 -871.946)" fill="#164256"/>
      <path id="Path_56539" data-name="Path 56539" d="M1414.271,1129.328a4.616,4.616,0,0,0,3.82,3.729,36.8,36.8,0,0,0,13.249-.735,4.827,4.827,0,0,0,3.488-5.086c-1.128-18.163-8.1-39.818-10.545-60.667-4.4-37.556-4.662-71.609-4.662-71.609L1379.7,982.151l9.957,31.6,9.287,58.107Z" transform="translate(-1333.763 -857.345)" fill="#1d4c66"/>
      <path id="Path_56540" data-name="Path 56540" d="M1441.42,1233.827a.23.23,0,0,0,.217.177.21.21,0,0,0,.063-.01.251.251,0,0,0,.153-.306l-14.768-55.376-6.923-43.318a.23.23,0,0,0-.261-.2.245.245,0,0,0-.183.285l6.927,43.345,0,.013Z" transform="translate(-1361.684 -963.856)"/>
      <path id="Path_56541" data-name="Path 56541" d="M1516.459,1137.2h.012c.013.084.029.192.048.32,1.307,8.66,3.751,24.385,5.442,32.395a.233.233,0,0,0,.221.192.215.215,0,0,0,.051-.006.249.249,0,0,0,.17-.3c-1.688-8-4.131-23.709-5.437-32.363-.037-.25-.063-.421-.089-.536h0v0c0-.112-.012-.272-.03-.5l-3.388-44.968a.232.232,0,0,0-.244-.226.242.242,0,0,0-.207.267c.034.45,3.39,44.928,3.426,45.47a.137.137,0,0,0,0,.016Z" transform="translate(-1426.781 -933.38)"/>
      <path id="Path_56542" data-name="Path 56542" d="M1345.254,1201.19h0a.238.238,0,0,0,.223-.251l-1.606-108.185a.23.23,0,0,0-.229-.243.237.237,0,0,0-.222.251l1.605,108.184a.237.237,0,0,0,.226.243" transform="translate(-1308.45 -934.353)"/>
      <path id="Path_56543" data-name="Path 56543" d="M1339.156,1521.963a.407.407,0,0,0,.387-.424v-2.076a.594.594,0,0,0-.567-.619h-12.532l-5.081-6.051-9.294,6.051h-2a1.5,1.5,0,0,0-1.452,1.251,1.528,1.528,0,0,0,1.4,1.868Z" transform="translate(-1284.14 -1227.621)" fill="#d6d6d6"/>
      <path id="Path_56544" data-name="Path 56544" d="M1342.236,1508.922s-2.11-3.107-5.324-1.521c0,0-4.86,3.771-9.145-.792l-10.641,5.161s-2.917,1.066-3.707,2.778h28.817Z" transform="translate(-1287.513 -1223.306)" fill="#44393d"/>
      <rect id="Rectangle_20485" data-name="Rectangle 20485" width="0.213" height="5.597" transform="translate(54.618 285.617)"/>
      <path id="Path_56545" data-name="Path 56545" d="M1379.511,1508.913a7.036,7.036,0,0,1-4.924,1.408l-.031.231a4.671,4.671,0,0,0,.66.039,7.388,7.388,0,0,0,4.417-1.486Z" transform="translate(-1330.173 -1224.913)"/>
      <path id="Path_56546" data-name="Path 56546" d="M1401.17,1525.443l-1.359,1,.119.193,1.359-1Z" transform="translate(-1347.796 -1236.448)"/>
      <path id="Path_56547" data-name="Path 56547" d="M1397.944,1524.506l-1.359,1,.119.193,1.359-1Z" transform="translate(-1345.545 -1235.794)"/>
      <path id="Path_56548" data-name="Path 56548" d="M1339.4,1534.92v-1.555a.864.864,0,0,0-.822-.9h-28.813a1.611,1.611,0,0,0-1.533,1.676,1.741,1.741,0,0,0,.542,1.278l.138-.178a1.5,1.5,0,0,1-.466-1.1,1.386,1.386,0,0,1,1.319-1.442h28.813a.639.639,0,0,1,.609.665v1.555Z" transform="translate(-1283.896 -1241.348)"/>
      <path id="Path_56549" data-name="Path 56549" d="M1315.858,1512.08c2.141-1,11.556-5.565,11.652-5.611l-.087-.213c-.094.046-9.508,4.611-11.648,5.609a5.443,5.443,0,0,0-2.786,2.379l.193.1a5.356,5.356,0,0,1,2.677-2.264" transform="translate(-1287.211 -1223.06)"/>
      <path id="Path_56550" data-name="Path 56550" d="M1475.887,1514.667l28-8.813a.43.43,0,0,0,.265-.525l-.524-1.995a.561.561,0,0,0-.7-.424l-12.044,3.79-6.414-4.279-7.4,8.626-1.924.605a1.592,1.592,0,0,0-1.078,1.642,1.444,1.444,0,0,0,1.817,1.372" transform="translate(-1399.609 -1220.384)" fill="#d6d6d6"/>
      <path id="Path_56551" data-name="Path 56551" d="M1498.374,1484.159s-3.717,5.093-8.989,2l-8.92,8.177s-2.534,1.907-2.86,3.79l27.693-8.716-1.423-5.405a4.165,4.165,0,0,0-5.5.149" transform="translate(-1402.08 -1206.838)" fill="#44393d"/>
      <path id="Path_56552" data-name="Path 56552" d="M1564.4,1486.212l-.2.064,1.415,5.379.205-.064Z" transform="translate(-1462.499 -1209.073)"/>
      <path id="Path_56553" data-name="Path 56553" d="M1536.114,1486.715l-.164-.148a7.388,7.388,0,0,1-4.377,2.842l.028.232a4.788,4.788,0,0,0,.645-.162,7.821,7.821,0,0,0,3.869-2.765" transform="translate(-1439.736 -1209.321)"/>
      <path id="Path_56554" data-name="Path 56554" d="M1560.637,1498.413l-1.053,1.375.163.15,1.054-1.374Z" transform="translate(-1459.283 -1217.587)"/>
      <path id="Path_56555" data-name="Path 56555" d="M1557.3,1498.489l-1.052,1.374.163.15,1.052-1.374Z" transform="translate(-1456.955 -1217.639)"/>
      <path id="Path_56556" data-name="Path 56556" d="M1474.893,1512.708l27.688-8.715a.6.6,0,0,1,.753.456l.393,1.494.205-.064-.393-1.495a.816.816,0,0,0-1.017-.615l-27.689,8.714a1.706,1.706,0,0,0-1.049,2.074,1.638,1.638,0,0,0,.845,1.065l.087-.213a1.41,1.41,0,0,1-.726-.916,1.468,1.468,0,0,1,.9-1.786" transform="translate(-1399.37 -1221.299)"/>
      <path id="Path_56557" data-name="Path 56557" d="M1479.354,1502.243c1.806-1.608,9.7-8.843,9.778-8.916l-.137-.179c-.079.073-7.971,7.307-9.775,8.914a5.832,5.832,0,0,0-2.075,3.129l.21.036a5.745,5.745,0,0,1,2-2.984" transform="translate(-1401.758 -1213.913)"/>
      <path id="Path_56558" data-name="Path 56558" d="M1479.8,1044.568l5.024-5.036a.258.258,0,0,0,.016-.339.2.2,0,0,0-.305-.017l-5.025,5.036a.259.259,0,0,0-.016.338.211.211,0,0,0,.14.078.2.2,0,0,0,.166-.061" transform="translate(-1403.362 -896.976)"/>
      <path id="Path_56559" data-name="Path 56559" d="M1479,1056.921l3.792-3.739a.258.258,0,0,0,.018-.338.2.2,0,0,0-.305-.02l-3.792,3.739a.258.258,0,0,0-.018.338.206.206,0,0,0,.141.079.2.2,0,0,0,.163-.059" transform="translate(-1402.804 -906.503)"/>
      <path id="Path_56560" data-name="Path 56560" d="M1386.6,784.538s1.819-86.315,6.64-106.325c0,0-22.011-3.82-34.744-3.274s-25.286,5.275-25.286,5.275-4.548,68.307,0,104.324c0,0,35.381,2.729,53.39,0" transform="translate(-1299.913 -642.707)" fill="#1d4c66"/>
      <path id="Path_56561" data-name="Path 56561" d="M1367.762,720.318c.364.455,28.2-29.924,28.2-29.924l-7.186-1.365,5.64-13.262c-24.921-3.257-34.5,1.424-34.5,1.424l2.755,11.838-6.73,1.91s11.46,28.924,11.824,29.379" transform="translate(-1317.183 -642.519)" fill="#164256"/>
      <path id="Path_56562" data-name="Path 56562" d="M1396.4,700.51a136.067,136.067,0,0,0,14.687-25.82c-17.4-2.225-26.411.56-26.411.56-.3,4.433,1.149,14.974,2.444,23.182.97,6.137,1.851,10.968,1.851,10.968a87.9,87.9,0,0,0,7.428-8.89" transform="translate(-1337.205 -641.969)" fill="#fff"/>
      <path id="Path_56563" data-name="Path 56563" d="M1388.877,613.716a12.748,12.748,0,0,0,3.921.177,7.848,7.848,0,0,0,7-6.112c.2-1.8-1.892-10.087-1.892-10.087l-.31-4.149-2.285-15.956-16.246,6.134,1.521,13.888s.319,4.716,4.466,4.856l-.076,6.347a4.919,4.919,0,0,0,3.9,4.9" transform="translate(-1333.32 -574.816)" fill="#ffe3db"/>
      <path id="Path_56564" data-name="Path 56564" d="M1378.889,578.7l1.9-1.818a11.086,11.086,0,0,1,4.6-1.871,14.79,14.79,0,0,1,5.24-.146c.51,1.151,1.078,3.482,1.142,8.186.005.391.018.727.035,1.026l1.327.061c.621-1.8,1.3-4.665,1.661-6.288a8.217,8.217,0,0,1,.737,2.048s2.483-6.944-1.68-10.259c-2.078-1.654-8.694-2-13.026,1.3v-.005a6.365,6.365,0,0,0-2.57,8.376l.063-.06c-.014.124-.025.248-.029.372a5.847,5.847,0,0,1,.6-.922" transform="translate(-1332.288 -568.409)"/>
      <path id="Path_56565" data-name="Path 56565" d="M1435.045,584.111c1.31-9.735-3.651-11.644-3.651-11.644l1.823,5.822-.928,5.226Z" transform="translate(-1369.834 -571.241)"/>
      <path id="Path_56566" data-name="Path 56566" d="M1400.716,606.531c2.278-1.634,4.5.933,4.594,1.043a.2.2,0,0,0,.137.069.192.192,0,0,0,.138-.047.2.2,0,0,0,.022-.277c-.025-.03-2.547-2.952-5.118-1.108a.2.2,0,0,0-.046.274.2.2,0,0,0,.273.046" transform="translate(-1348.212 -594.361)" fill="#21111d"/>
      <path id="Path_56567" data-name="Path 56567" d="M1382.341,613.378c.353-1.168,2.535-.849,2.557-.846a.19.19,0,0,0,.134-.028.193.193,0,0,0,.088-.137.2.2,0,0,0-.166-.224c-.1-.016-2.538-.373-2.989,1.118a.2.2,0,0,0,.131.246.194.194,0,0,0,.244-.13" transform="translate(-1335.337 -598.893)" fill="#21111d"/>
      <path id="Path_56568" data-name="Path 56568" d="M1406.773,619.836a.591.591,0,1,0-.648-.523.589.589,0,0,0,.648.523" transform="translate(-1352.198 -603.472)"/>
      <path id="Path_56569" data-name="Path 56569" d="M1386.049,620.141a.59.59,0,1,0-.648-.523.588.588,0,0,0,.648.523" transform="translate(-1337.738 -603.685)"/>
      <path id="Path_56570" data-name="Path 56570" d="M1432.554,613.107a3.542,3.542,0,1,0-3.884-3.138,3.531,3.531,0,0,0,3.884,3.138" transform="translate(-1367.916 -594.67)" fill="#ffe3db"/>
      <path id="Path_56571" data-name="Path 56571" d="M1437.533,612.135a2.193,2.193,0,0,1,1.542-.271.1.1,0,0,0,.042-.192,2.356,2.356,0,0,0-1.694.3,1.911,1.911,0,0,0-.752,1.381l-.047.35.221-.275a1.525,1.525,0,0,1,1.824-.438,1.207,1.207,0,0,1,.62,1.337,1.263,1.263,0,0,1-1.08,1.088l-.02,0a.1.1,0,0,0,.02.2l.021,0a1.469,1.469,0,0,0,1.252-1.249,1.391,1.391,0,0,0-.728-1.549,1.647,1.647,0,0,0-1.83.266,1.6,1.6,0,0,1,.611-.944" transform="translate(-1373.482 -598.567)" fill="#f07162"/>
      <path id="Path_56572" data-name="Path 56572" d="M1393.666,616.761a.1.1,0,0,0-.1.1l-.115,4.845,2.179.469a.086.086,0,0,0,.031,0,.1.1,0,0,0,.009-.194l-2.019-.435.11-4.682a.1.1,0,0,0-.1-.1" transform="translate(-1343.359 -602.148)" fill="#f07162"/>
      <path id="Path_56573" data-name="Path 56573" d="M1388.946,589.261c-3.527-.1-9.676,2.391-9.745,3.031a28.968,28.968,0,0,0,.382,3.475s6.417-1.828,6.495-1.837,6.395-4.573,2.868-4.669" transform="translate(-1333.41 -582.957)" fill="#ffe3db"/>
      <path id="Path_56574" data-name="Path 56574" d="M1418.64,582.866l.354,1.423,2.663-4.915Z" transform="translate(-1360.934 -576.06)" fill="#ffe3db"/>
      <path id="Path_56575" data-name="Path 56575" d="M1425.321,591.88l-.7,8.568,2.622.121,1.1-4.3a13.094,13.094,0,0,1,.47-2.388c.514-2.2-3.5-2-3.5-2" transform="translate(-1365.11 -584.784)"/>
      <path id="Path_56576" data-name="Path 56576" d="M1408.268,640.086c-2.169,6.8-9.459,5.991-9.459,5.991l-.03,2.487c9.505.591,9.489-8.478,9.489-8.478" transform="translate(-1347.074 -618.425)" fill="#f9cabc"/>
      <path id="Path_56577" data-name="Path 56577" d="M1399.486,636.485a2.973,2.973,0,0,1-.4-.024l.047-.3a2.654,2.654,0,0,0,2.924-1.659l.285.1a2.849,2.849,0,0,1-2.855,1.881" transform="translate(-1347.288 -614.53)" fill="#f07162"/>
      <path id="Path_56578" data-name="Path 56578" d="M1409.707,697.3l-2.443-2.816-2.12,2.8s1,2.378,1.854,2.448c1.1.09,2.709-2.429,2.709-2.429" transform="translate(-1351.517 -656.383)" fill="#ed3b5e"/>
      <path id="Path_56579" data-name="Path 56579" d="M1400.036,679.576c2.377-3.149,9.938-14.232,9.938-14.232a60.651,60.651,0,0,1-4.325-4.361c-2.29,6.559-10.451,10.03-10.451,10.03-1.668-.863-3.583-6.209-3.583-6.209s-3.072,5.141-3.137,6.728,2.551,7.552,2.551,7.552l4.31-6.544Z" transform="translate(-1339.887 -633.006)" fill="#a5efed"/>
      <path id="Path_56580" data-name="Path 56580" d="M1389.979,818.422c-.038.428-3.694,43.062-.412,67.233l.587-.08c-3.272-24.106.379-66.674.416-67.1Z" transform="translate(-1339.695 -742.942)" fill="#280f22"/>
      <path id="Path_56581" data-name="Path 56581" d="M1399.532,704.376l-1.983-1.209-4.7,15.738c.97,6.137,1.852,10.968,1.852,10.968a87.964,87.964,0,0,0,7.428-8.89Z" transform="translate(-1342.939 -662.442)" fill="#ed3b5e"/>
      <path id="Path_56582" data-name="Path 56582" d="M1466.12,966.409a1.455,1.455,0,0,0,1.814-.161,5.434,5.434,0,0,1,2.178-1.432c.661-.066,2.746.454,4.786.7a9.536,9.536,0,0,1,1.8.112l.1.014a.045.045,0,0,0,.017,0,2.541,2.541,0,0,0,.457-.017s0,0,.005,0c1.889-.2,9.226-3.453,11.859-4.521l-7.674-9.043c-.448.158-9.044,1.138-9.044,1.138s-6.7,2.065-7.149,2.318a11.125,11.125,0,0,0-2.8,3.663,1.471,1.471,0,0,0,.639,1.761c-1.164,2.422.928,2.511.928,2.511-.336,1.643,1.565,1.744,1.565,1.744a1.272,1.272,0,0,0,.524,1.215" transform="translate(-1391.456 -836.212)" fill="#ffe3db"/>
      <path id="Path_56583" data-name="Path 56583" d="M1464.519,971.765a39.642,39.642,0,0,1,2.9-3.094,12.889,12.889,0,0,1,2.2-.933.168.168,0,0,0,.093-.076.161.161,0,0,0-.193-.232,12.745,12.745,0,0,0-2.285.978c-.566.4-2.859,3.034-2.956,3.146a.163.163,0,0,0,.016.23.165.165,0,0,0,.231-.019" transform="translate(-1392.749 -846.931)" fill="#f07162"/>
      <path id="Path_56584" data-name="Path 56584" d="M1467.578,981.344a35.515,35.515,0,0,1,2.994-2.647,11.548,11.548,0,0,1,2.037-.843.17.17,0,0,0,.1-.078.162.162,0,0,0-.19-.234,11.683,11.683,0,0,0-2.113.878,34.606,34.606,0,0,0-3.053,2.693.162.162,0,0,0,0,.23.165.165,0,0,0,.233,0" transform="translate(-1394.889 -853.99)" fill="#f07162"/>
      <path id="Path_56585" data-name="Path 56585" d="M1472.759,988.142a22.763,22.763,0,0,1,2.653-2.38,7.957,7.957,0,0,1,1.635-.657.163.163,0,0,0,.1-.079.161.161,0,0,0-.182-.235,8.148,8.148,0,0,0-1.713.69,22.24,22.24,0,0,0-2.729,2.438.162.162,0,0,0,0,.23.166.166,0,0,0,.233-.006" transform="translate(-1398.502 -859.051)" fill="#f07162"/>
      <path id="Path_56586" data-name="Path 56586" d="M1504.164,776.937s31.858-29.974,28.1-38.94c-.567-1.355-16.19-40.281-32.925-52.105-1.3-.217-16.1,17.554-16.1,17.554l29.106,36.109-21.283,27.013s6.822,9,13.1,10.369" transform="translate(-1406.014 -650.386)" fill="#1d4c66"/>
      <path id="Path_56587" data-name="Path 56587" d="M1534.789,740.753l.157-.571-5.51-1.519-21.547,27.348.138.182c.281.371,6.96,9.108,13.271,10.48l.152.033.114-.107c1.307-1.23,31.964-30.218,28.175-39.27l-.088-.214c-2.776-6.762-17.413-41.049-32.94-52.019l-.342.484c15.392,10.875,29.967,45.024,32.733,51.76l.09.218c3.521,8.411-25.833,36.519-27.92,38.5-5.569-1.322-11.64-8.784-12.633-10.044l21.018-26.677Z" transform="translate(-1423.21 -649.832)" fill="#1d1d1b"/>
      <rect id="Rectangle_20486" data-name="Rectangle 20486" width="0.592" height="36.281" transform="translate(83.328 61.063) rotate(-38.911)" fill="#1d1d1b"/>
      <rect id="Rectangle_20487" data-name="Rectangle 20487" width="44.569" height="0.592" transform="matrix(0.048, -0.999, 0.999, 0.048, 87.238, 112.954)" fill="#1d1d1b"/>
      <path id="Path_56588" data-name="Path 56588" d="M1331.824,743.212c-.017.295-1.66,29.623-1.613,41.675l.593,0c-.047-12.034,1.594-41.345,1.611-41.639Z" transform="translate(-1299.23 -690.433)" fill="#1d1d1b"/>
    </g>
    <rect id="Rectangle_20488" data-name="Rectangle 20488" width="326.331" height="9.761" transform="translate(211.85 260.582)" fill="#057ca4"/>
    <rect id="Rectangle_20527" data-name="Rectangle 20527" width="551.999" height="1.998" transform="translate(48.418 395.34)"/>
    <path id="Path_56646" data-name="Path 56646" d="M1398.779,640.086c2.169,6.8,9.459,5.991,9.459,5.991l.03,2.487c-9.5.591-9.488-8.478-9.488-8.478" transform="translate(-1027.18 -754.639) rotate(11)" fill="#f9cabc"/>
  </g>
</svg>
