<svg xmlns="http://www.w3.org/2000/svg" width="17" height="17" viewBox="0 0 17 17">
  <g id="twitter" transform="translate(-17711.998 -9529)">
    <rect id="bg" width="17" height="17" transform="translate(17711.998 9529)" fill="#04bab8" opacity="0"/>
    <path id="twitter-2" data-name="twitter" d="M16.965,3.919a7.008,7.008,0,0,1-2,.557A3.551,3.551,0,0,0,16.5,2.519a7.138,7.138,0,0,1-2.215.85,3.45,3.45,0,0,0-4.185-.7A3.549,3.549,0,0,0,8.343,6.583,9.827,9.827,0,0,1,1.161,2.9,3.5,3.5,0,0,0,.689,4.68a3.546,3.546,0,0,0,1.55,2.94A3.437,3.437,0,0,1,.662,7.179v.043a3.523,3.523,0,0,0,2.8,3.465,3.492,3.492,0,0,1-1.567.061A3.5,3.5,0,0,0,5.15,13.2,6.928,6.928,0,0,1,.829,14.709,7.3,7.3,0,0,1,0,14.664,9.814,9.814,0,0,0,5.352,16.25a9.775,9.775,0,0,0,7.028-2.919A10.048,10.048,0,0,0,15.266,6.21c0-.151,0-.3-.011-.452A7.09,7.09,0,0,0,17,3.929Z" transform="translate(17712 9528.249)" fill="#04bab8"/>
  </g>
</svg>
