<?xml version="1.0" encoding="utf-8"?>
<!-- Generator: Adobe Illustrator 24.3.0, SVG Export Plug-In . SVG Version: 6.00 Build 0)  -->
<svg version="1.1" id="Layer_1" xmlns="http://www.w3.org/2000/svg" xmlns:xlink="http://www.w3.org/1999/xlink" x="0px" y="0px"
	 viewBox="0 0 32 32" style="enable-background:new 0 0 32 32;" xml:space="preserve">
<style type="text/css">
	.st0{fill:#4C70B8;}
	.st1{fill:#FFFFFF;}
</style>
<rect class="st0" width="32" height="32"/>
<path class="st1" d="M23,15.3c0,0.8-0.1,1.6-0.3,2.3c-0.2,0.7-0.6,1.3-1,1.7c-0.5,0.5-1.1,0.9-1.7,1.1c-0.7,0.3-1.5,0.4-2.2,0.4
	c-0.6,0-1.1-0.1-1.7-0.3c-0.4-0.2-0.9-0.4-1.3-0.7v6.9H9.4V12l4.8-1.8l0.5,1.3c0.2-0.2,0.4-0.4,0.6-0.5c0.2-0.2,0.5-0.3,0.8-0.5
	c0.3-0.2,0.6-0.3,0.9-0.3c0.3-0.1,0.7-0.1,1-0.1c0.6,0,1.3,0.1,1.9,0.3c0.6,0.2,1.1,0.6,1.6,1c0.5,0.5,0.8,1.1,1,1.7
	C22.9,13.7,23,14.5,23,15.3z M17.9,15.5c0-0.5,0-1-0.2-1.5c-0.1-0.4-0.2-0.7-0.4-1.1c-0.2-0.3-0.4-0.5-0.6-0.6
	c-0.3-0.1-0.5-0.2-0.8-0.2c-0.2,0-0.4,0.1-0.6,0.1c-0.2,0.1-0.4,0.2-0.6,0.4v5.8c0.2,0.1,0.3,0.3,0.5,0.3c0.2,0.1,0.4,0.1,0.6,0.1
	c0.3,0,0.6-0.1,0.9-0.2c0.3-0.2,0.5-0.4,0.7-0.6c0.2-0.3,0.4-0.7,0.5-1.1C17.9,16.5,17.9,16,17.9,15.5z"/>
</svg>
