<svg id="check" xmlns="http://www.w3.org/2000/svg" width="16" height="16" viewBox="0 0 16 16">
  <circle id="Ellipse_24" data-name="Ellipse 24" cx="8" cy="8" r="8" transform="translate(0 0)" fill="#04bab8"/>
  <path id="Path_45434" data-name="Path 45434" d="M188.8,158.814l4.114,4.114a8,8,0,0,0,5.931-7.722v-.227L195.614,152Z" transform="translate(-182.844 -147.205)" fill="#111" opacity="0.1"/>
  <path id="Path_45435" data-name="Path 45435" d="M656.267-7007.262l-3.017-3.17a.957.957,0,0,1,0-1.287l.689-.719a.862.862,0,0,1,1.235,0l1.707,1.793,3.947-4.1a.862.862,0,0,1,1.235,0l.689.719a.954.954,0,0,1,0,1.287l-4.461,4.629a.869.869,0,0,1-.1.125l-.689.718a.854.854,0,0,1-.618.26A.85.85,0,0,1,656.267-7007.262Z" transform="translate(-650.001 7019.001)" fill="#fff"/>
</svg>
