<svg xmlns="http://www.w3.org/2000/svg" width="352" height="91" viewBox="0 0 352 91">
  <g id="Group_50" data-name="Group 50" transform="translate(-175 -4711)">
    <rect id="Rectangle_51" data-name="Rectangle 51" width="352" height="91" rx="5" transform="translate(175 4711)" fill="#82bcf4" opacity="0.1"/>
    <text id="_100_free_no_credit_card_required" data-name="100% free, no credit card required" transform="translate(190 4783)" font-size="16" font-family="SegoeUI, Segoe UI"><tspan x="0" y="0">100% free, no credit card required</tspan></text>
    <g id="svgexport-17" transform="translate(189 4721.009)">
      <g id="Credit_Card_Blocked" data-name="Credit Card Blocked" transform="translate(1 4.991)">
        <path id="Path_45118" data-name="Path 45118" d="M33.155,7.307c0,20.206.046,18.638-.1,19.122a2.3,2.3,0,0,1-2.2,1.638H3.3A2.3,2.3,0,0,1,1,25.76V7.307A2.3,2.3,0,0,1,3.3,5H30.859A2.3,2.3,0,0,1,33.155,7.307Z" transform="translate(-1 -4.993)" fill="#6fabe6"/>
        <path id="Path_45119" data-name="Path 45119" d="M33.847,7.3c0,19.307.046,17.869-.1,18.353-.49.146,1.63.1-27.453.1A2.3,2.3,0,0,1,4,23.451C4,4.144,3.952,5.582,4.1,5.1c.49-.146-1.63-.1,27.453-.1A2.3,2.3,0,0,1,33.847,7.3Z" transform="translate(-1.691 -4.991)" fill="#82bcf4"/>
        <path id="Path_45120" data-name="Path 45120" d="M1,11H33.155v3.844H1Z" transform="translate(-1 -6.38)" fill="#374f68"/>
        <path id="Path_45121" data-name="Path 45121" d="M33.849,11v2.307H6.3A2.3,2.3,0,0,1,4,11Z" transform="translate(-1.693 -6.38)" fill="#425b72"/>
        <path id="Path_45122" data-name="Path 45122" d="M5,21H20.378v3.076H5Z" transform="translate(-1.924 -8.691)" fill="#dad7e5"/>
        <g id="Group_17" data-name="Group 17" transform="translate(2.307 12.309)">
          <path id="Path_45123" data-name="Path 45123" d="M20.147,21v1.538H8.613A1.538,1.538,0,0,1,7.076,21Zm-12.3,8.458H4.769a.769.769,0,0,1,0-1.538H7.844a.769.769,0,0,1,0,1.538Zm6.151,0H10.92a.769.769,0,0,1,0-1.538H14a.769.769,0,0,1,0,1.538Zm6.151,0H17.071a.769.769,0,0,1,0-1.538h3.076a.769.769,0,0,1,0,1.538Z" transform="translate(-4 -21)" fill="#edebf2"/>
        </g>
        <path id="Path_45124" data-name="Path 45124" d="M43.3,33.147a6.043,6.043,0,0,1-1.107,3.506A6.151,6.151,0,1,1,43.3,33.147Z" transform="translate(-8.071 -10.073)" fill="#dad7e5"/>
        <path id="Path_45125" data-name="Path 45125" d="M43.172,36.223a6.158,6.158,0,0,1-8.381-8.381C40.143,24.69,46.294,30.841,43.172,36.223Z" transform="translate(-8.756 -10.074)" fill="#edebf2"/>
        <path id="Path_45126" data-name="Path 45126" d="M41.825,28.043C37.781,23.745,30,26.59,30,32.918a6.92,6.92,0,1,0,11.825-4.875Zm-4.906-.507a5.382,5.382,0,0,1,3.214,1.076l-7.52,7.52a5.382,5.382,0,0,1,4.306-8.6Zm0,10.764a5.382,5.382,0,0,1-3.214-1.076l7.52-7.52a5.382,5.382,0,0,1-4.306,8.6Z" transform="translate(-7.84 -9.844)" fill="#f26674"/>
      </g>
    </g>
  </g>
</svg>
