<svg xmlns="http://www.w3.org/2000/svg" width="352" height="91" viewBox="0 0 352 91">
  <g id="Group_49" data-name="Group 49" transform="translate(-341 -4822)">
    <rect id="Rectangle_52" data-name="Rectangle 52" width="352" height="91" rx="5" transform="translate(341 4822)" fill="#f26674" opacity="0.1"/>
    <text id="Supported_by_nonprofits" data-name="Supported by nonprofits" transform="translate(356 4894)" font-size="16" font-family="SegoeUI, Segoe UI"><tspan x="0" y="0">Supported by nonprofits</tspan></text>
    <g id="svgexport-6_6_" data-name="svgexport-6 (6)" transform="translate(355.743 4772.159)">
      <path id="Path_45128" data-name="Path 45128" d="M1034.882,505.166h-.12c-1.761-.46-2.521-.8-4.7-1.24a.462.462,0,0,1-.36-.54c.1-.42.18-.86.24-1.28.38-2.2.74-4.3,2.881-5.462a14.621,14.621,0,0,0,2-1.46c1.6-1.3,3.361-2.741,4.8-1.981,1.36-5.162,2.281-5.182,2.621-5.2.24,0,.64.1.84.78.6,1.981-.68,9.923-6.3,13.484-1.04.66-1.06.74-1.22,1.581-.06.26-.12.58-.24,1A.434.434,0,0,1,1034.882,505.166Z" transform="translate(-1008.841 -416.327)" fill="#ffc39c"/>
      <path id="Path_45129" data-name="Path 45129" d="M1327.4,737.06a2.1,2.1,0,0,1,.46.16l.06-.22c.16.18.34.36.38.42a.582.582,0,0,1-.1.84l-4.081,2.781a.178.178,0,0,1-.26-.06.2.2,0,0,1,.04-.28l4.081-2.761c.1-.06.06-.22,0-.3-.02-.02-.02-.04-.04-.04Z" transform="translate(-1297.083 -660.345)" fill="#ff9e7e"/>
      <path id="Path_45130" data-name="Path 45130" d="M958,1232.443a.253.253,0,0,1-.12-.02L951.3,1230.7a.487.487,0,0,1-.28-.2.458.458,0,0,1-.04-.36l.64-2.5a.472.472,0,0,1,.56-.32l6.582,1.72a.414.414,0,0,1,.28.2.577.577,0,0,1,.06.36l-.66,2.5A.468.468,0,0,1,958,1232.443Z" transform="translate(-931.682 -1140.843)" fill="#f5f5f5"/>
      <path id="Path_45131" data-name="Path 45131" d="M884.757,1349.363h-.12l-7.9-2.181a.413.413,0,0,1-.28-.2.565.565,0,0,1-.04-.36l.82-2.981a.462.462,0,0,1,.56-.32l7.9,2.161a.518.518,0,0,1,.28.22.4.4,0,0,1,.04.34l-.82,3A.434.434,0,0,1,884.757,1349.363Z" transform="translate(-858.616 -1254.522)" fill="#5c9cee"/>
      <path id="Path_45132" data-name="Path 45132" d="M1111.454,1486.993l-.1.4-4.4-1.18a.229.229,0,0,1-.14-.26.217.217,0,0,1,.24-.14Z" transform="translate(-1084.413 -1394.172)" fill="#4b7ec1"/>
      <path id="Path_45133" data-name="Path 45133" d="M8.595,505.166h.12c1.781-.46,2.541-.8,4.7-1.24a.435.435,0,0,0,.36-.54c-.08-.42-.16-.86-.22-1.28-.38-2.2-.74-4.3-2.9-5.462a14.558,14.558,0,0,1-1.981-1.46c-1.6-1.3-3.381-2.741-4.8-1.981-1.36-5.162-2.281-5.182-2.641-5.2-.22,0-.62.1-.84.78-.6,1.981.68,9.923,6.322,13.484,1.04.66,1.06.74,1.22,1.581.06.26.12.58.22,1A.45.45,0,0,0,8.595,505.166Z" transform="translate(0 -416.327)" fill="#ffc39c"/>
      <path id="Path_45134" data-name="Path 45134" d="M153.191,737.06a1.946,1.946,0,0,0-.44.16l-.06-.22a5.675,5.675,0,0,0-.4.42.6.6,0,0,0,.12.84l4.061,2.781a.2.2,0,0,0,.28-.06.2.2,0,0,0-.06-.28l-4.061-2.761c-.1-.06-.06-.22,0-.3a.07.07,0,0,1,.02-.04Z" transform="translate(-148.878 -660.345)" fill="#ff9e7e"/>
      <path id="Path_45135" data-name="Path 45135" d="M349.556,1232.443a.254.254,0,0,0,.12-.02l6.582-1.721a.487.487,0,0,0,.28-.2.459.459,0,0,0,.04-.36l-.66-2.5a.453.453,0,0,0-.56-.32l-6.582,1.72a.425.425,0,0,0-.26.2.468.468,0,0,0-.06.36l.66,2.5A.469.469,0,0,0,349.556,1232.443Z" transform="translate(-341.221 -1140.843)" fill="#f5f5f5"/>
      <path id="Path_45136" data-name="Path 45136" d="M349.893,1349.363h.12l7.923-2.181a.424.424,0,0,0,.26-.2.459.459,0,0,0,.04-.36l-.8-2.981a.472.472,0,0,0-.56-.32l-7.923,2.161a.554.554,0,0,0-.26.22.5.5,0,0,0-.06.34l.82,3A.45.45,0,0,0,349.893,1349.363Z" transform="translate(-341.398 -1254.522)" fill="#5c9cee"/>
      <path id="Path_45137" data-name="Path 45137" d="M367,1486.993l.12.4,4.381-1.18a.206.206,0,0,0-.1-.4Z" transform="translate(-359.406 -1394.172)" fill="#4b7ec1"/>
      <g id="icon_2_" data-name="icon (2)" transform="translate(9.143 64.841)">
        <path id="Path_45127" data-name="Path 45127" d="M637.485,667.917a.467.467,0,0,1-.514,0c-1.548-1.005-5.141-3.552-6.869-6.521a.958.958,0,0,0-.1-.171,6.274,6.274,0,0,1-.865-2.842,3.888,3.888,0,0,1,3.8-3.933,3.779,3.779,0,0,1,3.425,2.157.952.952,0,0,0,1.714,0,3.783,3.783,0,0,1,3.736-2.144,3.858,3.858,0,0,1,3.493,3.936,6.276,6.276,0,0,1-.856,2.813.939.939,0,0,0-.087.154c-1.721,2.983-5.333,5.544-6.886,6.553Z" transform="translate(-629.14 -654.449)" fill="#f26674"/>
      </g>
    </g>
  </g>
</svg>
