<svg xmlns="http://www.w3.org/2000/svg" width="352" height="91" viewBox="0 0 352 91">
  <g id="Group_48" data-name="Group 48" transform="translate(-225 -4933)">
    <rect id="Rectangle_53" data-name="Rectangle 53" width="352" height="91" rx="5" transform="translate(225 4933)" fill="#00aa63" opacity="0.1"/>
    <text id="We_never_sell_your_personal_data" data-name="We never sell your personal data" transform="translate(240 5005)" font-size="16" font-family="SegoeUI, Segoe UI"><tspan x="0" y="0">We never sell your personal data</tspan></text>
    <g id="safty" transform="translate(239.5 4948)">
      <path id="Path_45138" data-name="Path 45138" d="M25.127,20.034a15.109,15.109,0,0,1-3.689,5.647,19.383,19.383,0,0,1-7.21,4.2,2.241,2.241,0,0,1-.7.122H13.5a2.28,2.28,0,0,1-.43-.042,2.353,2.353,0,0,1-.3-.079,19.38,19.38,0,0,1-7.218-4.2,15.079,15.079,0,0,1-3.689-5.646C.378,16.065.462,11.688.531,8.17V8.116c.014-.29.023-.6.027-.932A3.205,3.205,0,0,1,3.606,4.069,12.668,12.668,0,0,0,12.153.529l.02-.018a1.981,1.981,0,0,1,2.655,0l.02.018a12.669,12.669,0,0,0,8.547,3.54,3.205,3.205,0,0,1,3.047,3.115c0,.339.014.644.027.933v.023c.068,3.524.152,7.91-1.343,11.9Zm0,0" transform="translate(0 0)" fill="#00dd80"/>
      <path id="Path_45139" data-name="Path 45139" d="M230.347,20.038a15.136,15.136,0,0,1-3.625,5.647,18.976,18.976,0,0,1-7.085,4.2,2.168,2.168,0,0,1-.688.122V0a1.925,1.925,0,0,1,1.279.51l.019.018a12.34,12.34,0,0,0,8.4,3.54,3.18,3.18,0,0,1,2.994,3.115c0,.339.013.644.027.933v.023C231.734,11.667,231.817,16.053,230.347,20.038Zm0,0" transform="translate(-205.196 -0.003)" fill="#00aa63"/>
      <path id="Path_45140" data-name="Path 45140" d="M106.3,135.875a7.6,7.6,0,0,1-7.676,7.477H98.6a7.48,7.48,0,1,1,0-14.954h.027A7.6,7.6,0,0,1,106.3,135.875Zm0,0" transform="translate(-85.098 -120.874)" fill="#fff"/>
      <path id="Path_45141" data-name="Path 45141" d="M226.4,135.875a7.486,7.486,0,0,1-7.45,7.477V128.4A7.486,7.486,0,0,1,226.4,135.875Zm0,0" transform="translate(-205.329 -120.874)" fill="#e1ebf0"/>
      <path id="Path_45142" data-name="Path 45142" d="M161.34,213.482l-3.367,3.368-.728.728a.881.881,0,0,1-1.245,0l-1.564-1.565a.88.88,0,0,1,1.245-1.245l.943.943,3.473-3.473a.88.88,0,1,1,1.245,1.245Zm0,0" transform="translate(-144.448 -199.558)" fill="#b4d2d7"/>
      <path id="Path_45143" data-name="Path 45143" d="M222.316,213.482l-3.367,3.368v-2.49l2.123-2.122a.88.88,0,0,1,1.245,1.245Zm0,0" transform="translate(-205.385 -199.559)" fill="#6fa5aa"/>
    </g>
  </g>
</svg>
