<svg xmlns="http://www.w3.org/2000/svg" width="14" height="14" viewBox="0 0 14 14">
  <g id="add" transform="translate(-1150.254 -3491.25)">
    <path id="icon" d="M-1464.146-2206.135v-4.244h-4.215a1.385,1.385,0,0,1-1.385-1.386,1.387,1.387,0,0,1,1.385-1.385h4.215v-4.214a1.387,1.387,0,0,1,1.385-1.386,1.387,1.387,0,0,1,1.386,1.385v4.215h4.243a1.387,1.387,0,0,1,1.386,1.385,1.387,1.387,0,0,1-1.386,1.386h-4.243v4.243a1.388,1.388,0,0,1-1.386,1.386A1.387,1.387,0,0,1-1464.146-2206.135Z" transform="translate(2620 5710)" fill="#04bab8"/>
  </g>
</svg>
