<svg xmlns="http://www.w3.org/2000/svg" xmlns:xlink="http://www.w3.org/1999/xlink" width="560" height="375" viewBox="0 0 560 375">
  <defs>
    <clipPath id="clip-path">
      <rect id="Rectangle_20463" data-name="Rectangle 20463" width="124.364" height="35.349" fill="#d1f4ff"/>
    </clipPath>
    <clipPath id="clip-path-2">
      <rect id="Rectangle_20466" data-name="Rectangle 20466" width="63.934" height="123.267" fill="#04bab8"/>
    </clipPath>
    <clipPath id="clip-path-3">
      <rect id="Rectangle_20467" data-name="Rectangle 20467" width="108.422" height="62.224" fill="#fff"/>
    </clipPath>
    <clipPath id="clip-path-4">
      <rect id="Rectangle_20468" data-name="Rectangle 20468" width="6.139" height="6.617" fill="none"/>
    </clipPath>
    <clipPath id="clip-path-5">
      <rect id="Rectangle_20469" data-name="Rectangle 20469" width="6.14" height="6.618" fill="none"/>
    </clipPath>
    <linearGradient id="linear-gradient" x1="0.5" x2="0.5" y2="1" gradientUnits="objectBoundingBox">
      <stop offset="0" stop-color="#087fa7"/>
      <stop offset="1" stop-color="#219bc0"/>
    </linearGradient>
  </defs>
  <g id="Group_54892" data-name="Group 54892" transform="translate(-213.275 -315.737)">
    <path id="Path_56296" data-name="Path 56296" d="M740.4,1363.523c0,19.372-104.622,35.076-233.679,35.076s-233.68-15.7-233.68-35.076,104.622-35.076,233.68-35.076,233.679,15.7,233.679,35.076" transform="translate(-5.843 -707.862)" fill="#04bab8" opacity="0.1"/>
    <g id="Group_54865" data-name="Group 54865" transform="translate(321.999 315.737)">
      <g id="Group_54864" data-name="Group 54864">
        <g id="Group_54863" data-name="Group 54863" clip-path="url(#clip-path)">
          <path id="Path_56261" data-name="Path 56261" d="M434.706,187.418c-67.1-.453-37.732-31.005-27.192-30.683s11.505,11.259,19.226,6.112,14.8-16.085,25.414-7.72-6.755,18.015,9.651,19.3,24.449-11.581,30.239-.965,9.651,4.182,18.337,4.825,8.042,9.13-2.9,9.13-69.975.019-72.779,0" transform="translate(-391.987 -152.077)" fill="#d1f4ff"/>
        </g>
      </g>
    </g>
    <g id="Group_54868" data-name="Group 54868" transform="translate(630.853 391.957)">
      <g id="Group_54867" data-name="Group 54867" transform="translate(0 0)">
        <g id="Group_54891" data-name="Group 54891">
          <path id="Path_56262" data-name="Path 56262" d="M1592.1,589.688c-67.1-.453-37.732-31-27.192-30.683s11.505,11.259,19.226,6.112,14.8-16.085,25.414-7.72-6.756,18.015,9.65,19.3,24.449-11.581,30.239-.965,9.651,4.182,18.337,4.826,8.042,9.13-2.9,9.13-69.975.019-72.779,0" transform="translate(-1549.381 -554.346)" fill="#d1f4ff"/>
        </g>
      </g>
    </g>
    <g id="Group_54871" data-name="Group 54871" transform="translate(213.275 403.65)">
      <g id="Group_54870" data-name="Group 54870" transform="translate(0 0)">
        <g id="Group_54890" data-name="Group 54890">
          <path id="Path_56263" data-name="Path 56263" d="M42.719,810.279c-67.1-.454-37.732-31.005-27.192-30.684s11.505,11.259,19.226,6.112,14.8-16.085,25.414-7.72S53.41,796,69.817,797.288s24.449-11.581,30.239-.965,9.651,4.182,18.337,4.826,8.042,9.13-2.9,9.13-69.975.019-72.779,0" transform="translate(0 -774.936)" fill="#d1f4ff"/>
        </g>
      </g>
    </g>
    <path id="Path_56264" data-name="Path 56264" d="M443.792,587.824c-2.766,1.975-4.215,1.684-4.99.6s-.579-2.55,2.186-4.524c5.038-3.6,8.873-3.374,8.873-3.374s-.96,3.649-6.07,7.3" transform="translate(-126.575 -163.351)" fill="#09a7a1"/>
    <path id="Path_56265" data-name="Path 56265" d="M450.547,664.886c-1.977,2.764-3.444,2.957-4.527,2.182s-1.373-2.226.6-4.989c3.6-5.034,7.3-6.064,7.3-6.064s.273,3.763-3.382,8.87" transform="translate(-131.511 -218.344)" fill="#09a7a1"/>
    <path id="Path_56266" data-name="Path 56266" d="M376.279,695.668h-.644c0-.1-.082-10.079-4.712-24.3-4.272-13.116-13.4-32.625-32.63-51.076l.446-.464c19.335,18.553,28.511,38.175,32.8,51.369,4.655,14.305,4.735,24.365,4.736,24.465" transform="translate(-53.48 -191.842)" fill="#09a7a1"/>
    <path id="Path_56267" data-name="Path 56267" d="M410.4,587.1l-.57-.3c10.791-20.714,1.1-43.822,1-44.054l.591-.254c.1.234,9.913,23.616-1.022,44.6" transform="translate(-105.709 -135.587)" fill="#09a7a1"/>
    <path id="Path_56268" data-name="Path 56268" d="M340.9,664.791a22.777,22.777,0,0,1-11.775-2.267l.31-.563a21.591,21.591,0,0,0,14.32,1.692l.16.622a18.887,18.887,0,0,1-3.016.516" transform="translate(-46.782 -222.692)" fill="#09a7a1"/>
    <path id="Path_56269" data-name="Path 56269" d="M378.048,800.112c-13.292-.318-24.53-5.778-33.4-16.229a9.444,9.444,0,0,0-.68-.763.211.211,0,0,0,.069.028l.148-.626c.185.044.311.188.954.944,8.748,10.3,19.826,15.689,32.926,16Z" transform="translate(-57.621 -310.488)" fill="#09a7a1"/>
    <path id="Path_56270" data-name="Path 56270" d="M383.11,771.545l-.634-.112c1.521-8.6-5.18-20.434-5.248-20.553l.558-.32a53.36,53.36,0,0,1,3.25,7.128c1.4,3.769,2.892,9.233,2.074,13.857" transform="translate(-81.906 -287.196)" fill="#09a7a1"/>
    <path id="Path_56271" data-name="Path 56271" d="M304.829,593.552c3.663,2.754,4.1,4.436,3.3,5.5s-2.539,1.109-6.2-1.645c-6.673-5.016-8.449-9.368-8.449-9.368s4.577.423,11.346,5.512" transform="translate(-20.765 -168.823)" fill="#09a7a1"/>
    <path id="Path_56272" data-name="Path 56272" d="M301.039,650.4c4.323,1.521,5.25,2.992,4.808,4.248s-2.086,1.822-6.409.3c-7.874-2.77-10.88-6.385-10.88-6.385s4.492-.976,12.481,1.835" transform="translate(-17.168 -212.803)" fill="#09a7a1"/>
    <path id="Path_56273" data-name="Path 56273" d="M364.747,725.908c1.82,2.87,1.449,4.3.325,5.015s-2.578.438-4.4-2.431c-3.315-5.228-2.881-9.046-2.881-9.046s3.591,1.159,6.954,6.463" transform="translate(-67.705 -264.551)" fill="#09a7a1"/>
    <path id="Path_56274" data-name="Path 56274" d="M378.411,610.934c1.067,3.226.359,4.525-.905,4.943s-2.607-.2-3.674-3.429c-1.943-5.877-.594-9.474-.594-9.474s3.2,2,5.173,7.96" transform="translate(-78.661 -179.7)" fill="#09a7a1"/>
    <path id="Path_56275" data-name="Path 56275" d="M416.21,788.328c.117,3.4-.927,4.443-2.258,4.489s-2.445-.927-2.562-4.323c-.214-6.187,2.093-9.26,2.093-9.26s2.51,2.817,2.727,9.093" transform="translate(-106.837 -308.103)" fill="#09a7a1"/>
    <path id="Path_56276" data-name="Path 56276" d="M334.9,771.433c2.392,2.414,2.337,3.892,1.391,4.829s-2.424.98-4.817-1.434c-4.357-4.4-4.751-8.219-4.751-8.219s3.755.362,8.176,4.823" transform="translate(-45.032 -298.914)" fill="#09a7a1"/>
    <path id="Path_56277" data-name="Path 56277" d="M402.508,502.763c1.461,4.343.873,5.98-.39,6.4s-2.721-.523-4.182-4.866c-2.662-7.912-1.663-12.505-1.663-12.505s3.534,2.94,6.234,10.967" transform="translate(-95.677 -98.701)" fill="#09a7a1"/>
    <path id="Path_56278" data-name="Path 56278" d="M447.244,1037.445s-29.935-110.014-59.482-100.77,36.393,69.275,44.093,101.577Z" transform="translate(-84.07 -422.011)" fill="#09a7a1"/>
    <path id="Path_56279" data-name="Path 56279" d="M301.057,1039.276s-59.987-87.943-88.19-70.091,55.963,49.651,72.446,75.829Z" transform="translate(42.279 -444.47)" fill="#04bab8"/>
    <path id="Path_56280" data-name="Path 56280" d="M335.608,1077.511c-11.055-18.285-29.26-34.2-42.585-44.325a255.978,255.978,0,0,0-26.541-17.78l.417-.745a256.857,256.857,0,0,1,26.64,17.845c13.384,10.173,31.674,26.163,42.8,44.563Z" transform="translate(-1.051 -479.402)" fill="#fff"/>
    <path id="Path_56281" data-name="Path 56281" d="M144.2,1144.72c15.087,7.26,6.666,30.714,25.872,30.594s17.983-1.652,24.817,8.317c0,0,1.571,8.427,8.479,11.422,27.258,11.817,76.256-20.934,52.131-51.244-1.742-2.189-4.708-3.581-8.033-4.951-18.039-7.418-25.941-.216-35.407-25.841s-37.1,1.234-49.4-2.894-22.472-10.553-35.458.416,1.913,26.934,17,34.182" transform="translate(104.267 -542.381)" fill="#29c8c2"/>
    <path id="Path_56282" data-name="Path 56282" d="M243.212,1204.677l.81-.745c-.328-.357-33.805-36.016-115.867-57.727l-.282,1.065c81.753,21.631,115.011,57.053,115.338,57.408" transform="translate(100.147 -575.221)" fill="#fff"/>
    <path id="Path_56283" data-name="Path 56283" d="M391.856,1157.765c13.234-7.187,17.013-14.505,17.168-14.813l-.984-.494c-.036.073-3.814,7.335-16.709,14.339Z" transform="translate(-92.203 -572.701)" fill="#fff"/>
    <path id="Path_56284" data-name="Path 56284" d="M373.855,1141.086c4.35-4.657,5.922-12.493,4.547-22.661a73.594,73.594,0,0,0-3.391-14.016l-1.032.384c.092.247,9.072,24.836-.93,35.543Z" transform="translate(-78.856 -544.89)" fill="#fff"/>
    <path id="Path_56285" data-name="Path 56285" d="M192.969,1207.98c1.555-.773,2.425-1.311,2.464-1.335l-.586-.931c-.182.115-18.5,11.4-40.127,5.52l-.289,1.062c17.429,4.738,32.743-1.433,38.538-4.315" transform="translate(80.759 -618.812)" fill="#fff"/>
    <path id="Path_56286" data-name="Path 56286" d="M233.878,1242.117a25.977,25.977,0,0,0,10.244-13.156,19.227,19.227,0,0,0,1.094-6.895l-1.1.083c.008.109.672,11.088-10.866,19.062Z" transform="translate(23.212 -630.672)" fill="#fff"/>
    <g id="Group_54874" data-name="Group 54874" transform="translate(634.498 510.13)" opacity="0.6">
      <g id="Group_54873" data-name="Group 54873">
        <g id="Group_54872" data-name="Group 54872" clip-path="url(#clip-path-2)">
          <path id="Path_56287" data-name="Path 56287" d="M1632.8,1044.276s18.921-129.487,53.864-123.033-31.9,83.958-36.217,121.828Z" transform="translate(-1632.796 -921.01)" fill="#04bab8"/>
        </g>
      </g>
    </g>
    <path id="Path_56288" data-name="Path 56288" d="M1731.259,976.8s47.067-113.468,83.129-99.938-51.533,69.263-63.993,102.715Z" transform="translate(-1070.185 -378.046)" fill="#29c8c2"/>
    <path id="Path_56289" data-name="Path 56289" d="M1768.357,1020.464c8.184-23.259,25-45.519,37.674-60.1a295.445,295.445,0,0,1,25.8-26.333l-.647-.743a296.515,296.515,0,0,0-25.9,26.43c-12.725,14.643-29.623,37.011-37.859,60.416Z" transform="translate(-1096.594 -420.03)" fill="#fff"/>
    <path id="Path_56290" data-name="Path 56290" d="M1775.662,1157.723c-14.08,6.115-7.2,27.9-24.79,27.107s-16.416-2.152-23.03,6.737c0,0-1.738,7.665-8.174,10.163-25.393,9.856-69.116-21.891-45.936-48.8,1.674-1.943,4.44-3.114,7.535-4.25,16.79-6.154,23.773.724,33.357-22.414s33.946,2.45,45.361-.895,20.963-8.869,32.469,1.642-2.71,24.606-16.792,30.711" transform="translate(-1023.395 -553.1)" fill="#09a7a1"/>
    <g id="Group_54877" data-name="Group 54877" transform="translate(663.641 563.802)" opacity="0.6">
      <g id="Group_54876" data-name="Group 54876">
        <g id="Group_54875" data-name="Group 54875" clip-path="url(#clip-path-3)">
          <path id="Path_56291" data-name="Path 56291" d="M1741.491,1216.414l-.716-.711c.313-.315,32.251-31.793,108.2-48.764l.22.985c-75.666,16.909-107.393,48.177-107.705,48.49" transform="translate(-1740.774 -1154.19)" fill="#fff"/>
          <path id="Path_56292" data-name="Path 56292" d="M1856.478,1166.572c-11.867-7.055-15.07-13.894-15.2-14.181l.919-.418c.031.067,3.234,6.856,14.8,13.731Z" transform="translate(-1814.151 -1143.264)" fill="#fff"/>
          <path id="Path_56293" data-name="Path 56293" d="M1900.92,1153.349c-3.819-4.421-4.981-11.656-3.36-20.923a67.5,67.5,0,0,1,3.6-12.72l.932.388c-.093.223-9.194,22.43-.412,32.595Z" transform="translate(-1854.724 -1119.706)" fill="#fff"/>
          <path id="Path_56294" data-name="Path 56294" d="M1979.093,1217.367c-1.4-.764-2.174-1.287-2.21-1.311l.57-.833c.164.112,16.541,11.1,36.566,6.485l.227.983c-16.135,3.72-29.946-2.478-35.152-5.324" transform="translate(-1913.156 -1189.443)" fill="#fff"/>
          <path id="Path_56295" data-name="Path 56295" d="M2012.333,1249.921a23.81,23.81,0,0,1-8.917-12.417,17.613,17.613,0,0,1-.757-6.355l1,.115c-.011.1-1.01,10.134,9.277,17.85Z" transform="translate(-1931.943 -1201.07)" fill="#fff"/>
        </g>
      </g>
    </g>
    <path id="Path_56297" data-name="Path 56297" d="M641.97,1491.848l-.157-.372a7.332,7.332,0,0,0,1.847-3.656,3.492,3.492,0,0,0-.3-1.913c-.195-.411-.428-.611-.716-.611h-.014c-1.395.031-3.417,4.538-3.438,4.584l-.368.826.112-.991c0-.041.441-4.025-.447-5.214a.824.824,0,0,0-1.172-.155,2.294,2.294,0,0,0-1.088,1.53c-.583,2.191.482,5.656.493,5.69l-.255.195c-.047-.148-1.132-3.679-.5-6.054a2.667,2.667,0,0,1,1.259-1.781,1.018,1.018,0,0,1,1.448.239c.739.991.7,3.452.614,4.77.653-1.322,2.146-4.055,3.339-4.081.388-.005.71.257.962.79a4.12,4.12,0,0,1,.355,2.257,7.694,7.694,0,0,1-1.97,3.949" transform="translate(-270.582 -821.235)" fill="#04bab8"/>
    <path id="Path_56298" data-name="Path 56298" d="M444.19,1465.291a1.79,1.79,0,0,1,.244-1.1,2.435,2.435,0,0,1,1.987-.873,4.186,4.186,0,0,1-2.186-2.243,1.748,1.748,0,0,1,.132-1.165c1.025-2.169,4.465,1.316,4.61,1.465l-.155.372c-.932-.953-3.508-3.094-4.226-1.572a1.108,1.108,0,0,0-.093.75c.268,1.161,2.258,2.159,3,2.445l-.048.437c-.021,0-2.175-.32-2.821.7a1.194,1.194,0,0,0-.163.743Z" transform="translate(-130.789 -803.322)" fill="#04bab8"/>
    <path id="Path_56299" data-name="Path 56299" d="M759.253,1467.246l-.283-.047a1.2,1.2,0,0,0-.163-.744c-.646-1.019-2.8-.7-2.82-.7l-.048-.437c.744-.286,2.735-1.285,3-2.446a1.115,1.115,0,0,0-.093-.75c-.719-1.523-3.295.62-4.227,1.573l-.155-.372c.146-.15,3.586-3.633,4.61-1.466a1.751,1.751,0,0,1,.132,1.166,4.185,4.185,0,0,1-2.186,2.243,2.434,2.434,0,0,1,1.986.874,1.792,1.792,0,0,1,.244,1.1" transform="translate(-357.228 -804.749)" fill="#04bab8"/>
    <path id="Path_56300" data-name="Path 56300" d="M1930.677,1426.009l-.282-.046a1.2,1.2,0,0,0-.163-.745c-.646-1.019-2.8-.7-2.821-.7l-.048-.437c.745-.287,2.734-1.285,3-2.445a1.116,1.116,0,0,0-.093-.75c-.72-1.523-3.3.618-4.227,1.572l-.155-.372c.146-.149,3.585-3.633,4.61-1.465a1.754,1.754,0,0,1,.132,1.165,4.183,4.183,0,0,1-2.186,2.243,2.434,2.434,0,0,1,1.987.873,1.791,1.791,0,0,1,.244,1.1" transform="translate(-1212.285 -774.643)" fill="#04bab8"/>
    <path id="Path_56301" data-name="Path 56301" d="M1792.058,1471.213a4.117,4.117,0,0,0-.894-2.718c-1.148-1.143-3.01-.094-3.028-.083l-.648.372.463-.8c.014-.023,1.336-2.334,1.065-4.009a1.887,1.887,0,0,0-.995-1.417c-2.347-1.289-4.268,6.19-4.361,6.561,0,.008,0,.014,0,.017l-.317-.2a.033.033,0,0,0,0-.011,5.148,5.148,0,0,0-.045-2.687,1.649,1.649,0,0,0-1.524-1.046,1.321,1.321,0,0,0-1.439.762,5.724,5.724,0,0,0-.016,2.98l-.316.2a6.391,6.391,0,0,1,.055-3.485,1.607,1.607,0,0,1,1.732-.985,1.967,1.967,0,0,1,1.8,1.291,3.858,3.858,0,0,1,.257,1.252c.769-2.375,2.354-6.218,4.292-5.153a2.358,2.358,0,0,1,1.212,1.79,7.243,7.243,0,0,1-.8,3.828,2.585,2.585,0,0,1,2.8.374,4.707,4.707,0,0,1,1.05,3.122Z" transform="translate(-1105.603 -805.276)" fill="#04bab8"/>
    <path id="Path_56302" data-name="Path 56302" d="M1343.1,1514.345c-.119-.112-2.917-2.77-2.917-5.1a2.382,2.382,0,0,1,.764-1.8,1.459,1.459,0,0,1,1.724-.375c1.416.669,2.44,3.483,2.712,4.3,1.442-1.341,2.516-1.666,3.192-.967.967,1,.727,3.674.716,3.787l-.281-.065c0-.026.225-2.509-.592-3.352-.6-.616-1.613-.247-3.02,1.1l-.135.129-.068-.223c-.011-.035-1.1-3.575-2.608-4.284a1.269,1.269,0,0,0-1.5.33,1.868,1.868,0,0,0-.626,1.422c0,2.083,2.751,4.7,2.778,4.721Z" transform="translate(-784.771 -838.167)" fill="#04bab8"/>
    <path id="Path_56303" data-name="Path 56303" d="M1211.64,1446.523a29.046,29.046,0,0,1-2.029-4.046c-1.24-3.068-1.535-5.5-.878-7.239.245-.647.542-.942.876-.886,1.136.2,2.382,4.832,3.026,7.589-.214-3.444-.457-10.252.749-12.554a1.284,1.284,0,0,1,.952-.809c.36-.037.654.168.877.6,1.087,2.1.1,9.539-.435,13.018.4-1.021.974-2.158,1.557-2.288.277-.061.5.1.62.454.352,1.011-.134,3.589-1.557,6.153l-.214-.291c1.4-2.52,1.783-4.9,1.522-5.649-.066-.191-.171-.261-.33-.227-.751.168-1.626,2.716-1.9,3.683l-.266-.15c.021-.119,2.1-11.882.784-14.424a.645.645,0,0,0-.639-.435c-.291.028-.536.239-.749.646-1.526,2.915-.549,14.128-.539,14.241l-.276.1c-.506-2.493-2.071-9.009-3.213-9.213-.218-.038-.414.181-.6.671-1.441,3.807,2.823,10.679,2.865,10.747Z" transform="translate(-688.573 -780.964)" fill="#04bab8"/>
    <path id="Path_56304" data-name="Path 56304" d="M839.54,1355.358s-5.732-9.144-3.76-14.353,5.3,11.187,5.3,11.187-1.726-19.386,1.849-19.723,0,19.723,0,19.723,1.325-4.677,2.62-4.966.925,3.966-1.387,8.132Z" transform="translate(-416.28 -710.796)" opacity="0.1"/>
    <path id="Path_56305" data-name="Path 56305" d="M839.376,1346.387c-.27-.43-6.589-10.621-4.3-16.676.363-.957.8-1.4,1.294-1.309.989.177,2.15,2.62,3.452,7.261.4,1.414.747,2.827,1.022,4-.316-5.075-.682-15.184,1.1-18.6a1.9,1.9,0,0,1,1.406-1.194,1.326,1.326,0,0,1,1.3.885c1.606,3.11.155,14.1-.643,19.236.6-1.507,1.439-3.188,2.3-3.381.409-.09.733.147.915.67.52,1.494-.2,5.3-2.3,9.092l-.317-.43c2.066-3.724,2.634-7.241,2.248-8.348-.1-.281-.252-.389-.487-.335-1.109.248-2.4,4.012-2.809,5.442l-.394-.221c.008-.045.791-4.464,1.317-9.3.688-6.326.633-10.48-.158-12.011-.242-.469-.553-.682-.945-.642-.43.04-.791.353-1.107.955-2.255,4.308-.811,20.877-.8,21.044l-.408.145c-.748-3.684-3.059-13.311-4.747-13.613-.321-.057-.611.267-.886.992-2.129,5.622,4.171,15.779,4.234,15.881Z" transform="translate(-415.705 -701.596)" fill="#04bab8"/>
    <path id="Path_56306" data-name="Path 56306" d="M1284.831,1293s-7.466-11.908-4.9-18.689,6.9,14.568,6.9,14.568-2.248-25.246,2.408-25.684,0,25.684,0,25.684,1.726-6.092,3.412-6.468,1.2,5.165-1.806,10.589Z" transform="translate(-740.4 -660.583)" opacity="0.1"/>
    <path id="Path_56307" data-name="Path 56307" d="M1284.617,1281.323c-.351-.561-8.58-13.831-5.594-21.715.472-1.247,1.038-1.823,1.686-1.7,1.287.23,2.8,3.411,4.495,9.455.517,1.841.974,3.681,1.332,5.2-.411-6.608-.889-19.772,1.436-24.215a2.472,2.472,0,0,1,1.831-1.555,1.729,1.729,0,0,1,1.688,1.152c2.091,4.049.2,18.355-.837,25.049.775-1.963,1.874-4.152,3-4.4.531-.12.954.191,1.192.873.677,1.946-.258,6.907-3,11.839l-.412-.56c2.691-4.85,3.429-9.429,2.928-10.87-.128-.367-.329-.506-.635-.437-1.446.323-3.131,5.224-3.658,7.087l-.513-.289c.01-.058,1.03-5.813,1.715-12.113.9-8.239.824-13.648-.205-15.642-.316-.611-.714-.888-1.231-.836-.559.052-1.031.46-1.441,1.243-2.936,5.61-1.056,27.187-1.036,27.4l-.531.188c-.975-4.8-3.983-17.334-6.181-17.727-.418-.073-.8.347-1.153,1.291-2.774,7.326,5.431,20.549,5.514,20.681Z" transform="translate(-739.652 -648.606)" fill="#04bab8"/>
    <path id="Path_56308" data-name="Path 56308" d="M370.824,1364.081s-5.733-9.143-3.76-14.351,5.3,11.187,5.3,11.187-1.726-19.386,1.849-19.723,0,19.723,0,19.723,1.325-4.677,2.62-4.966.925,3.966-1.387,8.131Z" transform="translate(-74.183 -717.166)" fill="#111" opacity="0.1"/>
    <path id="Path_56309" data-name="Path 56309" d="M370.66,1355.111c-.27-.43-6.588-10.621-4.3-16.676.362-.956.8-1.4,1.294-1.308.989.177,2.15,2.62,3.452,7.26.4,1.413.747,2.826,1.023,4-.316-5.075-.682-15.184,1.1-18.595a1.9,1.9,0,0,1,1.406-1.195,1.324,1.324,0,0,1,1.3.885c1.605,3.11.154,14.1-.643,19.236.595-1.508,1.439-3.188,2.3-3.381.408-.09.733.148.915.671.52,1.494-.2,5.3-2.3,9.092l-.316-.43c2.067-3.724,2.634-7.241,2.249-8.348-.1-.281-.253-.389-.488-.335-1.109.248-2.4,4.012-2.809,5.441l-.394-.221c.008-.044.791-4.463,1.317-9.3.688-6.326.633-10.48-.157-12.011-.242-.469-.552-.682-.945-.642-.43.041-.792.352-1.107.954-2.255,4.308-.811,20.876-.8,21.043l-.408.144c-.748-3.684-3.059-13.311-4.747-13.612-.323-.059-.611.267-.886.992-2.13,5.625,4.17,15.779,4.234,15.881Z" transform="translate(-73.608 -707.966)" fill="#04bab8"/>
    <path id="Path_56310" data-name="Path 56310" d="M937.957,1481.552a43.094,43.094,0,0,1-3.005-5.992c-1.835-4.543-2.273-8.15-1.3-10.72.363-.959.8-1.4,1.3-1.312.991.177,2.155,2.625,3.459,7.276.4,1.416.749,2.832,1.025,4-.317-5.086-.684-15.216,1.106-18.635a1.9,1.9,0,0,1,1.409-1.2,1.33,1.33,0,0,1,1.3.887c1.609,3.117.155,14.126-.645,19.277.6-1.511,1.442-3.195,2.306-3.388.408-.091.734.148.917.672.521,1.5-.2,5.315-2.305,9.112l-.317-.431c2.071-3.733,2.639-7.256,2.253-8.366-.1-.282-.253-.39-.489-.336-1.112.249-2.409,4.021-2.815,5.453l-.395-.222c.008-.043.793-4.473,1.32-9.321.689-6.34.635-10.5-.158-12.037a.955.955,0,0,0-.947-.643c-.431.041-.793.353-1.109.957-2.259,4.317-.812,20.921-.8,21.089l-.408.145c-.75-3.692-3.066-13.339-4.757-13.642-.322-.06-.613.267-.888.993-2.135,5.637,4.18,15.813,4.243,15.915Z" transform="translate(-487.655 -800.238)" fill="#04bab8"/>
    <path id="Path_56311" data-name="Path 56311" d="M1036.376,496.03c-3.092-3.046,3.729-13.133,3.729-13.133,1.181-.829,23.252,16.54,45.816,9.386,8.035-2.547,19.147-16.614,19.948-18.7.106-.278,17.794,6.116,17.794,6.116-1.451,3.784-3.128,15.753-11.778,23.714-17.893,16.469-58.966,14.864-75.51-7.381" transform="translate(-562.4 -85.395)" fill="#ffe3db"/>
    <path id="Path_56312" data-name="Path 56312" d="M985.254,351.943l39.338-4.176,34.1,2.185-34.1,4.577Z" transform="translate(-525.676 5.99)" fill="#ff9443"/>
    <path id="Path_56313" data-name="Path 56313" d="M1069.878,312.384c-2.495,5.464,7.127,8.79,15.916,9.74-6.533-18.767-13.422-15.2-15.916-9.74m7.58,4.217c1.047-1.722,2.932-2.524,7.861,5.078-3.266-.772-8.909-3.356-7.861-5.078" transform="translate(-587.169 35.014)"/>
    <path id="Path_56314" data-name="Path 56314" d="M1146.948,329.555c-.8-4.187-10.444-9.77-17.015,4.929,4.912.71,17.817-.743,17.015-4.929m-10.557,4.2a19.882,19.882,0,0,1-5.478.134c2.316-4.294,6.417-4.375,8.42-3.11s.623,2.5-2.941,2.976" transform="translate(-631.299 22.66)"/>
    <path id="Path_56315" data-name="Path 56315" d="M1122.593,293.579c-6.414,0-7.423,7.84-2.049,18.012.034.1,2.762-3.4,6.106-8.133s2.358-9.879-4.057-9.879m-.415,13.808c-.965,2.272-1.634,3.593-1.634,3.593-.445-4.692-1.692-7.929.861-8.73s1.707,2.936.772,5.137" transform="translate(-621.914 45.553)"/>
    <path id="Path_56316" data-name="Path 56316" d="M1165.1,408.568,1131,412.03V360.438l34.1-4.577Z" transform="translate(-632.074 0.081)" fill="#ff6521"/>
    <path id="Path_56317" data-name="Path 56317" d="M1198.765,415.486l1.174-.119V363.139l-1.174.158Z" transform="translate(-681.548 -5.233)" fill="#fff"/>
    <path id="Path_56318" data-name="Path 56318" d="M1238.382,410.518l1.173-.119V357.821l-1.173.158Z" transform="translate(-710.466 -1.35)" fill="#fff"/>
    <path id="Path_56319" data-name="Path 56319" d="M1161.521,420.157l1.174-.119v-51.9l-1.174.158Z" transform="translate(-654.361 -8.883)" fill="#fff"/>
    <path id="Path_56320" data-name="Path 56320" d="M1024.591,417.416l-39.337-8.58v-45.6l39.337,2.586Z" transform="translate(-525.684 -5.305)" fill="#ff9443"/>
    <path id="Path_56321" data-name="Path 56321" d="M1089.577,370.1v49.888l1.173.256V370.172Z" transform="translate(-601.845 -10.311)" fill="#fff"/>
    <path id="Path_56322" data-name="Path 56322" d="M1009.578,411.435l1.173.256V364.914l-1.173-.077Z" transform="translate(-543.449 -6.472)" fill="#fff"/>
    <path id="Path_56323" data-name="Path 56323" d="M1048.266,367.38v48.189l1.174.256V367.457Z" transform="translate(-571.691 -8.329)" fill="#fff"/>
    <path id="Path_56324" data-name="Path 56324" d="M1024.591,366.125l-39.337-2.612v-.275l39.337,2.586Z" transform="translate(-525.684 -5.305)" fill="#fff"/>
    <path id="Path_56325" data-name="Path 56325" d="M1382.01,1398.21s-.154,6.107-4.285,7.829-16.1,3.277-11.631,7.2c2.567,2.253,14.665.8,18.081.8s6.623,1.488,9.161-.8c2.792-2.515,0-15.032,0-15.032a13.64,13.64,0,0,1-5.6,1.466,10.874,10.874,0,0,1-5.727-1.466" transform="translate(-802.961 -758.796)" fill="#2f1a31"/>
    <path id="Path_56326" data-name="Path 56326" d="M1295.589,715.386s-.825,27.559,7.97,80.428c6.35,38.168,13.845,76.628,17.523,95.067a14.385,14.385,0,0,0,13.437,11.682l3.533.142a12.073,12.073,0,0,0,12.358-13.08l-8.921-124.745-2.2-41.058Z" transform="translate(-752.19 -260.267)" fill="#44393d"/>
    <path id="Path_56327" data-name="Path 56327" d="M1527.012,1398.21s-.153,6.107-4.286,7.829-16.105,3.277-11.632,7.2c2.567,2.253,14.666.8,18.082.8s6.622,1.488,9.161-.8c2.793-2.515,0-15.032,0-15.032a13.642,13.642,0,0,1-5.6,1.466,10.874,10.874,0,0,1-5.727-1.466" transform="translate(-908.805 -758.796)" fill="#2f1a31"/>
    <path id="Path_56328" data-name="Path 56328" d="M1440.589,715.386s-.825,27.559,7.971,80.428c6.35,38.168,13.844,76.628,17.523,95.067a14.384,14.384,0,0,0,13.437,11.682l3.533.142a12.075,12.075,0,0,0,12.359-13.08L1486.49,764.88l-2.2-41.058Z" transform="translate(-858.033 -260.267)" fill="#44393d"/>
    <path id="Path_56329" data-name="Path 56329" d="M1375.89,804.73c-.085,3.325-20.192,4.645-45.06,3.87s-44.74-4.215-44.654-7.539,20.095-5.278,44.962-4.5,44.837,4.846,44.751,8.171" transform="translate(-745.321 -320.602)" fill="#2f1a31"/>
    <path id="Path_56330" data-name="Path 56330" d="M1369.8,430.888s-4.4-17.428-36.842-17.605c-46.787-.255-42.455,42.736-46.784,108.071,0,0,46.086-6.518,89.737,2.852,0,0,4.049-66.688-6.111-93.317" transform="translate(-745.322 -41.842)" fill="#09a7a1"/>
    <path id="Path_56331" data-name="Path 56331" d="M1381.778,428l-21.189,11.725s-46.4,4.213-58.715,2.184-15.7-11.074-15.7-11.074a67.892,67.892,0,0,1,35.416-17.2c2.095-.343,4.268-.595,6.521-.742a64.084,64.084,0,0,1,11.271.224c28.26,3.185,42.394,14.88,42.394,14.88" transform="translate(-745.32 -41.452)" fill="#09a7a1"/>
    <path id="Path_56332" data-name="Path 56332" d="M1441.925,334.3l-2.449-7.9-.713-2.3-4.191-13.531-.552,13.459-.33,8.079-.1,2.557c-.071,1.736-1.129,2.1-2.417,3.609-.521.612-3.86,4.317-.071,5.991,4.72,2.085,13.544-1.073,16.9-5.209-.026-.006-5.28-2.2-6.072-4.75" transform="translate(-849.832 33.152)" fill="#ffe3db"/>
    <path id="Path_56333" data-name="Path 56333" d="M1300.685,816.118s26.945-7.927,82.749,2.954l.429,8.027-81.8,2.891Z" transform="translate(-755.915 -332.934)" fill="#44393d"/>
    <path id="Path_56334" data-name="Path 56334" d="M1590.922,467.155c1.8,2.542-.85,7.564-5.911,11.216s-10.62,4.552-12.417,2.011.851-7.563,5.911-11.216,10.62-4.553,12.417-2.011" transform="translate(-954.01 -79.701)" fill="#0a0a0a"/>
    <path id="Path_56335" data-name="Path 56335" d="M1696.93,872.335h0a1.939,1.939,0,0,1,1.552,2.251l-2.992,16.232a1.933,1.933,0,1,1-3.8-.7l2.992-16.232a1.938,1.938,0,0,1,2.251-1.551" transform="translate(-1041.334 -375.883)" fill="#ffe3db"/>
    <path id="Path_56336" data-name="Path 56336" d="M1677.939,869.011h0a1.938,1.938,0,0,1,1.551,2.252l-3.345,18.153a1.934,1.934,0,0,1-3.8-.7l3.347-18.154a1.938,1.938,0,0,1,2.251-1.551" transform="translate(-1027.212 -373.456)" fill="#ffe3db"/>
    <path id="Path_56337" data-name="Path 56337" d="M1658.134,831.035l.451.519a2.343,2.343,0,0,1-.228,3.3l-9.446,8.225a2.344,2.344,0,0,1-3.3-.228l-.452-.519a2.344,2.344,0,0,1,.228-3.3l9.445-8.225a2.346,2.346,0,0,1,3.3.228" transform="translate(-1006.975 -345.257)" fill="#ffe3db"/>
    <path id="Path_56338" data-name="Path 56338" d="M1661.7,865.686h0a1.94,1.94,0,0,1,1.551,2.252l-2.682,14.551a1.933,1.933,0,1,1-3.8-.7l2.682-14.552a1.939,1.939,0,0,1,2.252-1.551" transform="translate(-1015.843 -371.045)" fill="#ffe3db"/>
    <path id="Path_56339" data-name="Path 56339" d="M1683.666,840.425s3.776,10.384-.375,17.048c-1.437,2.306-15.694-.728-16.51-3.661s1.953-12.584,1.953-12.584Z" transform="translate(-1023.061 -352.668)" fill="#ffe3db"/>
    <path id="Path_56340" data-name="Path 56340" d="M1715.716,875.583h0a1.934,1.934,0,0,1,1.548,2.247l-2.676,14.522a1.93,1.93,0,0,1-3.8-.7l2.677-14.522a1.935,1.935,0,0,1,2.247-1.547" transform="translate(-1055.28 -378.254)" fill="#ffe3db"/>
    <path id="Path_56341" data-name="Path 56341" d="M1603.263,579.069c-1.951-21.476-6.426-52.18-16.668-76.5a73.5,73.5,0,0,0-5.213-10.826c-1.489-2.476,1.178-7.917,5.385-10.511,3.949-2.435,10.1-2.036,11.069-.831,1.654,2.05,3.419,5.977,6.167,12.213,9.544,21.668,15.262,49.657,17.578,85.742Z" transform="translate(-960.52 -89.575)" fill="#ffe3db"/>
    <path id="Path_56342" data-name="Path 56342" d="M1407.81,291.743a17.776,17.776,0,0,0,0,7.381c.854,4.106,5.031-5.987,5.031-5.987Z" transform="translate(-833.863 46.894)" fill="#56335b"/>
    <path id="Path_56343" data-name="Path 56343" d="M1406.59,288.593c1.042-7.94,7.224-13.675,13.809-12.81s11.076,8,10.034,15.94-7.224,13.675-13.808,12.811-11.077-8-10.034-15.941" transform="translate(-833.134 58.609)" fill="#ffe3db"/>
    <path id="Path_56344" data-name="Path 56344" d="M1417.244,265.39l-5.82-.6a4.237,4.237,0,0,1-3.143-1.9c-1.192-1.866-2.627-2.824-8.057-2.621-6.875.258-11.414-3.841-12.156-7.437-.759-3.671,2.76-6.16,6.212-4.41s1.971-2.542,5.292-3c6.2-.851,7.367,3.932,12.447,3.776,6.661-.2,18.593,4.858,12.935,16.584Z" transform="translate(-819.641 80.792)" fill="#30262a"/>
    <path id="Path_56345" data-name="Path 56345" d="M1448.516,325.746a.244.244,0,0,1,.109-.449,2.639,2.639,0,0,1,2.81,1.6.245.245,0,0,1-.109.327.268.268,0,0,1-.328-.11,4.171,4.171,0,0,0-2.333-1.33.246.246,0,0,1-.149-.037" transform="translate(-863.771 22.414)" fill="#060633"/>
    <path id="Path_56346" data-name="Path 56346" d="M1448.614,335.265c-.153.561-.608.925-1.014.815a.943.943,0,0,1-.461-1.217c.153-.56.608-.926,1.015-.815a.945.945,0,0,1,.46,1.217" transform="translate(-862.813 16.022)" fill="#060633"/>
    <path id="Path_56347" data-name="Path 56347" d="M1415.012,321.993a.178.178,0,0,1-.132-.121.294.294,0,0,1,.094-.33,1.711,1.711,0,0,1,2.485.283.29.29,0,0,1,0,.341.18.18,0,0,1-.269.036,2.557,2.557,0,0,0-2.064-.237.16.16,0,0,1-.12.029" transform="translate(-839.289 25.443)" fill="#060633"/>
    <path id="Path_56348" data-name="Path 56348" d="M1419.517,331.019c.072.577-.209,1.087-.628,1.14s-.817-.373-.889-.95.209-1.087.628-1.14.817.373.889.95" transform="translate(-841.572 18.916)" fill="#060633"/>
    <path id="Path_56349" data-name="Path 56349" d="M1484.915,316.555s-4.018,8.674-9.719,9.31c0,0,4.609-6.61-5.1-10.639,0,0,8.919-1.4,14.824,1.328" transform="translate(-879.598 30.011)" fill="#56335b"/>
    <path id="Path_56350" data-name="Path 56350" d="M1484.978,326.974a2.353,2.353,0,1,1,.953-3.377,2.488,2.488,0,0,1-.953,3.377" transform="translate(-887.7 24.38)" fill="#ffe3db"/>
    <path id="Path_56351" data-name="Path 56351" d="M1425.366,316.2s.778,7.279-.7,8.655-11.264,1.968-15.829.2a9.509,9.509,0,0,0,7.83,9.576,13.821,13.821,0,0,0,4.67-.016c3.2-.559,6.3-1.881,7.62-4.845.4-.9-.764-6.452-.764-6.452s-.439-3.257,1.455-4.952a9.269,9.269,0,0,0-4.278-2.17" transform="translate(-834.88 29.036)" fill="#30262a"/>
    <path id="Path_56352" data-name="Path 56352" d="M1417.764,358.751a24.667,24.667,0,0,0,7.843.618,3.784,3.784,0,0,1-4.745,3.037c-2.41-.44-3.1-3.654-3.1-3.654" transform="translate(-841.405 -2.029)" fill="#fff"/>
    <path id="Path_56353" data-name="Path 56353" d="M1413.835,250.342l-.1,0,.01-.328a1.509,1.509,0,0,0,1.731-1.273l.326.03a1.827,1.827,0,0,1-1.967,1.572" transform="translate(-838.466 78.29)" fill="#2f1a31"/>
    <path id="Path_56354" data-name="Path 56354" d="M1404.993,269.738a21.932,21.932,0,0,1-3.775-1.571c-2.51-1.353-3.9-2.919-4.034-4.529a2.616,2.616,0,0,1,.6-2.3c.788-.678,2.151-.361,3.353-.08.178.041.354.083.521.119l-.034.16c-.169-.036-.344-.077-.523-.119-1.166-.272-2.486-.58-3.209.045a2.472,2.472,0,0,0-.545,2.161c.3,3.766,7.617,5.934,7.691,5.955Z" transform="translate(-826.367 69.386)" fill="#fff"/>
    <path id="Path_56355" data-name="Path 56355" d="M1456.37,256.056a12.915,12.915,0,0,1-5.923-1.348,8.908,8.908,0,0,1-2.643-1.947l.126-.105c.034.04,3.475,4.054,10.614,3.087l.021.163a16.328,16.328,0,0,1-2.2.151" transform="translate(-863.332 75.431)" fill="#fff"/>
    <path id="Path_56356" data-name="Path 56356" d="M1673.1,646.369a2.808,2.808,0,0,1-2.015-.966,5.308,5.308,0,0,1-1.312-2.79c-.384-2.327.649-4.442,2.3-4.715s3.311,1.4,3.695,3.726a5.31,5.31,0,0,1-.348,3.064,2.682,2.682,0,0,1-1.955,1.65,2.246,2.246,0,0,1-.367.03m-.667-7.7a1.353,1.353,0,0,0-.227.019c-1.2.2-1.948,1.934-1.642,3.792a4.5,4.5,0,0,0,1.1,2.367,1.7,1.7,0,0,0,3.026-.5,4.507,4.507,0,0,0,.285-2.6c-.287-1.741-1.42-3.083-2.546-3.083" transform="translate(-1025.3 -205.13)" fill="#fff"/>
    <path id="Path_56357" data-name="Path 56357" d="M1043.775,516.717a2.306,2.306,0,0,0-1.1-1.324,2.438,2.438,0,0,0-3.261.93l-2.9,5.07a2.31,2.31,0,0,0,.9,3.189,2.437,2.437,0,0,0,3.261-.93l2.9-5.071a2.309,2.309,0,0,0,.2-1.864" transform="translate(-562.88 -115.691)" fill="#ffe3db"/>
    <path id="Path_56358" data-name="Path 56358" d="M1058.789,518.6a2.309,2.309,0,0,0-1.1-1.324,2.437,2.437,0,0,0-3.261.93l-3.675,5.9a2.309,2.309,0,0,0,.9,3.188c1.15.624,3.382-.622,4.033-1.758l2.9-5.071a2.317,2.317,0,0,0,.2-1.865" transform="translate(-573.276 -117.062)" fill="#ffe3db"/>
    <path id="Path_56359" data-name="Path 56359" d="M1073.579,530.56a2.311,2.311,0,0,0-1.1-1.324,2.438,2.438,0,0,0-3.262.929l-2.9,5.07a2.309,2.309,0,0,0,.9,3.189,2.436,2.436,0,0,0,3.26-.93l2.9-5.069a2.313,2.313,0,0,0,.2-1.865" transform="translate(-584.636 -125.776)" fill="#ffe3db"/>
    <path id="Path_56360" data-name="Path 56360" d="M1084.195,542.272a1.531,1.531,0,0,0-.669-.844,1.624,1.624,0,0,0-2.2.515l-3.033,4.748a1.536,1.536,0,0,0,.494,2.154,1.625,1.625,0,0,0,2.2-.515l3.034-4.748a1.541,1.541,0,0,0,.174-1.31" transform="translate(-593.425 -134.703)" fill="#ffe3db"/>
    <path id="Path_56361" data-name="Path 56361" d="M1315.709,484.3l-.516-.142c1.365-4.944,5.943-11.116,5.99-11.177l.428.319c-.045.061-4.563,6.155-5.9,11" transform="translate(-766.534 -85.002)" fill="#2f1a31"/>
    <path id="Path_56362" data-name="Path 56362" d="M1423.538,929.46c-.037-.226-3.654-22.661-6.134-30.663-2.455-7.923-13.033-14.589-13.14-14.655l.282-.453c.108.067,10.853,6.836,13.368,14.95,2.491,8.038,6.114,30.51,6.15,30.737Z" transform="translate(-831.546 -384.09)" fill="#2f1a31"/>
    <g id="Group_54893" data-name="Group 54893" transform="translate(335.369 375.065)">
      <path id="Path_56363" data-name="Path 56363" d="M630.292,1096.064c-10.482,32.906-16.186,90.909-21.758,106.721-1.993,5.656-11.188,4.731-9.768-1.621,0,0-9.389-70.2,8.64-114.434,3.9-9.569,37.4-36.248,22.885,9.334" transform="translate(-576.019 -942.495)" fill="#ffe3db"/>
      <path id="Path_56364" data-name="Path 56364" d="M607.2,1406.161s-.744,6.581,2.661,9.023,13.863,5.826,9.182,9.4c-2.686,2.052-13.273-1.243-16.332-1.731s-6.188.651-8.069-2.168c-2.07-3.1,2.789-16.147,2.789-16.147a10.645,10.645,0,0,0,4.5,1.953,11.049,11.049,0,0,0,5.267-.332" transform="translate(-574.711 -1145.871)"/>
      <path id="Path_56365" data-name="Path 56365" d="M701.2,1095.526c-6.96,33.9-6.534,92.2-10.41,108.549-1.387,5.849-10.624,5.973-9.881-.5,0,0-16.712-68.716-3.439-114.73,2.871-9.953,33.37-40.271,23.73,6.684" transform="translate(-622.069 -942.354)" fill="#ffe3db"/>
      <path id="Path_56366" data-name="Path 56366" d="M702.043,1411.047s.454,7.145,4.107,9.2,14.415,4.277,10.153,8.344c-2.446,2.333-13.329.213-16.423.062s-6.079,1.322-8.257-1.274c-2.4-2.858.426-16.333.426-16.333a16.612,16.612,0,0,0,4.738.9,11.513,11.513,0,0,0,5.258-.9" transform="translate(-633.209 -1149.829)"/>
      <g id="Group_54880" data-name="Group 54880" transform="translate(31.961 200.97)" opacity="0.2">
        <g id="Group_54879" data-name="Group 54879">
          <g id="Group_54878" data-name="Group 54878" clip-path="url(#clip-path-4)">
            <path id="Path_56367" data-name="Path 56367" d="M629.034,1265.643c-.048,0-.095,0-.143,0a2.847,2.847,0,0,1-2.009-.983,3.358,3.358,0,0,1-.785-2.486,3.316,3.316,0,0,1,3.32-3.141,2.845,2.845,0,0,1,2.01.984,3.438,3.438,0,0,1-2.393,5.63m.24-5.907a2.73,2.73,0,0,0-1.857,4.451,2.139,2.139,0,0,0,1.51.742,2.6,2.6,0,0,0,2.577-2.489,2.643,2.643,0,0,0-.611-1.959,2.137,2.137,0,0,0-1.51-.742c-.037,0-.072,0-.108,0" transform="translate(-626.086 -1259.026)" fill="#e08b65"/>
          </g>
        </g>
      </g>
      <g id="Group_54883" data-name="Group 54883" transform="translate(62.164 201.471)" opacity="0.2">
        <g id="Group_54882" data-name="Group 54882">
          <g id="Group_54881" data-name="Group 54881" clip-path="url(#clip-path-5)">
            <path id="Path_56368" data-name="Path 56368" d="M705.879,1266.919c-.047,0-.094,0-.142,0a2.844,2.844,0,0,1-2.009-.984,3.359,3.359,0,0,1-.786-2.485,3.313,3.313,0,0,1,3.321-3.141,2.844,2.844,0,0,1,2.009.983,3.438,3.438,0,0,1-2.394,5.631m-2.227-3.413a2.645,2.645,0,0,0,.612,1.957,2.138,2.138,0,0,0,1.51.743,2.6,2.6,0,0,0,2.577-2.491,2.642,2.642,0,0,0-.612-1.958,2.132,2.132,0,0,0-1.51-.742,2.6,2.6,0,0,0-2.577,2.49" transform="translate(-702.931 -1260.301)" fill="#e08b65"/>
          </g>
        </g>
      </g>
      <path id="Path_56369" data-name="Path 56369" d="M611.672,758.252s-12.18.847-14.623,16.94c-1.576,10.375-5.648,6.89-8.957,10.06s4.427,7.546,2.224,10.258-5.873,4.12-4.471,8.388,8.456.14,8.235,4.825-.932,5.2,2.247,7.063,7.727-3.217,11.932.23,38.341-2.891,38.9-14.993c.283-6.068-2.224-7.138,1.437-10.8s-.253-7.739-1.7-11.672,5.013-9.756-2.64-12.6-4.53-9.129-11.623-10.178-15.1-1.768-20.966,2.471" transform="translate(-569.4 -752.413)" fill="#fbfb65"/>
      <path id="Path_56370" data-name="Path 56370" d="M574.718,869.8s21.072-4.917,39.753.443c0,0,11.927,3.292,19.079,10.063,0,0-.936,7.5-12.554,11.341,0,0,3.257,18.492,4.814,31.981,2.483,21.5,21.54,79.772,10.9,88.679-8.967,7.5-15.523-3.9-26.714,1.367-19.157,9.016-26.654-1.777-40.073-1.139-14.134.672-24.541,9.252-25.136-15.943-.353-14.9,3.9-51.7,20.762-106.985a28.413,28.413,0,0,1-11.467-12s11.795-5.887,20.64-7.806" transform="translate(-544.764 -820.352)" fill="url(#linear-gradient)"/>
      <path id="Path_56371" data-name="Path 56371" d="M567.786,895.989c-1.227,1.331,1.075,5.82,5.142,10.027s8.361,6.54,9.588,5.209-1.074-5.82-5.142-10.027-8.36-6.539-9.589-5.209" transform="translate(-558.571 -837.769)" fill="#2f1a31"/>
      <path id="Path_56372" data-name="Path 56372" d="M645.126,760.081a.341.341,0,0,1-.405-.112c-.036-.047-.785-.973-3.068-.743a.341.341,0,1,1-.068-.68c2.717-.275,3.649.965,3.688,1.018a.342.342,0,0,1-.076.477.328.328,0,0,1-.07.039" transform="translate(-603.351 -754.709)" fill="#fbfb65"/>
      <path id="Path_56373" data-name="Path 56373" d="M654.267,753.572a.342.342,0,0,1-.412-.51c.1-.14,2.425-3.418,8.1-4.211a.342.342,0,0,1,.094.677c-5.383.752-7.612,3.891-7.633,3.923a.345.345,0,0,1-.151.121" transform="translate(-610.939 -748.847)" fill="#fbfb65"/>
      <path id="Path_56374" data-name="Path 56374" d="M651.675,829.8c2.541-.652,2.992-1.808,3.688-4.041l2.179-7,.632-2.031,3.718-11.941.882,11.617.528,6.974.151,1.987c.123,1.623,1.638,4.394,3.5,4.387,0,0-.534,3.931-7.2,3.9a11.3,11.3,0,0,1-8.086-3.854" transform="translate(-609.638 -782.691)" fill="#ffe3db"/>
      <path id="Path_56375" data-name="Path 56375" d="M666.455,836.342c.013.063.028.125.045.188.906,3.645,5.833,5.582,5.833,5.582l-.073-.963-.529-6.973c-1.463-.22-3.519-.358-4.6.323a1.591,1.591,0,0,0-.676,1.843" transform="translate(-618.595 -800.447)" fill="#ffd8cc"/>
      <path id="Path_56376" data-name="Path 56376" d="M670.6,782.186a13.706,13.706,0,1,0-4.483,18.857,13.707,13.707,0,0,0,4.483-18.857" transform="translate(-605.697 -765.044)" fill="#ffe3db"/>
      <path id="Path_56377" data-name="Path 56377" d="M692.119,819.376a27.291,27.291,0,0,1-8.049,3.3,4.185,4.185,0,0,0,6.023,1.593c2.389-1.278,2.026-4.9,2.026-4.9" transform="translate(-629.313 -791.593)" fill="#f60000"/>
      <path id="Path_56378" data-name="Path 56378" d="M692.119,819.376a5.619,5.619,0,0,1-2.5,2.541c-2.069,1.262-5.548.762-5.548.762a41.038,41.038,0,0,0,8.049-3.3" transform="translate(-629.313 -791.598)" fill="#fff"/>
      <path id="Path_56379" data-name="Path 56379" d="M673.146,806.1a.286.286,0,0,0-.257-.477,3.1,3.1,0,0,0-2.719,2.643.288.288,0,0,0,.221.339.314.314,0,0,0,.339-.22,4.9,4.9,0,0,1,2.256-2.2.279.279,0,0,0,.159-.086" transform="translate(-620.886 -783.26)" fill="#060633"/>
      <path id="Path_56380" data-name="Path 56380" d="M676.732,814.21a.943.943,0,1,0,.164-1.517,1.107,1.107,0,0,0-.164,1.517" transform="translate(-624.742 -787.496)" fill="#060633"/>
      <path id="Path_56381" data-name="Path 56381" d="M696.324,795.4a.286.286,0,0,0-.055-.54,3.1,3.1,0,0,0-3.521,1.408.289.289,0,0,0,.075.4.313.313,0,0,0,.4-.075,4.9,4.9,0,0,1,2.923-1.172.287.287,0,0,0,.18-.019" transform="translate(-634.564 -776.674)" fill="#060633"/>
      <path id="Path_56382" data-name="Path 56382" d="M697.519,803.178c.087.677.557,1.173,1.047,1.109s.818-.664.73-1.341-.558-1.173-1.048-1.108-.818.663-.729,1.34" transform="translate(-637.486 -780.968)" fill="#060633"/>
      <path id="Path_56383" data-name="Path 56383" d="M648.495,770.453s6.4-8.787,15.246,2.426c0,0,3.621,2.2-1.675,3.47s-4.026,4.332-7.908,4.335-3.3-.36-4.914,1.849-1.85-2.992-10.074-3.647c-4.757-.38,1.045-5.366,9.325-8.433" transform="translate(-600.986 -759.931)" fill="#fbfb65"/>
      <path id="Path_56384" data-name="Path 56384" d="M641.268,795.261s-3.091,5.475-1.13,7.527,2.807,3.471,2,5.273,3.065,1.582,2.3,4.634-10.919,4.7-12.669-2.9c-3.458-15.015,10.109-21.54,9.5-14.537" transform="translate(-597.218 -775.227)" fill="#fbfb65"/>
      <path id="Path_56385" data-name="Path 56385" d="M651.546,819.378c1.925.411,3.692-.514,3.949-2.066s-1.1-3.144-3.022-3.554-3.693.514-3.949,2.067,1.1,3.143,3.022,3.554" transform="translate(-607.723 -788.128)" fill="#ffe3db"/>
      <path id="Path_56386" data-name="Path 56386" d="M598.942,797.737c-.193.08-.394.154-.605.223a.342.342,0,1,1-.211-.65c3.987-1.293,4.437-4.978,4.555-8.641.13-4.089,3.672-7.609,3.821-7.757a.342.342,0,1,1,.479.487c-.035.034-3.5,3.479-3.618,7.291-.114,3.557-.57,7.448-4.421,9.046" transform="translate(-577.007 -768.193)" fill="#fbfb65"/>
      <path id="Path_56387" data-name="Path 56387" d="M717.748,982.44l-10.977-14.505c19.873-16.22,11.723-54.36,11.639-54.744l13.039-6.349c2.961,5.676,15.086,52.1-13.7,75.6" transform="translate(-643.009 -844.365)" fill="#ffd8cc"/>
      <path id="Path_56388" data-name="Path 56388" d="M735.117,904.185s-4.205,14.4-18.241,13.379c-12.006-.877,2.878-12.294,2.878-12.294Z" transform="translate(-646.313 -842.971)" fill="#0f87ae"/>
      <path id="Path_56389" data-name="Path 56389" d="M700.177,1095.16h0a1.7,1.7,0,0,1,.036,2.4l-10.09,10.4a1.7,1.7,0,1,1-2.437-2.363l10.091-10.4a1.7,1.7,0,0,1,2.4-.037" transform="translate(-631.209 -958.423)" fill="#ffd8cc"/>
      <path id="Path_56390" data-name="Path 56390" d="M690.358,1087.435h0a1.7,1.7,0,0,1,.037,2.4l-11.285,11.634a1.7,1.7,0,0,1-2.437-2.365l11.285-11.632a1.7,1.7,0,0,1,2.4-.037" transform="translate(-624.521 -953.736)" fill="#ffd8cc"/>
      <path id="Path_56392" data-name="Path 56392" d="M685.872,1079.708h0a1.7,1.7,0,0,1,.037,2.4l-9.046,9.325a1.7,1.7,0,1,1-2.437-2.364l9.045-9.325a1.7,1.7,0,0,1,2.4-.036" transform="translate(-623.162 -949.062)" fill="#ffd8cc"/>
      <path id="Path_56393" data-name="Path 56393" d="M711.026,1075.632s-2.3,9.425-8.576,12.271c-2.173.985-11.111-8.175-10.279-10.715s7.555-8.243,7.555-8.243Z" transform="translate(-634.166 -942.805)" fill="#ffd8cc"/>
      <path id="Path_56394" data-name="Path 56394" d="M709.772,1102.812h0a1.7,1.7,0,0,1,.037,2.4l-9.028,9.3a1.693,1.693,0,1,1-2.432-2.358l9.027-9.306a1.7,1.7,0,0,1,2.4-.036" transform="translate(-637.679 -963.065)" fill="#ffd8cc"/>
      <path id="Path_56395" data-name="Path 56395" d="M604.111,982.7l3.609-17.517c-.236-.013-26.308-1.725-33.972-20.877a32.84,32.84,0,0,1,1.041-27.3c1.24-2.48-11.857-13.8-12.92-11.611-7.652,15.756-9.543,30.815-3.657,45.525,5.021,12.548,15.217,22.074,29.485,27.55,10.235,3.928,10.192,4.537,16.414,4.232" transform="translate(-550.84 -843.31)" fill="#ffe3db"/>
      <path id="Path_56398" data-name="Path 56398" d="M701.921,1067.859l.078.6a2.059,2.059,0,0,1-1.773,2.3l-10.906,1.409a2.058,2.058,0,0,1-2.3-1.772l-.078-.6a2.059,2.059,0,0,1,1.773-2.3l10.906-1.409a2.059,2.059,0,0,1,2.3,1.773" transform="translate(-631.033 -941.109)" fill="#ffd8cc"/>
      <path id="Path_56396" data-name="Path 56396" d="M573.775,1017.656a2.85,2.85,0,0,1-.8-.121,5.117,5.117,0,0,1-2.873-2.6c-1.165-2.214-.889-4.623.628-5.484a2.451,2.451,0,0,1,1.943-.177,5.122,5.122,0,0,1,2.874,2.6c1.164,2.214.889,4.623-.628,5.484a2.294,2.294,0,0,1-1.143.3m-2.939-3.109a4.286,4.286,0,0,0,2.372,2.19,1.642,1.642,0,0,0,1.3-.1c1.086-.616,1.225-2.618.3-4.372a4.291,4.291,0,0,0-2.372-2.191,1.641,1.641,0,0,0-1.3.1c-1.087.616-1.225,2.619-.3,4.372" transform="translate(-559.738 -906.606)" fill="#ffd8cc"/>
      <path id="Path_56397" data-name="Path 56397" d="M672.344,1054.618s5.942-5.439,10.632-4.96,10.32,4.639,7.349,4.96a31.091,31.091,0,0,1-6.88-.32s8.287,1.76,7.036,3.519-8.443.161-8.443.161,9.694,2.879,7.973,4.159-9.068-.96-9.068-.96,8.912,3.039,6.879,4.479-7.348-2.559-8.6-.8-3.6,8.639-8.912,5.759Z" transform="translate(-620.935 -931.088)" fill="#ffe3db"/>
    </g>
  </g>
</svg>
