<svg xmlns="http://www.w3.org/2000/svg" width="36.518" height="31.505" viewBox="0 0 36.518 31.505">
  <g id="_61ec2129ee2ddcf7487a7430_Brain" data-name="61ec2129ee2ddcf7487a7430_Brain" transform="translate(-2.716 -5.25)">
    <path id="Path_56608" data-name="Path 56608" d="M33.467,14.547v-2.3a6.243,6.243,0,1,0-12.485,0,6.243,6.243,0,1,0-12.485,0v2.3A7.518,7.518,0,0,0,8.5,28.7h0V29.75a6.243,6.243,0,1,0,12.485,0,6.243,6.243,0,1,0,12.485,0V28.7a7.518,7.518,0,0,0,0-14.156Z" transform="translate(-0.007)" fill="#04bab8" opacity="0.2"/>
    <path id="Path_56609" data-name="Path 56609" d="M24.5,30V15" transform="translate(-3.525 -1.5)" fill="none" stroke="#04bab8" stroke-linecap="round" stroke-linejoin="round" stroke-width="1.5"/>
    <path id="Path_56610" data-name="Path 56610" d="M15.75,27A6.25,6.25,0,1,1,9.5,33.25V32.2" transform="translate(-1.004 -3.5)" fill="none" stroke="#04bab8" stroke-linecap="round" stroke-linejoin="round" stroke-width="1.5"/>
    <path id="Path_56611" data-name="Path 56611" d="M30.75,27A6.25,6.25,0,1,0,37,33.25V32.2" transform="translate(-3.546 -3.5)" fill="none" stroke="#04bab8" stroke-linecap="round" stroke-linejoin="round" stroke-width="1.5"/>
    <path id="Path_56612" data-name="Path 56612" d="M12.245,29.125h-1.25a7.5,7.5,0,0,1-2.5-14.578v-2.3a6.25,6.25,0,1,1,12.5,0v17.5" fill="none" stroke="#04bab8" stroke-linecap="round" stroke-linejoin="round" stroke-width="1.5"/>
    <path id="Path_56613" data-name="Path 56613" d="M33.25,29.125H34.5A7.5,7.5,0,0,0,37,14.547v-2.3a6.25,6.25,0,0,0-12.5,0" transform="translate(-3.546)" fill="none" stroke="#04bab8" stroke-linecap="round" stroke-linejoin="round" stroke-width="1.5"/>
    <path id="Path_56614" data-name="Path 56614" d="M16.125,15.75V17a4.375,4.375,0,0,1-4.375,4.375" transform="translate(-1.389 -1.625)" fill="none" stroke="#04bab8" stroke-linecap="round" stroke-linejoin="round" stroke-width="1.5"/>
    <path id="Path_56615" data-name="Path 56615" d="M32,15.75V17a4.375,4.375,0,0,0,4.375,4.375" transform="translate(-4.786 -1.625)" fill="none" stroke="#04bab8" stroke-linecap="round" stroke-linejoin="round" stroke-width="1.5"/>
  </g>
</svg>
