<svg xmlns="http://www.w3.org/2000/svg" width="50" height="50" viewBox="0 0 50 50">
  <g id="Group_54902" data-name="Group 54902" transform="translate(-194 -796)">
    <rect id="Rectangle_20535" data-name="Rectangle 20535" width="50" height="50" transform="translate(194 796)" fill="#04bab8" opacity="0"/>
    <g id="Vision_icon" data-name="Vision icon" transform="translate(185.961 796)">
      <path id="Path_56617" data-name="Path 56617" d="M130.16,106.43a14.171,14.171,0,0,0-19.338,0,13.008,13.008,0,0,0-3.909,9.407,13.29,13.29,0,0,0,4.7,10.085,8.615,8.615,0,0,1,2.882,5.384,2.7,2.7,0,0,0-1.342,2.328v.81a2.711,2.711,0,0,0,1.972,2.6,2.668,2.668,0,0,0-.237,1.1v.81a2.718,2.718,0,0,0,2.727,2.7h5.754a2.718,2.718,0,0,0,2.727-2.7v-.81a2.667,2.667,0,0,0-.237-1.1,2.711,2.711,0,0,0,1.972-2.6v-.81a2.7,2.7,0,0,0-1.342-2.328,8.616,8.616,0,0,1,2.882-5.384,13.289,13.289,0,0,0,4.7-10.085,13.008,13.008,0,0,0-3.909-9.407Zm-5.775,32.522a1.007,1.007,0,0,1-1.017.994h-5.754a1.007,1.007,0,0,1-1.017-.994v-.81a1.007,1.007,0,0,1,1.017-.994h5.754a1.007,1.007,0,0,1,1.017.994v.81Zm1.735-4.508a1.007,1.007,0,0,1-1.017.994h-9.224a1.007,1.007,0,0,1-1.017-.994v-.81a1.007,1.007,0,0,1,1.017-.994H125.1a1.007,1.007,0,0,1,1.017.994Zm-8.28-14.236h-1.7a1.218,1.218,0,1,1,0-2.435h.452a1.232,1.232,0,0,1,1.243,1.218Zm3.653,10.723h-1.944v-9.013h1.944Zm6.764-6.307a10.268,10.268,0,0,0-3.442,6.307H123.2v-9.013h1.723a2.927,2.927,0,1,0,0-5.854h-.48a2.943,2.943,0,0,0-2.953,2.927v1.218h-1.944V118.99a2.943,2.943,0,0,0-2.953-2.927h-.452a2.927,2.927,0,1,0,0,5.854h1.7v9.013h-1.675a10.268,10.268,0,0,0-3.442-6.307,11.583,11.583,0,0,1-4.1-8.786c0-6.561,5.1-11.509,11.868-11.509s11.868,4.948,11.868,11.509A11.581,11.581,0,0,1,128.258,124.624Zm-5.055-4.416V118.99a1.232,1.232,0,0,1,1.243-1.218h.48a1.218,1.218,0,1,1,0,2.435Z" transform="translate(-87.452 -91.655)" fill="#04bab8"/>
      <path id="Path_56618" data-name="Path 56618" d="M46.726,43.219A2.42,2.42,0,0,1,45,42.507l-2.4-2.4,1.207-1.21,2.4,2.4a.823.823,0,0,0,1.058.04l2.946-2.84a.812.812,0,0,0,.039-1.04l-2.346-2.34a.855.855,0,0,1-.1-1.089,17.535,17.535,0,0,0,2.672-6.283.855.855,0,0,1,.837-.68h3.343a.781.781,0,0,0,.709-.743V22.189a.8.8,0,0,0-.848-.705H51.115a.855.855,0,0,1-.843-.714A16.971,16.971,0,0,0,47.695,14.4a.855.855,0,0,1,.113-1.072l2.4-2.4a.813.813,0,0,0,.04-1.049L47.4,6.949a.822.822,0,0,0-1.049-.039L44.007,9.25a.855.855,0,0,1-1.085.1,17.638,17.638,0,0,0-6.3-2.666.855.855,0,0,1-.681-.837v-3.4a.708.708,0,0,0-.648-.743H31.147a.781.781,0,0,0-.709.743v3.5a.855.855,0,0,1-.715.843,17.077,17.077,0,0,0-6.385,2.571A.855.855,0,0,1,22.27,9.25l-2.4-2.4a.823.823,0,0,0-1.058-.04l-2.946,2.84a.812.812,0,0,0-.039,1.039l2.346,2.34a.855.855,0,0,1,.1,1.089A17.535,17.535,0,0,0,15.6,20.4a.855.855,0,0,1-.837.68H11.419a.781.781,0,0,0-.709.743V25.96a.781.781,0,0,0,.748.706h3.4a.855.855,0,0,1,.843.714,16.968,16.968,0,0,0,2.577,6.366.855.855,0,0,1-.113,1.072l-2.4,2.4a.812.812,0,0,0-.04,1.049L18.574,41.2a.822.822,0,0,0,1.049.039L21.97,38.9l1.207,1.21-2.4,2.4a.848.848,0,0,1-.108.091,2.527,2.527,0,0,1-3.3-.191l-.01-.01-2.9-3a.87.87,0,0,1-.081-.1,2.515,2.515,0,0,1,.191-3.3l1.92-1.915a18.787,18.787,0,0,1-2.323-5.713h-2.7a2.487,2.487,0,0,1-2.45-2.246A.862.862,0,0,1,9,26.022V21.828a2.486,2.486,0,0,1,2.251-2.446.853.853,0,0,1,.106-.007H14.08a19.322,19.322,0,0,1,2.388-5.624l-1.91-1.9a.851.851,0,0,1-.091-.107,2.515,2.515,0,0,1,.191-3.3l.01-.01,3-2.9a.858.858,0,0,1,.1-.081,2.527,2.527,0,0,1,3.3.191L23,7.56a18.9,18.9,0,0,1,5.732-2.319V2.453A2.486,2.486,0,0,1,30.98.007.847.847,0,0,1,31.086,0h4.206a2.409,2.409,0,0,1,2.357,2.453V5.166A19.423,19.423,0,0,1,43.291,7.55L45.2,5.643a.848.848,0,0,1,.108-.091,2.527,2.527,0,0,1,3.3.191l.01.01,2.9,3a.863.863,0,0,1,.081.1,2.515,2.515,0,0,1-.191,3.3L49.5,14.061a18.794,18.794,0,0,1,2.323,5.713h2.7a2.512,2.512,0,0,1,2.551,2.246.863.863,0,0,1,.007.106v4.195a2.486,2.486,0,0,1-2.251,2.446.853.853,0,0,1-.106.007H52A19.322,19.322,0,0,1,49.608,34.4l1.91,1.9a.851.851,0,0,1,.091.107,2.515,2.515,0,0,1-.191,3.3l-.01.01-3,2.9a.858.858,0,0,1-.1.081,2.727,2.727,0,0,1-1.579.521Z" fill="#04bab8"/>
    </g>
  </g>
</svg>
