<svg xmlns="http://www.w3.org/2000/svg" width="42.503" height="31.5" viewBox="0 0 42.503 31.5">
  <g id="_61647aa4c4bcb25b4340bc18_Tabs_Icon_3" data-name="61647aa4c4bcb25b4340bc18_Tabs Icon 3" transform="translate(-1.682 -4.309)">
    <path id="Path_56598" data-name="Path 56598" d="M7.281,33.916a1.475,1.475,0,0,0,.255.54,1.506,1.506,0,0,0,.451.4A1.537,1.537,0,0,0,9.165,35,52.647,52.647,0,0,1,36.7,35a1.538,1.538,0,0,0,1.178-.149,1.5,1.5,0,0,0,.45-.4,1.473,1.473,0,0,0,.255-.54l4.815-20.095a1.461,1.461,0,0,0-.038-.812,1.484,1.484,0,0,0-.469-.671,1.533,1.533,0,0,0-1.578-.213l-9.555,4.171a1.537,1.537,0,0,1-1.093.051,1.505,1.505,0,0,1-.842-.687L24.256,5.822a1.5,1.5,0,0,0-.555-.558,1.535,1.535,0,0,0-1.533,0,1.5,1.5,0,0,0-.555.558L16.05,15.658a1.505,1.505,0,0,1-.842.687,1.537,1.537,0,0,1-1.093-.051L4.559,12.122a1.533,1.533,0,0,0-1.578.213,1.483,1.483,0,0,0-.469.67,1.459,1.459,0,0,0-.039.812Z" transform="translate(0 0)" fill="#04bab8" opacity="0.2"/>
    <path id="Path_56599" data-name="Path 56599" d="M7.281,33.916a1.475,1.475,0,0,0,.255.54,1.506,1.506,0,0,0,.451.4A1.537,1.537,0,0,0,9.165,35,52.647,52.647,0,0,1,36.7,35a1.538,1.538,0,0,0,1.178-.149,1.5,1.5,0,0,0,.45-.4,1.473,1.473,0,0,0,.255-.54l4.815-20.095a1.461,1.461,0,0,0-.038-.812,1.484,1.484,0,0,0-.469-.671,1.533,1.533,0,0,0-1.578-.213l-9.555,4.171a1.537,1.537,0,0,1-1.093.051,1.505,1.505,0,0,1-.842-.687L24.256,5.822a1.5,1.5,0,0,0-.555-.558,1.535,1.535,0,0,0-1.533,0,1.5,1.5,0,0,0-.555.558L16.05,15.658a1.505,1.505,0,0,1-.842.687,1.537,1.537,0,0,1-1.093-.051L4.559,12.122a1.533,1.533,0,0,0-1.578.213,1.483,1.483,0,0,0-.469.67,1.459,1.459,0,0,0-.039.812Z" transform="translate(0 0)" fill="none" stroke="#04bab8" stroke-linecap="round" stroke-linejoin="round" stroke-width="1.5"/>
  </g>
</svg>
