<svg xmlns="http://www.w3.org/2000/svg" width="31.5" height="31.5" viewBox="0 0 31.5 31.5">
  <g id="_61647a9ac4bcb2ea1140bba1_Tabs_icon_2" data-name="61647a9ac4bcb2ea1140bba1_Tabs icon 2" transform="translate(-5.25 -5.25)">
    <path id="Path_56589" data-name="Path 56589" d="M24.25,6h0a5.25,5.25,0,0,1,5.25,5.25h0a5.25,5.25,0,0,1-5.25,5.25H19V11.25A5.25,5.25,0,0,1,24.25,6Z" transform="translate(6.5)" fill="#04bab8" opacity="0.2"/>
    <path id="Path_56590" data-name="Path 56590" d="M16.5,16.5H11.25A5.25,5.25,0,0,1,6,11.25H6A5.25,5.25,0,0,1,11.25,6h0a5.25,5.25,0,0,1,5.25,5.25Z" fill="#04bab8" opacity="0.2"/>
    <path id="Path_56591" data-name="Path 56591" d="M19,19h5.25a5.25,5.25,0,0,1,5.25,5.25h0a5.25,5.25,0,0,1-5.25,5.25h0A5.25,5.25,0,0,1,19,24.25Z" transform="translate(6.5 6.5)" fill="#04bab8" opacity="0.2"/>
    <path id="Path_56592" data-name="Path 56592" d="M11.25,29.5h0A5.25,5.25,0,0,1,6,24.25H6A5.25,5.25,0,0,1,11.25,19H16.5v5.25a5.25,5.25,0,0,1-5.25,5.25Z" transform="translate(0 6.5)" fill="#04bab8" opacity="0.2"/>
    <path id="Path_56593" data-name="Path 56593" d="M11.25,29.5h0A5.25,5.25,0,0,1,6,24.25H6A5.25,5.25,0,0,1,11.25,19H16.5v5.25a5.25,5.25,0,0,1-5.25,5.25Z" transform="translate(0 6.5)" fill="none" stroke="#04bab8" stroke-linecap="round" stroke-linejoin="round" stroke-width="1.5"/>
    <path id="Path_56594" data-name="Path 56594" d="M24.25,6h0a5.25,5.25,0,0,1,5.25,5.25h0a5.25,5.25,0,0,1-5.25,5.25H19V11.25A5.25,5.25,0,0,1,24.25,6Z" transform="translate(6.5)" fill="none" stroke="#04bab8" stroke-linecap="round" stroke-linejoin="round" stroke-width="1.5"/>
    <path id="Path_56595" data-name="Path 56595" d="M16.5,16.5H11.25A5.25,5.25,0,0,1,6,11.25H6A5.25,5.25,0,0,1,11.25,6h0a5.25,5.25,0,0,1,5.25,5.25Z" fill="none" stroke="#04bab8" stroke-linecap="round" stroke-linejoin="round" stroke-width="1.5"/>
    <path id="Path_56596" data-name="Path 56596" d="M19,19h5.25a5.25,5.25,0,0,1,5.25,5.25h0a5.25,5.25,0,0,1-5.25,5.25h0A5.25,5.25,0,0,1,19,24.25Z" transform="translate(6.5 6.5)" fill="none" stroke="#04bab8" stroke-linecap="round" stroke-linejoin="round" stroke-width="1.5"/>
    <path id="Path_56597" data-name="Path 56597" d="M22,13H13v9h9Z" transform="translate(3.5 3.5)" fill="none" stroke="#04bab8" stroke-linecap="round" stroke-linejoin="round" stroke-width="1.5"/>
  </g>
</svg>
