<svg xmlns="http://www.w3.org/2000/svg" width="31.5" height="31.5" viewBox="0 0 31.5 31.5">
  <g id="_616db86b64672f7fd79edc9f_Tabs_icon_1" data-name="616db86b64672f7fd79edc9f_Tabs icon 1" transform="translate(-6.75 -6.75)">
    <path id="Path_56600" data-name="Path 56600" d="M13.636,39.273A6.136,6.136,0,1,0,7.5,33.136,6.136,6.136,0,0,0,13.636,39.273Z" transform="translate(0 -1.773)" fill="#04bab8" opacity="0.2"/>
    <path id="Path_56601" data-name="Path 56601" d="M13.636,19.773A6.136,6.136,0,1,0,7.5,13.636,6.136,6.136,0,0,0,13.636,19.773Z" fill="#04bab8" opacity="0.2"/>
    <path id="Path_56602" data-name="Path 56602" d="M33.136,19.773A6.136,6.136,0,1,0,27,13.636,6.136,6.136,0,0,0,33.136,19.773Z" transform="translate(-1.773)" fill="#04bab8" opacity="0.2"/>
    <path id="Path_56603" data-name="Path 56603" d="M33.136,39.273A6.136,6.136,0,1,0,27,33.136,6.136,6.136,0,0,0,33.136,39.273Z" transform="translate(-1.773 -1.773)" fill="#04bab8" opacity="0.2"/>
    <path id="Path_56604" data-name="Path 56604" d="M13.636,19.773A6.136,6.136,0,1,0,7.5,13.636,6.136,6.136,0,0,0,13.636,19.773Z" fill="none" stroke="#04bab8" stroke-linecap="round" stroke-linejoin="round" stroke-width="1.5"/>
    <path id="Path_56605" data-name="Path 56605" d="M33.136,19.773A6.136,6.136,0,1,0,27,13.636,6.136,6.136,0,0,0,33.136,19.773Z" transform="translate(-1.773)" fill="none" stroke="#04bab8" stroke-linecap="round" stroke-linejoin="round" stroke-width="1.5"/>
    <path id="Path_56606" data-name="Path 56606" d="M33.136,39.273A6.136,6.136,0,1,0,27,33.136,6.136,6.136,0,0,0,33.136,39.273Z" transform="translate(-1.773 -1.773)" fill="none" stroke="#04bab8" stroke-linecap="round" stroke-linejoin="round" stroke-width="1.5"/>
    <path id="Path_56607" data-name="Path 56607" d="M13.636,39.273A6.136,6.136,0,1,0,7.5,33.136,6.136,6.136,0,0,0,13.636,39.273Z" transform="translate(0 -1.773)" fill="none" stroke="#04bab8" stroke-linecap="round" stroke-linejoin="round" stroke-width="1.5"/>
  </g>
</svg>
