<svg xmlns="http://www.w3.org/2000/svg" width="50" height="50" viewBox="0 0 50 50">
  <g id="vision_" data-name="vision " transform="translate(-5 -4.97)">
    <path id="Path_56616" data-name="Path 56616" d="M43.461,31.358a13.573,13.573,0,0,1-12.044,12.1.467.467,0,0,0-.472.472v10.1a.944.944,0,0,1-1.889,0V50.362a.511.511,0,0,0-.472-.472A19.907,19.907,0,0,1,10.806,34.606a.944.944,0,1,1,1.828-.472A17.952,17.952,0,0,0,28.522,47.942c.122.061.239,0,.356-.117a.355.355,0,0,0,.178-.355V43.928a.467.467,0,0,0-.472-.472,13.748,13.748,0,0,1-8.144-3.886,13.587,13.587,0,0,1-3.889-8.206.494.494,0,0,0-.472-.416H5.972a.972.972,0,1,1,0-1.943H9.811a.5.5,0,0,0,.472-.416A20.118,20.118,0,0,1,25.039,10.4a.977.977,0,0,1,.472,1.893A18.013,18.013,0,0,0,12.222,28.466a.455.455,0,0,0,.472.555h3.361a.494.494,0,0,0,.472-.416,13.573,13.573,0,0,1,12.056-12.12.467.467,0,0,0,.472-.472V5.914a.944.944,0,0,1,1.889,0V17.367a.961.961,0,0,1-1.006,1c-10.272,0-15.406,12.569-8.144,19.831S41.45,40.269,41.628,29.97a.933.933,0,0,1,.944-.944H54.028a.972.972,0,1,1,0,1.943H50.25a.455.455,0,0,0-.472.416A20.068,20.068,0,0,1,34.606,49.4a.967.967,0,0,1-.417-1.888A18.047,18.047,0,0,0,47.828,31.475a.455.455,0,0,0-.472-.555H43.933a.494.494,0,0,0-.472.416Zm7.65-15.7-6.828,6.784a.934.934,0,0,1-.644.3h-4.55a.8.8,0,0,0-.35.117L30.65,31a.961.961,0,0,1-1.361-1.355l8.089-8.15a.322.322,0,0,0,.178-.294V16.646a.971.971,0,0,1,.294-.705l6.789-6.779a.961.961,0,0,1,1.667.65v3.72a.505.505,0,0,0,.472.472h3.661a.972.972,0,0,1,.706,1.666Zm-7.778,5L47.289,16.7a.477.477,0,0,0-.294-.827H45.328a.983.983,0,0,1-1.006-.944V13.314a.489.489,0,0,0-.828-.35l-3.889,3.953a.522.522,0,0,0-.178.355v3.07a.467.467,0,0,0,.472.472h3.128c.122,0,.239,0,.294-.122Zm-5.311,9.327A8.028,8.028,0,1,1,30,21.97a.949.949,0,0,1,0,1.893,6.107,6.107,0,1,0,0,12.214c3.544,0,5.906-2.654,6.078-6.107a.978.978,0,1,1,1.95.056Z" fill="#04bab8"/>
  </g>
</svg>
