<svg xmlns="http://www.w3.org/2000/svg" xmlns:xlink="http://www.w3.org/1999/xlink" width="112" height="16" viewBox="0 0 112 16">
  <defs>
    <clipPath id="clip-path">
      <rect width="112" height="16" fill="none"/>
    </clipPath>
  </defs>
  <g id="Repeat_Grid_2" data-name="Repeat Grid 2" clip-path="url(#clip-path)">
    <g transform="translate(-415 -1112)">
      <path id="star" d="M8.546,1.759a.62.62,0,0,1,1.128,0l1.945,4.249a.621.621,0,0,0,.476.356l4.482.645a.623.623,0,0,1,.352,1.055L13.623,11.4a.624.624,0,0,0-.171.544l.807,4.718a.621.621,0,0,1-.917.647L9.415,15.091a.619.619,0,0,0-.61,0L4.878,17.314a.621.621,0,0,1-.917-.647l.807-4.718A.624.624,0,0,0,4.6,11.4L1.291,8.064a.623.623,0,0,1,.352-1.055l4.482-.645A.621.621,0,0,0,6.6,6.008Z" transform="translate(413.89 1110.604)" fill="#f0f643"/>
    </g>
    <g transform="translate(-391 -1112)">
      <path id="star-2" data-name="star" d="M8.546,1.759a.62.62,0,0,1,1.128,0l1.945,4.249a.621.621,0,0,0,.476.356l4.482.645a.623.623,0,0,1,.352,1.055L13.623,11.4a.624.624,0,0,0-.171.544l.807,4.718a.621.621,0,0,1-.917.647L9.415,15.091a.619.619,0,0,0-.61,0L4.878,17.314a.621.621,0,0,1-.917-.647l.807-4.718A.624.624,0,0,0,4.6,11.4L1.291,8.064a.623.623,0,0,1,.352-1.055l4.482-.645A.621.621,0,0,0,6.6,6.008Z" transform="translate(413.89 1110.604)" fill="#f0f643"/>
    </g>
    <g transform="translate(-367 -1112)">
      <path id="star-3" data-name="star" d="M8.546,1.759a.62.62,0,0,1,1.128,0l1.945,4.249a.621.621,0,0,0,.476.356l4.482.645a.623.623,0,0,1,.352,1.055L13.623,11.4a.624.624,0,0,0-.171.544l.807,4.718a.621.621,0,0,1-.917.647L9.415,15.091a.619.619,0,0,0-.61,0L4.878,17.314a.621.621,0,0,1-.917-.647l.807-4.718A.624.624,0,0,0,4.6,11.4L1.291,8.064a.623.623,0,0,1,.352-1.055l4.482-.645A.621.621,0,0,0,6.6,6.008Z" transform="translate(413.89 1110.604)" fill="#f0f643"/>
    </g>
    <g transform="translate(-343 -1112)">
      <path id="star-4" data-name="star" d="M8.546,1.759a.62.62,0,0,1,1.128,0l1.945,4.249a.621.621,0,0,0,.476.356l4.482.645a.623.623,0,0,1,.352,1.055L13.623,11.4a.624.624,0,0,0-.171.544l.807,4.718a.621.621,0,0,1-.917.647L9.415,15.091a.619.619,0,0,0-.61,0L4.878,17.314a.621.621,0,0,1-.917-.647l.807-4.718A.624.624,0,0,0,4.6,11.4L1.291,8.064a.623.623,0,0,1,.352-1.055l4.482-.645A.621.621,0,0,0,6.6,6.008Z" transform="translate(413.89 1110.604)" fill="#f0f643"/>
    </g>
    <g transform="translate(-319 -1112)">
      <path id="star-5" data-name="star" d="M8.546,1.759a.62.62,0,0,1,1.128,0l1.945,4.249a.621.621,0,0,0,.476.356l4.482.645a.623.623,0,0,1,.352,1.055L13.623,11.4a.624.624,0,0,0-.171.544l.807,4.718a.621.621,0,0,1-.917.647L9.415,15.091a.619.619,0,0,0-.61,0L4.878,17.314a.621.621,0,0,1-.917-.647l.807-4.718A.624.624,0,0,0,4.6,11.4L1.291,8.064a.623.623,0,0,1,.352-1.055l4.482-.645A.621.621,0,0,0,6.6,6.008Z" transform="translate(413.89 1110.604)" fill="#f0f643"/>
    </g>
  </g>
</svg>
