<svg id="_1" data-name="1" xmlns="http://www.w3.org/2000/svg" width="30" height="30" viewBox="0 0 30 30">
  <path id="Path_56647" data-name="Path 56647" d="M30.893,13.787C29.891,5.807,24.483.65,16.339,0l-.873.012a7.075,7.075,0,0,0-4.225,1.9,6.082,6.082,0,0,0-1.33,3.129c-.3,3.814,2.449,5.256,4.664,6.416,0,0,2.93,1.529,4.383,2.279l2.549,1.324A9.912,9.912,0,0,1,24.331,17a7.79,7.79,0,0,1,2,6.123.939.939,0,0,0,.545.908.929.929,0,0,0,1.043-.176,6.626,6.626,0,0,0,1.154-1.594,14.845,14.845,0,0,0,1.752-5.813.877.877,0,0,0,.07-.352Zm-1.869,2.127a1.052,1.052,0,0,0-.047.228,13.3,13.3,0,0,1-.967,4.031,9.159,9.159,0,0,0-2.3-4.43,12.079,12.079,0,0,0-3.334-2.338l-2.555-1.33c-1.447-.75-2.889-1.5-4.307-2.244l-.07-.035c-2.408-1.26-3.855-2.2-3.662-4.606a4.259,4.259,0,0,1,.867-2.039,5.472,5.472,0,0,1,2.977-1.277h.639c7.113.568,11.889,5.109,12.762,12.029Z" transform="translate(-0.899)" fill="#04bab8"/>
  <path id="Path_56648" data-name="Path 56648" d="M30.893,13.787C29.891,5.807,24.483.65,16.339,0l-.873.012a7.075,7.075,0,0,0-4.225,1.9,6.082,6.082,0,0,0-1.33,3.129c-.3,3.814,2.449,5.256,4.664,6.416,0,0,2.93,1.529,4.383,2.279l2.549,1.324A9.912,9.912,0,0,1,24.331,17a7.79,7.79,0,0,1,2,6.123.939.939,0,0,0,.545.908.929.929,0,0,0,1.043-.176,6.626,6.626,0,0,0,1.154-1.594,14.845,14.845,0,0,0,1.752-5.813.877.877,0,0,0,.07-.352Zm-1.869,2.127a1.052,1.052,0,0,0-.047.228,13.3,13.3,0,0,1-.967,4.031,9.159,9.159,0,0,0-2.3-4.43,12.079,12.079,0,0,0-3.334-2.338l-2.555-1.33c-1.447-.75-2.889-1.5-4.307-2.244l-.07-.035c-2.408-1.26-3.855-2.2-3.662-4.606a4.259,4.259,0,0,1,.867-2.039,5.472,5.472,0,0,1,2.977-1.277h.639c7.113.568,11.889,5.109,12.762,12.029Z" transform="translate(-0.899)" fill="#04bab8"/>
  <path id="Path_56649" data-name="Path 56649" d="M22.389,21.562c-.545-1.975-2.285-3.135-4.09-4.1-1.254-.668-2.479-1.295-3.7-1.922-1.154-.592-2.309-1.189-3.5-1.816l-.164-.088a12.106,12.106,0,0,1-2.9-1.887A7.847,7.847,0,0,1,6.041,7.816a16.59,16.59,0,0,1-.094-2.045.944.944,0,0,0-.545-.85.933.933,0,0,0-1,.135A12.466,12.466,0,0,0,1.107,9.99,15.365,15.365,0,0,0,0,14.889V16.1A15.106,15.106,0,0,0,13.9,30.439l2.016-.012a7.68,7.68,0,0,0,4.436-2.314C21.053,27.381,23.262,24.726,22.389,21.562Zm-3.4,5.262a5.838,5.838,0,0,1-3.223,1.74L14,28.57a13.151,13.151,0,0,1-8.42-3.984,13.336,13.336,0,0,1-3.709-8.543V14.935a13.435,13.435,0,0,1,.984-4.266,12.854,12.854,0,0,1,1.33-2.561v.018A9.69,9.69,0,0,0,6.7,13.084,13.665,13.665,0,0,0,10.055,15.3l.164.088c1.2.627,2.355,1.23,3.522,1.822,1.219.621,2.432,1.248,3.674,1.91,1.436.762,2.812,1.646,3.164,2.936C21.188,24.287,19.518,26.267,18.99,26.824Z" transform="translate(0 -0.439)" fill="#04bab8"/>
  <path id="Path_56650" data-name="Path 56650" d="M22.389,21.562c-.545-1.975-2.285-3.135-4.09-4.1-1.254-.668-2.479-1.295-3.7-1.922-1.154-.592-2.309-1.189-3.5-1.816l-.164-.088a12.106,12.106,0,0,1-2.9-1.887A7.847,7.847,0,0,1,6.041,7.816a16.59,16.59,0,0,1-.094-2.045.944.944,0,0,0-.545-.85.933.933,0,0,0-1,.135A12.466,12.466,0,0,0,1.107,9.99,15.365,15.365,0,0,0,0,14.889V16.1A15.106,15.106,0,0,0,13.9,30.439l2.016-.012a7.68,7.68,0,0,0,4.436-2.314C21.053,27.381,23.262,24.726,22.389,21.562Zm-3.4,5.262a5.838,5.838,0,0,1-3.223,1.74L14,28.57a13.151,13.151,0,0,1-8.42-3.984,13.336,13.336,0,0,1-3.709-8.543V14.935a13.435,13.435,0,0,1,.984-4.266,12.854,12.854,0,0,1,1.33-2.561v.018A9.69,9.69,0,0,0,6.7,13.084,13.665,13.665,0,0,0,10.055,15.3l.164.088c1.2.627,2.355,1.23,3.522,1.822,1.219.621,2.432,1.248,3.674,1.91,1.436.762,2.812,1.646,3.164,2.936C21.188,24.287,19.518,26.267,18.99,26.824Z" transform="translate(0 -0.439)" fill="#04bab8"/>
</svg>
