<svg id="_2" data-name="2" xmlns="http://www.w3.org/2000/svg" width="30" height="29.999" viewBox="0 0 30 29.999">
  <path id="Path_56651" data-name="Path 56651" d="M21.676,16.435l-2,2-2-2,4.8-4.8a5.919,5.919,0,0,0,7.115-7.859l-.49-1.25L25.959,5.664l-1.269-.34-.34-1.269L27.493.912l-1.25-.49a5.919,5.919,0,0,0-7.859,7.115l-4.8,4.8L7.133,5.89,8.844,4.18,3.541,0,0,3.541l4.18,5.3L5.891,7.133l6.448,6.448L8.1,17.82a6.23,6.23,0,1,0,4.094,4.094l4.239-4.239,2,2-2,2,7.238,7.238a3.706,3.706,0,0,0,5.241-5.241ZM2.346,3.679,3.679,2.346,6.2,4.335,4.336,6.2Zm18.07,4.309-.21-.535a4.162,4.162,0,0,1,3.942-5.682L22.39,3.53l.865,3.229,3.229.865,1.759-1.759A4.162,4.162,0,0,1,22.56,9.807l-.535-.21L16.433,15.19l-1.609-1.609Zm-10.278,13.5.229.545a4.485,4.485,0,1,1-2.383-2.383l.545.229,5.053-5.053,1.609,1.609Zm11.538-2.566,1.609,1.609-2.756,2.756L18.92,21.676Zm6,8.752a1.949,1.949,0,0,1-2.756,0l-3.144-3.144,2.756-2.756,3.144,3.144A1.951,1.951,0,0,1,27.672,27.672Z" fill="#04bab8"/>
  <path id="Path_56652" data-name="Path 56652" d="M21.676,16.435l-2,2-2-2,4.8-4.8a5.919,5.919,0,0,0,7.115-7.859l-.49-1.25L25.959,5.664l-1.269-.34-.34-1.269L27.493.912l-1.25-.49a5.919,5.919,0,0,0-7.859,7.115l-4.8,4.8L7.133,5.89,8.844,4.18,3.541,0,0,3.541l4.18,5.3L5.891,7.133l6.448,6.448L8.1,17.82a6.23,6.23,0,1,0,4.094,4.094l4.239-4.239,2,2-2,2,7.238,7.238a3.706,3.706,0,0,0,5.241-5.241ZM2.346,3.679,3.679,2.346,6.2,4.335,4.336,6.2Zm18.07,4.309-.21-.535a4.162,4.162,0,0,1,3.942-5.682L22.39,3.53l.865,3.229,3.229.865,1.759-1.759A4.162,4.162,0,0,1,22.56,9.807l-.535-.21L16.433,15.19l-1.609-1.609Zm-10.278,13.5.229.545a4.485,4.485,0,1,1-2.383-2.383l.545.229,5.053-5.053,1.609,1.609Zm11.538-2.566,1.609,1.609-2.756,2.756L18.92,21.676Zm6,8.752a1.949,1.949,0,0,1-2.756,0l-3.144-3.144,2.756-2.756,3.144,3.144A1.951,1.951,0,0,1,27.672,27.672Z" fill="#04bab8"/>
  <path id="Path_56653" data-name="Path 56653" d="M6.58,22.962a2.895,2.895,0,1,0,2.047.848A2.876,2.876,0,0,0,6.58,22.962Zm.8,3.7a1.138,1.138,0,1,1,0-1.609A1.13,1.13,0,0,1,7.384,26.661Z" transform="translate(-0.335 -2.087)" fill="#04bab8"/>
  <path id="Path_56654" data-name="Path 56654" d="M6.58,22.962a2.895,2.895,0,1,0,2.047.848A2.876,2.876,0,0,0,6.58,22.962Zm.8,3.7a1.138,1.138,0,1,1,0-1.609A1.13,1.13,0,0,1,7.384,26.661Z" transform="translate(-0.335 -2.087)" fill="#04bab8"/>
</svg>
