<svg id="_3" data-name="3" xmlns="http://www.w3.org/2000/svg" width="27" height="30" viewBox="0 0 27 30">
  <path id="Path_56655" data-name="Path 56655" d="M17.194,16a4.131,4.131,0,0,0-3.058,1.336A4.131,4.131,0,0,0,11.079,16,4.014,4.014,0,0,0,7,19.939c0,3.823,3.406,6.73,6.812,7.828a1.053,1.053,0,0,0,.645,0c3.443-1.11,6.812-4.031,6.812-7.828A4.015,4.015,0,0,0,17.194,16Zm-3.058,9.779c-1.169-.466-5.1-2.294-5.1-5.839a2.04,2.04,0,0,1,4.077,0,1.02,1.02,0,0,0,2.038,0,2.04,2.04,0,0,1,4.077,0C19.233,23.486,15.3,25.314,14.137,25.779Z" transform="translate(-0.637 -1.455)" fill="#04bab8"/>
  <path id="Path_56656" data-name="Path 56656" d="M17.194,16a4.131,4.131,0,0,0-3.058,1.336A4.131,4.131,0,0,0,11.079,16,4.014,4.014,0,0,0,7,19.939c0,3.823,3.406,6.73,6.812,7.828a1.053,1.053,0,0,0,.645,0c3.443-1.11,6.812-4.031,6.812-7.828A4.015,4.015,0,0,0,17.194,16Zm-3.058,9.779c-1.169-.466-5.1-2.294-5.1-5.839a2.04,2.04,0,0,1,4.077,0,1.02,1.02,0,0,0,2.038,0,2.04,2.04,0,0,1,4.077,0C19.233,23.486,15.3,25.314,14.137,25.779Z" transform="translate(-0.637 -1.455)" fill="#04bab8"/>
  <path id="Path_56657" data-name="Path 56657" d="M22.047,6.368a.887.887,0,0,0-.653.709,8.747,8.747,0,0,1-.876,2.786c-.335.587-.616.742-.718.742-.134,0-1.371-.134-3.46-4.765A51.029,51.029,0,0,1,14.362.626.9.9,0,0,0,13.5,0h0a.9.9,0,0,0-.859.618,53.6,53.6,0,0,1-2.018,5.206C8.5,10.471,7.327,10.605,7.2,10.605c-.1,0-.383-.155-.718-.742a8.744,8.744,0,0,1-.876-2.786.887.887,0,0,0-.653-.709.913.913,0,0,0-.93.289A15.178,15.178,0,0,0,0,16.816,13.2,13.2,0,0,0,13.5,30,13.2,13.2,0,0,0,27,16.816,15.178,15.178,0,0,0,22.977,6.657.913.913,0,0,0,22.047,6.368ZM13.5,28.242A11.442,11.442,0,0,1,1.8,16.816,12.653,12.653,0,0,1,4.276,9.246c.642,1.983,1.681,3.117,2.924,3.117,1.643,0,3.253-1.851,5.066-5.824.472-1.035.888-2.062,1.221-2.939.326.876.733,1.9,1.2,2.936,1.792,3.976,3.417,5.828,5.114,5.828,1.242,0,2.281-1.135,2.924-3.117A12.653,12.653,0,0,1,25.2,16.816,11.442,11.442,0,0,1,13.5,28.242Z" fill="#04bab8"/>
  <path id="Path_56658" data-name="Path 56658" d="M22.047,6.368a.887.887,0,0,0-.653.709,8.747,8.747,0,0,1-.876,2.786c-.335.587-.616.742-.718.742-.134,0-1.371-.134-3.46-4.765A51.029,51.029,0,0,1,14.362.626.9.9,0,0,0,13.5,0h0a.9.9,0,0,0-.859.618,53.6,53.6,0,0,1-2.018,5.206C8.5,10.471,7.327,10.605,7.2,10.605c-.1,0-.383-.155-.718-.742a8.744,8.744,0,0,1-.876-2.786.887.887,0,0,0-.653-.709.913.913,0,0,0-.93.289A15.178,15.178,0,0,0,0,16.816,13.2,13.2,0,0,0,13.5,30,13.2,13.2,0,0,0,27,16.816,15.178,15.178,0,0,0,22.977,6.657.913.913,0,0,0,22.047,6.368ZM13.5,28.242A11.442,11.442,0,0,1,1.8,16.816,12.653,12.653,0,0,1,4.276,9.246c.642,1.983,1.681,3.117,2.924,3.117,1.643,0,3.253-1.851,5.066-5.824.472-1.035.888-2.062,1.221-2.939.326.876.733,1.9,1.2,2.936,1.792,3.976,3.417,5.828,5.114,5.828,1.242,0,2.281-1.135,2.924-3.117A12.653,12.653,0,0,1,25.2,16.816,11.442,11.442,0,0,1,13.5,28.242Z" fill="#04bab8"/>
</svg>
