<svg id="_4" data-name="4" xmlns="http://www.w3.org/2000/svg" width="26" height="30" viewBox="0 0 26 30">
  <path id="Path_56659" data-name="Path 56659" d="M26,13.7a3.806,3.806,0,0,0-.546-1.956,3.83,3.83,0,0,0-.626-4.723,4.01,4.01,0,0,0-.863-.642A3.72,3.72,0,0,0,24,5.87a4,4,0,0,0-4.528-3.878A4.035,4.035,0,0,0,13,1.329a4.035,4.035,0,0,0-6.472.663A3.974,3.974,0,0,0,2,5.87a3.737,3.737,0,0,0,.034.5,4.011,4.011,0,0,0-.863.642,3.83,3.83,0,0,0-.626,4.723A3.806,3.806,0,0,0,0,13.7a3.9,3.9,0,0,0,2.036,3.4V17.1A3.946,3.946,0,0,0,6,21.522a3.987,3.987,0,0,0,.528-.035A3.973,3.973,0,0,0,8,22.947v2.162a5,5,0,0,0,10,0V22.947a3.975,3.975,0,0,0,1.472-1.46,3.987,3.987,0,0,0,.528.035,3.947,3.947,0,0,0,3.964-4.43A3.9,3.9,0,0,0,26,13.7ZM8.081,20.073a1,1,0,0,0-.965-.723c-.392,0-.52.215-1.115.215a1.957,1.957,0,1,1,0-3.913A.979.979,0,1,0,6,13.7a4.026,4.026,0,0,0-3.191,1.557A1.93,1.93,0,0,1,2,13.7a1.906,1.906,0,0,1,.522-1.3.962.962,0,0,0,0-1.31A1.947,1.947,0,0,1,4,7.826,2.01,2.01,0,0,1,5.414,8.4a1.016,1.016,0,0,0,1.414,0,.963.963,0,0,0,0-1.383A4.019,4.019,0,0,0,4,5.869,1.981,1.981,0,0,1,6,3.913a2.026,2.026,0,0,1,.743.144A1,1,0,0,0,8.081,3.4,2,2,0,0,1,12,3.913V9.881a4.928,4.928,0,0,0-4,4.793,1,1,0,0,0,2,0,2.944,2.944,0,0,1,2-2.767v7.658a2,2,0,0,1-3.919.508ZM13,28.043a3,3,0,0,1-2.828-1.956h5.656A3,3,0,0,1,13,28.043Zm3-3.913H10v-.652a4.029,4.029,0,0,0,3-1.329,4.029,4.029,0,0,0,3,1.329Zm7.479-11.737A1.907,1.907,0,0,1,24,13.7a1.929,1.929,0,0,1-.808,1.557A4.026,4.026,0,0,0,20,13.7a.979.979,0,1,0,0,1.957,1.957,1.957,0,1,1,0,3.913,2.026,2.026,0,0,1-.743-.144,1,1,0,0,0-1.338.652A2,2,0,0,1,14,19.565V11.907a2.944,2.944,0,0,1,2,2.767,1,1,0,0,0,2,0,4.928,4.928,0,0,0-4-4.793V3.913a2,2,0,0,1,3.919-.508,1,1,0,0,0,1.338.652A2.026,2.026,0,0,1,20,3.913,1.981,1.981,0,0,1,22,5.87a4.019,4.019,0,0,0-2.828,1.146.963.963,0,0,0,0,1.383,1.016,1.016,0,0,0,1.414,0A2.01,2.01,0,0,1,22,7.826a1.946,1.946,0,0,1,1.479,3.258A.962.962,0,0,0,23.479,12.394Z" fill="#04bab8"/>
  <path id="Path_56660" data-name="Path 56660" d="M26,13.7a3.806,3.806,0,0,0-.546-1.956,3.83,3.83,0,0,0-.626-4.723,4.01,4.01,0,0,0-.863-.642A3.72,3.72,0,0,0,24,5.87a4,4,0,0,0-4.528-3.878A4.035,4.035,0,0,0,13,1.329a4.035,4.035,0,0,0-6.472.663A3.974,3.974,0,0,0,2,5.87a3.737,3.737,0,0,0,.034.5,4.011,4.011,0,0,0-.863.642,3.83,3.83,0,0,0-.626,4.723A3.806,3.806,0,0,0,0,13.7a3.9,3.9,0,0,0,2.036,3.4V17.1A3.946,3.946,0,0,0,6,21.522a3.987,3.987,0,0,0,.528-.035A3.973,3.973,0,0,0,8,22.947v2.162a5,5,0,0,0,10,0V22.947a3.975,3.975,0,0,0,1.472-1.46,3.987,3.987,0,0,0,.528.035,3.947,3.947,0,0,0,3.964-4.43A3.9,3.9,0,0,0,26,13.7ZM8.081,20.073a1,1,0,0,0-.965-.723c-.392,0-.52.215-1.115.215a1.957,1.957,0,1,1,0-3.913A.979.979,0,1,0,6,13.7a4.026,4.026,0,0,0-3.191,1.557A1.93,1.93,0,0,1,2,13.7a1.906,1.906,0,0,1,.522-1.3.962.962,0,0,0,0-1.31A1.947,1.947,0,0,1,4,7.826,2.01,2.01,0,0,1,5.414,8.4a1.016,1.016,0,0,0,1.414,0,.963.963,0,0,0,0-1.383A4.019,4.019,0,0,0,4,5.869,1.981,1.981,0,0,1,6,3.913a2.026,2.026,0,0,1,.743.144A1,1,0,0,0,8.081,3.4,2,2,0,0,1,12,3.913V9.881a4.928,4.928,0,0,0-4,4.793,1,1,0,0,0,2,0,2.944,2.944,0,0,1,2-2.767v7.658a2,2,0,0,1-3.919.508ZM13,28.043a3,3,0,0,1-2.828-1.956h5.656A3,3,0,0,1,13,28.043Zm3-3.913H10v-.652a4.029,4.029,0,0,0,3-1.329,4.029,4.029,0,0,0,3,1.329Zm7.479-11.737A1.907,1.907,0,0,1,24,13.7a1.929,1.929,0,0,1-.808,1.557A4.026,4.026,0,0,0,20,13.7a.979.979,0,1,0,0,1.957,1.957,1.957,0,1,1,0,3.913,2.026,2.026,0,0,1-.743-.144,1,1,0,0,0-1.338.652A2,2,0,0,1,14,19.565V11.907a2.944,2.944,0,0,1,2,2.767,1,1,0,0,0,2,0,4.928,4.928,0,0,0-4-4.793V3.913a2,2,0,0,1,3.919-.508,1,1,0,0,0,1.338.652A2.026,2.026,0,0,1,20,3.913,1.981,1.981,0,0,1,22,5.87a4.019,4.019,0,0,0-2.828,1.146.963.963,0,0,0,0,1.383,1.016,1.016,0,0,0,1.414,0A2.01,2.01,0,0,1,22,7.826a1.946,1.946,0,0,1,1.479,3.258A.962.962,0,0,0,23.479,12.394Z" fill="#04bab8"/>
</svg>
