<svg id="_5" data-name="5" xmlns="http://www.w3.org/2000/svg" width="30" height="29" viewBox="0 0 30 29">
  <path id="Path_56661" data-name="Path 56661" d="M26.972,15.985a12.088,12.088,0,0,0-5.844-9.5q.007-.142.007-.285a6.164,6.164,0,1,0-12.329,0c0,.1,0,.19.007.285a12.087,12.087,0,0,0-5.847,9.535,6.207,6.207,0,0,0,3.2,11.5,6.1,6.1,0,0,0,2.3-.446A11.98,11.98,0,0,0,21.5,27.062a6.1,6.1,0,0,0,2.332.461,6.207,6.207,0,0,0,3.137-11.538Zm-12-13.622A3.839,3.839,0,1,1,11.155,6.2a3.832,3.832,0,0,1,3.816-3.839ZM2.348,21.322a3.816,3.816,0,1,1,3.816,3.839,3.832,3.832,0,0,1-3.816-3.839ZM10.621,25.6A6.186,6.186,0,0,0,5.437,15.164,9.724,9.724,0,0,1,9.422,8.9a6.147,6.147,0,0,0,11.1,0A9.724,9.724,0,0,1,24.5,15.157a6.2,6.2,0,0,0-5.143,10.426,9.659,9.659,0,0,1-8.74.02Zm13.215-.442a3.839,3.839,0,1,1,3.816-3.839,3.832,3.832,0,0,1-3.816,3.839Z" fill="#04bab8"/>
  <path id="Path_56662" data-name="Path 56662" d="M26.972,15.985a12.088,12.088,0,0,0-5.844-9.5q.007-.142.007-.285a6.164,6.164,0,1,0-12.329,0c0,.1,0,.19.007.285a12.087,12.087,0,0,0-5.847,9.535,6.207,6.207,0,0,0,3.2,11.5,6.1,6.1,0,0,0,2.3-.446A11.98,11.98,0,0,0,21.5,27.062a6.1,6.1,0,0,0,2.332.461,6.207,6.207,0,0,0,3.137-11.538Zm-12-13.622A3.839,3.839,0,1,1,11.155,6.2a3.832,3.832,0,0,1,3.816-3.839ZM2.348,21.322a3.816,3.816,0,1,1,3.816,3.839,3.832,3.832,0,0,1-3.816-3.839ZM10.621,25.6A6.186,6.186,0,0,0,5.437,15.164,9.724,9.724,0,0,1,9.422,8.9a6.147,6.147,0,0,0,11.1,0A9.724,9.724,0,0,1,24.5,15.157a6.2,6.2,0,0,0-5.143,10.426,9.659,9.659,0,0,1-8.74.02Zm13.215-.442a3.839,3.839,0,1,1,3.816-3.839,3.832,3.832,0,0,1-3.816,3.839Z" fill="#04bab8"/>
</svg>
