<svg xmlns="http://www.w3.org/2000/svg" width="60" height="60" viewBox="0 0 60 60">
  <g id="Group_35" data-name="Group 35" transform="translate(-242 -3074)">
    <g id="bg" transform="translate(242 3074)" fill="#f0f643" stroke="#707070" stroke-width="1" opacity="0">
      <rect width="60" height="60" stroke="none"/>
      <rect x="0.5" y="0.5" width="59" height="59" fill="none"/>
    </g>
    <g id="Wills_Created" data-name="Wills Created" transform="translate(2130 -1820)">
      <path id="Path_45208" data-name="Path 45208" d="M49.2,53.86H19.68a4.729,4.729,0,0,1-4.78-4.78v-25.4a.937.937,0,1,1,1.874,0v25.4a2.875,2.875,0,0,0,2.905,2.905H49.2a2.874,2.874,0,0,0,2.905-2.905V5.78A2.874,2.874,0,0,0,49.2,2.874H19.68A2.874,2.874,0,0,0,16.774,5.78V7.092a.937.937,0,1,1-1.874,0V5.78A4.729,4.729,0,0,1,19.68,1H49.2a4.729,4.729,0,0,1,4.78,4.78v43.3a4.729,4.729,0,0,1-4.78,4.78Z" transform="translate(-1890.952 4893)" fill="#f0f643"/>
      <path id="Path_45209" data-name="Path 45209" d="M52.3,61.376q-.223,0-.451-.02h0L22.417,58.638A4.746,4.746,0,0,1,18.1,53.448V53.3a.937.937,0,0,1,.937-.937,2.576,2.576,0,0,1,.469.055,1.861,1.861,0,0,0,.281.038H49.308a2.905,2.905,0,0,0,2.905-2.905V9.343a.937.937,0,0,1,1.013-.937l3.468.281a4.88,4.88,0,0,1,3.439,1.781,4.564,4.564,0,0,1,.978,3.468l-4.024,43.1A4.732,4.732,0,0,1,52.3,61.376Zm-.286-1.89a2.893,2.893,0,0,0,3.2-2.612v-.006l4.03-43.113v-.034a2.708,2.708,0,0,0-.576-2.07,3.022,3.022,0,0,0-2.126-1.089l-2.453-.2V49.55a4.8,4.8,0,0,1-4.78,4.78H19.995a2.861,2.861,0,0,0,2.59,2.437h0ZM34.688,41.209H22.878a.937.937,0,1,1,0-1.874H34.688a.937.937,0,0,1,0,1.874Zm13.028-5.342h-4.5a.937.937,0,1,1,0-1.874h4.5a.937.937,0,1,1,0,1.874Zm-8.529,0H22.878a.937.937,0,1,1,0-1.874H39.186a.937.937,0,0,1,0,1.874Zm8.529-5.436H31.782a.937.937,0,0,1,0-1.874H47.715a.937.937,0,1,1,0,1.874Zm-20.057,0h-4.78a.937.937,0,0,1,0-1.874h4.78a.937.937,0,0,1,0,1.874Zm20.057-5.436H37.593a.937.937,0,0,1,0-1.874H47.715a.937.937,0,1,1,0,1.874Zm-14.059,0H22.878a.937.937,0,0,1,0-1.874H33.657a.937.937,0,1,1,0,1.874Zm14.059-5.342H26.346a.937.937,0,0,1,0-1.874H47.715a.937.937,0,1,1,0,1.874Zm0-5.436h-12a.937.937,0,1,1,0-1.874h12a.937.937,0,1,1,0,1.874Zm-16.027,0H26.346a.937.937,0,0,1,0-1.874h5.342a.937.937,0,0,1,0,1.874ZM47.715,8.874H27A.937.937,0,1,1,27,7H47.715a.937.937,0,1,1,0,1.874Z" transform="translate(-1891.151 4892.624)" fill="#f0f643"/>
      <path id="Path_45210" data-name="Path 45210" d="M6.349,62.654a.937.937,0,0,1-.852-.545L2.926,56.523A.937.937,0,0,1,2.694,55.4V30.226a2.249,2.249,0,0,1,1.462-2.194,6.39,6.39,0,0,1,4.477,0l.033.012A2.412,2.412,0,0,1,10.1,30.226V55.812a.937.937,0,0,1-.937.937H5.094L7.2,61.325a.937.937,0,0,1-.851,1.329ZM4.568,54.875H8.223V30.226a.562.562,0,0,0-.246-.438,4.505,4.505,0,0,0-3.167,0l-.04.014c-.14.047-.2.252-.2.423Z" transform="translate(-1889.944 4891.329)" fill="#f0f643"/>
      <path id="Path_45211" data-name="Path 45211" d="M6.338,27.625a6.169,6.169,0,0,1,2.205.407A2.343,2.343,0,0,1,10.1,30.226v2.156a.937.937,0,0,1-.937.937H3.537a.937.937,0,0,1-.937-.937V30.226a2.412,2.412,0,0,1,1.433-2.182l.033-.012a6.748,6.748,0,0,1,2.272-.407Zm1.886,3.819V30.226a.469.469,0,0,0-.3-.423l-.04-.014a4.505,4.505,0,0,0-3.167,0,.562.562,0,0,0-.246.437v1.218Z" transform="translate(-1889.944 4891.33)" fill="#f0f643"/>
      <path id="Path_45215" data-name="Path 45215" d="M1.127,0A1.127,1.127,0,0,1,2.254,1.127V6.371A1.127,1.127,0,1,1,0,6.371V1.127A1.127,1.127,0,0,1,1.127,0Z" transform="matrix(0.914, 0.407, -0.407, 0.914, -1881.905, 4946.233)" fill="#f0f643"/>
      <path id="Path_45212" data-name="Path 45212" d="M12.116,4.8a.937.937,0,0,1,.52.158,15.746,15.746,0,0,0,5.133,2.3l.058.016a16.709,16.709,0,0,0,3.546.711.937.937,0,0,1,.865.937A21.381,21.381,0,0,1,19.6,19.245a21.568,21.568,0,0,1-6.969,7.522.937.937,0,0,1-1.031,0,21.942,21.942,0,0,1-7.013-7.54A20.929,20.929,0,0,1,1.9,9.018V8.924a.937.937,0,0,1,.871-.937A23,23,0,0,0,6.352,7.36a18.755,18.755,0,0,0,5.249-2.4A.937.937,0,0,1,12.116,4.8Zm5.189,4.278a17.283,17.283,0,0,1-5.189-2.226A20.78,20.78,0,0,1,6.844,9.169L6.8,9.182c-.966.223-1.958.452-3.008.588a19.431,19.431,0,0,0,8.326,15.077,19.462,19.462,0,0,0,8.23-15.084,19.726,19.726,0,0,1-3.04-.684Z" transform="translate(-1889.9 4892.762)" fill="#f0f643"/>
      <path id="Path_45213" data-name="Path 45213" d="M10.805,18.915a.937.937,0,0,1-.647-.259L8.191,16.782a.937.937,0,1,1,1.293-1.357l1.3,1.241,4.6-4.686a.937.937,0,1,1,1.337,1.312l-5.249,5.342a.937.937,0,0,1-.669.281Z" transform="translate(-1890.277 4892.33)" fill="#f0f643"/>
      <path id="Path_45214" data-name="Path 45214" d="M40.078,51.184a4.422,4.422,0,0,1-2.5-.669,3.311,3.311,0,0,1-.824-.783c-.789.9-1.695,1.555-2.645,1.265a2.249,2.249,0,0,1-1.384-1.943,6.894,6.894,0,0,1-.123-1.218.937.937,0,0,1,1.874,0h0a4.124,4.124,0,0,0,.205,1.282,6.541,6.541,0,0,0,1.547-1.8.945.945,0,0,1,1.059-.387.92.92,0,0,1,.656.882,1.575,1.575,0,0,0,.693,1.158c.532.343,1.9.734,5.061-.5a.937.937,0,1,1,.684,1.745,12.128,12.128,0,0,1-4.3.976Z" transform="translate(-1889.368 4890.225)" fill="#f0f643"/>
    </g>
  </g>
</svg>
