<svg xmlns="http://www.w3.org/2000/svg" xmlns:xlink="http://www.w3.org/1999/xlink" width="60" height="60" viewBox="0 0 60 60">
  <defs>
    <clipPath id="clip-path">
      <path id="Path_45240" data-name="Path 45240" d="M0-682.665H60v60H0Z" transform="translate(0 682.665)" fill="none"/>
    </clipPath>
  </defs>
  <g id="Members" transform="translate(0 -0.002)">
    <path id="Path_45216" data-name="Path 45216" d="M-59.8,1h-5.763a1,1,0,0,1-1-1,1,1,0,0,1,1-1H-59.8a1,1,0,0,1,1,1A1,1,0,0,1-59.8,1Z" transform="translate(83.965 31.659)" fill="#f0f643"/>
    <path id="Path_45217" data-name="Path 45217" d="M-59.8,1h-5.763a1,1,0,0,1-1-1,1,1,0,0,1,1-1H-59.8a1,1,0,0,1,1,1A1,1,0,0,1-59.8,1Z" transform="translate(101.405 31.659)" fill="#f0f643"/>
    <g id="Group_36" data-name="Group 36" transform="translate(0 0.002)" clip-path="url(#clip-path)">
      <path id="Path_45218" data-name="Path 45218" d="M0-63.541H-.06a1,1,0,0,1-.69-.334A1,1,0,0,1-1-64.6,5.708,5.708,0,0,1,.179-67.75,5.708,5.708,0,0,1,2.934-69.7l6.1-2.007a1,1,0,0,1,1.263.637,1,1,0,0,1-.637,1.263L3.559-67.8A3.71,3.71,0,0,0,1-64.481a1,1,0,0,1-1,.94Z" transform="translate(18.171 89.277)" fill="#f0f643"/>
      <path id="Path_45219" data-name="Path 45219" d="M9.342,7.219a1,1,0,0,1-1-.941,3.71,3.71,0,0,0-2.56-3.321L-.313.95A1,1,0,0,1-.95-.313,1,1,0,0,1,.313-.95l6.1,2.007a5.732,5.732,0,0,1,3.932,5.1A1,1,0,0,1,9.4,7.217Z" transform="translate(32.486 18.517)" fill="#f0f643"/>
      <path id="Path_45220" data-name="Path 45220" d="M-54.085,6.445a3.49,3.49,0,0,1-3.486-3.486V0a1,1,0,0,1,1-1,1,1,0,0,1,1,1V2.959a1.488,1.488,0,0,0,1.486,1.486A1.488,1.488,0,0,0-52.6,2.959V0a1,1,0,0,1,1-1,1,1,0,0,1,1,1V2.959a3.49,3.49,0,0,1-3.485,3.486Z" transform="translate(84.084 15.558)" fill="#f0f643"/>
      <path id="Path_45221" data-name="Path 45221" d="M-123.62-65.651a6.69,6.69,0,0,1,6.682,6.682v3.788A6.69,6.69,0,0,1-123.62-48.5a6.69,6.69,0,0,1-6.68-6.68v-3.788a6.69,6.69,0,0,1,6.68-6.683Zm0,15.152a4.687,4.687,0,0,0,4.682-4.682v-3.788a4.687,4.687,0,0,0-4.682-4.682,4.688,4.688,0,0,0-4.682,4.682v3.788A4.688,4.688,0,0,0-123.62-50.5Z" transform="translate(153.62 65.529)" fill="#f0f643"/>
      <path id="Path_45222" data-name="Path 45222" d="M0-58.469a1.007,1.007,0,0,1-.165-.014,1,1,0,0,1-.823-1.15,5.722,5.722,0,0,1,3.864-4.51l6.1-2.006a1,1,0,0,1,1.262.637A1,1,0,0,1,9.6-64.25L3.5-62.244A3.727,3.727,0,0,0,.987-59.306,1,1,0,0,1,0-58.469Z" transform="translate(35.509 103.486)" fill="#f0f643"/>
      <path id="Path_45223" data-name="Path 45223" d="M-179.357,2.182H-196.64a1,1,0,0,1-1-1,1,1,0,0,1,1-1h16.283V0a1,1,0,0,1,1-1,1,1,0,0,1,1,1V1.182A1,1,0,0,1-179.357,2.182Z" transform="translate(238.478 50.244)" fill="#f0f643"/>
      <path id="Path_45224" data-name="Path 45224" d="M9.352,8.852a1,1,0,0,1-1-1V6.505A3.73,3.73,0,0,0,5.784,2.956L-.313.95A1,1,0,0,1-.95-.313,1,1,0,0,1,.313-.95l6.1,2.006A5.726,5.726,0,0,1,10.355,6.5V7.852a1,1,0,0,1-1,1Z" transform="translate(49.769 38.286)" fill="#f0f643"/>
      <path id="Path_45225" data-name="Path 45225" d="M9.287,6.731A1,1,0,0,1,8.3,5.894,3.727,3.727,0,0,0,5.784,2.956L-.313.95A1,1,0,0,1-.95-.313,1,1,0,0,1,.313-.95l6.1,2.006a5.722,5.722,0,0,1,3.865,4.511A1,1,0,0,1,9.29,6.731Z" transform="translate(15.203 38.286)" fill="#f0f643"/>
      <path id="Path_45226" data-name="Path 45226" d="M-179.357-11.271H-196.64a1,1,0,0,1-1-1v-1.182a1,1,0,0,1,1-1,1,1,0,0,1,1,1v.182h16.283a1,1,0,0,1,1,1A1,1,0,0,1-179.357-11.271Z" transform="translate(197.518 63.697)" fill="#f0f643"/>
      <path id="Path_45227" data-name="Path 45227" d="M0-80.486a1,1,0,0,1-1-1v-1.347a5.726,5.726,0,0,1,3.941-5.449l6.1-2.006a1,1,0,0,1,1.262.637,1,1,0,0,1-.637,1.262l-6.1,2.006A3.73,3.73,0,0,0,1-82.833v1.347a1,1,0,0,1-1,1Z" transform="translate(0.879 127.625)" fill="#f0f643"/>
      <path id="Path_45228" data-name="Path 45228" d="M-54.083,6.445a3.49,3.49,0,0,1-3.486-3.486V0a1,1,0,0,1,1-1,1,1,0,0,1,1,1V2.959a1.488,1.488,0,0,0,1.486,1.486A1.488,1.488,0,0,0-52.6,2.959V0a1,1,0,0,1,1-1,1,1,0,0,1,1,1V2.959a3.49,3.49,0,0,1-3.483,3.486Z" transform="translate(101.366 35.327)" fill="#f0f643"/>
      <path id="Path_45229" data-name="Path 45229" d="M-123.619-65.651a6.69,6.69,0,0,1,6.682,6.682v3.788a6.69,6.69,0,0,1-6.682,6.682A6.69,6.69,0,0,1-130.3-55.18v-3.788a6.69,6.69,0,0,1,6.681-6.683Zm0,15.152a4.687,4.687,0,0,0,4.682-4.682v-3.788a4.687,4.687,0,0,0-4.682-4.682,4.687,4.687,0,0,0-4.682,4.682v3.788a4.687,4.687,0,0,0,4.682,4.681Z" transform="translate(170.902 85.299)" fill="#f0f643"/>
      <path id="Path_45230" data-name="Path 45230" d="M0,4.078a1,1,0,0,1-1-1V0A1,1,0,0,1,0-1,1,1,0,0,1,1,0V3.078a1,1,0,0,1-1,1Z" transform="translate(54.149 48.349)" fill="#f0f643"/>
      <path id="Path_45231" data-name="Path 45231" d="M-54.083,6.445a3.49,3.49,0,0,1-3.486-3.486V0a1,1,0,0,1,1-1,1,1,0,0,1,1,1V2.959a1.488,1.488,0,0,0,1.486,1.486A1.488,1.488,0,0,0-52.6,2.959V0a1,1,0,0,1,1-1,1,1,0,0,1,1,1V2.959a3.49,3.49,0,0,1-3.483,3.486Z" transform="translate(66.8 35.327)" fill="#f0f643"/>
      <path id="Path_45232" data-name="Path 45232" d="M-123.619-65.651a6.69,6.69,0,0,1,6.682,6.682v3.788a6.69,6.69,0,0,1-6.682,6.682A6.69,6.69,0,0,1-130.3-55.18v-3.788a6.69,6.69,0,0,1,6.681-6.683Zm0,15.152a4.687,4.687,0,0,0,4.682-4.682v-3.788a4.687,4.687,0,0,0-4.682-4.682,4.688,4.688,0,0,0-4.682,4.682v3.788a4.688,4.688,0,0,0,4.682,4.681Z" transform="translate(136.336 85.299)" fill="#f0f643"/>
      <path id="Path_45233" data-name="Path 45233" d="M0,4.078a1,1,0,0,1-1-1V0A1,1,0,0,1,0-1,1,1,0,0,1,1,0V3.078a1,1,0,0,1-1,1Z" transform="translate(5.851 48.349)" fill="#f0f643"/>
      <path id="Path_45234" data-name="Path 45234" d="M-245.7-152.719h-23.676a1,1,0,0,1-1-1v-9.6a5.724,5.724,0,0,1,3.942-5.448l6.1-2.007a1,1,0,0,1,1.263.637,1,1,0,0,1-.637,1.263l-6.1,2.007a3.728,3.728,0,0,0-2.568,3.548v8.6H-246.7v-.174a1,1,0,0,1,1-1,1,1,0,0,1,1,1v1.174A1,1,0,0,1-245.7-152.719Z" transform="translate(287.539 212.84)" fill="#f0f643"/>
      <path id="Path_45235" data-name="Path 45235" d="M9.352,11.822a1,1,0,0,1-1-1V6.5A3.728,3.728,0,0,0,5.784,2.957L-.313.95A1,1,0,0,1-.95-.313,1,1,0,0,1,.313-.95l6.1,2.007A5.724,5.724,0,0,1,10.352,6.5v4.317a1,1,0,0,1-1,1.005Z" transform="translate(32.486 43.022)" fill="#f0f643"/>
      <path id="Path_45236" data-name="Path 45236" d="M-54.085,6.445a3.49,3.49,0,0,1-3.486-3.486V0a1,1,0,0,1,1-1,1,1,0,0,1,1,1V2.959a1.488,1.488,0,0,0,1.486,1.486A1.488,1.488,0,0,0-52.6,2.959V0a1,1,0,0,1,1-1,1,1,0,0,1,1,1V2.959a3.49,3.49,0,0,1-3.485,3.486Z" transform="translate(84.084 40.062)" fill="#f0f643"/>
      <path id="Path_45237" data-name="Path 45237" d="M-123.62-65.651a6.69,6.69,0,0,1,6.682,6.682v3.788A6.69,6.69,0,0,1-123.62-48.5a6.69,6.69,0,0,1-6.68-6.68v-3.788a6.69,6.69,0,0,1,6.68-6.683Zm0,15.152a4.687,4.687,0,0,0,4.682-4.682v-3.788a4.687,4.687,0,0,0-4.682-4.682,4.688,4.688,0,0,0-4.682,4.682v3.788A4.688,4.688,0,0,0-123.62-50.5Z" transform="translate(153.62 90.034)" fill="#f0f643"/>
      <path id="Path_45238" data-name="Path 45238" d="M0,7.037a1,1,0,0,1-1-1V0A1,1,0,0,1,0-1,1,1,0,0,1,1,0V6.037a1,1,0,0,1-1,1Z" transform="translate(36.866 53.084)" fill="#f0f643"/>
      <path id="Path_45239" data-name="Path 45239" d="M0,7.037a1,1,0,0,1-1-1V0A1,1,0,0,1,0-1,1,1,0,0,1,1,0V6.037a1,1,0,0,1-1,1Z" transform="translate(23.134 53.084)" fill="#f0f643"/>
    </g>
  </g>
</svg>
