<svg xmlns="http://www.w3.org/2000/svg" xmlns:xlink="http://www.w3.org/1999/xlink" width="60" height="60" viewBox="0 0 60 60">
  <defs>
    <clipPath id="clip-path">
      <circle id="Ellipse_15" data-name="Ellipse 15" cx="15" cy="15" r="15" transform="translate(-1787 5046)" fill="#f0f643" stroke="#fff" stroke-width="1"/>
    </clipPath>
  </defs>
  <g id="Group_37" data-name="Group 37" transform="translate(1802 -5031)">
    <g id="bg" transform="translate(-1802 5031)" fill="#f0f643" stroke="#707070" stroke-width="1" opacity="0">
      <rect width="60" height="60" stroke="none"/>
      <rect x="0.5" y="0.5" width="59" height="59" fill="none"/>
    </g>
    <g id="Visitors" transform="translate(-1830.451 5013.99)">
      <path id="Path_45216" data-name="Path 45216" d="M37.222,74.956a1.15,1.15,0,0,1-.913-.447,28.1,28.1,0,0,1,2.357-37.023,27.777,27.777,0,0,1,16.587-8.032,28.211,28.211,0,0,1,17.7,3.8,1.154,1.154,0,0,1-1.188,1.979A25.765,25.765,0,0,0,38.133,73.094a1.156,1.156,0,0,1-.912,1.862Z" transform="translate(0 -10.489)" fill="#f0f643"/>
      <path id="Path_45217" data-name="Path 45217" d="M148.025,26.322a1.154,1.154,0,0,1-.28-2.273l4.484-1.121-1.121-4.484a1.154,1.154,0,1,1,2.239-.56l1.4,5.6a1.154,1.154,0,0,1-.839,1.4l-5.6,1.4A1.17,1.17,0,0,1,148.025,26.322Zm-8.2,48.587A28.235,28.235,0,0,1,126,71.305a1.154,1.154,0,1,1,1.134-2.011,25.766,25.766,0,0,0,33.022-38.213,1.154,1.154,0,1,1,1.823-1.415,28.1,28.1,0,0,1-2.355,37.023,28,28,0,0,1-19.808,8.218Z" transform="translate(-81.389)" fill="#f0f643"/>
      <path id="Path_45218" data-name="Path 45218" d="M114.909,156.588a1.15,1.15,0,0,1-1.107-.844l-1.548-5.563a1.155,1.155,0,0,1,.8-1.422l5.543-1.553a1.154,1.154,0,0,1,.619,2.223l-4.436,1.243,1.239,4.452a1.149,1.149,0,0,1-1.108,1.464Z" transform="translate(-68.075 -79.578)" fill="#f0f643"/>
    </g>
    <g id="Mask_Group_1" data-name="Mask Group 1" transform="translate(0 3)" clip-path="url(#clip-path)">
      <path id="Path_45219" data-name="Path 45219" d="M1801.377-5011.383h-15.7a.84.84,0,0,1-.84-.84v-8.053a4.807,4.807,0,0,1,3.31-4.575l4.539-1.492v-1.47a5.611,5.611,0,0,1-2.68-4.78v-3.179a5.616,5.616,0,0,1,5.607-5.611,5.616,5.616,0,0,1,5.609,5.609v3.18a5.61,5.61,0,0,1-2.684,4.782v1.466l4.545,1.5a4.806,4.806,0,0,1,3.307,4.57v3.623a.841.841,0,0,1-.244.6.843.843,0,0,1-.6.248.84.84,0,0,1-.839-.84v-3.627a3.129,3.129,0,0,0-2.156-2.974l-4.229-1.392a2.931,2.931,0,0,1-2.714,1.835,2.933,2.933,0,0,1-2.715-1.835l-4.225,1.392a3.129,3.129,0,0,0-2.156,2.978v7.214h2.494v-4.229a.839.839,0,0,1,.84-.839.839.839,0,0,1,.839.839v4.229h9.849v-4.229a.838.838,0,0,1,.839-.839.839.839,0,0,1,.839.839v4.229h2.5v-.146a.84.84,0,0,1,.839-.84.839.839,0,0,1,.839.84v.985a.839.839,0,0,1-.839.84Zm-5.764-13.107a1.249,1.249,0,0,0,1.246-1.248v-1.389a5.662,5.662,0,0,1-1.246.14,5.616,5.616,0,0,1-1.248-.141v1.3a.831.831,0,0,1,0,.153A1.249,1.249,0,0,0,1795.613-5024.49Zm-3.93-11.284v3.18a3.935,3.935,0,0,0,3.93,3.929v0a3.934,3.934,0,0,0,3.93-3.931v-3.18a3.933,3.933,0,0,0-3.93-3.93A3.935,3.935,0,0,0,1791.683-5035.774Z" transform="translate(-3567.614 10087.383)" fill="#f0f643"/>
    </g>
    <g id="Ellipse_16" data-name="Ellipse 16" transform="translate(-1790 5043)" fill="none" stroke="#f0f643" stroke-width="2">
      <circle cx="18" cy="18" r="18" stroke="none"/>
      <circle cx="18" cy="18" r="17" fill="none"/>
    </g>
  </g>
</svg>
